<?xml version="1.0" standalone="no"?>
<!DOCTYPE svg PUBLIC "-//W3C//DTD SVG 1.1//EN" "http://www.w3.org/Graphics/SVG/1.1/DTD/svg11.dtd" >
<svg>
<metadata>
Created by FontForge 20120731 at Fri Sep 19 14:48:54 2014
 By World Wide Web Server
Copyright (c) 2012 by Glenjan. All rights reserved.
</metadata>
<defs>
<font id="Room-Thin" horiz-adv-x="560" >
  <font-face 
    font-family="Room"
    font-weight="100"
    font-stretch="normal"
    units-per-em="1000"
    panose-1="2 0 5 6 0 0 0 2 0 4"
    ascent="825"
    descent="-175"
    x-height="500"
    cap-height="600"
    bbox="-81 -218 1063 829"
    underline-thickness="50"
    underline-position="-50"
    unicode-range="U+0020-2265"
  />
<missing-glyph horiz-adv-x="300" 
 />
    <glyph glyph-name=".notdef" horiz-adv-x="300" 
 />
    <glyph glyph-name="NULL" horiz-adv-x="0" 
 />
    <glyph glyph-name="CR" horiz-adv-x="300" 
 />
    <glyph glyph-name="space" unicode=" " horiz-adv-x="300" 
 />
    <glyph glyph-name="space" unicode="&#xa0;" horiz-adv-x="300" 
 />
    <glyph glyph-name="exclam" unicode="!" horiz-adv-x="168" 
d="M59 654h51v-138l-6 -378h-40l-5 378v138zM39 39c0 27 18 45 45 45s45 -18 45 -45s-18 -45 -45 -45s-45 18 -45 45z" />
    <glyph glyph-name="quotedbl" unicode="&#x22;" horiz-adv-x="229" 
d="M55 448l-12 152h58l-11 -152h-35zM139 448l-12 152h58l-11 -152h-35z" />
    <glyph glyph-name="numbersign" unicode="#" horiz-adv-x="428" 
d="M123 114l6 89h-84v39h89l6 62h-95v40h98l8 92l41 -3l-7 -89h68l7 92l42 -3l-8 -89h90v-40h-94l-6 -62h100v-39h-104l-7 -92l-40 3l6 89h-67l-8 -92zM181 304l-6 -62h68l6 62h-68z" />
    <glyph glyph-name="dollar" unicode="$" horiz-adv-x="495" 
d="M34 381c0 44 21 73 52 92c35 23 79 31 122 34v59h55v-57c60 -3 115 -15 172 -39l-17 -38c-53 19 -110 31 -171 31c-40 0 -90 -4 -127 -24c-23 -15 -35 -32 -35 -60c0 -27 13 -41 32 -52s43 -17 67 -21l114 -20c51 -9 97 -21 129 -52c23 -21 38 -48 38 -91
c0 -40 -22 -83 -62 -112c-32 -24 -76 -36 -140 -40v-57h-55v58c-64 3 -126 16 -179 37l14 43c63 -20 131 -33 183 -33c49 0 117 2 154 36c16 15 31 36 31 65c0 31 -11 49 -28 64c-23 17 -56 22 -91 29l-124 23c-35 7 -70 17 -95 38c-24 19 -39 47 -39 87z" />
    <glyph glyph-name="uni0025" unicode="%" horiz-adv-x="647" 
d="M298 373c0 -39 -15 -72 -38 -96c-25 -27 -59 -40 -100 -40s-75 13 -100 40c-23 24 -38 57 -38 96s15 72 38 96c25 27 59 40 100 40s75 -13 100 -40c23 -24 38 -57 38 -96zM123 12l341 495l36 -23l-340 -496zM64 373c0 -25 8 -47 23 -64c19 -20 42 -32 73 -32s54 12 73 32
c15 17 23 39 23 64s-8 47 -23 64c-19 21 -44 32 -73 32s-54 -11 -73 -32c-15 -17 -23 -39 -23 -64zM613 126c0 -39 -15 -72 -38 -96c-25 -27 -59 -40 -100 -40s-75 13 -100 40c-23 24 -38 57 -38 96s15 72 38 96c25 27 59 40 100 40s75 -13 100 -40c23 -24 38 -57 38 -96z
M379 126c0 -25 8 -47 23 -64c19 -21 44 -32 73 -32c31 0 54 12 73 32c15 17 23 39 23 64s-8 47 -23 64c-19 20 -42 32 -73 32c-29 0 -54 -11 -73 -32c-15 -17 -23 -39 -23 -64z" />
    <glyph glyph-name="ampersand" unicode="&#x26;" horiz-adv-x="576" 
d="M435 537l-35 -27c-27 36 -65 57 -113 57c-37 0 -65 -9 -86 -26c-20 -17 -30 -40 -30 -70c0 -33 13 -59 37 -84l248 -261c19 21 28 47 35 78l44 -10c-9 -37 -19 -69 -46 -102l57 -62l-34 -31l-55 58c-45 -41 -112 -68 -192 -68c-57 0 -116 16 -160 51s-75 88 -75 156
c0 44 10 82 30 115c19 31 43 54 82 78c-15 23 -24 51 -24 76c0 41 15 75 40 99c31 31 77 47 129 47c67 0 117 -29 148 -74zM267 35c60 0 118 22 157 57l-255 265c-29 -17 -51 -40 -65 -67c-13 -25 -19 -56 -19 -93c0 -47 22 -86 53 -114c33 -31 78 -48 129 -48z" />
    <glyph glyph-name="quotesingle" unicode="'" horiz-adv-x="143" 
d="M55 448l-12 152h57l-12 -152h-33z" />
    <glyph glyph-name="parenleft" unicode="(" horiz-adv-x="168" 
d="M160 604c-53 -77 -83 -218 -83 -330c0 -111 30 -244 83 -318l-37 -18c-60 87 -91 199 -91 336c0 136 31 263 91 348z" />
    <glyph glyph-name="parenright" unicode=")" horiz-adv-x="168" 
d="M8 -44c52 76 82 219 82 330c0 113 -31 239 -82 317l37 19c60 -87 91 -200 91 -336s-31 -263 -91 -348z" />
    <glyph glyph-name="asterisk" unicode="*" horiz-adv-x="252" 
d="M149 604l-9 -84l75 33l10 -1l11 -38l-6 -5l-78 -16l50 -62l2 -12l-26 -21l-10 4l-44 71l-42 -70l-11 -5l-27 23l1 10l54 62l-81 18l-5 5l11 38l9 1l77 -34l-7 85l4 6h38z" />
    <glyph glyph-name="plus" unicode="+" horiz-adv-x="320" 
d="M20 294h119v120h40v-120h121v-40h-121v-120h-40v120h-119v40z" />
    <glyph glyph-name="comma" unicode="," horiz-adv-x="158" 
d="M35 38c0 25 17 45 44 45s44 -20 44 -45c0 -8 -2 -14 -5 -21l-39 -95l-27 4l8 73c-15 5 -25 22 -25 39z" />
    <glyph glyph-name="hyphen" unicode="-" horiz-adv-x="315" 
d="M17 284h281v-40h-281v40z" />
    <glyph glyph-name="period" unicode="." horiz-adv-x="158" 
d="M35 38c0 27 17 45 44 45s44 -18 44 -45s-17 -44 -44 -44s-44 17 -44 44z" />
    <glyph glyph-name="slash" unicode="/" horiz-adv-x="250" 
d="M3 -15l244 649l42 -15l-245 -650z" />
    <glyph glyph-name="zero" unicode="0" horiz-adv-x="674" 
d="M337 37c72 0 132 29 176 73c47 47 75 110 75 190c0 77 -27 139 -70 186c-44 49 -106 77 -181 77s-137 -28 -181 -77c-43 -47 -70 -109 -70 -186c0 -80 28 -143 75 -190c44 -44 104 -73 176 -73zM337 -11c-84 0 -158 30 -211 81c-60 59 -95 138 -95 230
c0 87 31 162 84 219c55 57 131 92 222 92s167 -35 222 -92c53 -57 85 -132 85 -219c0 -92 -36 -171 -96 -230c-53 -51 -127 -81 -211 -81z" />
    <glyph glyph-name="one" unicode="1" horiz-adv-x="235" 
d="M46 503l-18 34l130 63h27v-600h-52v540z" />
    <glyph glyph-name="two" unicode="2" horiz-adv-x="522" 
d="M36 0v45l288 219c36 28 61 47 81 74c19 25 30 54 30 93c0 51 -24 85 -64 108c-35 20 -75 28 -116 28c-93 0 -134 -27 -194 -71l-26 34c57 51 127 81 220 81c60 0 117 -14 160 -45c44 -31 72 -75 72 -139c0 -43 -14 -83 -41 -118c-23 -31 -55 -56 -102 -91l-231 -174h369
v-44h-446z" />
    <glyph glyph-name="three" unicode="3" horiz-adv-x="537" 
d="M254 33c81 0 123 19 159 54c29 27 43 61 43 102c0 35 -9 60 -29 84c-23 27 -61 42 -121 42h-170v42h170c41 0 72 14 91 43c10 17 15 37 15 62c0 39 -20 67 -51 83c-37 19 -82 24 -117 24c-67 0 -113 -17 -173 -57l-24 32c63 51 121 67 202 67c43 0 97 -9 141 -33
c43 -23 72 -60 72 -116c0 -28 -6 -53 -21 -76c-12 -17 -27 -31 -46 -40v-4c35 -12 61 -29 80 -56c21 -29 32 -57 32 -97c0 -49 -18 -99 -61 -138c-43 -37 -96 -62 -192 -62c-114 0 -179 40 -229 87l30 35c54 -48 101 -78 199 -78z" />
    <glyph glyph-name="four" unicode="4" horiz-adv-x="555" 
d="M25 97v42l387 461h47v-458h65v-40l-65 -5v-97h-54v97h-380zM405 142v383l-317 -383h317z" />
    <glyph glyph-name="five" unicode="5" horiz-adv-x="527" 
d="M242 33c65 0 125 17 164 57c25 27 41 63 41 111c0 47 -16 84 -43 111c-35 33 -86 51 -143 51c-64 0 -113 -9 -164 -33h-43v270h394v-45h-348v-182c47 23 100 33 157 33c61 0 124 -17 171 -56c41 -33 69 -82 69 -149c0 -61 -22 -107 -57 -142c-47 -47 -118 -70 -198 -70
c-113 0 -169 34 -217 79l29 36c52 -45 94 -71 188 -71z" />
    <glyph glyph-name="six" unicode="6" horiz-adv-x="558" 
d="M286 403c65 0 129 -15 173 -48c43 -31 69 -82 69 -153c0 -61 -24 -112 -63 -147c-47 -43 -111 -66 -180 -66s-121 21 -161 56c-65 56 -94 149 -94 256c0 97 31 186 95 245c41 39 97 65 169 65c79 0 136 -17 189 -58l-25 -37c-59 37 -98 52 -163 52
c-60 0 -103 -18 -135 -45c-41 -36 -63 -90 -76 -169c47 31 121 49 202 49zM285 33c57 0 109 16 148 55c28 28 44 65 44 114c0 52 -15 87 -46 114c-35 31 -88 43 -145 43c-93 0 -142 -14 -203 -46v-9c0 -84 14 -174 70 -225c31 -28 73 -46 132 -46z" />
    <glyph glyph-name="seven" unicode="7" horiz-adv-x="499" 
d="M40 556v44h444v-40l-286 -560h-55l285 556h-388z" />
    <glyph glyph-name="eight" unicode="8" horiz-adv-x="581" 
d="M289 -11c-64 0 -136 14 -191 54c-45 35 -68 88 -68 137c0 43 16 86 51 121c21 19 44 33 70 44c-20 15 -38 29 -50 49c-11 20 -17 43 -17 68c0 47 23 84 56 108c41 31 96 41 152 41c60 0 116 -12 157 -45c27 -23 44 -57 44 -101c0 -24 -7 -50 -23 -73
c-12 -19 -28 -33 -48 -41c40 -14 71 -34 92 -60c24 -29 37 -67 37 -106c0 -63 -25 -105 -64 -136c-52 -43 -127 -60 -198 -60zM289 568c-40 0 -85 -8 -117 -31c-23 -17 -37 -43 -37 -80c0 -27 10 -44 26 -59c31 -25 85 -30 128 -30c25 0 48 -1 71 -4c30 6 52 19 65 40
c12 17 18 38 18 63c0 39 -17 60 -44 75c-31 19 -71 26 -110 26zM289 322c-29 0 -55 2 -78 7c-39 -13 -70 -31 -97 -60c-23 -24 -31 -53 -31 -84c0 -41 17 -83 54 -110c43 -31 96 -42 152 -42s118 12 161 49c29 24 48 56 48 103c0 37 -14 74 -47 99c-41 32 -99 38 -162 38z
" />
    <glyph glyph-name="nine" unicode="9" horiz-adv-x="558" 
d="M273 197c-65 0 -129 15 -174 48c-43 31 -69 82 -69 153c0 61 25 112 64 147c47 43 111 66 180 66c68 0 120 -21 160 -56c65 -56 92 -149 92 -256c0 -96 -31 -188 -96 -248c-43 -39 -103 -62 -174 -62c-75 0 -139 20 -191 60l27 36c62 -40 101 -53 163 -53
c64 0 112 19 145 50c39 38 64 93 75 164c-47 -31 -122 -49 -202 -49zM274 567c-59 0 -110 -16 -149 -55c-27 -28 -44 -65 -44 -114c0 -52 15 -87 46 -114c36 -31 87 -43 146 -43c91 0 143 15 203 46v9c0 84 -16 173 -71 225c-31 28 -74 46 -131 46z" />
    <glyph glyph-name="colon" unicode=":" horiz-adv-x="170" 
d="M35 38c0 27 17 45 44 45s44 -18 44 -45s-17 -44 -44 -44s-44 17 -44 44zM35 324c0 27 17 45 44 45s44 -18 44 -45s-17 -44 -44 -44s-44 17 -44 44z" />
    <glyph glyph-name="semicolon" unicode=";" horiz-adv-x="170" 
d="M35 38c0 25 17 45 44 45s44 -20 44 -45c0 -8 -2 -14 -5 -21l-39 -95l-27 4l8 73c-15 5 -25 22 -25 39zM35 324c0 27 17 45 44 45s44 -18 44 -45s-17 -44 -44 -44s-44 17 -44 44z" />
    <glyph glyph-name="less" unicode="&#x3c;" horiz-adv-x="282" 
d="M233 413l19 -29l-170 -121l170 -121l-19 -29l-213 139v22z" />
    <glyph glyph-name="equal" unicode="=" horiz-adv-x="321" 
d="M17 227h288v-41h-288v41zM17 343h288v-42h-288v42z" />
    <glyph glyph-name="greater" unicode="&#x3e;" horiz-adv-x="282" 
d="M52 113l-19 29l171 121l-171 121l19 29l214 -139v-22z" />
    <glyph glyph-name="question" unicode="?" horiz-adv-x="503" 
d="M237 176l-2 -36h-46v39c0 28 7 52 22 71s37 33 68 46l45 19c24 11 47 21 66 40c19 21 28 46 28 77c0 47 -17 76 -44 99c-35 27 -84 34 -136 34c-76 0 -137 -22 -196 -78l-32 34c64 63 139 90 227 90c60 0 121 -9 165 -44c39 -31 68 -69 68 -129c0 -46 -15 -85 -45 -116
c-27 -28 -66 -45 -106 -61l-23 -9c-19 -7 -33 -17 -42 -29c-11 -13 -16 -28 -17 -47zM169 39c0 27 17 45 45 45c27 0 45 -18 45 -45s-18 -45 -45 -45c-28 0 -45 18 -45 45z" />
    <glyph glyph-name="at" unicode="@" horiz-adv-x="672" 
d="M521 89c-32 0 -60 15 -79 39c-40 -31 -71 -45 -118 -45c-45 0 -83 15 -114 44c-32 29 -51 69 -51 120c0 41 15 79 42 108c31 33 75 54 122 54c39 0 74 -7 109 -31l19 22l31 -7v-198c0 -13 1 -25 8 -36c7 -12 18 -21 33 -21c19 0 30 8 41 19c17 20 24 58 24 94
c0 65 -21 125 -56 166c-44 53 -116 82 -200 82c-72 0 -140 -25 -185 -72c-43 -43 -69 -101 -69 -176c0 -69 22 -129 62 -172c45 -51 111 -78 192 -78c60 0 114 9 173 33l17 -43c-59 -28 -123 -42 -190 -42c-93 0 -176 29 -232 89c-51 52 -79 124 -79 213c0 83 31 155 82 208
c56 59 137 91 229 91c105 0 194 -40 250 -112c40 -51 60 -114 60 -187c0 -49 -11 -101 -47 -133c-19 -17 -42 -29 -74 -29zM327 134c40 0 67 10 100 37c-3 11 -2 23 -2 36v122c-35 21 -59 29 -99 29c-31 0 -58 -10 -77 -29c-20 -19 -33 -47 -33 -82c0 -31 10 -60 29 -79
c20 -21 47 -34 82 -34z" />
    <glyph glyph-name="A" unicode="A" horiz-adv-x="670" 
d="M291 600h87l267 -600h-60l-54 121h-395l-53 -121h-58zM323 552l-167 -382h355l-164 382h-24z" />
    <glyph glyph-name="B" unicode="B" horiz-adv-x="600" 
d="M362 0h-312v600h299c59 0 105 -16 138 -49c23 -23 37 -56 37 -96c0 -25 -6 -49 -19 -71c-12 -21 -28 -35 -51 -50v-4c33 -15 61 -37 76 -60c20 -29 30 -62 30 -97c0 -51 -18 -91 -49 -122c-36 -32 -85 -51 -149 -51zM506 174c0 34 -9 62 -27 83c-24 29 -61 44 -110 44
h-262v-255h256c49 0 85 14 109 41c21 23 34 52 34 87zM468 449c0 28 -10 55 -29 74c-20 17 -48 30 -96 30h-236v-204h253c38 0 65 10 82 31s26 44 26 69z" />
    <glyph glyph-name="C" unicode="C" horiz-adv-x="602" 
d="M87 302c0 -77 27 -140 72 -187c47 -49 113 -77 190 -77c87 0 142 25 189 68l34 -37c-59 -51 -123 -80 -223 -80c-95 0 -171 35 -228 91c-56 56 -90 133 -90 222c0 87 34 163 90 219s135 90 228 90c100 0 164 -27 223 -80l-34 -37c-47 41 -102 68 -189 68
c-77 0 -140 -25 -188 -74c-45 -47 -74 -109 -74 -186z" />
    <glyph glyph-name="D" unicode="D" horiz-adv-x="632" 
d="M50 600h235c103 0 180 -34 233 -91c51 -53 79 -125 79 -209c0 -91 -31 -166 -87 -219c-53 -51 -128 -81 -225 -81h-235v600zM281 550h-174v-501h174c87 0 148 26 191 70c44 45 69 108 69 181c0 72 -25 135 -68 179c-43 45 -104 71 -192 71z" />
    <glyph glyph-name="E" unicode="E" horiz-adv-x="555" 
d="M50 0v600h450v-50h-394v-207h352v-49h-352v-245h409v-49h-465z" />
    <glyph glyph-name="F" unicode="F" horiz-adv-x="519" 
d="M50 600h439v-50h-383v-225h340v-49h-340v-276h-56v600z" />
    <glyph glyph-name="G" unicode="G" horiz-adv-x="639" 
d="M589 332v-329l-24 -5l-19 57c-56 -43 -112 -66 -192 -66s-150 25 -206 69c-72 59 -112 145 -112 244c0 87 34 163 90 219c57 56 135 90 230 90c99 0 171 -28 231 -79l-30 -36c-53 43 -116 66 -201 66c-77 0 -144 -28 -192 -77c-44 -47 -72 -108 -72 -183
c0 -80 30 -144 77 -191c48 -47 112 -73 185 -73c76 0 130 21 181 58v190l-170 6v40h224z" />
    <glyph glyph-name="H" unicode="H" horiz-adv-x="620" 
d="M514 600h56v-600h-56v303h-409v-303h-55v600h55v-249h409v249z" />
    <glyph glyph-name="I" unicode="I" horiz-adv-x="156" 
d="M106 600v-600h-56v600h56z" />
    <glyph glyph-name="J" unicode="J" horiz-adv-x="511" 
d="M410 600h56v-334c0 -93 -23 -161 -70 -205c-45 -44 -108 -72 -192 -72c-72 0 -142 29 -189 73l30 41c45 -37 96 -65 156 -65c64 0 114 15 150 51c40 40 59 85 59 164v347z" />
    <glyph glyph-name="K" unicode="K" horiz-adv-x="594" 
d="M50 600h56v-255h179l200 255h64l-216 -274l241 -326h-64l-224 298h-180v-298h-56v600z" />
    <glyph glyph-name="L" unicode="L" horiz-adv-x="541" 
d="M516 47v-47h-466v600h55v-553h411z" />
    <glyph glyph-name="M" unicode="M" horiz-adv-x="751" 
d="M50 600h80l248 -346l246 346h77v-600h-55v541h-8l-258 -365h-11l-261 365h-8v-541h-50v600z" />
    <glyph glyph-name="N" unicode="N" horiz-adv-x="657" 
d="M555 600h52v-600h-62l-441 530v-530h-54v600h63l442 -528v528z" />
    <glyph glyph-name="O" unicode="O" horiz-adv-x="694" 
d="M347 611c92 0 171 -34 228 -90c56 -56 89 -134 89 -221c0 -85 -31 -161 -87 -217c-56 -59 -135 -94 -230 -94c-97 0 -179 37 -236 98c-52 57 -81 129 -81 213s31 159 84 215c56 60 137 96 233 96zM86 300c0 -73 27 -135 68 -182c48 -52 116 -82 193 -82
c76 0 143 29 191 81c43 47 69 108 69 183c0 76 -27 139 -72 186c-47 49 -112 76 -188 76s-144 -28 -191 -79c-43 -47 -70 -108 -70 -183z" />
    <glyph glyph-name="P" unicode="P" horiz-adv-x="585" 
d="M555 388c0 -60 -24 -110 -61 -147c-40 -39 -96 -62 -165 -62h-222v-179h-57v600h279c77 0 138 -29 179 -77c31 -37 47 -82 47 -135zM335 228c60 0 98 20 125 51c26 29 39 66 39 109s-13 80 -39 110c-29 33 -70 53 -134 53h-219v-323h228z" />
    <glyph glyph-name="Q" unicode="Q" horiz-adv-x="694" 
d="M347 611c92 0 171 -34 228 -90c56 -56 89 -134 89 -221c0 -85 -31 -161 -87 -217c-26 -27 -56 -48 -89 -64c47 -23 92 -54 139 -79c37 -19 74 -32 115 -37l4 -35c-9 -3 -20 -4 -33 -4c-55 0 -106 25 -153 54c-40 27 -79 55 -127 82c-28 -7 -57 -11 -86 -11
c-97 0 -179 37 -236 98c-52 57 -81 129 -81 213s31 159 84 215c56 60 137 96 233 96zM86 300c0 -73 27 -135 68 -182c48 -52 116 -82 193 -82c76 0 143 29 191 81c43 47 69 108 69 183c0 76 -27 139 -72 186c-47 49 -112 76 -188 76s-144 -28 -191 -79
c-43 -47 -70 -108 -70 -183z" />
    <glyph glyph-name="R" unicode="R" horiz-adv-x="591" 
d="M561 388c0 -49 -14 -91 -42 -127c-27 -35 -62 -60 -109 -73l114 -188h-59l-105 179h-254v-179h-56v600h285c68 0 125 -23 165 -62c39 -39 61 -90 61 -150zM106 551v-324h231c57 0 99 18 126 49c28 31 42 69 42 112s-15 81 -39 109c-28 33 -74 54 -135 54h-225z" />
    <glyph glyph-name="S" unicode="S" horiz-adv-x="571" 
d="M35 450c0 59 26 98 69 123c45 27 106 38 174 38c80 0 152 -15 225 -44l-18 -44c-61 24 -129 40 -201 40c-41 0 -100 -4 -143 -27c-31 -17 -53 -38 -53 -85c0 -32 15 -54 34 -67c24 -16 61 -25 88 -29l135 -23c60 -11 118 -27 155 -63c25 -24 41 -56 41 -103
c0 -44 -22 -94 -65 -127c-45 -35 -107 -50 -215 -50c-75 0 -162 18 -231 45l15 46c67 -21 158 -41 215 -41s137 0 186 38c24 19 40 47 40 86c0 36 -14 61 -38 80c-27 17 -66 29 -109 36l-139 23c-51 8 -92 22 -121 46c-28 23 -44 55 -44 102z" />
    <glyph glyph-name="T" unicode="T" horiz-adv-x="608" 
d="M25 553v47h558v-47h-251v-553h-56v553h-251z" />
    <glyph glyph-name="U" unicode="U" horiz-adv-x="614" 
d="M564 258c0 -85 -26 -152 -77 -201c-45 -43 -106 -68 -178 -68c-77 0 -140 29 -184 73c-47 47 -75 112 -75 196v342h56v-349c0 -68 22 -119 57 -154c36 -39 86 -61 146 -61s109 23 144 59s55 87 55 156v349h56v-342z" />
    <glyph glyph-name="V" unicode="V" horiz-adv-x="648" 
d="M366 0h-84l-257 600h62l229 -557h18l231 557h59z" />
    <glyph glyph-name="W" unicode="W" horiz-adv-x="957" 
d="M313 0h-86l-202 600h64l177 -556h12l159 556h83l165 -556h12l175 556h60l-199 -600h-88l-163 551h-12z" />
    <glyph glyph-name="X" unicode="X" horiz-adv-x="613" 
d="M109 600l197 -265l190 265h65l-216 -288l238 -312h-66l-211 286l-213 -286h-62l232 311l-219 289h65z" />
    <glyph glyph-name="Y" unicode="Y" horiz-adv-x="629" 
d="M343 0h-56v134l-261 466h64l224 -405h5l224 405h61l-261 -462v-138z" />
    <glyph glyph-name="Z" unicode="Z" horiz-adv-x="603" 
d="M563 50v-50h-523v30l450 528l-208 -5h-212v47h484v-40l-436 -516l200 6h245z" />
    <glyph glyph-name="bracketleft" unicode="[" horiz-adv-x="180" 
d="M98 606v-651h70v-43h-118v738h118v-44h-70z" />
    <glyph glyph-name="backslash" unicode="\" horiz-adv-x="250" 
d="M45 518l201 -533l-40 -16l-203 534z" />
    <glyph glyph-name="bracketright" unicode="]" horiz-adv-x="180" 
d="M82 -45v651h-70v44h118v-738h-118v43h70z" />
    <glyph glyph-name="asciicircum" unicode="^" horiz-adv-x="311" 
d="M291 456l-22 -20l-113 123l-115 -123l-21 19l123 154h24z" />
    <glyph glyph-name="underscore" unicode="_" horiz-adv-x="327" 
d="M0 -66h327v-40h-327v40z" />
    <glyph glyph-name="grave" unicode="`" horiz-adv-x="202" 
d="M97 703l55 -137l-31 -14l-71 128z" />
    <glyph glyph-name="a" unicode="a" horiz-adv-x="572" 
d="M247 500h77l223 -500h-58l-45 100h-320l-45 -100h-54zM276 453l-132 -308h281l-133 308h-16z" />
    <glyph glyph-name="b" unicode="b" horiz-adv-x="517" 
d="M313 0h-263v500h253c51 0 87 -15 112 -40c20 -21 32 -49 32 -82c0 -21 -5 -41 -15 -59c-9 -15 -21 -28 -38 -38v-4c23 -11 41 -28 56 -47c18 -26 27 -54 27 -85c0 -40 -16 -74 -43 -101c-29 -28 -70 -44 -121 -44zM425 147c0 29 -7 51 -22 68c-20 23 -48 35 -84 35h-215
v-206h211c37 0 65 12 86 36c16 19 24 42 24 67zM394 374c0 24 -8 43 -23 58s-37 23 -73 23h-194v-161h210c27 0 48 8 61 24c13 15 19 33 19 56z" />
    <glyph glyph-name="c" unicode="c" horiz-adv-x="523" 
d="M88 251c0 -63 21 -113 58 -152c39 -39 92 -61 153 -61c72 0 119 22 159 57l30 -36c-48 -44 -104 -68 -189 -68c-77 0 -142 28 -189 75c-48 47 -75 112 -75 185c0 72 28 135 75 182c48 47 112 76 189 76c81 0 141 -24 189 -68l-31 -35c-40 35 -86 56 -158 56
c-60 0 -112 -21 -151 -60c-37 -37 -60 -87 -60 -151z" />
    <glyph glyph-name="d" unicode="d" horiz-adv-x="543" 
d="M50 500h200c80 0 143 -27 188 -72c44 -44 70 -106 70 -178s-26 -135 -70 -179c-45 -45 -108 -71 -188 -71h-200v500zM246 453h-142v-407h142c71 0 122 21 157 60c34 38 51 86 51 144c0 59 -18 108 -55 146c-35 36 -85 57 -153 57z" />
    <glyph glyph-name="e" unicode="e" horiz-adv-x="481" 
d="M50 0v500h379v-47h-325v-163h290v-46h-290v-198h337v-46h-391z" />
    <glyph glyph-name="f" unicode="f" horiz-adv-x="448" 
d="M50 500h368v-47h-314v-173h279v-45h-279v-235h-54v500z" />
    <glyph glyph-name="g" unicode="g" horiz-adv-x="546" 
d="M497 279v-277l-30 -6l-10 44c-43 -31 -88 -49 -156 -49c-76 0 -144 26 -191 74c-47 49 -75 113 -75 186c0 72 26 134 71 181c48 48 116 77 196 77c84 0 143 -22 192 -65l-31 -36c-43 35 -89 54 -161 54c-60 0 -113 -20 -152 -59s-60 -88 -60 -152c0 -67 24 -119 64 -158
c37 -35 89 -57 146 -57c63 0 107 19 146 48v151l-141 5v39h192z" />
    <glyph glyph-name="h" unicode="h" horiz-adv-x="537" 
d="M433 500h54v-500h-54v245h-329v-245h-54v500h54v-209h329v209z" />
    <glyph glyph-name="i" unicode="i" horiz-adv-x="153" 
d="M50 500h53v-500h-53v500z" />
    <glyph glyph-name="j" unicode="j" horiz-adv-x="439" 
d="M341 500h53v-288c0 -76 -20 -125 -59 -164c-37 -36 -89 -57 -160 -57c-60 0 -121 23 -160 63l30 38c36 -31 75 -54 128 -54c47 0 88 11 119 39c36 35 49 73 49 124v299z" />
    <glyph glyph-name="k" unicode="k" horiz-adv-x="508" 
d="M50 500h54v-209h140l163 209h60l-180 -229l202 -271h-61l-185 247h-139v-247h-54v500z" />
    <glyph glyph-name="l" unicode="l" horiz-adv-x="475" 
d="M103 46h347v-46h-400v500h53v-454z" />
    <glyph glyph-name="m" unicode="m" horiz-adv-x="645" 
d="M50 500h72l201 -281l200 281h72v-500h-54v442h-4l-209 -294h-15l-211 294h-4v-442h-48v500z" />
    <glyph glyph-name="n" unicode="n" horiz-adv-x="565" 
d="M464 500h51v-500h-56l-357 432v-432h-52v500h57l357 -431v431z" />
    <glyph glyph-name="o" unicode="o" horiz-adv-x="590" 
d="M295 509c79 0 146 -30 193 -78c47 -47 70 -110 70 -181c0 -73 -26 -139 -75 -186c-47 -45 -112 -73 -188 -73c-77 0 -143 28 -190 75s-75 112 -75 184c0 75 29 141 80 188c47 44 109 71 185 71zM84 250c0 -63 22 -115 59 -152c40 -40 91 -60 152 -60c59 0 111 20 148 57
c39 39 63 91 63 155c0 65 -25 120 -64 157c-37 36 -90 55 -147 55c-63 0 -113 -20 -152 -61c-37 -37 -59 -90 -59 -151z" />
    <glyph glyph-name="p" unicode="p" horiz-adv-x="503" 
d="M473 323c0 -47 -18 -87 -46 -118c-35 -36 -84 -58 -141 -58h-182v-147h-54v500h236c56 0 104 -20 137 -55c31 -31 50 -73 50 -122zM292 193c43 0 70 15 93 39c21 24 34 56 34 91c0 36 -11 66 -32 89c-23 27 -56 42 -103 42h-180v-261h188z" />
    <glyph glyph-name="q" unicode="q" horiz-adv-x="588" 
d="M295 509c79 0 146 -30 193 -78c47 -47 70 -110 70 -181c0 -73 -26 -139 -75 -186c-20 -19 -42 -35 -65 -46c49 -27 79 -46 107 -61c47 -23 77 -27 98 -28l3 -34c-9 -2 -19 -3 -30 -3c-47 0 -85 18 -128 45c-33 20 -67 44 -104 63c-22 -6 -45 -9 -69 -9
c-77 0 -143 28 -190 75s-75 112 -75 184c0 75 29 141 80 188c47 44 109 71 185 71zM84 250c0 -63 22 -115 59 -152c40 -40 91 -60 152 -60c59 0 111 20 148 57c39 39 63 91 63 155c0 65 -25 120 -64 157c-37 36 -90 55 -147 55c-63 0 -113 -20 -152 -61
c-37 -37 -59 -90 -59 -151z" />
    <glyph glyph-name="r" unicode="r" horiz-adv-x="508" 
d="M478 323c0 -39 -12 -73 -33 -102c-23 -31 -52 -53 -89 -66l103 -155h-58l-96 147h-201v-147h-54v500h241c52 0 95 -16 130 -47c35 -32 57 -77 57 -130zM104 454v-261h190c43 0 75 16 96 39c23 25 34 55 34 92c0 33 -10 62 -30 85c-23 28 -59 45 -106 45h-184z" />
    <glyph glyph-name="s" unicode="s" horiz-adv-x="495" 
d="M34 380c0 44 21 74 52 93c45 29 110 36 155 36c68 0 130 -12 194 -39l-18 -41c-53 21 -109 34 -170 34c-40 0 -90 -4 -127 -24c-21 -13 -32 -33 -32 -60c0 -19 6 -33 19 -44c20 -19 48 -24 76 -29l115 -20c51 -9 100 -23 132 -55c20 -21 35 -49 35 -88
c0 -48 -18 -82 -47 -105c-45 -36 -116 -47 -191 -47c-67 0 -138 11 -198 38l19 46c60 -24 126 -36 178 -36c71 0 125 10 156 37c19 16 29 36 29 64c0 31 -11 48 -28 63c-23 17 -56 23 -91 30l-124 23c-33 7 -64 15 -89 34c-27 20 -45 47 -45 90z" />
    <glyph glyph-name="t" unicode="t" horiz-adv-x="519" 
d="M25 454v46h469v-46h-208v-454h-54v454h-207z" />
    <glyph glyph-name="u" unicode="u" horiz-adv-x="532" 
d="M482 211c0 -67 -23 -123 -66 -162c-37 -36 -89 -58 -150 -58c-64 0 -117 24 -154 61c-39 40 -62 95 -62 159v289h54v-295c0 -51 17 -91 45 -120c29 -31 70 -49 117 -49c49 0 90 19 118 48s44 70 44 121v295h54v-289z" />
    <glyph glyph-name="v" unicode="v" horiz-adv-x="553" 
d="M315 0h-77l-213 500h58l189 -452h11l189 452h56z" />
    <glyph glyph-name="w" unicode="w" horiz-adv-x="829" 
d="M282 0h-87l-165 500h59l147 -457h8l127 457h85l134 -457h8l144 457h57l-164 -500h-88l-132 456h-5z" />
    <glyph glyph-name="x" unicode="x" horiz-adv-x="520" 
d="M97 500l161 -214l155 214h62l-181 -240l201 -260h-63l-175 232l-171 -232h-61l196 260l-186 240h62z" />
    <glyph glyph-name="y" unicode="y" horiz-adv-x="537" 
d="M296 0h-54v117l-217 383h61l181 -327h4l183 327h58l-216 -380v-120z" />
    <glyph glyph-name="z" unicode="z" horiz-adv-x="518" 
d="M478 47v-47h-438v29l368 428l-164 -2h-179v45h413v-29l-362 -428l157 4h205z" />
    <glyph glyph-name="braceleft" unicode="{" horiz-adv-x="229" 
d="M194 606c-39 0 -58 -18 -58 -61v-163c0 -47 -14 -83 -41 -99v-4c29 -19 41 -52 41 -99v-163c0 -43 18 -61 58 -61h31v-44h-28c-59 0 -106 27 -106 103v188c0 35 -15 57 -54 57h-21v43h21c39 0 54 21 54 56v188c0 78 47 103 106 103h28v-44h-31z" />
    <glyph glyph-name="bar" unicode="|" horiz-adv-x="146" 
d="M50 650h46v-800h-46v800z" />
    <glyph glyph-name="braceright" unicode="}" horiz-adv-x="229" 
d="M35 -44c40 0 59 17 59 60v163c0 45 13 82 40 99v3c-29 19 -40 53 -40 100v164c0 43 -19 61 -59 61h-31v44h29c58 0 105 -27 105 -103v-189c0 -35 15 -57 55 -57h20v-43h-20c-40 0 -55 -21 -55 -56v-187c0 -79 -47 -103 -105 -103h-29v44h31z" />
    <glyph glyph-name="asciitilde" unicode="~" horiz-adv-x="357" 
d="M178 238c-25 9 -43 14 -70 14c-24 0 -45 -6 -65 -23l-20 32c31 24 56 34 87 34c27 0 45 -5 70 -14s42 -14 69 -14c24 0 46 8 66 24l19 -33c-29 -22 -58 -33 -87 -33c-27 0 -45 4 -69 13z" />
    <glyph glyph-name="exclamdown" unicode="&#xa1;" horiz-adv-x="176" 
d="M117 -49h-51v138l6 378h40l5 -378v-138zM137 566c0 -27 -18 -45 -45 -45s-45 18 -45 45s18 45 45 45s45 -18 45 -45z" />
    <glyph glyph-name="cent" unicode="&#xa2;" horiz-adv-x="523" 
d="M326 566v-57c69 -7 114 -28 161 -69l-30 -34c-40 35 -86 56 -158 56c-60 0 -112 -21 -151 -60c-37 -37 -60 -87 -60 -151c0 -63 21 -111 58 -150c39 -39 92 -63 153 -63c72 0 118 20 158 57l31 -35c-45 -41 -91 -65 -162 -69v-57h-55v58c-67 7 -118 32 -161 72
c-48 47 -75 114 -75 187c0 72 27 135 75 182c41 41 96 68 161 75v58h55z" />
    <glyph glyph-name="currency" unicode="&#xa4;" horiz-adv-x="378" 
d="M189 101c-37 0 -63 10 -88 27l-42 -39l-29 29l39 43c-17 24 -28 52 -28 89s10 64 29 89l-40 42l29 30l42 -40c25 17 51 28 88 28s63 -11 88 -28l42 40l29 -30l-39 -42c17 -24 29 -52 29 -89s-12 -64 -29 -89l40 -42l-30 -30l-42 39c-25 -17 -51 -27 -88 -27zM286 250
c0 28 -6 50 -23 69s-42 30 -74 30c-29 0 -53 -9 -72 -28c-16 -18 -24 -42 -24 -71c0 -28 6 -52 23 -71c16 -19 40 -29 73 -29c30 0 53 8 69 25c19 19 28 44 28 75z" />
    <glyph glyph-name="yen" unicode="&#xa5;" horiz-adv-x="550" 
d="M432 167h-312v45h90l-178 288h61l179 -291h9l181 291h56l-178 -288h92v-45zM120 123h312v-45h-130v-78h-53v78h-129v45z" />
    <glyph glyph-name="brokenbar" unicode="&#xa6;" horiz-adv-x="146" 
d="M50 650h46v-383h-46v383zM50 233h46v-383h-46v383z" />
    <glyph glyph-name="section" unicode="&#xa7;" horiz-adv-x="467" 
d="M365 586l-13 -34c-45 15 -74 21 -119 21c-31 0 -68 -4 -93 -20c-19 -11 -31 -28 -31 -52c0 -25 12 -42 29 -54c23 -16 54 -22 82 -26l59 -8c51 -7 90 -26 117 -53c25 -23 41 -58 41 -103c0 -23 -6 -44 -18 -63c-14 -24 -35 -44 -63 -61c35 -23 48 -55 48 -92
c0 -33 -13 -56 -33 -75c-32 -31 -82 -44 -138 -44c-64 0 -113 13 -160 37l15 35c41 -20 90 -33 139 -33c51 0 87 10 109 30c15 13 23 29 23 48c0 22 -7 39 -20 51c-17 16 -43 22 -71 27l-77 12c-53 8 -97 30 -125 58c-24 23 -36 53 -36 92c0 33 10 61 31 85
c15 18 35 32 60 42c-39 23 -58 50 -58 90c0 39 17 63 42 82c33 23 81 33 128 33c48 0 88 -8 132 -25zM204 383c-19 3 -25 3 -44 10c-27 -11 -47 -22 -63 -39c-17 -18 -25 -40 -25 -66c0 -31 10 -52 26 -69c25 -27 65 -40 108 -47l76 -12c17 -3 25 -6 37 -10
c21 11 39 24 52 40c15 19 23 38 23 65c0 36 -13 62 -34 82c-25 21 -57 32 -92 37z" />
    <glyph glyph-name="dieresis" unicode="&#xa8;" horiz-adv-x="365" 
d="M231 611c0 23 19 42 42 42s42 -19 42 -42s-19 -42 -42 -42s-42 19 -42 42zM50 611c0 23 19 42 42 42s42 -19 42 -42s-19 -42 -42 -42s-42 19 -42 42z" />
    <glyph glyph-name="copyright" unicode="&#xa9;" horiz-adv-x="579" 
d="M30 250c0 72 28 135 75 182c47 48 112 77 184 77c80 0 150 -36 198 -92c39 -45 61 -103 61 -167c0 -71 -27 -134 -74 -181c-47 -48 -112 -78 -185 -78c-68 0 -130 26 -177 69c-51 47 -82 114 -82 190zM71 250c0 -64 27 -121 71 -161c39 -35 91 -57 147 -57
c61 0 117 26 157 67c39 39 61 91 61 151c0 56 -19 104 -54 143c-40 47 -99 75 -164 75c-60 0 -114 -24 -154 -64c-39 -39 -64 -94 -64 -154zM371 186l27 -26c-27 -31 -63 -48 -106 -48c-39 0 -73 14 -100 41c-25 25 -41 61 -41 100c0 40 17 75 44 102c25 24 58 39 97 39
c43 0 81 -19 108 -50l-29 -27c-19 24 -48 37 -79 37c-27 0 -51 -11 -70 -28c-19 -19 -31 -44 -31 -73s12 -54 31 -73c19 -17 43 -28 70 -28c29 0 60 15 79 34z" />
    <glyph glyph-name="ordfeminine" unicode="&#xaa;" horiz-adv-x="307" 
d="M242 584l21 19l17 -6v-174c0 -27 3 -41 14 -61l-23 -15c-11 9 -19 19 -24 29c-27 -20 -50 -31 -85 -31c-43 0 -78 12 -105 37c-24 23 -39 54 -39 97c0 40 14 72 41 96c25 24 58 36 97 36c36 0 57 -6 86 -27zM240 550c-31 20 -49 25 -84 25c-28 0 -52 -9 -71 -27
c-17 -17 -28 -40 -28 -69c0 -30 10 -54 29 -72c19 -17 44 -26 75 -26c35 0 52 8 79 29v140z" />
    <glyph glyph-name="guillemotleft" unicode="&#xab;" horiz-adv-x="317" 
d="M20 250v25l135 138l26 -21l-107 -130l107 -129l-26 -21zM262 112l-136 138v24l136 139l25 -21l-106 -130l106 -129z" />
    <glyph glyph-name="logicalnot" unicode="&#xac;" horiz-adv-x="323" 
d="M261 206l-5 98h-236v42h283v-140h-42z" />
    <glyph glyph-name="uni00AD" unicode="&#xad;" horiz-adv-x="327" 
d="M17 284h281v-40h-281v40z" />
    <glyph glyph-name="registered" unicode="&#xae;" horiz-adv-x="390" 
d="M20 444c0 48 19 91 50 123c32 32 76 52 125 52c55 0 102 -23 134 -62c25 -31 41 -70 41 -113c0 -47 -18 -90 -49 -121c-32 -33 -75 -54 -126 -54c-49 0 -93 20 -125 52c-31 32 -50 75 -50 123zM54 444c0 -39 16 -75 41 -100s61 -41 100 -41c40 0 77 17 102 44
c24 25 39 58 39 97c0 35 -13 68 -34 92c-27 31 -64 49 -107 49c-40 0 -77 -17 -102 -44c-24 -25 -39 -58 -39 -97zM238 418l26 -58h-34l-21 51h-51v-51h-31v174h74c24 0 43 -7 56 -20c11 -11 17 -24 17 -41c0 -13 -3 -23 -9 -32c-7 -9 -16 -17 -27 -23zM158 505v-65h46
c14 0 24 3 29 8c7 5 10 13 10 24c0 8 -3 15 -8 22c-6 7 -17 11 -34 11h-43z" />
    <glyph glyph-name="overscore" unicode="&#xaf;" horiz-adv-x="387" 
d="M50 614h287v-43h-287v43z" />
    <glyph glyph-name="degree" unicode="&#xb0;" horiz-adv-x="298" 
d="M13 475c0 39 15 71 40 96c25 24 59 40 96 40c39 0 72 -15 97 -40c24 -25 39 -59 39 -96s-15 -71 -39 -96c-25 -25 -58 -40 -97 -40s-72 15 -97 40c-24 25 -39 59 -39 96zM52 475c0 -28 9 -51 28 -70c18 -18 41 -27 69 -27s51 10 70 29c18 18 27 41 27 68s-9 50 -28 69
c-17 17 -42 28 -69 28s-50 -9 -69 -28c-17 -17 -28 -42 -28 -69z" />
    <glyph glyph-name="plusminus" unicode="&#xb1;" horiz-adv-x="320" 
d="M20 340h119v120h40v-120h121v-39h-121v-120h-40v120h-119v39zM20 147h280v-40h-280v40z" />
    <glyph glyph-name="twosuperior" unicode="&#xb2;" horiz-adv-x="268" 
d="M27 329v33l126 88c13 11 25 20 33 32c7 11 12 23 12 38c0 17 -10 31 -22 38c-11 7 -26 11 -44 11c-35 0 -57 -10 -86 -34l-23 28c35 33 65 45 109 45c29 0 56 -6 77 -22c19 -15 33 -37 33 -68c0 -23 -7 -40 -18 -57c-11 -15 -26 -30 -45 -43l-76 -50h141v-39h-217z" />
    <glyph glyph-name="threesuperior" unicode="&#xb3;" horiz-adv-x="291" 
d="M139 357c27 0 48 6 63 19c9 8 16 19 16 38c0 13 -5 24 -14 31c-10 8 -24 12 -42 12h-89v38h86c11 0 21 3 28 10s10 15 10 26c0 13 -5 22 -15 27c-13 9 -27 10 -47 10c-25 0 -48 -5 -76 -25l-21 30c31 24 62 33 99 33c32 0 55 -5 78 -21c15 -11 26 -30 26 -55
c0 -19 -7 -37 -23 -48c23 -11 44 -33 44 -68c0 -30 -11 -54 -32 -71c-22 -17 -52 -26 -91 -26c-51 0 -89 21 -114 46l26 30c31 -27 52 -36 88 -36z" />
    <glyph glyph-name="acute" unicode="&#xb4;" horiz-adv-x="201" 
d="M50 566l55 137l47 -23l-71 -128z" />
    <glyph glyph-name="mu" unicode="&#xb5;" horiz-adv-x="571" 
d="M526 2l-36 -4l-17 78c-53 -63 -115 -85 -204 -85c-48 0 -88 12 -120 37c-25 18 -45 43 -62 75l-3 -1l10 -256h-53v654h52v-207c0 -64 11 -128 36 -173c31 -56 83 -83 146 -83c86 0 133 17 198 82v381h53v-498z" />
    <glyph glyph-name="paragraph" unicode="&#xb6;" horiz-adv-x="441" 
d="M200 500h193l3 -22l-73 -12v-389l-15 -164l-19 -16l-7 4v563h-44v-434l-14 -153l-19 -17l-7 4v349c-37 0 -74 12 -103 39c-31 27 -50 64 -50 111c0 40 17 72 41 96c28 27 63 41 114 41z" />
    <glyph glyph-name="middot" unicode="&#xb7;" horiz-adv-x="176" 
d="M35 294c0 27 17 45 44 45s44 -18 44 -45s-17 -44 -44 -44s-44 17 -44 44z" />
    <glyph glyph-name="cedilla" unicode="&#xb8;" horiz-adv-x="221" 
d="M77 16h37l-2 -53c17 0 29 -6 40 -17c11 -12 16 -27 16 -45c0 -24 -12 -44 -35 -60c-18 -13 -42 -22 -73 -29l-10 30c17 5 39 13 55 24c16 9 24 22 24 40c0 7 -2 12 -6 16s-11 6 -20 6h-26v88z" />
    <glyph glyph-name="onesuperior" unicode="&#xb9;" horiz-adv-x="147" 
d="M31 534l-16 32l67 34h25v-268h-44v215z" />
    <glyph glyph-name="ordmasculine" unicode="&#xba;" horiz-adv-x="298" 
d="M149 369c-35 0 -65 12 -88 35c-21 20 -35 50 -35 86c0 37 14 66 38 89c21 21 50 34 85 34s62 -13 85 -32c23 -23 37 -52 37 -91c0 -35 -13 -63 -33 -84c-23 -23 -52 -37 -89 -37zM229 490c0 24 -9 43 -22 58c-15 16 -34 24 -58 24c-23 0 -42 -7 -57 -22s-23 -33 -23 -60
c0 -23 8 -42 23 -57s32 -23 57 -23s45 8 58 24c15 15 22 33 22 56z" />
    <glyph glyph-name="guillemotright" unicode="&#xbb;" horiz-adv-x="317" 
d="M297 275v-25l-135 -138l-26 21l107 130l-107 129l26 21zM55 413l136 -139v-24l-136 -138l-25 21l107 130l-107 129z" />
    <glyph glyph-name="questiondown" unicode="&#xbf;" horiz-adv-x="502" 
d="M245 429l2 36h46v-39c0 -28 -7 -52 -22 -71s-37 -33 -68 -46l-45 -19c-24 -11 -47 -21 -66 -40c-19 -21 -28 -46 -28 -77c0 -47 17 -76 44 -99c35 -27 84 -34 136 -34c76 0 137 22 196 78l32 -34c-64 -63 -139 -90 -227 -90c-60 0 -121 9 -165 44c-39 31 -68 69 -68 129
c0 46 15 85 45 116c27 28 66 45 106 61l23 9c19 7 33 17 42 29c11 13 16 28 17 47zM313 566c0 -27 -17 -45 -45 -45c-27 0 -45 18 -45 45s18 45 45 45c28 0 45 -18 45 -45z" />
    <glyph glyph-name="Agrave" unicode="&#xc0;" horiz-adv-x="670" 
d="M291 600h87l267 -600h-60l-54 121h-395l-53 -121h-58zM323 552l-167 -382h355l-164 382h-24zM299 796l56 -135l-34 -16l-71 128z" />
    <glyph glyph-name="Aacute" unicode="&#xc1;" horiz-adv-x="670" 
d="M291 600h87l267 -600h-60l-54 121h-395l-53 -121h-58zM323 552l-167 -382h355l-164 382h-24zM318 661l56 135l49 -23l-71 -128z" />
    <glyph glyph-name="Acircumflex" unicode="&#xc2;" horiz-adv-x="670" 
d="M291 600h87l267 -600h-60l-54 121h-395l-53 -121h-58zM323 552l-167 -382h355l-164 382h-24zM224 647l-24 23l123 121h23l123 -121l-24 -23l-111 94z" />
    <glyph glyph-name="Atilde" unicode="&#xc3;" horiz-adv-x="670" 
d="M291 600h87l267 -600h-60l-54 121h-395l-53 -121h-58zM323 552l-167 -382h355l-164 382h-24zM405 650c-35 0 -58 10 -78 21c-19 11 -39 21 -70 21c-25 0 -43 -6 -66 -25l-20 26c32 28 59 40 91 40c37 0 61 -13 84 -25c17 -11 38 -16 64 -16c28 0 39 4 62 23l22 -26
c-28 -26 -58 -39 -89 -39z" />
    <glyph glyph-name="Adieresis" unicode="&#xc4;" horiz-adv-x="670" 
d="M291 600h87l267 -600h-60l-54 121h-395l-53 -121h-58zM323 552l-167 -382h355l-164 382h-24zM389 695c0 27 22 48 47 48s47 -21 47 -48c0 -25 -22 -46 -47 -46s-47 21 -47 46zM186 695c0 27 21 48 46 48c27 0 47 -21 47 -48c0 -25 -20 -46 -47 -46c-25 0 -46 21 -46 46z
" />
    <glyph glyph-name="Aring" unicode="&#xc5;" horiz-adv-x="670" 
d="M291 600h87l267 -600h-60l-54 121h-395l-53 -121h-58zM323 552l-167 -382h355l-164 382h-24zM334 629c-28 0 -52 10 -72 30c-17 17 -29 42 -29 70c0 29 11 54 30 71c19 19 43 29 71 29s52 -10 71 -29c19 -17 30 -42 30 -71s-12 -53 -29 -70c-20 -20 -44 -30 -72 -30z
M334 669c19 0 33 6 42 18c11 11 15 26 15 42c0 19 -5 33 -15 43c-9 11 -23 17 -42 17c-18 0 -32 -6 -42 -17c-10 -12 -15 -26 -15 -43c0 -16 4 -31 15 -42c9 -12 23 -18 42 -18z" />
    <glyph glyph-name="AE" unicode="&#xc6;" horiz-adv-x="998" 
d="M503 0v151h-317l-95 -151h-66l386 600h532v-50h-383v-207h341v-50h-341v-244h398v-49h-455zM438 549l-220 -349h285v349h-65z" />
    <glyph glyph-name="Ccedilla" unicode="&#xc7;" horiz-adv-x="602" 
d="M87 302c0 -77 27 -140 72 -187c47 -49 113 -78 190 -78c87 0 142 26 189 69l34 -37c-59 -53 -125 -80 -226 -80l-1 -29c19 0 35 -6 47 -17c11 -10 16 -23 16 -40c0 -35 -17 -60 -44 -79c-20 -13 -44 -21 -72 -25l-8 30c28 7 45 14 57 22c17 12 26 29 26 48
c0 7 -3 13 -8 18c-5 4 -12 6 -22 6h-32v69c-76 8 -135 40 -183 88c-57 56 -91 133 -91 222c0 87 34 163 90 219s135 90 228 90c100 0 164 -27 223 -80l-34 -37c-47 41 -102 69 -189 69c-76 0 -141 -27 -188 -75c-45 -47 -74 -109 -74 -186z" />
    <glyph glyph-name="Egrave" unicode="&#xc8;" horiz-adv-x="555" 
d="M50 0v600h450v-50h-394v-207h352v-49h-352v-245h409v-49h-465zM286 796l56 -135l-34 -16l-71 128z" />
    <glyph glyph-name="Eacute" unicode="&#xc9;" horiz-adv-x="555" 
d="M50 0v600h450v-50h-394v-207h352v-49h-352v-245h409v-49h-465zM238 661l56 135l49 -23l-71 -128z" />
    <glyph glyph-name="Ecircumflex" unicode="&#xca;" horiz-adv-x="555" 
d="M50 0v600h450v-50h-394v-207h352v-49h-352v-245h409v-49h-465zM183 647l-24 23l123 121h23l123 -121l-24 -23l-111 94z" />
    <glyph glyph-name="Edieresis" unicode="&#xcb;" horiz-adv-x="555" 
d="M50 0v600h450v-50h-394v-207h352v-49h-352v-245h409v-49h-465zM332 695c0 27 22 48 47 48s47 -21 47 -48c0 -25 -22 -46 -47 -46s-47 21 -47 46zM129 695c0 27 21 48 46 48c27 0 47 -21 47 -48c0 -25 -20 -46 -47 -46c-25 0 -46 21 -46 46z" />
    <glyph glyph-name="Igrave" unicode="&#xcc;" horiz-adv-x="156" 
d="M106 600v-600h-56v600h56zM56 796l56 -135l-34 -16l-71 128z" />
    <glyph glyph-name="Iacute" unicode="&#xcd;" horiz-adv-x="156" 
d="M106 600v-600h-56v600h56zM47 661l56 135l49 -23l-71 -128z" />
    <glyph glyph-name="Icircumflex" unicode="&#xce;" horiz-adv-x="156" 
d="M106 600v-600h-56v600h56zM-31 647l-24 23l123 121h23l123 -121l-24 -23l-111 94z" />
    <glyph glyph-name="Idieresis" unicode="&#xcf;" horiz-adv-x="156" 
d="M106 600v-600h-56v600h56zM135 695c0 27 22 48 47 48s47 -21 47 -48c0 -25 -22 -46 -47 -46s-47 21 -47 46zM-68 695c0 27 21 48 46 48c27 0 47 -21 47 -48c0 -25 -20 -46 -47 -46c-25 0 -46 21 -46 46z" />
    <glyph glyph-name="Eth" unicode="&#xd0;" horiz-adv-x="632" 
d="M2 336h48v264h235c103 0 180 -34 233 -91c51 -53 79 -125 79 -209c0 -91 -31 -166 -87 -219c-53 -51 -128 -81 -225 -81h-235v285h-48v51zM281 550h-174v-214h165v-51h-165v-236h174c87 0 148 26 191 70c44 45 69 108 69 181c0 72 -25 135 -68 179
c-43 45 -104 71 -192 71z" />
    <glyph glyph-name="Ntilde" unicode="&#xd1;" horiz-adv-x="657" 
d="M555 600h52v-600h-62l-441 530v-530h-54v600h63l442 -528v528zM401 650c-35 0 -58 10 -78 21c-19 11 -39 21 -70 21c-25 0 -43 -6 -66 -25l-20 26c32 28 59 40 91 40c37 0 61 -13 84 -25c17 -11 38 -16 64 -16c28 0 39 4 62 23l22 -26c-28 -26 -58 -39 -89 -39z" />
    <glyph glyph-name="Ograve" unicode="&#xd2;" horiz-adv-x="694" 
d="M347 611c92 0 171 -34 228 -90c56 -56 89 -134 89 -221c0 -85 -31 -161 -87 -217c-56 -59 -135 -94 -230 -94c-97 0 -179 37 -236 98c-52 57 -81 129 -81 213s31 159 84 215c56 60 137 96 233 96zM86 300c0 -73 27 -135 68 -182c48 -52 116 -82 193 -82
c76 0 143 29 191 81c43 47 69 108 69 183c0 76 -27 139 -72 186c-47 49 -112 76 -188 76s-144 -28 -191 -79c-43 -47 -70 -108 -70 -183zM304 796l56 -135l-34 -16l-71 128z" />
    <glyph glyph-name="Oacute" unicode="&#xd3;" horiz-adv-x="694" 
d="M347 611c92 0 171 -34 228 -90c56 -56 89 -134 89 -221c0 -85 -31 -161 -87 -217c-56 -59 -135 -94 -230 -94c-97 0 -179 37 -236 98c-52 57 -81 129 -81 213s31 159 84 215c56 60 137 96 233 96zM86 300c0 -73 27 -135 68 -182c48 -52 116 -82 193 -82
c76 0 143 29 191 81c43 47 69 108 69 183c0 76 -27 139 -72 186c-47 49 -112 76 -188 76s-144 -28 -191 -79c-43 -47 -70 -108 -70 -183zM334 661l56 135l49 -23l-71 -128z" />
    <glyph glyph-name="Ocircumflex" unicode="&#xd4;" horiz-adv-x="694" 
d="M347 611c92 0 171 -34 228 -90c56 -56 89 -134 89 -221c0 -85 -31 -161 -87 -217c-56 -59 -135 -94 -230 -94c-97 0 -179 37 -236 98c-52 57 -81 129 -81 213s31 159 84 215c56 60 137 96 233 96zM86 300c0 -73 27 -135 68 -182c48 -52 116 -82 193 -82
c76 0 143 29 191 81c43 47 69 108 69 183c0 76 -27 139 -72 186c-47 49 -112 76 -188 76s-144 -28 -191 -79c-43 -47 -70 -108 -70 -183zM236 647l-24 23l123 121h23l123 -121l-24 -23l-111 94z" />
    <glyph glyph-name="Otilde" unicode="&#xd5;" horiz-adv-x="694" 
d="M347 611c92 0 171 -34 228 -90c56 -56 89 -134 89 -221c0 -85 -31 -161 -87 -217c-56 -59 -135 -94 -230 -94c-97 0 -179 37 -236 98c-52 57 -81 129 -81 213s31 159 84 215c56 60 137 96 233 96zM86 300c0 -73 27 -135 68 -182c48 -52 116 -82 193 -82
c76 0 143 29 191 81c43 47 69 108 69 183c0 76 -27 139 -72 186c-47 49 -112 76 -188 76s-144 -28 -191 -79c-43 -47 -70 -108 -70 -183zM417 650c-35 0 -58 10 -78 21c-19 11 -39 21 -70 21c-25 0 -43 -6 -66 -25l-20 26c32 28 59 40 91 40c37 0 61 -13 84 -25
c17 -11 38 -16 64 -16c28 0 39 4 62 23l22 -26c-28 -26 -58 -39 -89 -39z" />
    <glyph glyph-name="Odieresis" unicode="&#xd6;" horiz-adv-x="694" 
d="M347 611c92 0 171 -34 228 -90c56 -56 89 -134 89 -221c0 -85 -31 -161 -87 -217c-56 -59 -135 -94 -230 -94c-97 0 -179 37 -236 98c-52 57 -81 129 -81 213s31 159 84 215c56 60 137 96 233 96zM86 300c0 -73 27 -135 68 -182c48 -52 116 -82 193 -82
c76 0 143 29 191 81c43 47 69 108 69 183c0 76 -27 139 -72 186c-47 49 -112 76 -188 76s-144 -28 -191 -79c-43 -47 -70 -108 -70 -183zM402 695c0 27 22 48 47 48s47 -21 47 -48c0 -25 -22 -46 -47 -46s-47 21 -47 46zM199 695c0 27 21 48 46 48c27 0 47 -21 47 -48
c0 -25 -20 -46 -47 -46c-25 0 -46 21 -46 46z" />
    <glyph glyph-name="multiply" unicode="&#xd7;" horiz-adv-x="296" 
d="M33 180l83 83l-84 84l32 32l83 -84l86 85l31 -33l-85 -84l84 -84l-31 -31l-85 84l-83 -83z" />
    <glyph glyph-name="Oslash" unicode="&#xd8;" horiz-adv-x="694" 
d="M347 611c53 0 99 -11 142 -31l23 38l44 -24l-23 -39c35 -23 62 -51 87 -92c31 -48 44 -103 44 -163c0 -85 -31 -162 -87 -218c-56 -59 -135 -93 -230 -93c-53 0 -101 11 -144 30l-32 -52l-43 23l32 53c-45 31 -82 77 -105 133c-16 37 -24 80 -24 124c0 84 30 159 83 215
c56 60 137 96 233 96zM607 300c0 39 -8 76 -23 112c-17 38 -43 71 -78 100l-278 -450c37 -17 76 -26 119 -26c76 0 143 29 191 81c43 47 69 108 69 183zM87 300c0 -36 6 -75 21 -111c19 -40 42 -76 78 -101l277 449c-35 17 -73 27 -116 27c-76 0 -144 -30 -191 -81
c-43 -47 -69 -108 -69 -183z" />
    <glyph glyph-name="Ugrave" unicode="&#xd9;" horiz-adv-x="614" 
d="M564 258c0 -85 -26 -152 -77 -201c-45 -43 -106 -68 -178 -68c-77 0 -140 29 -184 73c-47 47 -75 112 -75 196v342h56v-349c0 -68 22 -119 57 -154c36 -39 86 -61 146 -61s109 23 144 59s55 87 55 156v349h56v-342zM286 796l56 -135l-34 -16l-71 128z" />
    <glyph glyph-name="Uacute" unicode="&#xda;" horiz-adv-x="614" 
d="M564 258c0 -85 -26 -152 -77 -201c-45 -43 -106 -68 -178 -68c-77 0 -140 29 -184 73c-47 47 -75 112 -75 196v342h56v-349c0 -68 22 -119 57 -154c36 -39 86 -61 146 -61s109 23 144 59s55 87 55 156v349h56v-342zM276 661l56 135l49 -23l-71 -128z" />
    <glyph glyph-name="Ucircumflex" unicode="&#xdb;" horiz-adv-x="614" 
d="M564 258c0 -85 -26 -152 -77 -201c-45 -43 -106 -68 -178 -68c-77 0 -140 29 -184 73c-47 47 -75 112 -75 196v342h56v-349c0 -68 22 -119 57 -154c36 -39 86 -61 146 -61s109 23 144 59s55 87 55 156v349h56v-342zM196 647l-24 23l123 121h23l123 -121l-24 -23l-111 94z
" />
    <glyph glyph-name="Udieresis" unicode="&#xdc;" horiz-adv-x="614" 
d="M564 258c0 -85 -26 -152 -77 -201c-45 -43 -106 -68 -178 -68c-77 0 -140 29 -184 73c-47 47 -75 112 -75 196v342h56v-349c0 -68 22 -119 57 -154c36 -39 86 -61 146 -61s109 23 144 59s55 87 55 156v349h56v-342zM361 695c0 27 22 48 47 48s47 -21 47 -48
c0 -25 -22 -46 -47 -46s-47 21 -47 46zM158 695c0 27 21 48 46 48c27 0 47 -21 47 -48c0 -25 -20 -46 -47 -46c-25 0 -46 21 -46 46z" />
    <glyph glyph-name="Yacute" unicode="&#xdd;" horiz-adv-x="629" 
d="M343 0h-56v134l-261 466h64l224 -405h5l224 405h61l-261 -462v-138zM277 661l56 135l49 -23l-71 -128z" />
    <glyph glyph-name="Thorn" unicode="&#xde;" horiz-adv-x="575" 
d="M545 309c0 -60 -23 -111 -62 -148c-39 -39 -94 -61 -165 -61h-210v-100h-58v600h58v-79h210c79 0 139 -29 180 -77c31 -37 47 -82 47 -135zM325 149c60 0 97 19 124 50c25 29 40 67 40 110s-13 81 -40 109c-29 33 -70 53 -133 53h-208v-322h217z" />
    <glyph glyph-name="germandbls" unicode="&#xdf;" horiz-adv-x="588" 
d="M50 0v483c0 56 20 100 53 128c31 26 72 39 121 39c61 0 104 -20 131 -55c19 -24 25 -53 25 -84c0 -15 -1 -32 -4 -47c-35 -3 -53 -5 -88 -24c-27 -17 -47 -41 -47 -76c0 -21 9 -36 26 -47c19 -13 48 -18 71 -23l62 -13c44 -9 85 -22 113 -47c29 -27 45 -65 45 -101
c0 -37 -14 -64 -35 -87c-37 -39 -102 -55 -163 -55c-87 0 -155 12 -218 43l20 44c64 -27 134 -39 197 -39c41 0 91 9 120 38c15 15 22 35 22 60c0 20 -5 39 -22 56c-21 20 -52 30 -84 37l-73 15c-44 9 -77 21 -100 41c-22 18 -33 45 -33 80c0 39 15 67 40 88
c31 27 60 41 105 52c0 31 -7 56 -26 73c-21 19 -49 28 -85 28c-38 0 -68 -11 -89 -32c-22 -22 -33 -52 -33 -90v-485h-51z" />
    <glyph glyph-name="agrave" unicode="&#xe0;" horiz-adv-x="572" 
d="M247 500h77l223 -500h-58l-45 100h-320l-45 -100h-54zM276 453l-132 -308h281l-133 308h-16zM242 703l55 -137l-31 -14l-71 128z" />
    <glyph glyph-name="aacute" unicode="&#xe1;" horiz-adv-x="572" 
d="M247 500h77l223 -500h-58l-45 100h-320l-45 -100h-54zM276 453l-132 -308h281l-133 308h-16zM267 566l55 137l47 -23l-71 -128z" />
    <glyph glyph-name="acircumflex" unicode="&#xe2;" horiz-adv-x="572" 
d="M247 500h77l223 -500h-58l-45 100h-320l-45 -100h-54zM276 453l-132 -308h281l-133 308h-16zM413 573l-21 -23l-107 88l-107 -88l-21 23l116 113h24z" />
    <glyph glyph-name="atilde" unicode="&#xe3;" horiz-adv-x="572" 
d="M247 500h77l223 -500h-58l-45 100h-320l-45 -100h-54zM276 453l-132 -308h281l-133 308h-16zM353 563c-32 0 -54 9 -73 20s-37 20 -66 20c-24 0 -41 -8 -61 -25l-19 24c31 28 55 39 86 39c35 0 57 -11 78 -24c16 -10 36 -15 61 -15s36 5 57 22l21 -24
c-29 -27 -53 -37 -84 -37z" />
    <glyph glyph-name="adieresis" unicode="&#xe4;" horiz-adv-x="572" 
d="M247 500h77l223 -500h-58l-45 100h-320l-45 -100h-54zM276 453l-132 -308h281l-133 308h-16zM334 611c0 23 19 42 42 42s42 -19 42 -42s-19 -42 -42 -42s-42 19 -42 42zM153 611c0 23 19 42 42 42s42 -19 42 -42s-19 -42 -42 -42s-42 19 -42 42z" />
    <glyph glyph-name="aring" unicode="&#xe5;" horiz-adv-x="572" 
d="M247 500h77l223 -500h-58l-45 100h-320l-45 -100h-54zM276 453l-132 -308h281l-133 308h-16zM285 567c-27 0 -49 9 -68 28c-16 16 -27 39 -27 66s11 50 27 67c18 18 41 27 68 27s49 -9 68 -26c17 -17 28 -41 28 -68s-11 -49 -27 -66c-19 -19 -42 -28 -69 -28zM285 601
c19 0 34 6 43 17c11 11 15 27 15 43c0 17 -5 32 -15 43c-10 12 -24 18 -43 18c-18 0 -32 -6 -43 -18c-10 -12 -15 -26 -15 -43c0 -16 4 -32 15 -43c10 -11 24 -17 43 -17z" />
    <glyph glyph-name="ae" unicode="&#xe6;" horiz-adv-x="835" 
d="M414 0v130h-244l-82 -130h-63l326 500h430v-47h-313v-166h280v-45h-280v-196h327v-46h-381zM380 449l-178 -273h212v273h-34z" />
    <glyph glyph-name="ccedilla" unicode="&#xe7;" horiz-adv-x="523" 
d="M88 251c0 -63 21 -113 58 -152c39 -39 92 -61 153 -61c72 0 118 21 158 56l31 -35c-47 -43 -99 -65 -176 -68l-1 -29c17 0 30 -5 41 -16c11 -12 16 -24 16 -44c0 -25 -13 -47 -36 -62c-19 -14 -44 -24 -73 -30l-10 31c17 5 39 12 55 23c16 9 24 23 24 40c0 7 -2 13 -5 16
c-4 4 -10 6 -19 6h-28v66c-67 6 -123 31 -166 74c-48 47 -75 112 -75 185c0 72 27 135 74 182c48 47 113 76 190 76c85 0 141 -24 189 -68l-31 -35c-40 35 -86 56 -158 56c-60 0 -112 -21 -151 -60c-37 -37 -60 -87 -60 -151z" />
    <glyph glyph-name="egrave" unicode="&#xe8;" horiz-adv-x="481" 
d="M50 0v500h379v-47h-325v-163h290v-46h-290v-198h337v-46h-391zM216 703l55 -137l-31 -14l-71 128z" />
    <glyph glyph-name="eacute" unicode="&#xe9;" horiz-adv-x="481" 
d="M50 0v500h379v-47h-325v-163h290v-46h-290v-198h337v-46h-391zM227 566l55 137l47 -23l-71 -128z" />
    <glyph glyph-name="ecircumflex" unicode="&#xea;" horiz-adv-x="481" 
d="M50 0v500h379v-47h-325v-163h290v-46h-290v-198h337v-46h-391zM381 573l-21 -23l-107 88l-107 -88l-21 23l116 113h24z" />
    <glyph glyph-name="edieresis" unicode="&#xeb;" horiz-adv-x="481" 
d="M50 0v500h379v-47h-325v-163h290v-46h-290v-198h337v-46h-391zM287 611c0 23 19 42 42 42s42 -19 42 -42s-19 -42 -42 -42s-42 19 -42 42zM106 611c0 23 19 42 42 42s42 -19 42 -42s-19 -42 -42 -42s-42 19 -42 42z" />
    <glyph glyph-name="igrave" unicode="&#xec;" horiz-adv-x="153" 
d="M50 500h53v-500h-53v500zM49 703l55 -137l-31 -14l-71 128z" />
    <glyph glyph-name="iacute" unicode="&#xed;" horiz-adv-x="153" 
d="M50 500h53v-500h-53v500zM48 566l55 137l47 -23l-71 -128z" />
    <glyph glyph-name="icircumflex" unicode="&#xee;" horiz-adv-x="153" 
d="M50 500h53v-500h-53v500zM207 573l-21 -23l-107 88l-107 -88l-21 23l116 113h24z" />
    <glyph glyph-name="idieresis" unicode="&#xef;" horiz-adv-x="153" 
d="M50 500h53v-500h-53v500zM127 611c0 23 19 42 42 42s42 -19 42 -42s-19 -42 -42 -42s-42 19 -42 42zM-54 611c0 23 19 42 42 42s42 -19 42 -42s-19 -42 -42 -42s-42 19 -42 42z" />
    <glyph glyph-name="eth" unicode="&#xf0;" horiz-adv-x="543" 
d="M12 240v49h38v211h195c85 0 148 -27 193 -72c44 -44 70 -106 70 -178s-26 -135 -70 -179c-45 -45 -108 -71 -193 -71h-195v240h-38zM241 453h-137v-164h184v-49h-184v-194h137c76 0 127 21 162 60c34 38 51 86 51 144c0 59 -18 108 -55 146c-35 36 -85 57 -158 57z" />
    <glyph glyph-name="ntilde" unicode="&#xf1;" horiz-adv-x="565" 
d="M464 500h51v-500h-56l-357 432v-432h-52v500h57l357 -431v431zM350 563c-32 0 -54 9 -73 20s-37 20 -66 20c-24 0 -41 -8 -61 -25l-19 24c31 28 55 39 86 39c35 0 57 -11 78 -24c16 -10 36 -15 61 -15s36 5 57 22l21 -24c-29 -27 -53 -37 -84 -37z" />
    <glyph glyph-name="ograve" unicode="&#xf2;" horiz-adv-x="590" 
d="M295 509c79 0 146 -30 193 -78c47 -47 70 -110 70 -181c0 -73 -26 -139 -75 -186c-47 -45 -112 -73 -188 -73c-77 0 -143 28 -190 75s-75 112 -75 184c0 75 29 141 80 188c47 44 109 71 185 71zM84 250c0 -63 22 -115 59 -152c40 -40 91 -60 152 -60c59 0 111 20 148 57
c39 39 63 91 63 155c0 65 -25 120 -64 157c-37 36 -90 55 -147 55c-63 0 -113 -20 -152 -61c-37 -37 -59 -90 -59 -151zM243 703l55 -137l-31 -14l-71 128z" />
    <glyph glyph-name="oacute" unicode="&#xf3;" horiz-adv-x="590" 
d="M295 509c79 0 146 -30 193 -78c47 -47 70 -110 70 -181c0 -73 -26 -139 -75 -186c-47 -45 -112 -73 -188 -73c-77 0 -143 28 -190 75s-75 112 -75 184c0 75 29 141 80 188c47 44 109 71 185 71zM84 250c0 -63 22 -115 59 -152c40 -40 91 -60 152 -60c59 0 111 20 148 57
c39 39 63 91 63 155c0 65 -25 120 -64 157c-37 36 -90 55 -147 55c-63 0 -113 -20 -152 -61c-37 -37 -59 -90 -59 -151zM286 566l55 137l47 -23l-71 -128z" />
    <glyph glyph-name="ocircumflex" unicode="&#xf4;" horiz-adv-x="590" 
d="M295 509c79 0 146 -30 193 -78c47 -47 70 -110 70 -181c0 -73 -26 -139 -75 -186c-47 -45 -112 -73 -188 -73c-77 0 -143 28 -190 75s-75 112 -75 184c0 75 29 141 80 188c47 44 109 71 185 71zM84 250c0 -63 22 -115 59 -152c40 -40 91 -60 152 -60c59 0 111 20 148 57
c39 39 63 91 63 155c0 65 -25 120 -64 157c-37 36 -90 55 -147 55c-63 0 -113 -20 -152 -61c-37 -37 -59 -90 -59 -151zM422 573l-21 -23l-107 88l-107 -88l-21 23l116 113h24z" />
    <glyph glyph-name="otilde" unicode="&#xf5;" horiz-adv-x="590" 
d="M295 509c79 0 146 -30 193 -78c47 -47 70 -110 70 -181c0 -73 -26 -139 -75 -186c-47 -45 -112 -73 -188 -73c-77 0 -143 28 -190 75s-75 112 -75 184c0 75 29 141 80 188c47 44 109 71 185 71zM84 250c0 -63 22 -115 59 -152c40 -40 91 -60 152 -60c59 0 111 20 148 57
c39 39 63 91 63 155c0 65 -25 120 -64 157c-37 36 -90 55 -147 55c-63 0 -113 -20 -152 -61c-37 -37 -59 -90 -59 -151zM361 563c-32 0 -54 9 -73 20s-37 20 -66 20c-24 0 -41 -8 -61 -25l-19 24c31 28 55 39 86 39c35 0 57 -11 78 -24c16 -10 36 -15 61 -15s36 5 57 22
l21 -24c-29 -27 -53 -37 -84 -37z" />
    <glyph glyph-name="odieresis" unicode="&#xf6;" horiz-adv-x="590" 
d="M295 509c79 0 146 -30 193 -78c47 -47 70 -110 70 -181c0 -73 -26 -139 -75 -186c-47 -45 -112 -73 -188 -73c-77 0 -143 28 -190 75s-75 112 -75 184c0 75 29 141 80 188c47 44 109 71 185 71zM84 250c0 -63 22 -115 59 -152c40 -40 91 -60 152 -60c59 0 111 20 148 57
c39 39 63 91 63 155c0 65 -25 120 -64 157c-37 36 -90 55 -147 55c-63 0 -113 -20 -152 -61c-37 -37 -59 -90 -59 -151zM343 611c0 23 19 42 42 42s42 -19 42 -42s-19 -42 -42 -42s-42 19 -42 42zM162 611c0 23 19 42 42 42s42 -19 42 -42s-19 -42 -42 -42s-42 19 -42 42z
" />
    <glyph glyph-name="divide" unicode="&#xf7;" horiz-adv-x="324" 
d="M21 306h281v-40h-281v40zM117 387c0 27 17 45 44 45s44 -18 44 -45s-17 -44 -44 -44s-44 17 -44 44zM117 186c0 27 17 45 44 45s44 -18 44 -45s-17 -44 -44 -44s-44 17 -44 44z" />
    <glyph glyph-name="oslash" unicode="&#xf8;" horiz-adv-x="590" 
d="M295 509c47 0 87 -11 126 -30l20 30l47 -30l-20 -30c25 -21 41 -39 58 -70c21 -39 32 -82 32 -129c0 -73 -26 -139 -75 -186c-47 -45 -112 -73 -188 -73c-47 0 -88 9 -125 28l-19 -27l-45 28l19 27c-29 25 -54 55 -73 96c-15 32 -22 68 -22 107c0 75 29 141 80 188
c47 44 109 71 185 71zM84 250c0 -33 5 -61 16 -88c12 -28 29 -54 52 -74l244 352c-29 16 -64 23 -101 23c-62 0 -113 -21 -152 -62c-37 -37 -59 -90 -59 -151zM486 347c-11 25 -26 45 -45 62l-245 -350c29 -15 62 -22 99 -22c59 0 111 21 148 58c39 39 62 91 62 155
c0 35 -6 68 -19 97z" />
    <glyph glyph-name="ugrave" unicode="&#xf9;" horiz-adv-x="533" 
d="M482 211c0 -67 -23 -123 -66 -162c-37 -36 -89 -58 -150 -58c-64 0 -117 24 -154 61c-39 40 -62 95 -62 159v289h54v-295c0 -51 17 -91 45 -120c29 -31 70 -49 117 -49c49 0 90 19 118 48s44 70 44 121v295h54v-289zM233 703l55 -137l-31 -14l-71 128z" />
    <glyph glyph-name="uacute" unicode="&#xfa;" horiz-adv-x="533" 
d="M482 211c0 -67 -23 -123 -66 -162c-37 -36 -89 -58 -150 -58c-64 0 -117 24 -154 61c-39 40 -62 95 -62 159v289h54v-295c0 -51 17 -91 45 -120c29 -31 70 -49 117 -49c49 0 90 19 118 48s44 70 44 121v295h54v-289zM233 566l55 137l47 -23l-71 -128z" />
    <glyph glyph-name="ucircumflex" unicode="&#xfb;" horiz-adv-x="533" 
d="M482 211c0 -67 -23 -123 -66 -162c-37 -36 -89 -58 -150 -58c-64 0 -117 24 -154 61c-39 40 -62 95 -62 159v289h54v-295c0 -51 17 -91 45 -120c29 -31 70 -49 117 -49c49 0 90 19 118 48s44 70 44 121v295h54v-289zM394 573l-21 -23l-107 88l-107 -88l-21 23l116 113h24
z" />
    <glyph glyph-name="udieresis" unicode="&#xfc;" horiz-adv-x="533" 
d="M482 211c0 -67 -23 -123 -66 -162c-37 -36 -89 -58 -150 -58c-64 0 -117 24 -154 61c-39 40 -62 95 -62 159v289h54v-295c0 -51 17 -91 45 -120c29 -31 70 -49 117 -49c49 0 90 19 118 48s44 70 44 121v295h54v-289zM314 611c0 23 19 42 42 42s42 -19 42 -42
s-19 -42 -42 -42s-42 19 -42 42zM133 611c0 23 19 42 42 42s42 -19 42 -42s-19 -42 -42 -42s-42 19 -42 42z" />
    <glyph glyph-name="yacute" unicode="&#xfd;" horiz-adv-x="537" 
d="M296 0h-54v117l-217 383h61l181 -327h4l183 327h58l-216 -380v-120zM246 566l55 137l47 -23l-71 -128z" />
    <glyph glyph-name="thorn" unicode="&#xfe;" horiz-adv-x="498" 
d="M468 252c0 -47 -18 -87 -46 -118c-35 -36 -83 -59 -146 -59h-172v-75h-54v500h54v-70h172c63 0 109 -21 142 -56c31 -31 50 -73 50 -122zM282 121c47 0 75 16 98 40c21 24 34 56 34 91s-11 64 -32 89c-23 27 -56 44 -109 44h-169v-264h178z" />
    <glyph glyph-name="ydieresis" unicode="&#xff;" horiz-adv-x="537" 
d="M296 0h-54v117l-217 383h61l181 -327h4l183 327h58l-216 -380v-120zM316 611c0 23 19 42 42 42s42 -19 42 -42s-19 -42 -42 -42s-42 19 -42 42zM135 611c0 23 19 42 42 42s42 -19 42 -42s-19 -42 -42 -42s-42 19 -42 42z" />
    <glyph glyph-name="Amacron" unicode="&#x100;" horiz-adv-x="670" 
d="M291 600h87l267 -600h-60l-54 121h-395l-53 -121h-58zM323 552l-167 -382h355l-164 382h-24zM177 695h316v-45h-316v45z" />
    <glyph glyph-name="amacron" unicode="&#x101;" horiz-adv-x="572" 
d="M247 500h77l223 -500h-58l-45 100h-320l-45 -100h-54zM276 453l-132 -308h281l-133 308h-16zM142 614h287v-43h-287v43z" />
    <glyph glyph-name="Abreve" unicode="&#x102;" horiz-adv-x="670" 
d="M291 600h87l267 -600h-60l-54 121h-395l-53 -121h-58zM323 552l-167 -382h355l-164 382h-24zM418 755l43 -6c-7 -32 -17 -58 -38 -77c-23 -21 -52 -31 -88 -31c-39 0 -70 11 -94 33c-19 19 -28 43 -35 75l42 6c5 -23 14 -43 29 -56c16 -13 35 -19 58 -19c25 0 44 7 57 20
c11 12 20 30 26 55z" />
    <glyph glyph-name="abreve" unicode="&#x103;" horiz-adv-x="572" 
d="M247 500h77l223 -500h-58l-45 100h-320l-45 -100h-54zM276 453l-132 -308h281l-133 308h-16zM286 557c-36 0 -60 12 -79 32c-13 17 -21 36 -23 58l36 7c5 -19 12 -34 24 -45c10 -9 24 -14 41 -14c18 0 32 5 42 14c11 11 19 26 23 45l37 -7c-2 -22 -10 -42 -24 -59
c-19 -20 -42 -31 -77 -31z" />
    <glyph glyph-name="Aogonek" unicode="&#x104;" horiz-adv-x="670" 
d="M291 600h87l267 -600c-23 0 -34 -5 -42 -16c-7 -9 -11 -20 -11 -33c0 -19 6 -34 17 -47s25 -21 46 -32l-12 -29c-28 8 -53 21 -70 42c-12 16 -21 37 -21 61c0 26 10 46 29 60l-51 115h-393l-53 -121h-59zM323 552l-166 -382h353l-163 382h-24z" />
    <glyph glyph-name="aogonek" unicode="&#x105;" horiz-adv-x="572" 
d="M247 500h77l223 -500c-9 -2 -16 -6 -21 -11c-7 -9 -10 -20 -10 -33c0 -17 5 -32 14 -45c9 -12 24 -24 46 -37l-15 -26c-28 11 -47 24 -62 39c-17 18 -25 39 -25 63c0 23 7 37 22 50h-7l-45 100h-320l-45 -100h-54zM276 453l-132 -308h281l-133 308h-16z" />
    <glyph glyph-name="Cacute" unicode="&#x106;" horiz-adv-x="602" 
d="M87 302c0 -77 27 -140 72 -187c47 -49 113 -77 190 -77c87 0 142 25 189 68l34 -37c-59 -51 -123 -80 -223 -80c-95 0 -171 35 -228 91c-56 56 -90 133 -90 222c0 87 34 163 90 219s135 90 228 90c100 0 164 -27 223 -80l-34 -37c-47 41 -102 68 -189 68
c-77 0 -140 -25 -188 -74c-45 -47 -74 -109 -74 -186zM335 661l56 135l49 -23l-71 -128z" />
    <glyph glyph-name="cacute" unicode="&#x107;" horiz-adv-x="523" 
d="M88 251c0 -63 21 -113 58 -152c39 -39 92 -61 153 -61c72 0 119 22 159 57l30 -36c-48 -44 -104 -68 -189 -68c-77 0 -142 28 -189 75c-48 47 -75 112 -75 185c0 72 28 135 75 182c48 47 112 76 189 76c81 0 141 -24 189 -68l-31 -35c-40 35 -86 56 -158 56
c-60 0 -112 -21 -151 -60c-37 -37 -60 -87 -60 -151zM293 566l55 137l47 -23l-71 -128z" />
    <glyph glyph-name="Ccircumflex" unicode="&#x108;" horiz-adv-x="602" 
d="M87 302c0 -77 27 -140 72 -187c47 -49 113 -77 190 -77c87 0 142 25 189 68l34 -37c-59 -51 -123 -80 -223 -80c-95 0 -171 35 -228 91c-56 56 -90 133 -90 222c0 87 34 163 90 219s135 90 228 90c100 0 164 -27 223 -80l-34 -37c-47 41 -102 68 -189 68
c-77 0 -140 -25 -188 -74c-45 -47 -74 -109 -74 -186zM243 647l-24 23l123 121h23l123 -121l-24 -23l-111 94z" />
    <glyph glyph-name="ccircumflex" unicode="&#x109;" horiz-adv-x="523" 
d="M88 251c0 -63 21 -113 58 -152c39 -39 92 -61 153 -61c72 0 119 22 159 57l30 -36c-48 -44 -104 -68 -189 -68c-77 0 -142 28 -189 75c-48 47 -75 112 -75 185c0 72 28 135 75 182c48 47 112 76 189 76c81 0 141 -24 189 -68l-31 -35c-40 35 -86 56 -158 56
c-60 0 -112 -21 -151 -60c-37 -37 -60 -87 -60 -151zM425 573l-21 -23l-107 88l-107 -88l-21 23l116 113h24z" />
    <glyph glyph-name="Cdotaccent" unicode="&#x10a;" horiz-adv-x="602" 
d="M87 302c0 -77 27 -140 72 -187c47 -49 113 -77 190 -77c87 0 142 25 189 68l34 -37c-59 -51 -123 -80 -223 -80c-95 0 -171 35 -228 91c-56 56 -90 133 -90 222c0 87 34 163 90 219s135 90 228 90c100 0 164 -27 223 -80l-34 -37c-47 41 -102 68 -189 68
c-77 0 -140 -25 -188 -74c-45 -47 -74 -109 -74 -186zM311 685c0 23 18 40 41 40s42 -17 42 -40s-19 -41 -42 -41s-41 18 -41 41z" />
    <glyph glyph-name="cdotaccent" unicode="&#x10b;" horiz-adv-x="523" 
d="M88 251c0 -63 21 -113 58 -152c39 -39 92 -61 153 -61c72 0 119 22 159 57l30 -36c-48 -44 -104 -68 -189 -68c-77 0 -142 28 -189 75c-48 47 -75 112 -75 185c0 72 28 135 75 182c48 47 112 76 189 76c81 0 141 -24 189 -68l-31 -35c-40 35 -86 56 -158 56
c-60 0 -112 -21 -151 -60c-37 -37 -60 -87 -60 -151zM256 598c0 23 16 39 39 39s39 -16 39 -39s-16 -39 -39 -39s-39 16 -39 39z" />
    <glyph glyph-name="Ccaron" unicode="&#x10c;" horiz-adv-x="602" 
d="M87 302c0 -77 27 -140 72 -187c47 -49 113 -77 190 -77c87 0 142 25 189 68l34 -37c-59 -51 -123 -80 -223 -80c-95 0 -171 35 -228 91c-56 56 -90 133 -90 222c0 87 34 163 90 219s135 90 228 90c100 0 164 -27 223 -80l-34 -37c-47 41 -102 68 -189 68
c-77 0 -140 -25 -188 -74c-45 -47 -74 -109 -74 -186zM222 763l21 22l113 -93l113 93l22 -22l-123 -120h-23z" />
    <glyph glyph-name="ccaron" unicode="&#x10d;" horiz-adv-x="523" 
d="M88 251c0 -63 21 -113 58 -152c39 -39 92 -61 153 -61c72 0 119 22 159 57l30 -36c-48 -44 -104 -68 -189 -68c-77 0 -142 28 -189 75c-48 47 -75 112 -75 185c0 72 28 135 75 182c48 47 112 76 189 76c81 0 141 -24 189 -68l-31 -35c-40 35 -86 56 -158 56
c-60 0 -112 -21 -151 -60c-37 -37 -60 -87 -60 -151zM178 662l21 24l107 -89l108 89l20 -24l-116 -112h-23z" />
    <glyph glyph-name="Dcaron" unicode="&#x10e;" horiz-adv-x="632" 
d="M50 600h235c103 0 180 -34 233 -91c51 -53 79 -125 79 -209c0 -91 -31 -166 -87 -219c-53 -51 -128 -81 -225 -81h-235v600zM281 550h-174v-501h174c87 0 148 26 191 70c44 45 69 108 69 181c0 72 -25 135 -68 179c-43 45 -104 71 -192 71zM126 763l21 22l113 -93l113 93
l22 -22l-123 -120h-23z" />
    <glyph glyph-name="dcaron" unicode="&#x10f;" horiz-adv-x="543" 
d="M50 500h200c80 0 143 -27 188 -72c44 -44 70 -106 70 -178s-26 -135 -70 -179c-45 -45 -108 -71 -188 -71h-200v500zM246 453h-142v-407h142c71 0 122 21 157 60c34 38 51 86 51 144c0 59 -18 108 -55 146c-35 36 -85 57 -153 57zM120 662l21 24l107 -89l108 89l20 -24
l-116 -112h-23z" />
    <glyph glyph-name="Dcroat" unicode="&#x110;" horiz-adv-x="632" 
d="M2 336h48v264h235c103 0 180 -34 233 -91c51 -53 79 -125 79 -209c0 -91 -31 -166 -87 -219c-53 -51 -128 -81 -225 -81h-235v285h-48v51zM281 550h-174v-214h165v-51h-165v-236h174c87 0 148 26 191 70c44 45 69 108 69 181c0 72 -25 135 -68 179
c-43 45 -104 71 -192 71z" />
    <glyph glyph-name="dslash" unicode="&#x111;" horiz-adv-x="543" 
d="M12 240v49h38v211h195c85 0 148 -27 193 -72c44 -44 70 -106 70 -178s-26 -135 -70 -179c-45 -45 -108 -71 -193 -71h-195v240h-38zM241 453h-137v-164h184v-49h-184v-194h137c76 0 127 21 162 60c34 38 51 86 51 144c0 59 -18 108 -55 146c-35 36 -85 57 -158 57z" />
    <glyph glyph-name="Emacron" unicode="&#x112;" horiz-adv-x="555" 
d="M50 0v600h450v-50h-394v-207h352v-49h-352v-245h409v-49h-465zM119 695h316v-45h-316v45z" />
    <glyph glyph-name="emacron" unicode="&#x113;" horiz-adv-x="481" 
d="M50 0v500h379v-47h-325v-163h290v-46h-290v-198h337v-46h-391zM96 614h287v-43h-287v43z" />
    <glyph glyph-name="Ebreve" unicode="&#x114;" horiz-adv-x="555" 
d="M50 0v600h450v-50h-394v-207h352v-49h-352v-245h409v-49h-465zM365 755l43 -6c-7 -32 -17 -58 -38 -77c-23 -21 -52 -31 -88 -31c-39 0 -70 11 -94 33c-19 19 -28 43 -35 75l42 6c5 -23 14 -43 29 -56c16 -13 35 -19 58 -19c25 0 44 7 57 20c11 12 20 30 26 55z" />
    <glyph glyph-name="ebreve" unicode="&#x115;" horiz-adv-x="481" 
d="M50 0v500h379v-47h-325v-163h290v-46h-290v-198h337v-46h-391zM235 557c-36 0 -60 12 -79 32c-13 17 -21 36 -23 58l36 7c5 -19 12 -34 24 -45c10 -9 24 -14 41 -14c18 0 32 5 42 14c11 11 19 26 23 45l37 -7c-2 -22 -10 -42 -24 -59c-19 -20 -42 -31 -77 -31z" />
    <glyph glyph-name="Edotaccent" unicode="&#x116;" horiz-adv-x="555" 
d="M50 0v600h450v-50h-394v-207h352v-49h-352v-245h409v-49h-465zM237 683c0 23 16 39 39 39s39 -16 39 -39s-16 -39 -39 -39s-39 16 -39 39z" />
    <glyph glyph-name="edotaccent" unicode="&#x117;" horiz-adv-x="481" 
d="M50 0v500h379v-47h-325v-163h290v-46h-290v-198h337v-46h-391zM213 593c0 23 16 39 39 39s39 -16 39 -39s-16 -39 -39 -39s-39 16 -39 39z" />
    <glyph glyph-name="Eogonek" unicode="&#x118;" horiz-adv-x="555" 
d="M50 0v600h450v-50h-394v-207h352v-49h-352v-245h409v-49c-15 0 -26 -6 -33 -19c-4 -8 -8 -17 -8 -28c0 -20 7 -34 19 -49c11 -13 26 -23 45 -32l-11 -25c-23 7 -43 13 -59 28c-21 17 -36 37 -36 68c0 17 3 38 30 57h-412z" />
    <glyph glyph-name="eogonek" unicode="&#x119;" horiz-adv-x="481" 
d="M50 0v500h379v-47h-325v-163h290v-46h-290v-198h337v-46c-13 0 -27 -5 -38 -16c-5 -7 -9 -16 -9 -28c0 -18 5 -33 15 -46c8 -11 23 -23 46 -36l-15 -26c-27 10 -49 23 -64 39c-15 17 -24 35 -24 62c0 21 12 38 28 51h-330z" />
    <glyph glyph-name="Ecaron" unicode="&#x11a;" horiz-adv-x="555" 
d="M50 0v600h450v-50h-394v-207h352v-49h-352v-245h409v-49h-465zM151 763l21 22l113 -93l113 93l22 -22l-123 -120h-23z" />
    <glyph glyph-name="ecaron" unicode="&#x11b;" horiz-adv-x="481" 
d="M50 0v500h379v-47h-325v-163h290v-46h-290v-198h337v-46h-391zM117 662l21 24l107 -89l108 89l20 -24l-116 -112h-23z" />
    <glyph glyph-name="Gcircumflex" unicode="&#x11c;" horiz-adv-x="639" 
d="M589 332v-329l-24 -5l-19 57c-56 -43 -112 -66 -192 -66s-150 25 -206 69c-72 59 -112 145 -112 244c0 87 34 163 90 219c57 56 135 90 230 90c99 0 171 -28 231 -79l-30 -36c-53 43 -116 66 -201 66c-77 0 -144 -28 -192 -77c-44 -47 -72 -108 -72 -183
c0 -80 30 -144 77 -191c48 -47 112 -73 185 -73c76 0 130 21 181 58v190l-170 6v40h224zM247 647l-24 23l123 121h23l123 -121l-24 -23l-111 94z" />
    <glyph glyph-name="gcircumflex" unicode="&#x11d;" horiz-adv-x="546" 
d="M497 279v-277l-30 -6l-10 44c-43 -31 -88 -49 -156 -49c-76 0 -144 26 -191 74c-47 49 -75 113 -75 186c0 72 26 134 71 181c48 48 116 77 196 77c84 0 143 -22 192 -65l-31 -36c-43 35 -89 54 -161 54c-60 0 -113 -20 -152 -59s-60 -88 -60 -152c0 -67 24 -119 64 -158
c37 -35 89 -57 146 -57c63 0 107 19 146 48v151l-141 5v39h192zM434 573l-21 -23l-107 88l-107 -88l-21 23l116 113h24z" />
    <glyph glyph-name="Gbreve" unicode="&#x11e;" horiz-adv-x="639" 
d="M589 332v-329l-24 -5l-19 57c-56 -43 -112 -66 -192 -66s-150 25 -206 69c-72 59 -112 145 -112 244c0 87 34 163 90 219c57 56 135 90 230 90c99 0 171 -28 231 -79l-30 -36c-53 43 -116 66 -201 66c-77 0 -144 -28 -192 -77c-44 -47 -72 -108 -72 -183
c0 -80 30 -144 77 -191c48 -47 112 -73 185 -73c76 0 130 21 181 58v190l-170 6v40h224zM438 755l43 -6c-7 -32 -17 -58 -38 -77c-23 -21 -52 -31 -88 -31c-39 0 -70 11 -94 33c-19 19 -28 43 -35 75l42 6c5 -23 14 -43 29 -56c16 -13 35 -19 58 -19c25 0 44 7 57 20
c11 12 20 30 26 55z" />
    <glyph glyph-name="gbreve" unicode="&#x11f;" horiz-adv-x="546" 
d="M497 279v-277l-30 -6l-10 44c-43 -31 -88 -49 -156 -49c-76 0 -144 26 -191 74c-47 49 -75 113 -75 186c0 72 26 134 71 181c48 48 116 77 196 77c84 0 143 -22 192 -65l-31 -36c-43 35 -89 54 -161 54c-60 0 -113 -20 -152 -59s-60 -88 -60 -152c0 -67 24 -119 64 -158
c37 -35 89 -57 146 -57c63 0 107 19 146 48v151l-141 5v39h192zM300 557c-36 0 -60 12 -79 32c-13 17 -21 36 -23 58l36 7c5 -19 12 -34 24 -45c10 -9 24 -14 41 -14c18 0 32 5 42 14c11 11 19 26 23 45l37 -7c-2 -22 -10 -42 -24 -59c-19 -20 -42 -31 -77 -31z" />
    <glyph glyph-name="Gdotaccent" unicode="&#x120;" horiz-adv-x="639" 
d="M589 332v-329l-24 -5l-19 57c-56 -43 -112 -66 -192 -66s-150 25 -206 69c-72 59 -112 145 -112 244c0 87 34 163 90 219c57 56 135 90 230 90c99 0 171 -28 231 -79l-30 -36c-53 43 -116 66 -201 66c-77 0 -144 -28 -192 -77c-44 -47 -72 -108 -72 -183
c0 -80 30 -144 77 -191c48 -47 112 -73 185 -73c76 0 130 21 181 58v190l-170 6v40h224zM315 683c0 23 18 40 41 40s42 -17 42 -40s-19 -41 -42 -41s-41 18 -41 41z" />
    <glyph glyph-name="gdotaccent" unicode="&#x121;" horiz-adv-x="546" 
d="M497 279v-277l-30 -6l-10 44c-43 -31 -88 -49 -156 -49c-76 0 -144 26 -191 74c-47 49 -75 113 -75 186c0 72 26 134 71 181c48 48 116 77 196 77c84 0 143 -22 192 -65l-31 -36c-43 35 -89 54 -161 54c-60 0 -113 -20 -152 -59s-60 -88 -60 -152c0 -67 24 -119 64 -158
c37 -35 89 -57 146 -57c63 0 107 19 146 48v151l-141 5v39h192zM264 594c0 23 16 39 39 39s39 -16 39 -39s-16 -39 -39 -39s-39 16 -39 39z" />
    <glyph glyph-name="Gcommaaccent" unicode="&#x122;" horiz-adv-x="639" 
d="M589 332v-329l-24 -5l-19 57c-56 -43 -112 -66 -192 -66s-150 25 -206 69c-72 59 -112 145 -112 244c0 87 34 163 90 219c57 56 135 90 230 90c99 0 171 -28 231 -79l-30 -36c-53 43 -116 66 -201 66c-77 0 -144 -28 -192 -77c-44 -47 -72 -108 -72 -183
c0 -80 30 -144 77 -191c48 -47 112 -73 185 -73c76 0 130 21 181 58v190l-170 6v40h224zM357 -44c28 0 44 -17 44 -40c0 -9 -1 -15 -3 -20l-37 -88l-32 10l14 58c-19 4 -29 20 -29 40c0 23 16 40 43 40z" />
    <glyph glyph-name="gcommaaccent" unicode="&#x123;" horiz-adv-x="546" 
d="M497 279v-277l-30 -6l-10 44c-43 -31 -88 -49 -156 -49c-76 0 -144 26 -191 74c-47 49 -75 113 -75 186c0 72 26 134 71 181c48 48 116 77 196 77c84 0 143 -22 192 -65l-31 -36c-43 35 -89 54 -161 54c-60 0 -113 -20 -152 -59s-60 -88 -60 -152c0 -67 24 -119 64 -158
c37 -35 89 -57 146 -57c63 0 107 19 146 48v151l-141 5v39h192zM293 -55c32 0 49 -20 49 -45c0 -9 -2 -16 -5 -23l-39 -95l-30 8l12 66c-23 5 -34 21 -34 44c0 25 16 45 47 45z" />
    <glyph glyph-name="Hcircumflex" unicode="&#x124;" horiz-adv-x="620" 
d="M514 600h56v-600h-56v303h-409v-303h-55v600h55v-249h409v249zM199 647l-24 23l123 121h23l123 -121l-24 -23l-111 94z" />
    <glyph glyph-name="hcircumflex" unicode="&#x125;" horiz-adv-x="537" 
d="M433 500h54v-500h-54v245h-329v-245h-54v500h54v-209h329v209zM396 573l-21 -23l-107 88l-107 -88l-21 23l116 113h24z" />
    <glyph glyph-name="Hbar" unicode="&#x126;" horiz-adv-x="620" 
d="M514 600h56v-95h39v-47h-39v-458h-56v304h-408v-304h-56v458h-40v47h40v95h56v-95h408v95zM106 351h408v107h-408v-107z" />
    <glyph glyph-name="hbar" unicode="&#x127;" horiz-adv-x="537" 
d="M433 500h54v-81h35v-45h-35v-374h-54v245h-329v-245h-54v374h-35v45h35v81h54v-81h329v81zM104 290h329v84h-329v-84z" />
    <glyph glyph-name="Itilde" unicode="&#x128;" horiz-adv-x="156" 
d="M106 600v-600h-56v600h56zM153 650c-35 0 -58 10 -78 21c-19 11 -39 21 -70 21c-25 0 -43 -6 -66 -25l-20 26c32 28 59 40 91 40c37 0 61 -13 84 -25c17 -11 38 -16 64 -16c28 0 39 4 62 23l22 -26c-28 -26 -58 -39 -89 -39z" />
    <glyph glyph-name="itilde" unicode="&#x129;" horiz-adv-x="153" 
d="M50 500h53v-500h-53v500zM146 563c-32 0 -54 9 -73 20s-37 20 -66 20c-24 0 -41 -8 -61 -25l-19 24c31 28 55 39 86 39c35 0 57 -11 78 -24c16 -10 36 -15 61 -15s36 5 57 22l21 -24c-29 -27 -53 -37 -84 -37z" />
    <glyph glyph-name="imacron" unicode="&#x12b;" horiz-adv-x="153" 
d="M50 500h53v-500h-53v500zM-65 614h287v-43h-287v43z" />
    <glyph glyph-name="Ibreve" unicode="&#x12c;" horiz-adv-x="156" 
d="M106 600v-600h-56v600h56zM164 755l43 -6c-7 -32 -17 -58 -38 -77c-23 -21 -52 -31 -88 -31c-39 0 -70 11 -94 33c-19 19 -28 43 -35 75l42 6c5 -23 14 -43 29 -56c16 -13 35 -19 58 -19c25 0 44 7 57 20c11 12 20 30 26 55z" />
    <glyph glyph-name="Iogonek" unicode="&#x12e;" horiz-adv-x="156" 
d="M106 600v-600c-11 -3 -20 -10 -26 -19c-4 -8 -6 -17 -6 -27c0 -16 4 -34 16 -49c11 -13 27 -22 48 -33l-13 -29c-24 7 -49 20 -65 37c-17 19 -28 39 -28 66c0 23 7 41 22 54h-4v600h56z" />
    <glyph glyph-name="iogonek" unicode="&#x12f;" horiz-adv-x="153" 
d="M50 500h53v-500c-8 -5 -14 -12 -18 -23c-3 -6 -4 -13 -4 -21c0 -17 5 -32 14 -44c9 -13 24 -26 47 -38l-15 -26c-27 10 -49 23 -64 39c-15 17 -24 35 -24 62c0 19 6 34 22 51h-11v500z" />
    <glyph glyph-name="Idot" unicode="&#x130;" horiz-adv-x="156" 
d="M106 600v-600h-56v600h56zM38 683c0 23 18 40 41 40s42 -17 42 -40s-19 -41 -42 -41s-41 18 -41 41z" />
    <glyph glyph-name="Jcircumflex" unicode="&#x134;" horiz-adv-x="511" 
d="M410 600h56v-334c0 -93 -23 -161 -70 -205c-45 -44 -108 -72 -192 -72c-72 0 -142 29 -189 73l30 41c45 -37 96 -65 156 -65c64 0 114 15 150 51c40 40 59 85 59 164v347zM293 632l-24 23l123 121h23l123 -121l-24 -23l-111 94z" />
    <glyph glyph-name="jcircumflex" unicode="&#x135;" horiz-adv-x="439" 
d="M341 500h53v-288c0 -76 -20 -125 -59 -164c-37 -36 -89 -57 -160 -57c-60 0 -121 23 -160 63l30 38c36 -31 75 -54 128 -54c47 0 88 11 119 39c36 35 49 73 49 124v299zM500 573l-21 -23l-107 88l-107 -88l-21 23l116 113h24z" />
    <glyph glyph-name="Kcommaaccent" unicode="&#x136;" horiz-adv-x="594" 
d="M50 600h56v-255h179l200 255h64l-216 -274l241 -326h-64l-224 298h-180v-298h-56v600zM273 18c28 0 44 -17 44 -40c0 -9 -1 -15 -3 -20l-37 -88l-32 10l14 58c-19 4 -29 20 -29 40c0 23 16 40 43 40z" />
    <glyph glyph-name="kcommaaccent" unicode="&#x137;" horiz-adv-x="508" 
d="M50 500h54v-209h140l163 209h60l-180 -229l202 -271h-61l-185 247h-139v-247h-54v500zM240 -3c28 0 45 -18 45 -41c0 -7 -1 -14 -4 -21l-35 -88l-31 8l11 61c-19 5 -29 19 -29 40c0 23 16 41 43 41z" />
    <glyph glyph-name="kgreenlandic" unicode="&#x138;" horiz-adv-x="508" 
d="M50 500h54v-209h140l163 209h60l-180 -229l202 -271h-61l-185 247h-139v-247h-54v500z" />
    <glyph glyph-name="Lacute" unicode="&#x139;" horiz-adv-x="541" 
d="M516 47v-47h-466v600h55v-553h411zM72 661l56 135l49 -23l-71 -128z" />
    <glyph glyph-name="lacute" unicode="&#x13a;" horiz-adv-x="475" 
d="M103 46h347v-46h-400v500h53v-454zM72 566l55 137l47 -23l-71 -128z" />
    <glyph glyph-name="Lcommaaccent" unicode="&#x13b;" horiz-adv-x="541" 
d="M516 47v-47h-466v600h55v-553h411zM290 -23c28 0 44 -17 44 -40c0 -9 -1 -15 -3 -20l-37 -88l-32 10l14 58c-19 4 -29 20 -29 40c0 23 16 40 43 40z" />
    <glyph glyph-name="lcommaaccent" unicode="&#x13c;" horiz-adv-x="475" 
d="M103 46h347v-46h-400v500h53v-454zM251 -44c28 0 45 -18 45 -41c0 -7 -1 -14 -4 -21l-35 -88l-31 8l11 61c-19 5 -29 19 -29 40c0 23 16 41 43 41z" />
    <glyph glyph-name="Lcaron" unicode="&#x13d;" horiz-adv-x="541" 
d="M516 47v-47h-466v600h55v-553h411zM-56 763l21 22l113 -93l113 93l22 -22l-123 -120h-23z" />
    <glyph glyph-name="lcaron" unicode="&#x13e;" horiz-adv-x="703" 
d="M103 46h347v-46h-400v500h53v-454zM-49 662l21 24l107 -89l108 89l20 -24l-116 -112h-23z" />
    <glyph glyph-name="Ldot" unicode="&#x13f;" horiz-adv-x="541" 
d="M516 47v-47h-466v600h55v-553h411zM245 291c0 23 18 40 41 40s42 -17 42 -40s-19 -41 -42 -41s-41 18 -41 41z" />
    <glyph glyph-name="ldot" unicode="&#x140;" horiz-adv-x="475" 
d="M103 46h347v-46h-400v500h53v-454zM246 298c0 23 16 39 39 39s39 -16 39 -39s-16 -39 -39 -39s-39 16 -39 39z" />
    <glyph glyph-name="Lslash" unicode="&#x141;" horiz-adv-x="541" 
d="M25 255l-13 44l38 11v290h56v-274l138 40l13 -46l-151 -43v-230h410v-47h-466v262z" />
    <glyph glyph-name="lslash" unicode="&#x142;" horiz-adv-x="475" 
d="M20 199l-17 40l47 24v237h53v-208l134 66l18 -41l-152 -76v-195h347v-46h-400v214z" />
    <glyph glyph-name="Nacute" unicode="&#x143;" horiz-adv-x="657" 
d="M555 600h52v-600h-62l-441 530v-530h-54v600h63l442 -528v528zM305 661l56 135l49 -23l-71 -128z" />
    <glyph glyph-name="nacute" unicode="&#x144;" horiz-adv-x="565" 
d="M464 500h51v-500h-56l-357 432v-432h-52v500h57l357 -431v431zM262 566l55 137l47 -23l-71 -128z" />
    <glyph glyph-name="Ncommaaccent" unicode="&#x145;" horiz-adv-x="657" 
d="M555 600h52v-600h-62l-441 530v-530h-54v600h63l442 -528v528zM334 -8c28 0 44 -17 44 -40c0 -9 -1 -15 -3 -20l-37 -88l-32 10l14 58c-19 4 -29 20 -29 40c0 23 16 40 43 40z" />
    <glyph glyph-name="ncommaaccent" unicode="&#x146;" horiz-adv-x="565" 
d="M464 500h51v-500h-56l-357 432v-432h-52v500h57l357 -431v431zM272 -7c28 0 45 -18 45 -41c0 -7 -1 -14 -4 -21l-35 -88l-31 8l11 61c-19 5 -29 19 -29 40c0 23 16 41 43 41z" />
    <glyph glyph-name="Ncaron" unicode="&#x147;" horiz-adv-x="657" 
d="M555 600h52v-600h-62l-441 530v-530h-54v600h63l442 -528v528zM186 763l21 22l113 -93l113 93l22 -22l-123 -120h-23z" />
    <glyph glyph-name="ncaron" unicode="&#x148;" horiz-adv-x="565" 
d="M464 500h51v-500h-56l-357 432v-432h-52v500h57l357 -431v431zM152 662l21 24l107 -89l108 89l20 -24l-116 -112h-23z" />
    <glyph glyph-name="napostrophe" unicode="&#x149;" horiz-adv-x="644" 
d="M543 500h51v-500h-56l-357 432v-432h-52v500h57l357 -431v431zM38 586c28 0 45 -18 45 -41c0 -7 -1 -14 -4 -21l-35 -88l-31 8l11 61c-19 5 -29 19 -29 40c0 23 16 41 43 41z" />
    <glyph glyph-name="Omacron" unicode="&#x14c;" horiz-adv-x="694" 
d="M347 611c92 0 171 -34 228 -90c56 -56 89 -134 89 -221c0 -85 -31 -161 -87 -217c-56 -59 -135 -94 -230 -94c-97 0 -179 37 -236 98c-52 57 -81 129 -81 213s31 159 84 215c56 60 137 96 233 96zM86 300c0 -73 27 -135 68 -182c48 -52 116 -82 193 -82
c76 0 143 29 191 81c43 47 69 108 69 183c0 76 -27 139 -72 186c-47 49 -112 76 -188 76s-144 -28 -191 -79c-43 -47 -70 -108 -70 -183zM189 695h316v-45h-316v45z" />
    <glyph glyph-name="omacron" unicode="&#x14d;" horiz-adv-x="590" 
d="M295 509c79 0 146 -30 193 -78c47 -47 70 -110 70 -181c0 -73 -26 -139 -75 -186c-47 -45 -112 -73 -188 -73c-77 0 -143 28 -190 75s-75 112 -75 184c0 75 29 141 80 188c47 44 109 71 185 71zM84 250c0 -63 22 -115 59 -152c40 -40 91 -60 152 -60c59 0 111 20 148 57
c39 39 63 91 63 155c0 65 -25 120 -64 157c-37 36 -90 55 -147 55c-63 0 -113 -20 -152 -61c-37 -37 -59 -90 -59 -151zM150 614h287v-43h-287v43z" />
    <glyph glyph-name="Obreve" unicode="&#x14e;" horiz-adv-x="694" 
d="M347 611c92 0 171 -34 228 -90c56 -56 89 -134 89 -221c0 -85 -31 -161 -87 -217c-56 -59 -135 -94 -230 -94c-97 0 -179 37 -236 98c-52 57 -81 129 -81 213s31 159 84 215c56 60 137 96 233 96zM86 300c0 -73 27 -135 68 -182c48 -52 116 -82 193 -82
c76 0 143 29 191 81c43 47 69 108 69 183c0 76 -27 139 -72 186c-47 49 -112 76 -188 76s-144 -28 -191 -79c-43 -47 -70 -108 -70 -183zM431 755l43 -6c-7 -32 -17 -58 -38 -77c-23 -21 -52 -31 -88 -31c-39 0 -70 11 -94 33c-19 19 -28 43 -35 75l42 6
c5 -23 14 -43 29 -56c16 -13 35 -19 58 -19c25 0 44 7 57 20c11 12 20 30 26 55z" />
    <glyph glyph-name="obreve" unicode="&#x14f;" horiz-adv-x="590" 
d="M295 509c79 0 146 -30 193 -78c47 -47 70 -110 70 -181c0 -73 -26 -139 -75 -186c-47 -45 -112 -73 -188 -73c-77 0 -143 28 -190 75s-75 112 -75 184c0 75 29 141 80 188c47 44 109 71 185 71zM84 250c0 -63 22 -115 59 -152c40 -40 91 -60 152 -60c59 0 111 20 148 57
c39 39 63 91 63 155c0 65 -25 120 -64 157c-37 36 -90 55 -147 55c-63 0 -113 -20 -152 -61c-37 -37 -59 -90 -59 -151zM295 557c-36 0 -60 12 -79 32c-13 17 -21 36 -23 58l36 7c5 -19 12 -34 24 -45c10 -9 24 -14 41 -14c18 0 32 5 42 14c11 11 19 26 23 45l37 -7
c-2 -22 -10 -42 -24 -59c-19 -20 -42 -31 -77 -31z" />
    <glyph glyph-name="Ohungarumlaut" unicode="&#x150;" horiz-adv-x="694" 
d="M347 611c92 0 171 -34 228 -90c56 -56 89 -134 89 -221c0 -85 -31 -161 -87 -217c-56 -59 -135 -94 -230 -94c-97 0 -179 37 -236 98c-52 57 -81 129 -81 213s31 159 84 215c56 60 137 96 233 96zM86 300c0 -73 27 -135 68 -182c48 -52 116 -82 193 -82
c76 0 143 29 191 81c43 47 69 108 69 183c0 76 -27 139 -72 186c-47 49 -112 76 -188 76s-144 -28 -191 -79c-43 -47 -70 -108 -70 -183zM280 669l42 147l55 -22l-59 -139zM371 672l67 142l50 -23l-82 -135z" />
    <glyph glyph-name="ohungarumlaut" unicode="&#x151;" horiz-adv-x="590" 
d="M295 509c79 0 146 -30 193 -78c47 -47 70 -110 70 -181c0 -73 -26 -139 -75 -186c-47 -45 -112 -73 -188 -73c-77 0 -143 28 -190 75s-75 112 -75 184c0 75 29 141 80 188c47 44 109 71 185 71zM84 250c0 -63 22 -115 59 -152c40 -40 91 -60 152 -60c59 0 111 20 148 57
c39 39 63 91 63 155c0 65 -25 120 -64 157c-37 36 -90 55 -147 55c-63 0 -113 -20 -152 -61c-37 -37 -59 -90 -59 -151zM244 568l43 137l50 -20l-60 -131zM336 567l63 136l45 -23l-76 -126z" />
    <glyph glyph-name="OE" unicode="&#x152;" horiz-adv-x="1103" 
d="M347 611c103 0 192 -41 261 -125v114h440v-50h-384v-207h342v-49h-342v-245h399v-49h-455v115c-59 -83 -157 -126 -261 -126c-99 0 -179 37 -236 98c-52 57 -81 129 -81 213s31 159 84 215c56 60 137 96 233 96zM87 300c0 -73 25 -133 68 -180c47 -51 116 -82 192 -82
s143 28 190 79c44 47 69 111 69 183c0 76 -27 138 -71 185c-47 49 -112 77 -188 77s-144 -28 -191 -79c-43 -47 -69 -108 -69 -183z" />
    <glyph glyph-name="oe" unicode="&#x153;" horiz-adv-x="926" 
d="M295 509c88 0 161 -33 210 -97v88h369v-47h-315v-163h280v-46h-280v-198h327v-46h-381v87c-56 -64 -129 -96 -210 -96c-77 0 -143 28 -190 75s-75 112 -75 184c0 75 29 141 80 188c47 44 109 71 185 71zM84 250c0 -63 22 -115 59 -152c39 -39 92 -61 152 -61
c59 0 111 21 148 58c36 35 62 84 62 155c0 65 -24 120 -63 157c-37 36 -90 56 -147 56c-62 0 -113 -21 -152 -62c-37 -37 -59 -90 -59 -151z" />
    <glyph glyph-name="Racute" unicode="&#x154;" horiz-adv-x="591" 
d="M561 388c0 -49 -14 -91 -42 -127c-27 -35 -62 -60 -109 -73l114 -188h-59l-105 179h-254v-179h-56v600h285c68 0 125 -23 165 -62c39 -39 61 -90 61 -150zM106 551v-324h231c57 0 99 18 126 49c28 31 42 69 42 112s-15 81 -39 109c-28 33 -74 54 -135 54h-225zM239 661
l56 135l49 -23l-71 -128z" />
    <glyph glyph-name="racute" unicode="&#x155;" horiz-adv-x="508" 
d="M478 323c0 -39 -12 -73 -33 -102c-23 -31 -52 -53 -89 -66l103 -155h-58l-96 147h-201v-147h-54v500h241c52 0 95 -16 130 -47c35 -32 57 -77 57 -130zM104 454v-261h190c43 0 75 16 96 39c23 25 34 55 34 92c0 33 -10 62 -30 85c-23 28 -59 45 -106 45h-184zM220 566
l55 137l47 -23l-71 -128z" />
    <glyph glyph-name="Rcommaaccent" unicode="&#x156;" horiz-adv-x="591" 
d="M561 388c0 -49 -14 -91 -42 -127c-27 -35 -62 -60 -109 -73l114 -188h-59l-105 179h-254v-179h-56v600h285c68 0 125 -23 165 -62c39 -39 61 -90 61 -150zM106 551v-324h231c57 0 99 18 126 49c28 31 42 69 42 112s-15 81 -39 109c-28 33 -74 54 -135 54h-225zM282 -7
c28 0 45 -18 45 -41c0 -7 -1 -14 -4 -21l-35 -88l-31 8l11 61c-19 5 -29 19 -29 40c0 23 16 41 43 41z" />
    <glyph glyph-name="rcommaaccent" unicode="&#x157;" horiz-adv-x="508" 
d="M478 323c0 -39 -12 -73 -33 -102c-23 -31 -52 -53 -89 -66l103 -155h-58l-96 147h-201v-147h-54v500h241c52 0 95 -16 130 -47c35 -32 57 -77 57 -130zM104 454v-261h190c43 0 75 16 96 39c23 25 34 55 34 92c0 33 -10 62 -30 85c-23 28 -59 45 -106 45h-184zM236 5
c28 0 45 -18 45 -41c0 -7 -1 -14 -4 -21l-35 -88l-31 8l11 61c-19 5 -29 19 -29 40c0 23 16 41 43 41z" />
    <glyph glyph-name="Rcaron" unicode="&#x158;" horiz-adv-x="591" 
d="M561 388c0 -49 -14 -91 -42 -127c-27 -35 -62 -60 -109 -73l114 -188h-59l-105 179h-254v-179h-56v600h285c68 0 125 -23 165 -62c39 -39 61 -90 61 -150zM106 551v-324h231c57 0 99 18 126 49c28 31 42 69 42 112s-15 81 -39 109c-28 33 -74 54 -135 54h-225zM144 763
l21 22l113 -93l113 93l22 -22l-123 -120h-23z" />
    <glyph glyph-name="rcaron" unicode="&#x159;" horiz-adv-x="508" 
d="M478 323c0 -39 -12 -73 -33 -102c-23 -31 -52 -53 -89 -66l103 -155h-58l-96 147h-201v-147h-54v500h241c52 0 95 -16 130 -47c35 -32 57 -77 57 -130zM104 454v-261h190c43 0 75 16 96 39c23 25 34 55 34 92c0 33 -10 62 -30 85c-23 28 -59 45 -106 45h-184zM111 662
l21 24l107 -89l108 89l20 -24l-116 -112h-23z" />
    <glyph glyph-name="Sacute" unicode="&#x15a;" horiz-adv-x="571" 
d="M35 450c0 59 26 98 69 123c45 27 106 38 174 38c80 0 152 -15 225 -44l-18 -44c-61 24 -129 40 -201 40c-41 0 -100 -4 -143 -27c-31 -17 -53 -38 -53 -85c0 -32 15 -54 34 -67c24 -16 61 -25 88 -29l135 -23c60 -11 118 -27 155 -63c25 -24 41 -56 41 -103
c0 -44 -22 -94 -65 -127c-45 -35 -107 -50 -215 -50c-75 0 -162 18 -231 45l15 46c67 -21 158 -41 215 -41s137 0 186 38c24 19 40 47 40 86c0 36 -14 61 -38 80c-27 17 -66 29 -109 36l-139 23c-51 8 -92 22 -121 46c-28 23 -44 55 -44 102zM252 661l56 135l49 -23
l-71 -128z" />
    <glyph glyph-name="sacute" unicode="&#x15b;" horiz-adv-x="495" 
d="M34 380c0 44 21 74 52 93c45 29 110 36 155 36c68 0 130 -12 194 -39l-18 -41c-53 21 -109 34 -170 34c-40 0 -90 -4 -127 -24c-21 -13 -32 -33 -32 -60c0 -19 6 -33 19 -44c20 -19 48 -24 76 -29l115 -20c51 -9 100 -23 132 -55c20 -21 35 -49 35 -88
c0 -48 -18 -82 -47 -105c-45 -36 -116 -47 -191 -47c-67 0 -138 11 -198 38l19 46c60 -24 126 -36 178 -36c71 0 125 10 156 37c19 16 29 36 29 64c0 31 -11 48 -28 63c-23 17 -56 23 -91 30l-124 23c-33 7 -64 15 -89 34c-27 20 -45 47 -45 90zM222 566l55 137l47 -23
l-71 -128z" />
    <glyph glyph-name="Scircumflex" unicode="&#x15c;" horiz-adv-x="571" 
d="M35 450c0 59 26 98 69 123c45 27 106 38 174 38c80 0 152 -15 225 -44l-18 -44c-61 24 -129 40 -201 40c-41 0 -100 -4 -143 -27c-31 -17 -53 -38 -53 -85c0 -32 15 -54 34 -67c24 -16 61 -25 88 -29l135 -23c60 -11 118 -27 155 -63c25 -24 41 -56 41 -103
c0 -44 -22 -94 -65 -127c-45 -35 -107 -50 -215 -50c-75 0 -162 18 -231 45l15 46c67 -21 158 -41 215 -41s137 0 186 38c24 19 40 47 40 86c0 36 -14 61 -38 80c-27 17 -66 29 -109 36l-139 23c-51 8 -92 22 -121 46c-28 23 -44 55 -44 102zM172 647l-24 23l123 121h23
l123 -121l-24 -23l-111 94z" />
    <glyph glyph-name="scircumflex" unicode="&#x15d;" horiz-adv-x="495" 
d="M34 380c0 44 21 74 52 93c45 29 110 36 155 36c68 0 130 -12 194 -39l-18 -41c-53 21 -109 34 -170 34c-40 0 -90 -4 -127 -24c-21 -13 -32 -33 -32 -60c0 -19 6 -33 19 -44c20 -19 48 -24 76 -29l115 -20c51 -9 100 -23 132 -55c20 -21 35 -49 35 -88
c0 -48 -18 -82 -47 -105c-45 -36 -116 -47 -191 -47c-67 0 -138 11 -198 38l19 46c60 -24 126 -36 178 -36c71 0 125 10 156 37c19 16 29 36 29 64c0 31 -11 48 -28 63c-23 17 -56 23 -91 30l-124 23c-33 7 -64 15 -89 34c-27 20 -45 47 -45 90zM373 573l-21 -23l-107 88
l-107 -88l-21 23l116 113h24z" />
    <glyph glyph-name="Scedilla" unicode="&#x15e;" horiz-adv-x="571" 
d="M35 450c0 59 26 98 69 123c45 27 106 38 174 38c79 0 154 -15 225 -44l-19 -45c-61 24 -128 41 -200 41c-41 0 -100 -4 -143 -27c-31 -17 -53 -38 -53 -85c0 -32 15 -54 34 -67c24 -16 61 -25 88 -29l135 -23c60 -11 118 -27 155 -63c25 -24 41 -56 41 -103
c0 -44 -22 -94 -65 -127s-102 -47 -198 -50l-1 -28c18 0 33 -6 46 -17c11 -10 16 -24 16 -41c0 -35 -16 -61 -43 -78c-23 -13 -46 -21 -73 -26l-8 32c28 7 45 13 56 21c19 12 26 30 26 47c0 7 -3 13 -8 18c-5 4 -12 6 -21 6h-32v67c-68 3 -145 21 -206 44l16 47
c68 -23 147 -42 214 -42c57 0 137 0 186 38c24 19 40 47 40 86c0 36 -14 61 -38 80c-27 17 -66 29 -109 36l-139 23c-51 8 -92 22 -121 46c-28 23 -44 55 -44 102z" />
    <glyph glyph-name="scedilla" unicode="&#x15f;" horiz-adv-x="495" 
d="M34 380c0 44 21 74 52 93c45 29 110 36 155 36c68 0 130 -12 194 -39l-18 -41c-53 21 -109 34 -170 34c-40 0 -90 -4 -127 -24c-21 -13 -32 -33 -32 -60c0 -19 6 -33 19 -44c20 -19 48 -24 76 -29l115 -20c51 -9 100 -23 132 -55c20 -21 35 -49 35 -88
c0 -48 -18 -82 -47 -105c-43 -35 -109 -44 -178 -47l-1 -22c20 0 35 -9 44 -22c8 -11 12 -25 12 -40c0 -24 -12 -44 -35 -60c-18 -13 -42 -22 -73 -29l-10 30c17 5 39 13 55 24c16 9 24 22 24 40c0 7 -2 12 -6 16s-11 6 -20 6h-26v58c-60 3 -123 14 -175 37l19 46
c60 -24 126 -36 178 -36c71 0 125 10 156 37c19 16 29 36 29 64c0 31 -11 48 -28 63c-23 17 -56 23 -91 30l-124 23c-33 7 -64 15 -89 34c-27 20 -45 47 -45 90z" />
    <glyph glyph-name="Scaron" unicode="&#x160;" horiz-adv-x="571" 
d="M35 450c0 59 26 98 69 123c45 27 106 38 174 38c80 0 152 -15 225 -44l-18 -44c-61 24 -129 40 -201 40c-41 0 -100 -4 -143 -27c-31 -17 -53 -38 -53 -85c0 -32 15 -54 34 -67c24 -16 61 -25 88 -29l135 -23c60 -11 118 -27 155 -63c25 -24 41 -56 41 -103
c0 -44 -22 -94 -65 -127c-45 -35 -107 -50 -215 -50c-75 0 -162 18 -231 45l15 46c67 -21 158 -41 215 -41s137 0 186 38c24 19 40 47 40 86c0 36 -14 61 -38 80c-27 17 -66 29 -109 36l-139 23c-51 8 -92 22 -121 46c-28 23 -44 55 -44 102zM158 763l21 22l113 -93l113 93
l22 -22l-123 -120h-23z" />
    <glyph glyph-name="scaron" unicode="&#x161;" horiz-adv-x="495" 
d="M34 380c0 44 21 74 52 93c45 29 110 36 155 36c68 0 130 -12 194 -39l-18 -41c-53 21 -109 34 -170 34c-40 0 -90 -4 -127 -24c-21 -13 -32 -33 -32 -60c0 -19 6 -33 19 -44c20 -19 48 -24 76 -29l115 -20c51 -9 100 -23 132 -55c20 -21 35 -49 35 -88
c0 -48 -18 -82 -47 -105c-45 -36 -116 -47 -191 -47c-67 0 -138 11 -198 38l19 46c60 -24 126 -36 178 -36c71 0 125 10 156 37c19 16 29 36 29 64c0 31 -11 48 -28 63c-23 17 -56 23 -91 30l-124 23c-33 7 -64 15 -89 34c-27 20 -45 47 -45 90zM119 662l21 24l107 -89
l108 89l20 -24l-116 -112h-23z" />
    <glyph glyph-name="Tcommaaccent" unicode="&#x162;" horiz-adv-x="608" 
d="M25 553v47h558v-47h-251v-553h-56v553h-251zM302 -28c28 0 45 -18 45 -41c0 -7 -1 -14 -4 -21l-35 -88l-31 8l11 61c-19 5 -29 19 -29 40c0 23 16 41 43 41z" />
    <glyph glyph-name="tcommaaccent" unicode="&#x163;" horiz-adv-x="519" 
d="M25 454v46h469v-46h-208v-454h-54v454h-207zM258 -38c28 0 45 -18 45 -41c0 -7 -1 -14 -4 -21l-35 -88l-31 8l11 61c-19 5 -29 19 -29 40c0 23 16 41 43 41z" />
    <glyph glyph-name="Tcaron" unicode="&#x164;" horiz-adv-x="608" 
d="M25 553v47h558v-47h-251v-553h-56v553h-251zM169 763l21 22l113 -93l113 93l22 -22l-123 -120h-23z" />
    <glyph glyph-name="tcaron" unicode="&#x165;" horiz-adv-x="519" 
d="M25 454v46h469v-46h-208v-454h-54v454h-207zM131 662l21 24l107 -89l108 89l20 -24l-116 -112h-23z" />
    <glyph glyph-name="Tbar" unicode="&#x166;" horiz-adv-x="608" 
d="M136 309v47h140v197h-251v47h558v-47h-251v-197h140v-47h-140v-309h-56v309h-140z" />
    <glyph glyph-name="tbar" unicode="&#x167;" horiz-adv-x="519" 
d="M120 251v43h112v160h-207v46h469v-46h-208v-160h112v-43h-112v-251h-54v251h-112z" />
    <glyph glyph-name="Utilde" unicode="&#x168;" horiz-adv-x="614" 
d="M564 258c0 -85 -26 -152 -77 -201c-45 -43 -106 -68 -178 -68c-77 0 -140 29 -184 73c-47 47 -75 112 -75 196v342h56v-349c0 -68 22 -119 57 -154c36 -39 86 -61 146 -61s109 23 144 59s55 87 55 156v349h56v-342zM379 650c-35 0 -58 10 -78 21c-19 11 -39 21 -70 21
c-25 0 -43 -6 -66 -25l-20 26c32 28 59 40 91 40c37 0 61 -13 84 -25c17 -11 38 -16 64 -16c28 0 39 4 62 23l22 -26c-28 -26 -58 -39 -89 -39z" />
    <glyph glyph-name="utilde" unicode="&#x169;" horiz-adv-x="533" 
d="M482 211c0 -67 -23 -123 -66 -162c-37 -36 -89 -58 -150 -58c-64 0 -117 24 -154 61c-39 40 -62 95 -62 159v289h54v-295c0 -51 17 -91 45 -120c29 -31 70 -49 117 -49c49 0 90 19 118 48s44 70 44 121v295h54v-289zM333 563c-32 0 -54 9 -73 20s-37 20 -66 20
c-24 0 -41 -8 -61 -25l-19 24c31 28 55 39 86 39c35 0 57 -11 78 -24c16 -10 36 -15 61 -15s36 5 57 22l21 -24c-29 -27 -53 -37 -84 -37z" />
    <glyph glyph-name="Umacron" unicode="&#x16a;" horiz-adv-x="614" 
d="M564 258c0 -85 -26 -152 -77 -201c-45 -43 -106 -68 -178 -68c-77 0 -140 29 -184 73c-47 47 -75 112 -75 196v342h56v-349c0 -68 22 -119 57 -154c36 -39 86 -61 146 -61s109 23 144 59s55 87 55 156v349h56v-342zM149 695h316v-45h-316v45z" />
    <glyph glyph-name="umacron" unicode="&#x16b;" horiz-adv-x="533" 
d="M482 211c0 -67 -23 -123 -66 -162c-37 -36 -89 -58 -150 -58c-64 0 -117 24 -154 61c-39 40 -62 95 -62 159v289h54v-295c0 -51 17 -91 45 -120c29 -31 70 -49 117 -49c49 0 90 19 118 48s44 70 44 121v295h54v-289zM122 614h287v-43h-287v43z" />
    <glyph glyph-name="Ubreve" unicode="&#x16c;" horiz-adv-x="614" 
d="M564 258c0 -85 -26 -152 -77 -201c-45 -43 -106 -68 -178 -68c-77 0 -140 29 -184 73c-47 47 -75 112 -75 196v342h56v-349c0 -68 22 -119 57 -154c36 -39 86 -61 146 -61s109 23 144 59s55 87 55 156v349h56v-342zM390 755l43 -6c-7 -32 -17 -58 -38 -77
c-23 -21 -52 -31 -88 -31c-39 0 -70 11 -94 33c-19 19 -28 43 -35 75l42 6c5 -23 14 -43 29 -56c16 -13 35 -19 58 -19c25 0 44 7 57 20c11 12 20 30 26 55z" />
    <glyph glyph-name="ubreve" unicode="&#x16d;" horiz-adv-x="533" 
d="M482 211c0 -67 -23 -123 -66 -162c-37 -36 -89 -58 -150 -58c-64 0 -117 24 -154 61c-39 40 -62 95 -62 159v289h54v-295c0 -51 17 -91 45 -120c29 -31 70 -49 117 -49c49 0 90 19 118 48s44 70 44 121v295h54v-289zM267 557c-36 0 -60 12 -79 32c-13 17 -21 36 -23 58
l36 7c5 -19 12 -34 24 -45c10 -9 24 -14 41 -14c18 0 32 5 42 14c11 11 19 26 23 45l37 -7c-2 -22 -10 -42 -24 -59c-19 -20 -42 -31 -77 -31z" />
    <glyph glyph-name="Uring" unicode="&#x16e;" horiz-adv-x="614" 
d="M564 258c0 -85 -26 -152 -77 -201c-45 -43 -106 -68 -178 -68c-77 0 -140 29 -184 73c-47 47 -75 112 -75 196v342h56v-349c0 -68 22 -119 57 -154c36 -39 86 -61 146 -61s109 23 144 59s55 87 55 156v349h56v-342zM306 629c-28 0 -52 10 -72 30c-17 17 -29 42 -29 70
c0 29 11 54 30 71c19 19 43 29 71 29s52 -10 71 -29c19 -17 30 -42 30 -71s-12 -53 -29 -70c-20 -20 -44 -30 -72 -30zM306 669c19 0 33 6 42 18c11 11 15 26 15 42c0 19 -5 33 -15 43c-9 11 -23 17 -42 17c-18 0 -32 -6 -42 -17c-10 -12 -15 -26 -15 -43
c0 -16 4 -31 15 -42c9 -12 23 -18 42 -18z" />
    <glyph glyph-name="uring" unicode="&#x16f;" horiz-adv-x="533" 
d="M482 211c0 -67 -23 -123 -66 -162c-37 -36 -89 -58 -150 -58c-64 0 -117 24 -154 61c-39 40 -62 95 -62 159v289h54v-295c0 -51 17 -91 45 -120c29 -31 70 -49 117 -49c49 0 90 19 118 48s44 70 44 121v295h54v-289zM266 567c-27 0 -49 9 -68 28c-16 16 -27 39 -27 66
s11 50 27 67c18 18 41 27 68 27s49 -9 68 -26c17 -17 28 -41 28 -68s-11 -49 -27 -66c-19 -19 -42 -28 -69 -28zM266 601c19 0 34 6 43 17c11 11 15 27 15 43c0 17 -5 32 -15 43c-10 12 -24 18 -43 18c-18 0 -32 -6 -43 -18c-10 -12 -15 -26 -15 -43c0 -16 4 -32 15 -43
c10 -11 24 -17 43 -17z" />
    <glyph glyph-name="Uhungarumlaut" unicode="&#x170;" horiz-adv-x="614" 
d="M564 258c0 -85 -26 -152 -77 -201c-45 -43 -106 -68 -178 -68c-77 0 -140 29 -184 73c-47 47 -75 112 -75 196v342h56v-349c0 -68 22 -119 57 -154c36 -39 86 -61 146 -61s109 23 144 59s55 87 55 156v349h56v-342zM230 669l42 147l55 -22l-59 -139zM321 672l67 142
l50 -23l-82 -135z" />
    <glyph glyph-name="uhungarumlaut" unicode="&#x171;" horiz-adv-x="533" 
d="M482 211c0 -67 -23 -123 -66 -162c-37 -36 -89 -58 -150 -58c-64 0 -117 24 -154 61c-39 40 -62 95 -62 159v289h54v-295c0 -51 17 -91 45 -120c29 -31 70 -49 117 -49c49 0 90 19 118 48s44 70 44 121v295h54v-289zM199 568l43 137l50 -20l-60 -131zM291 567l63 136
l45 -23l-76 -126z" />
    <glyph glyph-name="Uogonek" unicode="&#x172;" horiz-adv-x="614" 
d="M564 258c0 -85 -26 -152 -77 -201c-41 -39 -90 -63 -147 -67c-9 -1 -16 -5 -20 -14c-5 -11 -7 -24 -7 -36c0 -18 6 -33 17 -46c11 -15 26 -23 46 -34l-12 -29c-27 7 -51 19 -68 40c-15 16 -23 37 -23 62c0 19 8 38 23 57c-72 3 -129 29 -172 72c-47 47 -74 112 -74 196
v342h56v-349c0 -68 22 -119 57 -154c36 -39 86 -61 146 -61s109 23 144 59s55 87 55 156v349h56v-342z" />
    <glyph glyph-name="uogonek" unicode="&#x173;" horiz-adv-x="533" 
d="M482 211c0 -67 -24 -123 -65 -163c-31 -29 -71 -48 -118 -55c-15 -9 -23 -24 -23 -43c0 -17 5 -32 16 -46c7 -11 22 -24 45 -37l-14 -26c-28 11 -49 24 -64 40c-16 17 -24 37 -24 62c0 21 7 33 18 48c-59 3 -106 26 -141 61c-39 40 -62 95 -62 159v289h54v-295
c0 -51 17 -91 45 -120c29 -31 70 -49 117 -49c49 0 90 19 118 48s44 70 44 121v295h54v-289z" />
    <glyph glyph-name="Wcircumflex" unicode="&#x174;" horiz-adv-x="957" 
d="M313 0h-86l-202 600h64l177 -556h12l159 556h83l165 -556h12l175 556h60l-199 -600h-88l-163 551h-12zM368 647l-24 23l123 121h23l123 -121l-24 -23l-111 94z" />
    <glyph glyph-name="wcircumflex" unicode="&#x175;" horiz-adv-x="829" 
d="M282 0h-87l-165 500h59l147 -457h8l127 457h85l134 -457h8l144 457h57l-164 -500h-88l-132 456h-5zM541 573l-21 -23l-107 88l-107 -88l-21 23l116 113h24z" />
    <glyph glyph-name="Ycircumflex" unicode="&#x176;" horiz-adv-x="629" 
d="M343 0h-56v134l-261 466h64l224 -405h5l224 405h61l-261 -462v-138zM203 647l-24 23l123 121h23l123 -121l-24 -23l-111 94z" />
    <glyph glyph-name="ycircumflex" unicode="&#x177;" horiz-adv-x="537" 
d="M296 0h-54v117l-217 383h61l181 -327h4l183 327h58l-216 -380v-120zM396 573l-21 -23l-107 88l-107 -88l-21 23l116 113h24z" />
    <glyph glyph-name="Ydieresis" unicode="&#x178;" horiz-adv-x="629" 
d="M343 0h-56v134l-261 466h64l224 -405h5l224 405h61l-261 -462v-138zM369 695c0 27 22 48 47 48s47 -21 47 -48c0 -25 -22 -46 -47 -46s-47 21 -47 46zM166 695c0 27 21 48 46 48c27 0 47 -21 47 -48c0 -25 -20 -46 -47 -46c-25 0 -46 21 -46 46z" />
    <glyph glyph-name="Zacute" unicode="&#x179;" horiz-adv-x="603" 
d="M563 50v-50h-523v30l450 528l-208 -5h-212v47h484v-40l-436 -516l200 6h245zM260 661l56 135l49 -23l-71 -128z" />
    <glyph glyph-name="zacute" unicode="&#x17a;" horiz-adv-x="518" 
d="M478 47v-47h-438v29l368 428l-164 -2h-179v45h413v-29l-362 -428l157 4h205zM218 566l55 137l47 -23l-71 -128z" />
    <glyph glyph-name="Zdotaccent" unicode="&#x17b;" horiz-adv-x="603" 
d="M563 50v-50h-523v30l450 528l-208 -5h-212v47h484v-40l-436 -516l200 6h245zM262 685c0 23 18 40 41 40s42 -17 42 -40s-19 -41 -42 -41s-41 18 -41 41z" />
    <glyph glyph-name="zdotaccent" unicode="&#x17c;" horiz-adv-x="518" 
d="M478 47v-47h-438v29l368 428l-164 -2h-179v45h413v-29l-362 -428l157 4h205zM218 581c0 23 16 39 39 39s39 -16 39 -39s-16 -39 -39 -39s-39 16 -39 39z" />
    <glyph glyph-name="Zcaron" unicode="&#x17d;" horiz-adv-x="603" 
d="M563 50v-50h-523v30l450 528l-208 -5h-212v47h484v-40l-436 -516l200 6h245zM172 763l21 22l113 -93l113 93l22 -22l-123 -120h-23z" />
    <glyph glyph-name="zcaron" unicode="&#x17e;" horiz-adv-x="518" 
d="M478 47v-47h-438v29l368 428l-164 -2h-179v45h413v-29l-362 -428l157 4h205zM147 662l21 24l107 -89l108 89l20 -24l-116 -112h-23z" />
    <glyph glyph-name="florin" unicode="&#x192;" horiz-adv-x="390" 
d="M47 -183l-17 37c31 13 52 30 64 51c13 21 17 48 17 81v470h-76v44h76v10c0 51 15 92 46 123c30 30 73 45 129 45c51 0 107 -16 144 -53l-28 -29c-29 25 -67 41 -107 41c-55 0 -89 -15 -110 -42c-15 -20 -23 -48 -23 -85v-10h207v-44h-207v-473c0 -47 -11 -84 -34 -113
c-19 -25 -46 -42 -81 -53z" />
    <glyph glyph-name="AEacute" unicode="&#x1fc;" horiz-adv-x="998" 
d="M503 0v151h-317l-95 -151h-66l386 600h532v-50h-383v-207h341v-50h-341v-244h398v-49h-455zM438 549l-220 -349h285v349h-65zM493 661l56 135l49 -23l-71 -128z" />
    <glyph glyph-name="aeacute" unicode="&#x1fd;" horiz-adv-x="835" 
d="M414 0v130h-244l-82 -130h-63l326 500h430v-47h-313v-166h280v-45h-280v-196h327v-46h-381zM380 449l-178 -273h212v273h-34zM431 566l55 137l47 -23l-71 -128z" />
    <glyph glyph-name="Oslashacute" unicode="&#x1fe;" horiz-adv-x="694" 
d="M347 611c53 0 99 -11 142 -31l23 38l44 -24l-23 -39c35 -23 62 -51 87 -92c31 -48 44 -103 44 -163c0 -85 -31 -162 -87 -218c-56 -59 -135 -93 -230 -93c-53 0 -101 11 -144 30l-32 -52l-43 23l32 53c-45 31 -82 77 -105 133c-16 37 -24 80 -24 124c0 84 30 159 83 215
c56 60 137 96 233 96zM607 300c0 39 -8 76 -23 112c-17 38 -43 71 -78 100l-278 -450c37 -17 76 -26 119 -26c76 0 143 29 191 81c43 47 69 108 69 183zM87 300c0 -36 6 -75 21 -111c19 -40 42 -76 78 -101l277 449c-35 17 -73 27 -116 27c-76 0 -144 -30 -191 -81
c-43 -47 -69 -108 -69 -183zM344 661l56 135l49 -23l-71 -128z" />
    <glyph glyph-name="oslashacute" unicode="&#x1ff;" horiz-adv-x="590" 
d="M295 509c47 0 87 -11 126 -30l20 30l47 -30l-20 -30c25 -21 41 -39 58 -70c21 -39 32 -82 32 -129c0 -73 -26 -139 -75 -186c-47 -45 -112 -73 -188 -73c-47 0 -88 9 -125 28l-19 -27l-45 28l19 27c-29 25 -54 55 -73 96c-15 32 -22 68 -22 107c0 75 29 141 80 188
c47 44 109 71 185 71zM84 250c0 -33 5 -61 16 -88c12 -28 29 -54 52 -74l244 352c-29 16 -64 23 -101 23c-62 0 -113 -21 -152 -62c-37 -37 -59 -90 -59 -151zM486 347c-11 25 -26 45 -45 62l-245 -350c29 -15 62 -22 99 -22c59 0 111 21 148 58c39 39 62 91 62 155
c0 35 -6 68 -19 97zM308 566l55 137l47 -23l-71 -128z" />
    <glyph glyph-name="Scommaaccent" unicode="&#x218;" horiz-adv-x="571" 
d="M35 450c0 59 26 98 69 123c45 27 106 38 174 38c80 0 152 -15 225 -44l-18 -44c-61 24 -129 40 -201 40c-41 0 -100 -4 -143 -27c-31 -17 -53 -38 -53 -85c0 -32 15 -54 34 -67c24 -16 61 -25 88 -29l135 -23c60 -11 118 -27 155 -63c25 -24 41 -56 41 -103
c0 -44 -22 -94 -65 -127c-45 -35 -107 -50 -215 -50c-75 0 -162 18 -231 45l15 46c67 -21 158 -41 215 -41s137 0 186 38c24 19 40 47 40 86c0 36 -14 61 -38 80c-27 17 -66 29 -109 36l-139 23c-51 8 -92 22 -121 46c-28 23 -44 55 -44 102zM264 -34c28 0 44 -17 44 -40
c0 -9 -1 -15 -3 -20l-37 -88l-32 10l14 58c-19 4 -29 20 -29 40c0 23 16 40 43 40z" />
    <glyph glyph-name="scommaaccent" unicode="&#x219;" horiz-adv-x="495" 
d="M34 380c0 44 21 74 52 93c45 29 110 36 155 36c68 0 130 -12 194 -39l-18 -41c-53 21 -109 34 -170 34c-40 0 -90 -4 -127 -24c-21 -13 -32 -33 -32 -60c0 -19 6 -33 19 -44c20 -19 48 -24 76 -29l115 -20c51 -9 100 -23 132 -55c20 -21 35 -49 35 -88
c0 -48 -18 -82 -47 -105c-45 -36 -116 -47 -191 -47c-67 0 -138 11 -198 38l19 46c60 -24 126 -36 178 -36c71 0 125 10 156 37c19 16 29 36 29 64c0 31 -11 48 -28 63c-23 17 -56 23 -91 30l-124 23c-33 7 -64 15 -89 34c-27 20 -45 47 -45 90zM248 -49c28 0 45 -18 45 -41
c0 -7 -1 -14 -4 -21l-35 -88l-31 8l11 61c-19 5 -29 19 -29 40c0 23 16 41 43 41z" />
    <glyph glyph-name="uni021A" unicode="&#x21a;" horiz-adv-x="608" 
d="M25 553v47h558v-47h-251v-553h-13c24 -9 33 -31 33 -54c0 -25 -8 -46 -23 -63c-17 -20 -43 -32 -70 -40l-12 29c21 11 36 20 47 33s17 29 17 48c0 23 -10 42 -35 47v553h-251z" />
    <glyph glyph-name="uni021B" unicode="&#x21b;" horiz-adv-x="519" 
d="M25 454v46h469v-46h-208v-454h-6c13 -9 21 -34 21 -51c0 -25 -8 -45 -24 -62c-15 -16 -36 -29 -63 -39l-15 26c23 13 37 25 46 36c10 13 15 28 15 46c0 17 -5 39 -28 44v454h-207z" />
    <glyph glyph-name="circumflex" unicode="&#x2c6;" horiz-adv-x="356" 
d="M306 573l-21 -23l-107 88l-107 -88l-21 23l116 113h24z" />
    <glyph glyph-name="caron" unicode="&#x2c7;" horiz-adv-x="356" 
d="M50 662l21 24l107 -89l108 89l20 -24l-116 -112h-23z" />
    <glyph glyph-name="uni02C9" unicode="&#x2c9;" horiz-adv-x="327" 
d="M0 592h327v-40h-327v40z" />
    <glyph glyph-name="breve" unicode="&#x2d8;" horiz-adv-x="303" 
d="M152 557c-36 0 -60 12 -79 32c-13 17 -21 36 -23 58l36 7c5 -19 12 -34 24 -45c10 -9 24 -14 41 -14c18 0 32 5 42 14c11 11 19 26 23 45l37 -7c-2 -22 -10 -42 -24 -59c-19 -20 -42 -31 -77 -31z" />
    <glyph glyph-name="dotaccent" unicode="&#x2d9;" horiz-adv-x="178" 
d="M50 33c0 23 16 39 39 39s39 -16 39 -39s-16 -39 -39 -39s-39 16 -39 39z" />
    <glyph glyph-name="ring" unicode="&#x2da;" horiz-adv-x="291" 
d="M145 567c-27 0 -49 9 -68 28c-16 16 -27 39 -27 66s11 50 27 67c18 18 41 27 68 27s49 -9 68 -26c17 -17 28 -41 28 -68s-11 -49 -27 -66c-19 -19 -42 -28 -69 -28zM145 601c19 0 34 6 43 17c11 11 15 27 15 43c0 17 -5 32 -15 43c-10 12 -24 18 -43 18
c-18 0 -32 -6 -43 -18c-10 -12 -15 -26 -15 -43c0 -16 4 -32 15 -43c10 -11 24 -17 43 -17z" />
    <glyph glyph-name="ogonek" unicode="&#x2db;" horiz-adv-x="202" 
d="M96 9l19 -16c-8 -5 -14 -11 -17 -18c-5 -7 -7 -16 -7 -25c0 -18 5 -34 16 -47c8 -11 22 -23 45 -36l-14 -26c-28 11 -49 24 -64 40c-16 17 -24 34 -24 61c0 13 4 27 13 40c7 11 18 20 33 27z" />
    <glyph glyph-name="tilde" unicode="&#x2dc;" horiz-adv-x="403" 
d="M269 563c-32 0 -54 9 -73 20s-37 20 -66 20c-24 0 -41 -8 -61 -25l-19 24c31 28 55 39 86 39c35 0 57 -11 78 -24c16 -10 36 -15 61 -15s36 5 57 22l21 -24c-29 -27 -53 -37 -84 -37z" />
    <glyph glyph-name="hungarumlaut" unicode="&#x2dd;" horiz-adv-x="300" 
d="M50 568l43 137l50 -20l-60 -131zM142 567l63 136l45 -23l-76 -126z" />
    <glyph glyph-name="afii10023" unicode="&#x401;" horiz-adv-x="559" 
d="M50 0v600h450v-50h-394v-207h352v-49h-352v-245h409v-49h-465zM334 695c0 27 22 48 47 48s47 -21 47 -48c0 -25 -22 -46 -47 -46s-47 21 -47 46zM131 695c0 27 21 48 46 48c27 0 47 -21 47 -48c0 -25 -20 -46 -47 -46c-25 0 -46 21 -46 46z" />
    <glyph glyph-name="afii10051" unicode="&#x402;" horiz-adv-x="753" 
d="M20 554v46h490v-46h-223v-148c55 43 112 70 197 70c72 0 128 -25 167 -68c35 -41 53 -95 53 -161v-188c0 -93 -21 -151 -85 -208l-27 25c43 53 58 100 58 179v192c0 57 -15 103 -44 136c-27 31 -66 48 -122 48c-80 0 -133 -21 -197 -73v-358h-55v554h-212z" />
    <glyph glyph-name="afii10052" unicode="&#x403;" horiz-adv-x="527" 
d="M105 553v-553h-55v600h452v-47h-397zM253 661l56 135l49 -23l-71 -128z" />
    <glyph glyph-name="afii10053" unicode="&#x404;" horiz-adv-x="602" 
d="M443 337v-46h-356c3 -69 24 -124 60 -167c49 -57 121 -87 202 -87c87 0 142 27 190 68l33 -36c-59 -51 -123 -80 -223 -80c-92 0 -171 33 -230 90c-56 55 -89 131 -89 223s33 168 89 221c59 56 137 88 229 88c100 0 163 -27 222 -78l-32 -37c-49 40 -103 67 -190 67
c-76 0 -144 -27 -192 -76c-37 -39 -61 -86 -68 -150h355z" />
    <glyph glyph-name="afii10054" unicode="&#x405;" horiz-adv-x="571" 
d="M35 450c0 59 26 98 69 123c45 27 106 38 174 38c80 0 152 -15 225 -44l-18 -44c-61 24 -129 40 -201 40c-41 0 -100 -4 -143 -27c-31 -17 -53 -38 -53 -85c0 -32 15 -54 34 -67c24 -16 61 -25 88 -29l135 -23c60 -11 118 -27 155 -63c25 -24 41 -56 41 -103
c0 -44 -22 -94 -65 -127c-45 -35 -107 -50 -215 -50c-75 0 -162 18 -231 45l15 46c67 -21 158 -41 215 -41s137 0 186 38c24 19 40 47 40 86c0 36 -14 61 -38 80c-27 17 -66 29 -109 36l-139 23c-51 8 -92 22 -121 46c-28 23 -44 55 -44 102z" />
    <glyph glyph-name="afii10055" unicode="&#x406;" horiz-adv-x="156" 
d="M106 600v-600h-56v600h56z" />
    <glyph glyph-name="afii10056" unicode="&#x407;" horiz-adv-x="156" 
d="M106 600v-600h-56v600h56zM135 695c0 27 22 48 47 48s47 -21 47 -48c0 -25 -22 -46 -47 -46s-47 21 -47 46zM-68 695c0 27 21 48 46 48c27 0 47 -21 47 -48c0 -25 -20 -46 -47 -46c-25 0 -46 21 -46 46z" />
    <glyph glyph-name="afii10057" unicode="&#x408;" horiz-adv-x="511" 
d="M410 600h56v-334c0 -93 -23 -161 -70 -205c-45 -44 -108 -72 -192 -72c-72 0 -142 29 -189 73l30 41c45 -37 96 -65 156 -65c64 0 114 15 150 51c40 40 59 85 59 164v347z" />
    <glyph glyph-name="afii10058" unicode="&#x409;" horiz-adv-x="1069" 
d="M230 600h386v-177h205c63 0 123 -26 162 -67c35 -37 57 -87 57 -143c0 -60 -23 -112 -62 -151s-97 -62 -157 -62h-260v553h-283l-61 -434c-5 -37 -20 -67 -43 -88c-24 -23 -54 -35 -91 -35c-31 0 -48 3 -68 8l9 41c12 -2 25 -3 39 -3c30 0 54 9 72 27c17 17 28 42 32 74z
M983 213c0 43 -15 84 -42 113c-28 29 -72 49 -125 49h-200v-327h206c47 0 87 18 114 43c31 31 47 74 47 122z" />
    <glyph glyph-name="afii10059" unicode="&#x40a;" horiz-adv-x="1002" 
d="M494 600h55v-177h204c63 0 124 -26 163 -67c35 -37 57 -87 57 -143c0 -60 -24 -113 -61 -150c-40 -40 -99 -63 -159 -63h-259v303h-388v-303h-56v600h56v-249h388v249zM916 213c0 44 -15 85 -43 113c-28 31 -73 49 -125 49h-199v-327h205c47 0 88 18 115 43
c31 31 47 74 47 122z" />
    <glyph glyph-name="afii10060" unicode="&#x40b;" horiz-adv-x="753" 
d="M20 554v46h490v-46h-223v-148c55 43 112 70 197 70c72 0 128 -25 167 -68c35 -41 53 -95 53 -161v-247h-54v247c0 56 -13 103 -44 138c-27 31 -67 46 -122 46c-80 0 -133 -21 -197 -73v-358h-55v554h-212z" />
    <glyph glyph-name="afii10061" unicode="&#x40c;" horiz-adv-x="604" 
d="M50 600h56v-256h124c23 0 41 1 60 12c15 8 26 24 37 41l78 135c15 25 32 44 52 55c21 13 48 19 79 19c13 0 26 -1 38 -3l-7 -43h-8c-27 0 -46 -3 -65 -12c-18 -8 -33 -22 -45 -43l-71 -128c-11 -17 -19 -32 -39 -49l232 -328h-64l-213 303c-19 -4 -37 -5 -56 -5h-132
v-298h-56v600zM245 661l56 135l49 -23l-71 -128z" />
    <glyph glyph-name="afii10062" unicode="&#x40e;" horiz-adv-x="637" 
d="M547 600h61l-264 -501c-15 -28 -33 -54 -56 -73s-51 -31 -86 -31c-16 0 -29 1 -39 3l4 39h13c22 0 42 5 59 14c17 11 32 23 44 46l15 27l-272 476h65l239 -419h6zM414 755l43 -6c-7 -32 -17 -58 -38 -77c-23 -21 -52 -31 -88 -31c-39 0 -70 11 -94 33
c-19 19 -28 43 -35 75l42 6c5 -23 14 -43 29 -56c16 -13 35 -19 58 -19c25 0 44 7 57 20c11 12 20 30 26 55z" />
    <glyph glyph-name="afii10145" unicode="&#x40f;" horiz-adv-x="614" 
d="M105 47h404v553h55v-600h-229l-5 -129h-45l-5 129h-230v600h55v-553z" />
    <glyph glyph-name="afii10017" unicode="&#x410;" horiz-adv-x="670" 
d="M291 600h87l267 -600h-60l-54 121h-395l-53 -121h-58zM323 552l-167 -382h355l-164 382h-24z" />
    <glyph glyph-name="afii10018" unicode="&#x411;" horiz-adv-x="590" 
d="M105 400h240c69 0 124 -24 161 -67c29 -35 49 -80 49 -131c0 -59 -22 -108 -58 -144c-37 -36 -88 -58 -152 -58h-295v600h436v-47h-381v-153zM501 202c0 40 -14 73 -35 100c-29 32 -70 50 -126 50h-235v-304h240c51 0 90 16 118 47c25 27 38 63 38 107z" />
    <glyph glyph-name="afii10019" unicode="&#x412;" horiz-adv-x="600" 
d="M362 0h-312v600h299c59 0 105 -16 138 -49c23 -23 37 -56 37 -96c0 -25 -6 -49 -19 -71c-12 -21 -28 -35 -51 -50v-4c33 -15 61 -37 76 -60c20 -29 30 -62 30 -97c0 -51 -18 -91 -49 -122c-36 -32 -85 -51 -149 -51zM506 174c0 34 -9 62 -27 83c-24 29 -61 44 -110 44
h-262v-255h256c49 0 85 14 109 41c21 23 34 52 34 87zM468 449c0 28 -10 55 -29 74c-20 17 -48 30 -96 30h-236v-204h253c38 0 65 10 82 31s26 44 26 69z" />
    <glyph glyph-name="afii10020" unicode="&#x413;" horiz-adv-x="527" 
d="M105 553v-553h-55v600h452v-47h-397z" />
    <glyph glyph-name="afii10021" unicode="&#x414;" horiz-adv-x="691" 
d="M211 600h390v-553h65v-175h-40l-15 128h-534l-12 -128h-40v175c36 0 65 18 88 47s34 68 41 112zM545 553h-289l-53 -362c-11 -75 -30 -112 -69 -144h411v506z" />
    <glyph glyph-name="afii10022" unicode="&#x415;" horiz-adv-x="555" 
d="M50 0v600h450v-50h-394v-207h352v-49h-352v-245h409v-49h-465z" />
    <glyph glyph-name="afii10024" unicode="&#x416;" horiz-adv-x="920" 
d="M485 0h-53v298h-86c-22 0 -41 2 -58 6l-178 -304h-68l204 327c-16 14 -29 31 -38 51l-62 126c-16 28 -30 39 -46 46c-14 7 -35 11 -62 11h-5l-4 43c11 1 24 2 35 2c29 0 55 -5 78 -16c20 -11 36 -29 49 -55l66 -139c11 -21 24 -35 39 -41c13 -7 32 -11 59 -11h77v256h53
v-256h79c27 0 42 4 59 11c17 9 27 22 38 41l67 139c13 28 33 48 58 59c19 9 42 13 68 13c13 0 25 -1 37 -3l-6 -43h-4c-27 0 -49 -2 -69 -13c-16 -9 -28 -21 -39 -44l-62 -126c-11 -21 -22 -36 -38 -51l202 -327h-66l-180 304c-17 -4 -37 -6 -58 -6h-86v-298z" />
    <glyph glyph-name="afii10025" unicode="&#x417;" horiz-adv-x="589" 
d="M279 38c76 0 130 16 167 43s52 61 52 108c0 37 -11 67 -34 90c-23 25 -56 37 -97 37h-212v46h194c35 0 64 11 85 34c15 15 23 36 23 61c0 39 -16 60 -43 77c-40 26 -105 32 -146 32c-67 0 -128 -12 -192 -33l-13 40c59 23 132 38 212 38c60 0 134 -11 185 -48
c31 -23 52 -57 52 -105c0 -25 -6 -47 -18 -65s-30 -32 -54 -43v-4c33 -11 61 -31 81 -56c22 -28 33 -62 33 -101c0 -56 -21 -106 -68 -142c-43 -35 -110 -58 -207 -58c-104 0 -183 18 -248 49l16 42c80 -29 152 -42 232 -42z" />
    <glyph glyph-name="afii10026" unicode="&#x418;" horiz-adv-x="637" 
d="M104 600v-535l423 535h60v-600h-51v535l-425 -535h-61v600h54z" />
    <glyph glyph-name="afii10027" unicode="&#x419;" horiz-adv-x="639" 
d="M104 600v-535l423 535h60v-600h-51v535l-425 -535h-61v600h54zM399 755l43 -6c-7 -32 -17 -58 -38 -77c-23 -21 -52 -31 -88 -31c-39 0 -70 11 -94 33c-19 19 -28 43 -35 75l42 6c5 -23 14 -43 29 -56c16 -13 35 -19 58 -19c25 0 44 7 57 20c11 12 20 30 26 55z" />
    <glyph glyph-name="afii10028" unicode="&#x41a;" horiz-adv-x="604" 
d="M50 600h56v-256h124c23 0 41 1 60 12c15 8 26 24 37 41l78 135c15 25 32 44 52 55c21 13 48 19 79 19c13 0 26 -1 38 -3l-7 -43h-8c-27 0 -46 -3 -65 -12c-18 -8 -33 -22 -45 -43l-71 -128c-11 -17 -19 -32 -39 -49l232 -328h-64l-213 303c-19 -4 -37 -5 -56 -5h-132
v-298h-56v600z" />
    <glyph glyph-name="afii10029" unicode="&#x41b;" horiz-adv-x="685" 
d="M231 600h405v-600h-56v551h-301l-62 -429c-5 -35 -19 -68 -42 -91s-54 -35 -93 -35c-28 0 -47 3 -67 10l8 42c17 -3 31 -5 44 -5c29 0 52 9 69 26c16 17 25 35 30 74z" />
    <glyph glyph-name="afii10030" unicode="&#x41c;" horiz-adv-x="751" 
d="M50 600h80l248 -346l246 346h77v-600h-55v541h-8l-258 -365h-11l-261 365h-8v-541h-50v600z" />
    <glyph glyph-name="afii10031" unicode="&#x41d;" horiz-adv-x="620" 
d="M514 600h56v-600h-56v303h-409v-303h-55v600h55v-249h409v249z" />
    <glyph glyph-name="afii10032" unicode="&#x41e;" horiz-adv-x="694" 
d="M347 611c92 0 171 -34 228 -90c56 -56 89 -134 89 -221c0 -85 -31 -161 -87 -217c-56 -59 -135 -94 -230 -94c-97 0 -179 37 -236 98c-52 57 -81 129 -81 213s31 159 84 215c56 60 137 96 233 96zM86 300c0 -73 27 -135 68 -182c48 -52 116 -82 193 -82
c76 0 143 29 191 81c43 47 69 108 69 183c0 76 -27 139 -72 186c-47 49 -112 76 -188 76s-144 -28 -191 -79c-43 -47 -70 -108 -70 -183z" />
    <glyph glyph-name="afii10033" unicode="&#x41f;" horiz-adv-x="612" 
d="M50 600h512v-600h-55v553h-402v-553h-55v600z" />
    <glyph glyph-name="afii10034" unicode="&#x420;" horiz-adv-x="585" 
d="M555 388c0 -60 -24 -110 -61 -147c-40 -39 -96 -62 -165 -62h-222v-179h-57v600h279c77 0 138 -29 179 -77c31 -37 47 -82 47 -135zM335 228c60 0 98 20 125 51c26 29 39 66 39 109s-13 80 -39 110c-29 33 -70 53 -134 53h-219v-323h228z" />
    <glyph glyph-name="afii10035" unicode="&#x421;" horiz-adv-x="602" 
d="M87 302c0 -77 27 -140 72 -187c47 -49 113 -77 190 -77c87 0 142 25 189 68l34 -37c-59 -51 -123 -80 -223 -80c-95 0 -171 35 -228 91c-56 56 -90 133 -90 222c0 87 34 163 90 219s135 90 228 90c100 0 164 -27 223 -80l-34 -37c-47 41 -102 68 -189 68
c-77 0 -140 -25 -188 -74c-45 -47 -74 -109 -74 -186z" />
    <glyph glyph-name="afii10036" unicode="&#x422;" horiz-adv-x="608" 
d="M25 553v47h558v-47h-251v-553h-56v553h-251z" />
    <glyph glyph-name="afii10037" unicode="&#x423;" horiz-adv-x="633" 
d="M547 600h61l-264 -501c-15 -28 -33 -54 -56 -73s-51 -31 -86 -31c-16 0 -29 1 -39 3l4 39h13c22 0 42 5 59 14c17 11 32 23 44 46l15 27l-272 476h65l239 -419h6z" />
    <glyph glyph-name="afii10038" unicode="&#x424;" horiz-adv-x="805" 
d="M431 611v-68h99c76 0 140 -27 183 -72c39 -43 63 -98 63 -161c0 -67 -28 -127 -73 -170c-41 -40 -100 -65 -173 -65h-99v-75h-55v75h-101c-76 0 -135 27 -178 70s-67 101 -67 165c0 59 21 112 56 153c43 51 108 80 189 80h101v68h55zM526 496h-95v-371h95
c59 0 107 17 142 51c35 32 56 78 56 134c0 55 -19 100 -54 133c-35 35 -81 53 -144 53zM133 181c35 -35 83 -56 148 -56h95v371h-95c-69 0 -121 -25 -156 -66c-27 -31 -41 -72 -41 -120c0 -52 18 -97 49 -129z" />
    <glyph glyph-name="afii10039" unicode="&#x425;" horiz-adv-x="613" 
d="M109 600l197 -265l190 265h65l-216 -288l238 -312h-66l-211 286l-213 -286h-62l232 311l-219 289h65z" />
    <glyph glyph-name="afii10040" unicode="&#x426;" horiz-adv-x="651" 
d="M105 47h404v553h55v-553h62v-176h-41l-12 129h-523v600h55v-553z" />
    <glyph glyph-name="afii10041" unicode="&#x427;" horiz-adv-x="626" 
d="M576 0h-55v223c-61 -45 -129 -72 -209 -72c-89 0 -156 23 -201 69c-44 46 -66 115 -66 207v173h56v-168c0 -72 13 -128 45 -168c33 -43 90 -64 169 -64c80 0 146 27 206 70v330h55v-600z" />
    <glyph glyph-name="afii10042" unicode="&#x428;" horiz-adv-x="827" 
d="M441 600v-553h281v553h55v-600h-727v600h55v-553h281v553h55z" />
    <glyph glyph-name="afii10043" unicode="&#x429;" horiz-adv-x="863" 
d="M441 600v-553h281v553h55v-553h62v-176h-41l-12 129h-736v600h55v-553h281v553h55z" />
    <glyph glyph-name="afii10044" unicode="&#x42a;" horiz-adv-x="691" 
d="M662 213c0 -60 -23 -112 -62 -151c-40 -39 -95 -62 -164 -62h-274v552l-142 8v40h197v-177h219c72 0 129 -26 169 -67c35 -37 57 -87 57 -143zM606 212c0 43 -16 85 -44 113c-27 31 -73 49 -136 49h-209v-325h216c56 0 97 16 124 43c33 31 49 71 49 120z" />
    <glyph glyph-name="afii10045" unicode="&#x42b;" horiz-adv-x="716" 
d="M549 213c0 -60 -24 -113 -61 -150c-40 -40 -97 -63 -168 -63h-270v600h55v-177h215c72 0 133 -25 172 -68c35 -36 57 -86 57 -142zM493 213c0 43 -15 84 -43 112c-27 31 -68 49 -132 49h-213v-325h219c57 0 94 16 121 43c32 31 48 73 48 121zM666 600v-600h-55v600h55z
" />
    <glyph glyph-name="afii10046" unicode="&#x42c;" horiz-adv-x="579" 
d="M549 213c0 -60 -24 -113 -61 -150c-40 -40 -95 -63 -164 -63h-274v600h55v-177h219c71 0 128 -25 168 -68c35 -36 57 -86 57 -142zM493 213c0 43 -16 83 -43 112c-28 31 -70 49 -131 49h-214v-325h220c56 0 93 16 120 43c32 31 48 73 48 121z" />
    <glyph glyph-name="afii10047" unicode="&#x42d;" horiz-adv-x="602" 
d="M160 291v46h354c-7 64 -31 111 -68 150c-48 49 -115 76 -191 76c-87 0 -141 -27 -190 -68l-33 37c61 53 123 79 223 79c91 0 169 -32 228 -88c56 -53 88 -129 88 -221s-31 -167 -87 -222c-59 -57 -139 -91 -230 -91c-100 0 -166 28 -223 80l32 36c48 -41 103 -68 191 -68
c80 0 153 31 201 88c36 43 58 97 61 166h-356z" />
    <glyph glyph-name="afii10048" unicode="&#x42e;" horiz-adv-x="866" 
d="M530 611c91 0 166 -35 221 -92c53 -56 83 -134 83 -219c0 -92 -34 -173 -94 -230c-53 -51 -126 -81 -210 -81c-89 0 -165 36 -220 93c-49 53 -78 123 -82 203h-122v-285h-56v600h56v-268h123c7 73 35 138 82 187c56 57 130 92 219 92zM778 300c0 79 -24 140 -67 187
c-44 49 -106 77 -181 77c-76 0 -141 -29 -185 -84c-39 -45 -61 -107 -61 -180c0 -76 24 -137 65 -184c45 -51 106 -80 181 -80c72 0 132 29 176 73c47 47 72 111 72 191z" />
    <glyph glyph-name="afii10049" unicode="&#x42f;" horiz-adv-x="590" 
d="M29 388c0 56 22 107 57 144c41 43 97 68 185 68h269v-600h-56v178h-252l-120 -178h-61l127 186c-48 17 -85 45 -112 83c-25 35 -37 74 -37 119zM88 388c0 -47 17 -87 46 -116s70 -46 129 -46h221v326h-216c-63 0 -105 -18 -136 -49c-28 -29 -44 -68 -44 -115z" />
    <glyph glyph-name="afii10065" unicode="&#x430;" horiz-adv-x="572" 
d="M247 500h77l223 -500h-58l-45 100h-320l-45 -100h-54zM276 453l-132 -308h281l-133 308h-16z" />
    <glyph glyph-name="afii10066" unicode="&#x431;" horiz-adv-x="508" 
d="M105 338h191c60 0 106 -22 137 -57c25 -29 40 -68 40 -111s-15 -82 -42 -113c-32 -36 -78 -57 -135 -57h-246v500h366v-44h-311v-118zM105 292v-245h192c47 0 76 15 96 39c19 23 28 51 28 84c0 32 -9 59 -27 81c-21 27 -52 41 -103 41h-186z" />
    <glyph glyph-name="afii10067" unicode="&#x432;" horiz-adv-x="517" 
d="M313 0h-263v500h253c51 0 87 -15 112 -40c20 -21 32 -49 32 -82c0 -21 -5 -41 -15 -59c-9 -15 -21 -28 -38 -38v-4c23 -11 41 -28 56 -47c18 -26 27 -54 27 -85c0 -40 -16 -74 -43 -101c-29 -28 -70 -44 -121 -44zM425 147c0 29 -7 51 -22 68c-20 23 -48 35 -84 35h-215
v-206h211c37 0 65 12 86 36c16 19 24 42 24 67zM394 374c0 24 -8 43 -23 58s-37 23 -73 23h-194v-161h210c27 0 48 8 61 24c13 15 19 33 19 56z" />
    <glyph glyph-name="afii10068" unicode="&#x433;" horiz-adv-x="466" 
d="M104 454v-454h-54v500h381v-46h-327z" />
    <glyph glyph-name="afii10069" unicode="&#x434;" horiz-adv-x="591" 
d="M174 500h331v-454h56v-152h-39l-12 106h-435l-10 -106h-40v152h15c25 0 46 12 62 35c15 24 25 57 30 93zM451 454h-231l-41 -296c-7 -47 -24 -89 -49 -112h321v408z" />
    <glyph glyph-name="afii10070" unicode="&#x435;" horiz-adv-x="481" 
d="M50 0v500h379v-47h-325v-163h290v-46h-290v-198h337v-46h-391z" />
    <glyph glyph-name="afii10072" unicode="&#x436;" horiz-adv-x="776" 
d="M303 289h59v211h51v-211h59c23 0 41 2 56 13c10 6 18 15 24 28l54 114c11 22 25 38 44 48c17 11 39 14 63 14c11 0 23 -1 35 -3l-5 -41h-8c-20 0 -40 -3 -55 -11c-14 -7 -24 -18 -31 -33l-51 -105c-9 -16 -20 -29 -33 -40l173 -273h-62l-151 250c-13 -3 -27 -5 -44 -5
h-68v-245h-51v245h-68c-17 0 -31 2 -44 5l-151 -250h-62l173 273c-13 11 -24 24 -33 40l-51 105c-7 15 -17 26 -31 33c-15 8 -35 11 -55 11h-8l-5 41c12 2 24 3 35 3c24 0 46 -3 63 -14c19 -10 33 -26 44 -48l54 -114c6 -13 14 -22 24 -28c15 -11 33 -13 56 -13z" />
    <glyph glyph-name="afii10073" unicode="&#x437;" horiz-adv-x="504" 
d="M240 38c50 0 115 11 149 48c17 19 28 41 28 73c0 24 -7 49 -23 69c-16 23 -49 34 -82 34h-177v44h164c25 0 49 8 64 24c13 13 19 29 19 50c0 27 -11 44 -27 57c-31 24 -80 28 -124 28c-57 0 -108 -11 -159 -30l-14 40c47 21 106 34 179 34c60 0 126 -8 165 -47
c19 -19 32 -45 32 -80c0 -21 -4 -41 -15 -57c-9 -14 -21 -25 -38 -32v-4c21 -8 40 -19 53 -34c24 -27 35 -59 35 -92c0 -47 -22 -95 -61 -126c-33 -27 -84 -46 -168 -46c-88 0 -154 15 -210 43l16 42c64 -27 123 -38 194 -38z" />
    <glyph glyph-name="afii10074" unicode="&#x438;" horiz-adv-x="550" 
d="M101 500v-433l344 433h55v-500h-50v433l-345 -433h-55v500h51z" />
    <glyph glyph-name="afii10075" unicode="&#x439;" horiz-adv-x="552" 
d="M101 500v-433l344 433h55v-500h-50v433l-345 -433h-55v500h51zM276 557c-36 0 -60 12 -79 32c-13 17 -21 36 -23 58l36 7c5 -19 12 -34 24 -45c10 -9 24 -14 41 -14c18 0 32 5 42 14c11 11 19 26 23 45l37 -7c-2 -22 -10 -42 -24 -59c-19 -20 -42 -31 -77 -31z" />
    <glyph glyph-name="afii10076" unicode="&#x43a;" horiz-adv-x="518" 
d="M50 500h53v-211h96c20 0 36 4 48 11c10 5 19 15 28 29l67 114c15 23 30 40 51 51c17 8 37 12 60 12c11 0 20 0 33 -3l-3 -42h-12c-20 0 -37 -1 -52 -9c-12 -6 -22 -17 -31 -32l-64 -107c-9 -15 -18 -26 -33 -38l197 -275h-64l-175 250c-15 -3 -30 -5 -45 -5h-101v-245
h-53v500z" />
    <glyph glyph-name="afii10077" unicode="&#x43b;" horiz-adv-x="580" 
d="M191 500h339v-500h-54v453h-237l-50 -353c-5 -33 -18 -59 -39 -77c-20 -18 -45 -27 -76 -27c-27 0 -40 3 -59 8l10 40c13 -3 24 -4 33 -4c25 0 45 8 58 23c12 15 20 34 23 58z" />
    <glyph glyph-name="afii10078" unicode="&#x43c;" horiz-adv-x="645" 
d="M50 500h72l201 -281l200 281h72v-500h-54v442h-4l-209 -294h-15l-211 294h-4v-442h-48v500z" />
    <glyph glyph-name="afii10079" unicode="&#x43d;" horiz-adv-x="529" 
d="M433 500h54v-500h-54v245h-329v-245h-54v500h54v-209h329v209z" />
    <glyph glyph-name="afii10080" unicode="&#x43e;" horiz-adv-x="590" 
d="M295 509c79 0 146 -30 193 -78c47 -47 70 -110 70 -181c0 -73 -26 -139 -75 -186c-47 -45 -112 -73 -188 -73c-77 0 -143 28 -190 75s-75 112 -75 184c0 75 29 141 80 188c47 44 109 71 185 71zM84 250c0 -63 22 -115 59 -152c40 -40 91 -60 152 -60c59 0 111 20 148 57
c39 39 63 91 63 155c0 65 -25 120 -64 157c-37 36 -90 55 -147 55c-63 0 -113 -20 -152 -61c-37 -37 -59 -90 -59 -151z" />
    <glyph glyph-name="afii10081" unicode="&#x43f;" horiz-adv-x="539" 
d="M104 453v-453h-54v500h439v-500h-54v453h-331z" />
    <glyph glyph-name="afii10082" unicode="&#x440;" horiz-adv-x="503" 
d="M473 323c0 -47 -18 -87 -46 -118c-35 -36 -84 -58 -141 -58h-182v-147h-54v500h236c56 0 104 -20 137 -55c31 -31 50 -73 50 -122zM292 193c43 0 70 15 93 39c21 24 34 56 34 91c0 36 -11 66 -32 89c-23 27 -56 42 -103 42h-180v-261h188z" />
    <glyph glyph-name="afii10083" unicode="&#x441;" horiz-adv-x="523" 
d="M88 251c0 -63 21 -113 58 -152c39 -39 92 -61 153 -61c72 0 119 22 159 57l30 -36c-48 -44 -104 -68 -189 -68c-77 0 -142 28 -189 75c-48 47 -75 112 -75 185c0 72 28 135 75 182c48 47 112 76 189 76c81 0 141 -24 189 -68l-31 -35c-40 35 -86 56 -158 56
c-60 0 -112 -21 -151 -60c-37 -37 -60 -87 -60 -151z" />
    <glyph glyph-name="afii10084" unicode="&#x442;" horiz-adv-x="519" 
d="M25 454v46h469v-46h-208v-454h-54v454h-207z" />
    <glyph glyph-name="afii10085" unicode="&#x443;" horiz-adv-x="545" 
d="M461 500h59l-221 -415c-13 -25 -26 -47 -45 -63c-19 -15 -41 -25 -73 -25c-13 0 -25 1 -36 2l3 39h12c16 0 34 0 50 9c13 7 24 19 33 38l10 20l-228 395h63l194 -342h5z" />
    <glyph glyph-name="afii10086" unicode="&#x444;" horiz-adv-x="680" 
d="M366 509v-55h86c60 0 116 -25 151 -68c29 -35 47 -79 47 -128c0 -53 -22 -102 -58 -138c-35 -36 -87 -58 -140 -58h-86v-62h-52v62h-86c-56 0 -108 24 -144 61c-33 35 -54 82 -54 135s20 100 52 135c36 39 90 61 146 61h86v55h52zM122 153c28 -29 64 -44 109 -44h83v299
h-83c-45 0 -81 -16 -108 -43s-42 -63 -42 -107c0 -43 14 -78 41 -105zM449 408h-83v-299h83c45 0 81 14 108 43c27 27 42 63 42 106c0 40 -12 74 -36 101c-29 31 -65 49 -114 49z" />
    <glyph glyph-name="afii10087" unicode="&#x445;" horiz-adv-x="520" 
d="M97 500l161 -214l155 214h62l-181 -240l201 -260h-63l-175 232l-171 -232h-61l196 260l-186 240h62z" />
    <glyph glyph-name="afii10088" unicode="&#x446;" horiz-adv-x="555" 
d="M104 47h322v453h55v-453h49v-154h-40l-10 107h-430v500h54v-453z" />
    <glyph glyph-name="afii10089" unicode="&#x447;" horiz-adv-x="537" 
d="M487 0h-53v179c-47 -35 -113 -54 -169 -54c-71 0 -126 18 -164 54c-41 39 -61 97 -61 175v146h55v-142c0 -64 12 -112 43 -144c27 -29 71 -43 130 -43c65 0 119 17 166 52v277h53v-500z" />
    <glyph glyph-name="afii10090" unicode="&#x448;" horiz-adv-x="703" 
d="M378 500v-454h221v454h54v-500h-603v500h54v-454h220v454h54z" />
    <glyph glyph-name="afii10091" unicode="&#x449;" horiz-adv-x="728" 
d="M654 500v-454h49v-152h-39l-11 106h-603v500h54v-454h221v454h54v-454h221v454h54z" />
    <glyph glyph-name="afii10092" unicode="&#x44a;" horiz-adv-x="587" 
d="M557 178c0 -52 -20 -95 -52 -126c-35 -33 -82 -52 -133 -52h-235v453l-117 7v40h171v-146h181c51 0 99 -20 134 -53c31 -31 51 -72 51 -123zM503 178c0 35 -11 65 -34 90c-23 24 -58 39 -101 39h-177v-260h182c40 0 74 14 95 37c23 24 35 58 35 94z" />
    <glyph glyph-name="afii10093" unicode="&#x44b;" horiz-adv-x="626" 
d="M470 178c0 -56 -24 -101 -60 -133c-33 -29 -80 -45 -125 -45h-235v500h54v-146h181c48 0 94 -16 129 -48s56 -75 56 -128zM416 178c0 35 -12 66 -35 89c-23 25 -60 40 -99 40h-178v-260h186c39 0 71 16 92 40c23 26 34 56 34 91zM523 500h53v-500h-53v500z" />
    <glyph glyph-name="afii10094" unicode="&#x44c;" horiz-adv-x="500" 
d="M470 178c0 -48 -17 -89 -45 -120c-35 -36 -87 -58 -140 -58h-235v500h54v-146h181c56 0 109 -22 142 -61c27 -31 43 -70 43 -115zM416 178c0 31 -10 59 -29 82c-23 29 -62 47 -105 47h-178v-260h186c36 0 69 15 92 39c23 25 34 55 34 92z" />
    <glyph glyph-name="afii10095" unicode="&#x44d;" horiz-adv-x="522" 
d="M142 234v47h293c-6 53 -26 95 -59 128c-35 35 -82 54 -146 54c-72 0 -118 -25 -158 -60l-31 34c49 47 106 72 189 72c80 0 143 -26 188 -70c47 -47 74 -113 74 -189s-28 -142 -76 -189c-45 -43 -107 -70 -186 -70c-81 0 -140 24 -191 69l32 38c47 -41 91 -60 159 -60
c69 0 121 23 156 62c30 33 47 78 51 134h-295z" />
    <glyph glyph-name="afii10096" unicode="&#x44e;" horiz-adv-x="733" 
d="M449 509c76 0 140 -30 185 -79c43 -47 69 -109 69 -180c0 -72 -26 -135 -71 -182s-108 -77 -183 -77c-72 0 -132 27 -177 70c-43 43 -72 105 -76 172h-91v-233h-55v500h55v-220h92c7 67 36 125 83 166c44 39 101 63 169 63zM648 250c0 59 -16 108 -48 145
c-36 44 -88 68 -151 68c-52 0 -97 -17 -134 -50c-40 -37 -65 -94 -65 -163c0 -62 18 -112 53 -151c36 -39 86 -61 146 -61s111 23 147 64c33 37 52 88 52 148z" />
    <glyph glyph-name="afii10097" unicode="&#x44f;" horiz-adv-x="499" 
d="M22 323c0 51 21 95 56 127s84 50 132 50h239v-500h-52v146h-203l-98 -146h-59l106 155c-35 11 -65 31 -86 62c-21 29 -35 65 -35 106zM77 323c0 -35 11 -64 32 -89c23 -27 58 -42 101 -42h187v261h-186c-40 0 -75 -15 -98 -39c-24 -25 -36 -56 -36 -91z" />
    <glyph glyph-name="afii10071" unicode="&#x451;" horiz-adv-x="485" 
d="M50 0v500h379v-47h-325v-163h290v-46h-290v-198h337v-46h-391zM290 611c0 23 19 42 42 42s42 -19 42 -42s-19 -42 -42 -42s-42 19 -42 42zM109 611c0 23 19 42 42 42s42 -19 42 -42s-19 -42 -42 -42s-42 19 -42 42z" />
    <glyph glyph-name="afii10099" unicode="&#x452;" horiz-adv-x="685" 
d="M27 454v46h465v-46h-206v-126c47 35 102 50 159 50c61 0 114 -17 153 -49c41 -36 64 -88 64 -160v-117c0 -47 -11 -83 -30 -114c-15 -25 -34 -47 -59 -66l-25 24c21 23 35 45 44 66c12 28 15 59 15 94v107c0 55 -13 97 -40 124c-27 29 -69 43 -125 43
c-66 0 -108 -11 -156 -49v-281h-54v454h-205z" />
    <glyph glyph-name="afii10100" unicode="&#x453;" horiz-adv-x="466" 
d="M104 454v-454h-54v500h381v-46h-327zM236 566l55 137l47 -23l-71 -128z" />
    <glyph glyph-name="afii10101" unicode="&#x454;" horiz-adv-x="522" 
d="M383 281v-47h-298c3 -59 25 -107 60 -142s83 -54 147 -54c69 0 119 24 159 57l30 -35c-48 -43 -105 -69 -189 -69c-71 0 -126 21 -169 56c-60 47 -93 119 -93 203c0 75 25 140 73 187c44 44 108 72 189 72c84 0 141 -27 190 -70l-30 -34c-40 35 -88 58 -160 58
c-63 0 -112 -19 -148 -56c-32 -32 -51 -74 -57 -126h296z" />
    <glyph glyph-name="afii10102" unicode="&#x455;" horiz-adv-x="495" 
d="M34 380c0 44 21 74 52 93c45 29 110 36 155 36c68 0 130 -12 194 -39l-18 -41c-53 21 -109 34 -170 34c-40 0 -90 -4 -127 -24c-21 -13 -32 -33 -32 -60c0 -19 6 -33 19 -44c20 -19 48 -24 76 -29l115 -20c51 -9 100 -23 132 -55c20 -21 35 -49 35 -88
c0 -48 -18 -82 -47 -105c-45 -36 -116 -47 -191 -47c-67 0 -138 11 -198 38l19 46c60 -24 126 -36 178 -36c71 0 125 10 156 37c19 16 29 36 29 64c0 31 -11 48 -28 63c-23 17 -56 23 -91 30l-124 23c-33 7 -64 15 -89 34c-27 20 -45 47 -45 90z" />
    <glyph glyph-name="afii10103" unicode="&#x456;" horiz-adv-x="153" 
d="M50 500h53v-500h-53v500z" />
    <glyph glyph-name="afii10104" unicode="&#x457;" horiz-adv-x="153" 
d="M50 500h53v-500h-53v500zM127 611c0 23 19 42 42 42s42 -19 42 -42s-19 -42 -42 -42s-42 19 -42 42zM-54 611c0 23 19 42 42 42s42 -19 42 -42s-19 -42 -42 -42s-42 19 -42 42z" />
    <glyph glyph-name="afii10105" unicode="&#x458;" horiz-adv-x="439" 
d="M341 500h53v-288c0 -76 -20 -125 -59 -164c-37 -36 -89 -57 -160 -57c-60 0 -121 23 -160 63l30 38c36 -31 75 -54 128 -54c47 0 88 11 119 39c36 35 49 73 49 124v299z" />
    <glyph glyph-name="afii10106" unicode="&#x459;" horiz-adv-x="901" 
d="M191 500h327v-146h168c55 0 105 -22 140 -59c28 -31 45 -70 45 -117c0 -51 -19 -92 -50 -124c-33 -35 -84 -54 -135 -54h-221v453h-227l-50 -353c-5 -33 -16 -57 -34 -74c-21 -21 -48 -30 -79 -30c-25 0 -41 3 -60 8l9 40c11 -3 22 -4 35 -4c23 0 40 4 52 17
c13 11 22 33 27 64zM817 178c0 32 -11 64 -32 87c-23 27 -59 42 -102 42h-165v-260h173c40 0 74 17 97 45c19 23 29 53 29 86z" />
    <glyph glyph-name="afii10107" unicode="&#x45a;" horiz-adv-x="856" 
d="M420 500h53v-146h168c56 0 108 -22 143 -61c27 -31 42 -70 42 -115c0 -48 -17 -88 -45 -119c-35 -37 -85 -59 -140 -59h-221v245h-316v-245h-54v500h54v-210h316v210zM772 178c0 32 -11 59 -28 82c-24 29 -63 47 -106 47h-165v-260h173c36 0 69 15 92 39
c23 25 34 55 34 92z" />
    <glyph glyph-name="afii10108" unicode="&#x45b;" horiz-adv-x="687" 
d="M27 454v46h465v-46h-206v-126c47 35 102 50 159 50c61 0 114 -17 153 -49c41 -36 64 -88 64 -160v-169h-55v165c0 56 -12 96 -43 127c-27 25 -63 39 -122 39c-66 0 -108 -11 -156 -49v-282h-54v454h-205z" />
    <glyph glyph-name="afii10109" unicode="&#x45c;" horiz-adv-x="518" 
d="M50 500h53v-211h96c20 0 36 4 48 11c10 5 19 15 28 29l67 114c15 23 30 40 51 51c17 8 37 12 60 12c11 0 20 0 33 -3l-3 -42h-12c-20 0 -37 -1 -52 -9c-12 -6 -22 -17 -31 -32l-64 -107c-9 -15 -18 -26 -33 -38l197 -275h-64l-175 250c-15 -3 -30 -5 -45 -5h-101v-245
h-53v500zM198 566l55 137l47 -23l-71 -128z" />
    <glyph glyph-name="afii10110" unicode="&#x45e;" horiz-adv-x="545" 
d="M461 500h59l-221 -415c-13 -25 -26 -47 -45 -63c-19 -15 -41 -25 -73 -25c-13 0 -25 1 -36 2l3 39h12c16 0 34 0 50 9c13 7 24 19 33 38l10 20l-228 395h63l194 -342h5zM284 557c-36 0 -60 12 -79 32c-13 17 -21 36 -23 58l36 7c5 -19 12 -34 24 -45c10 -9 24 -14 41 -14
c18 0 32 5 42 14c11 11 19 26 23 45l37 -7c-2 -22 -10 -42 -24 -59c-19 -20 -42 -31 -77 -31z" />
    <glyph glyph-name="afii10193" unicode="&#x45f;" horiz-adv-x="540" 
d="M104 47h331v453h54v-500h-194l-5 -107h-40l-5 107h-195v500h54v-453z" />
    <glyph glyph-name="afii10146" unicode="&#x462;" horiz-adv-x="580" 
d="M0 501v46h51v53h55v-53h168v-46h-168v-75h219c71 0 126 -25 165 -66c37 -37 60 -88 60 -145c0 -60 -23 -111 -60 -150c-40 -41 -97 -65 -165 -65h-274v501h-51zM494 215c0 44 -16 85 -44 114c-29 31 -70 51 -131 51h-213v-333h220c55 0 91 18 118 43c33 31 50 74 50 125z
" />
    <glyph glyph-name="afii10194" unicode="&#x463;" horiz-adv-x="500" 
d="M-1 452v48h51v103h54v-103h142v-48h-142v-98h181c56 0 109 -22 142 -61c27 -31 43 -70 43 -115c0 -48 -17 -88 -45 -119c-35 -37 -85 -59 -140 -59h-235v452h-51zM416 178c0 31 -10 59 -29 82c-23 29 -62 47 -105 47h-178v-260h186c36 0 69 15 92 39c23 25 34 55 34 92z
" />
    <glyph glyph-name="afii10147" unicode="&#x472;" horiz-adv-x="694" 
d="M347 611c96 0 175 -37 231 -93c56 -57 86 -134 86 -218c0 -88 -32 -169 -93 -225c-56 -52 -135 -86 -224 -86c-92 0 -169 32 -226 87c-59 56 -92 136 -92 224c0 92 37 174 100 230c56 51 130 81 218 81zM473 247c-51 0 -93 15 -128 34c-41 23 -81 37 -126 37
c-51 0 -95 -16 -134 -52c5 -64 33 -116 74 -155c49 -47 116 -74 188 -74s136 25 183 70c44 43 73 109 80 189c-49 -32 -90 -49 -137 -49zM160 489c-43 -47 -72 -103 -77 -182c52 39 96 57 143 57c61 0 102 -18 138 -38c39 -21 72 -30 117 -30c54 0 78 12 124 45
c-7 64 -37 119 -77 155c-48 45 -108 67 -181 67c-76 0 -139 -27 -187 -74z" />
    <glyph glyph-name="afii10195" unicode="&#x473;" horiz-adv-x="590" 
d="M295 509c79 0 145 -30 192 -78c47 -47 72 -110 72 -181c0 -73 -27 -139 -76 -186c-47 -45 -112 -73 -188 -73c-77 0 -143 28 -190 75s-74 112 -74 184c0 75 28 141 79 188c47 44 109 71 185 71zM404 204c-51 0 -82 13 -113 28c-33 17 -64 30 -103 30
c-40 0 -71 -12 -103 -39c5 -51 27 -94 58 -125c39 -39 92 -61 152 -61c59 0 111 21 148 57c38 37 59 85 62 143c-31 -22 -64 -33 -101 -33zM141 402c-33 -35 -53 -81 -59 -136c34 25 70 38 109 38c55 0 85 -14 116 -29c31 -16 58 -28 97 -28c41 0 64 8 99 35
c-5 51 -29 94 -61 125c-37 36 -90 56 -147 56c-61 0 -115 -22 -154 -61z" />
    <glyph glyph-name="afii10148" unicode="&#x474;" horiz-adv-x="646" 
d="M354 0h-89l-253 600h60l228 -549h23l68 192c28 80 73 172 116 240c29 48 66 97 99 134l40 -31c-41 -44 -73 -90 -102 -137c-43 -68 -77 -137 -108 -225z" />
    <glyph glyph-name="afii10196" unicode="&#x475;" horiz-adv-x="553" 
d="M312 0h-76l-211 500h59l185 -451h12l56 155c25 72 55 137 94 198c25 41 54 77 89 114l34 -30c-32 -36 -60 -74 -85 -113c-33 -53 -63 -116 -89 -187z" />
    <glyph glyph-name="afii10050" unicode="&#x490;" horiz-adv-x="524" 
d="M105 553v-553h-55v600h397l11 94l41 -2v-139h-394z" />
    <glyph glyph-name="afii10098" unicode="&#x491;" horiz-adv-x="466" 
d="M104 454v-454h-54v500h337l4 79h40v-125h-327z" />
    <glyph glyph-name="uni04D8" unicode="&#x4d8;" horiz-adv-x="682" 
d="M145 496l-31 39c53 48 133 76 221 76c97 0 179 -35 235 -92c56 -56 82 -135 82 -219c0 -87 -28 -167 -88 -223c-56 -55 -132 -88 -223 -88s-164 34 -221 87c-60 56 -90 136 -90 224c0 16 -1 33 2 46h560c-11 60 -33 109 -68 144c-48 48 -117 73 -189 73
c-76 0 -139 -26 -190 -67zM521 109c45 45 72 109 75 188h-510c3 -76 26 -141 73 -185c48 -47 109 -75 182 -75c72 0 133 25 180 72z" />
    <glyph glyph-name="afii10846" unicode="&#x4d9;" horiz-adv-x="579" 
d="M130 407l-29 37c44 43 112 65 184 65c80 0 150 -31 197 -82c45 -47 67 -109 67 -177c0 -73 -24 -138 -73 -185c-47 -45 -107 -74 -186 -74c-77 0 -140 28 -187 75s-73 112 -73 184c0 15 1 29 2 41h461c-8 46 -26 83 -54 112c-39 39 -94 60 -154 60
c-55 0 -115 -19 -155 -56zM436 95c37 36 57 89 60 150h-413c3 -60 22 -112 59 -148c39 -39 88 -60 148 -60c59 0 109 21 146 58z" />
    <glyph glyph-name="Wgrave" unicode="&#x1e80;" horiz-adv-x="957" 
d="M313 0h-86l-202 600h64l177 -556h12l159 556h83l165 -556h12l175 556h60l-199 -600h-88l-163 551h-12zM444 796l56 -135l-34 -16l-71 128z" />
    <glyph glyph-name="wgrave" unicode="&#x1e81;" horiz-adv-x="829" 
d="M282 0h-87l-165 500h59l147 -457h8l127 457h85l134 -457h8l144 457h57l-164 -500h-88l-132 456h-5zM376 703l55 -137l-31 -14l-71 128z" />
    <glyph glyph-name="Wacute" unicode="&#x1e82;" horiz-adv-x="957" 
d="M313 0h-86l-202 600h64l177 -556h12l159 556h83l165 -556h12l175 556h60l-199 -600h-88l-163 551h-12zM461 661l56 135l49 -23l-71 -128z" />
    <glyph glyph-name="wacute" unicode="&#x1e83;" horiz-adv-x="829" 
d="M282 0h-87l-165 500h59l147 -457h8l127 457h85l134 -457h8l144 457h57l-164 -500h-88l-132 456h-5zM391 566l55 137l47 -23l-71 -128z" />
    <glyph glyph-name="Wdieresis" unicode="&#x1e84;" horiz-adv-x="957" 
d="M313 0h-86l-202 600h64l177 -556h12l159 556h83l165 -556h12l175 556h60l-199 -600h-88l-163 551h-12zM533 695c0 27 22 48 47 48s47 -21 47 -48c0 -25 -22 -46 -47 -46s-47 21 -47 46zM330 695c0 27 21 48 46 48c27 0 47 -21 47 -48c0 -25 -20 -46 -47 -46
c-25 0 -46 21 -46 46z" />
    <glyph glyph-name="wdieresis" unicode="&#x1e85;" horiz-adv-x="829" 
d="M282 0h-87l-165 500h59l147 -457h8l127 457h85l134 -457h8l144 457h57l-164 -500h-88l-132 456h-5zM461 611c0 23 19 42 42 42s42 -19 42 -42s-19 -42 -42 -42s-42 19 -42 42zM280 611c0 23 19 42 42 42s42 -19 42 -42s-19 -42 -42 -42s-42 19 -42 42z" />
    <glyph glyph-name="Ygrave" unicode="&#x1ef2;" horiz-adv-x="629" 
d="M343 0h-56v134l-261 466h64l224 -405h5l224 405h61l-261 -462v-138zM294 796l56 -135l-34 -16l-71 128z" />
    <glyph glyph-name="ygrave" unicode="&#x1ef3;" horiz-adv-x="537" 
d="M296 0h-54v117l-217 383h61l181 -327h4l183 327h58l-216 -380v-120zM223 703l55 -137l-31 -14l-71 128z" />
    <glyph glyph-name="endash" unicode="&#x2013;" horiz-adv-x="415" 
d="M17 284h382v-40h-382v40z" />
    <glyph glyph-name="emdash" unicode="&#x2014;" horiz-adv-x="493" 
d="M17 284h460v-40h-460v40z" />
    <glyph glyph-name="quoteleft" unicode="&#x2018;" horiz-adv-x="169" 
d="M85 512c-32 0 -49 20 -49 45c0 9 2 16 5 23l39 95l30 -8l-12 -66c23 -5 34 -21 34 -44c0 -25 -16 -45 -47 -45z" />
    <glyph glyph-name="quoteright" unicode="&#x2019;" horiz-adv-x="169" 
d="M84 595c32 0 49 -20 49 -45c0 -9 -2 -16 -5 -23l-39 -95l-30 8l12 66c-23 5 -34 21 -34 44c0 25 16 45 47 45z" />
    <glyph glyph-name="quotesinglbase" unicode="&#x201a;" horiz-adv-x="169" 
d="M84 83c32 0 49 -20 49 -45c0 -9 -2 -16 -5 -23l-39 -95l-30 8l12 66c-23 5 -34 21 -34 44c0 25 16 45 47 45z" />
    <glyph glyph-name="quotedblleft" unicode="&#x201c;" horiz-adv-x="282" 
d="M198 512c-32 0 -49 20 -49 45c0 9 2 16 5 23l39 95l30 -8l-12 -66c23 -5 34 -21 34 -44c0 -25 -16 -45 -47 -45zM85 512c-32 0 -49 20 -49 45c0 9 2 16 5 23l39 95l30 -8l-12 -66c23 -5 34 -21 34 -44c0 -25 -16 -45 -47 -45z" />
    <glyph glyph-name="quotedblright" unicode="&#x201d;" horiz-adv-x="282" 
d="M197 595c32 0 49 -20 49 -45c0 -9 -2 -16 -5 -23l-39 -95l-30 8l12 66c-23 5 -34 21 -34 44c0 25 16 45 47 45zM84 595c32 0 49 -20 49 -45c0 -9 -2 -16 -5 -23l-39 -95l-30 8l12 66c-23 5 -34 21 -34 44c0 25 16 45 47 45z" />
    <glyph glyph-name="quotedblbase" unicode="&#x201e;" horiz-adv-x="282" 
d="M84 83c32 0 49 -20 49 -45c0 -9 -2 -16 -5 -23l-39 -95l-30 8l12 66c-23 5 -34 21 -34 44c0 25 16 45 47 45zM197 83c32 0 49 -20 49 -45c0 -9 -2 -16 -5 -23l-39 -95l-30 8l12 66c-23 5 -34 21 -34 44c0 25 16 45 47 45z" />
    <glyph glyph-name="dagger" unicode="&#x2020;" horiz-adv-x="290" 
d="M126 110l-6 100v62l5 77l-59 -5h-31l-22 21v5l22 21h31l59 -6l-5 57v36l23 22h4l23 -22v-36l-5 -56l58 5h32l21 -21v-5l-21 -21h-32l-58 5l5 -77v-62l-6 -100l-17 -146h-4z" />
    <glyph glyph-name="daggerdbl" unicode="&#x2021;" horiz-adv-x="290" 
d="M165 219l5 -52l-23 -203h-4l-23 203l5 52l-59 -5h-31l-22 20v6l22 20h31l59 -5l-5 48l5 47l-59 -6h-31l-22 21v5l22 21h31l59 -6l-5 57v36l23 22h4l23 -22v-36l-5 -56l58 5h32l21 -21v-5l-21 -21h-32l-58 6l5 -47l-5 -48l58 5h32l21 -20v-6l-21 -20h-32z" />
    <glyph glyph-name="bullet" unicode="&#x2022;" horiz-adv-x="190" 
d="M42 283c0 29 24 53 53 53s53 -24 53 -53s-24 -53 -53 -53s-53 24 -53 53z" />
    <glyph glyph-name="onedotenleader" unicode="&#x2024;" horiz-adv-x="158" 
d="M35 38c0 27 17 45 44 45s44 -18 44 -45s-17 -44 -44 -44s-44 17 -44 44z" />
    <glyph glyph-name="twodotenleader" unicode="&#x2025;" horiz-adv-x="304" 
d="M35 38c0 27 17 45 44 45s44 -18 44 -45s-17 -44 -44 -44s-44 17 -44 44zM181 38c0 27 17 45 44 45s44 -18 44 -45s-17 -44 -44 -44s-44 17 -44 44z" />
    <glyph glyph-name="ellipsis" unicode="&#x2026;" horiz-adv-x="450" 
d="M35 38c0 27 17 45 44 45s44 -18 44 -45s-17 -44 -44 -44s-44 17 -44 44zM181 38c0 27 17 45 44 45s44 -18 44 -45s-17 -44 -44 -44s-44 17 -44 44zM327 38c0 27 17 45 44 45s44 -18 44 -45s-17 -44 -44 -44s-44 17 -44 44z" />
    <glyph glyph-name="perthousand" unicode="&#x2030;" horiz-adv-x="932" 
d="M298 373c0 -39 -15 -72 -38 -96c-25 -27 -59 -40 -100 -40s-75 13 -100 40c-23 24 -38 57 -38 96s15 72 38 96c25 27 59 40 100 40s75 -13 100 -40c23 -24 38 -57 38 -96zM123 12l341 495l36 -23l-340 -496zM64 373c0 -25 8 -47 23 -64c19 -20 42 -32 73 -32s54 12 73 32
c15 17 23 39 23 64s-8 47 -23 64c-19 21 -44 32 -73 32s-54 -11 -73 -32c-15 -17 -23 -39 -23 -64zM613 126c0 -39 -15 -72 -38 -96c-25 -27 -59 -40 -100 -40s-75 13 -100 40c-23 24 -38 57 -38 96s15 72 38 96c25 27 59 40 100 40s75 -13 100 -40c23 -24 38 -57 38 -96z
M379 126c0 -25 8 -47 23 -64c19 -21 44 -32 73 -32c31 0 54 12 73 32c15 17 23 39 23 64s-8 47 -23 64c-19 20 -42 32 -73 32c-29 0 -54 -11 -73 -32c-15 -17 -23 -39 -23 -64zM910 126c0 -39 -15 -72 -38 -96c-25 -27 -59 -40 -100 -40s-75 13 -100 40
c-23 24 -38 57 -38 96s15 72 38 96c25 27 59 40 100 40s75 -13 100 -40c23 -24 38 -57 38 -96zM676 126c0 -25 8 -47 23 -64c19 -21 44 -32 73 -32c31 0 54 12 73 32c15 17 23 39 23 64s-8 47 -23 64c-19 20 -42 32 -73 32c-29 0 -54 -11 -73 -32c-15 -17 -23 -39 -23 -64z
" />
    <glyph glyph-name="guilsinglleft" unicode="&#x2039;" horiz-adv-x="282" 
d="M233 401l19 -29l-170 -121l170 -121l-19 -29l-213 139v22z" />
    <glyph glyph-name="guilsinglright" unicode="&#x203a;" horiz-adv-x="282" 
d="M52 101l-19 29l171 121l-171 121l19 29l214 -139v-22z" />
    <glyph glyph-name="exclamdbl" unicode="&#x203c;" horiz-adv-x="288" 
d="M59 654h51v-138l-6 -378h-40l-5 378v138zM39 39c0 27 18 45 45 45s45 -18 45 -45s-18 -45 -45 -45s-45 18 -45 45zM178 654h51v-138l-6 -378h-40l-5 378v138zM158 39c0 27 18 45 45 45s45 -18 45 -45s-18 -45 -45 -45s-45 18 -45 45z" />
    <glyph glyph-name="fraction" unicode="&#x2044;" horiz-adv-x="198" 
d="M-60 -7l276 535l42 -21l-277 -536z" />
    <glyph glyph-name="zerosuperior" unicode="&#x2070;" horiz-adv-x="332" 
d="M310 466c0 -39 -14 -73 -41 -100c-27 -28 -61 -42 -104 -42s-77 14 -104 42c-27 27 -41 61 -41 100s14 73 41 100c27 28 61 42 104 42s77 -14 104 -42c27 -27 41 -61 41 -100zM68 466c0 -31 9 -55 27 -73c17 -19 41 -28 70 -28s53 9 70 28c18 18 27 42 27 73
s-9 55 -27 73c-17 19 -41 28 -70 28s-53 -9 -70 -28c-18 -18 -27 -42 -27 -73z" />
    <glyph glyph-name="foursuperior" unicode="&#x2074;" horiz-adv-x="286" 
d="M17 374v26l176 200h36v-186h32v-34l-32 -6v-41h-44v41h-168zM185 414v117l-107 -117h107z" />
    <glyph glyph-name="fivesuperior" unicode="&#x2075;" horiz-adv-x="288" 
d="M138 362c26 0 45 5 57 15c13 9 19 24 19 44c0 17 -5 30 -14 41c-12 12 -30 18 -54 18c-36 0 -52 -6 -73 -15l-30 6v129h196v-40h-152v-51c19 7 37 11 66 11c39 0 67 -12 86 -36c13 -17 20 -38 20 -63c0 -27 -9 -50 -26 -67c-21 -23 -55 -33 -95 -33c-51 0 -86 20 -113 48
l29 30c21 -20 44 -37 84 -37z" />
    <glyph glyph-name="sixsuperior" unicode="&#x2076;" horiz-adv-x="294" 
d="M228 542c-27 20 -44 25 -72 25c-24 0 -43 -7 -57 -21c-13 -13 -20 -31 -23 -52c17 8 46 18 73 18c31 0 63 -7 84 -26c19 -16 31 -37 31 -70c0 -28 -12 -52 -31 -69c-23 -20 -52 -30 -84 -30c-43 0 -72 18 -92 46c-18 26 -27 59 -27 98s10 77 33 105c21 25 54 41 93 41
c36 0 63 -10 95 -35zM91 387c12 -21 37 -33 64 -33c19 0 36 6 48 18c11 11 17 26 17 44s-5 32 -16 41c-11 10 -29 15 -54 15c-32 0 -53 -8 -76 -19c0 -24 6 -49 17 -66z" />
    <glyph glyph-name="sevensuperior" unicode="&#x2077;" horiz-adv-x="262" 
d="M25 562v38h212v-29l-125 -239h-50l127 230h-164z" />
    <glyph glyph-name="eightsuperior" unicode="&#x2078;" horiz-adv-x="309" 
d="M154 317c-36 0 -74 6 -98 29c-15 15 -26 35 -26 64c0 15 4 29 13 42c8 12 19 21 32 28c-15 14 -22 31 -22 51c0 23 11 40 27 53c20 16 48 22 76 22c27 0 57 -6 77 -25c13 -12 20 -28 20 -49c0 -19 -9 -35 -24 -47c16 -7 28 -17 37 -30s13 -28 13 -43
c0 -29 -13 -51 -32 -67c-24 -20 -58 -28 -93 -28zM154 567c-19 0 -35 -2 -46 -11c-7 -6 -11 -14 -11 -25s4 -18 12 -23c12 -7 32 -7 45 -7c12 0 27 -1 36 -2c13 7 19 18 19 35c0 11 -4 19 -11 24c-9 7 -25 9 -44 9zM154 461c-13 0 -32 0 -43 3c-25 -7 -36 -29 -36 -52
c0 -17 6 -30 18 -39c13 -11 34 -17 61 -17s48 5 63 17c11 8 16 21 16 39c0 16 -6 26 -15 33c-15 11 -40 16 -64 16z" />
    <glyph glyph-name="ninesuperior" unicode="&#x2079;" horiz-adv-x="294" 
d="M62 379c27 -19 49 -23 76 -23c23 0 42 7 58 22c13 13 21 31 23 54c-19 -11 -46 -20 -73 -20c-35 0 -67 8 -88 27c-19 15 -28 38 -28 68c0 31 12 54 31 71c21 19 49 29 84 29c43 0 72 -17 91 -44s28 -62 28 -101s-8 -75 -31 -103c-21 -27 -56 -42 -95 -42
c-35 0 -64 8 -96 29zM220 470c0 24 -4 47 -16 66c-13 20 -33 33 -65 33c-20 0 -36 -6 -47 -17c-12 -11 -18 -26 -18 -45c0 -18 5 -31 16 -40c13 -11 31 -16 55 -16c32 0 54 8 75 19z" />
    <glyph glyph-name="parenleftsuperior" unicode="&#x207d;" horiz-adv-x="128" 
d="M70 461c0 -56 13 -115 38 -158l-32 -16c-31 46 -46 104 -46 174c0 71 15 128 46 173l32 -15c-25 -43 -38 -102 -38 -158z" />
    <glyph glyph-name="parenrightsuperior" unicode="&#x207e;" horiz-adv-x="128" 
d="M58 461c0 56 -13 116 -38 157l32 16c29 -44 46 -102 46 -173c0 -72 -17 -129 -46 -174l-32 16c25 43 38 102 38 158z" />
    <glyph glyph-name="zeroinferior" unicode="&#x2080;" horiz-adv-x="332" 
d="M310 89c0 -39 -14 -73 -41 -100c-27 -28 -61 -42 -104 -42s-77 14 -104 42c-27 27 -41 61 -41 100s14 73 41 100c27 28 61 42 104 42s77 -14 104 -42c27 -27 41 -61 41 -100zM68 89c0 -31 9 -55 27 -73c17 -19 41 -28 70 -28s53 9 70 28c18 18 27 42 27 73s-9 55 -27 73
c-17 19 -41 28 -70 28s-53 -9 -70 -28c-18 -18 -27 -42 -27 -73z" />
    <glyph glyph-name="oneinferior" unicode="&#x2081;" horiz-adv-x="147" 
d="M31 155l-16 32l67 34h25v-268h-44v215z" />
    <glyph glyph-name="twoinferior" unicode="&#x2082;" horiz-adv-x="268" 
d="M27 -48v33l126 88c13 11 25 20 33 32c7 11 12 23 12 38c0 17 -10 31 -22 38c-11 7 -26 11 -44 11c-35 0 -57 -10 -86 -34l-23 28c35 33 65 45 109 45c29 0 56 -6 77 -22c19 -15 33 -37 33 -68c0 -23 -7 -40 -18 -57c-11 -15 -26 -30 -45 -43l-76 -50h141v-39h-217z" />
    <glyph glyph-name="threeinferior" unicode="&#x2083;" horiz-adv-x="291" 
d="M139 -20c27 0 48 6 63 19c9 8 16 19 16 38c0 13 -5 24 -14 31c-10 8 -24 12 -42 12h-89v38h86c11 0 21 3 28 10s10 15 10 26c0 13 -5 22 -15 27c-13 9 -27 10 -47 10c-25 0 -48 -5 -76 -25l-21 30c31 24 62 33 99 33c32 0 55 -5 78 -21c15 -11 26 -30 26 -55
c0 -19 -7 -37 -23 -48c23 -11 44 -33 44 -68c0 -30 -11 -54 -32 -71c-22 -17 -52 -26 -91 -26c-51 0 -89 21 -114 46l26 30c31 -27 52 -36 88 -36z" />
    <glyph glyph-name="fourinferior" unicode="&#x2084;" horiz-adv-x="286" 
d="M17 -5v26l176 200h36v-186h32v-34l-32 -6v-41h-44v41h-168zM185 35v117l-107 -117h107z" />
    <glyph glyph-name="fiveinferior" unicode="&#x2085;" horiz-adv-x="288" 
d="M138 -17c26 0 45 5 57 15c13 9 19 24 19 44c0 17 -5 30 -14 41c-12 12 -30 18 -54 18c-36 0 -52 -6 -73 -15l-30 6v129h196v-40h-152v-51c19 7 37 11 66 11c39 0 67 -12 86 -36c13 -17 20 -38 20 -63c0 -27 -9 -50 -26 -67c-21 -23 -55 -33 -95 -33c-51 0 -86 20 -113 48
l29 30c21 -20 44 -37 84 -37z" />
    <glyph glyph-name="sixinferior" unicode="&#x2086;" horiz-adv-x="294" 
d="M228 165c-27 20 -44 25 -72 25c-24 0 -43 -7 -57 -21c-13 -13 -20 -31 -23 -52c17 8 46 18 73 18c31 0 63 -7 84 -26c19 -16 31 -37 31 -70c0 -28 -12 -52 -31 -69c-23 -20 -52 -30 -84 -30c-43 0 -72 18 -92 46c-18 26 -27 59 -27 98s10 77 33 105c21 25 54 41 93 41
c36 0 63 -10 95 -35zM91 10c12 -21 37 -33 64 -33c19 0 36 6 48 18c11 11 17 26 17 44s-5 32 -16 41c-11 10 -29 15 -54 15c-32 0 -53 -8 -76 -19c0 -24 6 -49 17 -66z" />
    <glyph glyph-name="seveninferior" unicode="&#x2087;" horiz-adv-x="262" 
d="M25 183v38h212v-29l-125 -239h-50l127 230h-164z" />
    <glyph glyph-name="eightinferior" unicode="&#x2088;" horiz-adv-x="309" 
d="M154 -60c-36 0 -74 6 -98 29c-15 15 -26 35 -26 64c0 15 4 29 13 42c8 12 19 21 32 28c-15 14 -22 31 -22 51c0 23 11 40 27 53c20 16 48 22 76 22c27 0 57 -6 77 -25c13 -12 20 -28 20 -49c0 -19 -9 -35 -24 -47c16 -7 28 -17 37 -30s13 -28 13 -43
c0 -29 -13 -51 -32 -67c-24 -20 -58 -28 -93 -28zM154 190c-19 0 -35 -2 -46 -11c-7 -6 -11 -14 -11 -25s4 -18 12 -23c12 -7 32 -7 45 -7c12 0 27 -1 36 -2c13 7 19 18 19 35c0 11 -4 19 -11 24c-9 7 -25 9 -44 9zM154 84c-13 0 -32 0 -43 3c-25 -7 -36 -29 -36 -52
c0 -17 6 -30 18 -39c13 -11 34 -17 61 -17s48 5 63 17c11 8 16 21 16 39c0 16 -6 26 -15 33c-15 11 -40 16 -64 16z" />
    <glyph glyph-name="nineinferior" unicode="&#x2089;" horiz-adv-x="294" 
d="M62 2c27 -19 49 -23 76 -23c23 0 42 7 58 22c13 13 21 31 23 54c-19 -11 -46 -20 -73 -20c-35 0 -67 8 -88 27c-19 15 -28 38 -28 68c0 31 12 54 31 71c21 19 49 29 84 29c43 0 72 -17 91 -44s28 -62 28 -101s-8 -75 -31 -103c-21 -27 -56 -42 -95 -42
c-35 0 -64 8 -96 29zM220 93c0 24 -4 47 -16 66c-13 20 -33 33 -65 33c-20 0 -36 -6 -47 -17c-12 -11 -18 -26 -18 -45c0 -18 5 -31 16 -40c13 -11 31 -16 55 -16c32 0 54 8 75 19z" />
    <glyph glyph-name="parenleftinferior" unicode="&#x208d;" horiz-adv-x="128" 
d="M70 82c0 -56 13 -115 38 -158l-32 -16c-31 46 -46 104 -46 174c0 71 15 128 46 173l32 -15c-25 -43 -38 -102 -38 -158z" />
    <glyph glyph-name="parenrightinferior" unicode="&#x208e;" horiz-adv-x="128" 
d="M58 82c0 56 -13 116 -38 157l32 16c29 -44 46 -102 46 -173c0 -72 -17 -129 -46 -174l-32 16c25 43 38 102 38 158z" />
    <glyph glyph-name="Euro" unicode="&#x20ac;" horiz-adv-x="525" 
d="M10 229h337l-7 -44h-243c9 -31 23 -57 43 -79c39 -44 96 -68 160 -68c73 0 121 21 161 56l29 -35c-49 -43 -106 -68 -190 -68c-81 0 -144 31 -191 79c-32 32 -54 70 -66 115h-33v44zM354 274h-344v44h34c11 40 31 77 59 108c48 51 117 83 197 83c85 0 141 -24 190 -68
l-30 -35c-40 35 -87 56 -160 56c-64 0 -120 -24 -159 -67c-19 -21 -33 -46 -44 -77h264z" />
    <glyph glyph-name="afii61352" unicode="&#x2116;" horiz-adv-x="814" 
d="M464 500h51v-500h-56l-357 432v-432h-52v500h57l357 -431v431zM557 291c0 31 12 59 32 80c21 21 50 34 82 34c33 0 60 -12 82 -35c21 -21 32 -48 32 -79c0 -32 -13 -60 -34 -81c-21 -20 -49 -33 -80 -33s-58 12 -79 32c-21 21 -35 50 -35 82zM597 291c0 -21 7 -38 21 -52
c13 -15 31 -22 53 -22c21 0 40 9 53 22c14 14 21 31 21 52s-7 38 -20 51c-14 15 -32 23 -54 23s-40 -7 -53 -22c-14 -14 -21 -31 -21 -52zM571 133h196v-38h-196v38z" />
    <glyph glyph-name="trademark" unicode="&#x2122;" horiz-adv-x="595" 
d="M156 569v-212h-33v212h-98v31h230v-31h-99zM299 562v-205h-32v243h45l100 -124l100 124h43v-243h-33v205l-107 -130h-11z" />
    <glyph glyph-name="minus" unicode="&#x2212;" horiz-adv-x="320" 
d="M17 294h287v-40h-287v40z" />
    <glyph glyph-name="approxequal" unicode="&#x2248;" horiz-adv-x="356" 
d="M178 190c-27 9 -44 14 -71 14s-42 -6 -61 -25l-26 32c31 27 53 37 88 37c27 0 45 -6 69 -14c25 -11 43 -16 70 -16c25 0 42 5 62 24l27 -31c-29 -25 -58 -37 -89 -37c-27 0 -45 5 -69 16zM178 287c-27 9 -44 14 -71 14s-42 -5 -61 -24l-26 32c31 27 53 36 88 36
c27 0 45 -5 69 -14c25 -11 43 -15 70 -15c25 0 42 4 62 23l27 -30c-31 -27 -58 -37 -89 -37c-27 0 -45 4 -69 15z" />
    <glyph glyph-name="notequal" unicode="&#x2260;" horiz-adv-x="318" 
d="M17 228h107l20 72h-127v41h137l11 37l42 -11l-7 -26h101v-41h-112l-19 -72h131v-41h-142l-11 -41l-43 11l7 30h-95v41z" />
    <glyph glyph-name="lessequal" unicode="&#x2264;" horiz-adv-x="279" 
d="M249 176l-19 -29l-210 138v23l210 139l19 -29l-167 -121zM20 220l4 5l178 -117l-19 -28l-163 103v37z" />
    <glyph glyph-name="greaterequal" unicode="&#x2265;" horiz-adv-x="279" 
d="M49 147l-19 29l167 121l-167 121l19 29l210 -139v-23zM255 225l4 -5v-37l-163 -103l-19 28z" />
    <glyph glyph-name="percent" horiz-adv-x="636" 
d="M298 373c0 -39 -15 -72 -38 -96c-25 -27 -59 -40 -100 -40s-75 13 -100 40c-23 24 -38 57 -38 96s15 72 38 96c25 27 59 40 100 40s75 -13 100 -40c23 -24 38 -57 38 -96zM123 12l341 495l36 -23l-340 -496zM64 373c0 -25 8 -47 23 -64c19 -20 42 -32 73 -32s54 12 73 32
c15 17 23 39 23 64s-8 47 -23 64c-19 21 -44 32 -73 32s-54 -11 -73 -32c-15 -17 -23 -39 -23 -64zM613 126c0 -39 -15 -72 -38 -96c-25 -27 -59 -40 -100 -40s-75 13 -100 40c-23 24 -38 57 -38 96s15 72 38 96c25 27 59 40 100 40s75 -13 100 -40c23 -24 38 -57 38 -96z
M379 126c0 -25 8 -47 23 -64c19 -21 44 -32 73 -32c31 0 54 12 73 32c15 17 23 39 23 64s-8 47 -23 64c-19 20 -42 32 -73 32c-29 0 -54 -11 -73 -32c-15 -17 -23 -39 -23 -64z" />
    <glyph glyph-name="Breve" horiz-adv-x="355" 
d="M262 755l43 -6c-7 -32 -17 -58 -38 -77c-23 -21 -52 -31 -88 -31c-39 0 -70 11 -94 33c-19 19 -28 43 -35 75l42 6c5 -23 14 -43 29 -56c16 -13 35 -19 58 -19c25 0 44 7 57 20c11 12 20 30 26 55z" />
    <glyph glyph-name="Dieresis" horiz-adv-x="397" 
d="M253 695c0 27 22 48 47 48s47 -21 47 -48c0 -25 -22 -46 -47 -46s-47 21 -47 46zM50 695c0 27 21 48 46 48c27 0 47 -21 47 -48c0 -25 -20 -46 -47 -46c-25 0 -46 21 -46 46z" />
    <glyph glyph-name="commaaccent" horiz-adv-x="188" 
d="M93 76c28 0 45 -18 45 -41c0 -7 -1 -14 -4 -21l-35 -88l-31 8l11 61c-19 5 -29 19 -29 40c0 23 16 41 43 41z" />
    <glyph glyph-name="dblgrave" horiz-adv-x="300" 
d="M206 705l44 -137l-34 -14l-60 131zM95 703l62 -136l-32 -13l-75 126z" />
    <glyph glyph-name="Acute" horiz-adv-x="205" 
d="M50 661l56 135l49 -23l-71 -128z" />
    <glyph glyph-name="Grave" horiz-adv-x="205" 
d="M99 796l56 -135l-34 -16l-71 128z" />
    <glyph glyph-name="Caron" horiz-adv-x="369" 
d="M50 763l21 22l113 -93l113 93l22 -22l-123 -120h-23z" />
    <glyph glyph-name="Circumflex" horiz-adv-x="369" 
d="M74 647l-24 23l123 121h23l123 -121l-24 -23l-111 94z" />
    <glyph glyph-name="commaaccent.cap" horiz-adv-x="187" 
d="M93 75c28 0 44 -17 44 -40c0 -9 -1 -15 -3 -20l-37 -88l-32 10l14 58c-19 4 -29 20 -29 40c0 23 16 40 43 40z" />
    <glyph glyph-name="Dotaccent" horiz-adv-x="183" 
d="M50 35c0 23 18 40 41 40s42 -17 42 -40s-19 -41 -42 -41s-41 18 -41 41z" />
    <glyph glyph-name="Hungarumlaut" horiz-adv-x="308" 
d="M50 669l42 147l55 -22l-59 -139zM141 672l67 142l50 -23l-82 -135z" />
    <glyph glyph-name="dblGrave" horiz-adv-x="308" 
d="M216 816l42 -147l-39 -14l-58 139zM99 814l68 -142l-35 -16l-82 135z" />
    <glyph glyph-name="Macron" horiz-adv-x="416" 
d="M50 695h316v-45h-316v45z" />
    <glyph glyph-name="Ring" horiz-adv-x="302" 
d="M151 629c-28 0 -52 10 -72 30c-17 17 -29 42 -29 70c0 29 11 54 30 71c19 19 43 29 71 29s52 -10 71 -29c19 -17 30 -42 30 -71s-12 -53 -29 -70c-20 -20 -44 -30 -72 -30zM151 669c19 0 33 6 42 18c11 11 15 26 15 42c0 19 -5 33 -15 43c-9 11 -23 17 -42 17
c-18 0 -32 -6 -42 -17c-10 -12 -15 -26 -15 -43c0 -16 4 -31 15 -42c9 -12 23 -18 42 -18z" />
    <glyph glyph-name="Tilde" horiz-adv-x="423" 
d="M284 650c-35 0 -58 10 -78 21c-19 11 -39 21 -70 21c-25 0 -43 -6 -66 -25l-20 26c32 28 59 40 91 40c37 0 61 -13 84 -25c17 -11 38 -16 64 -16c28 0 39 4 62 23l22 -26c-28 -26 -58 -39 -89 -39z" />
    <glyph glyph-name="zero.fitted" horiz-adv-x="620" 
d="M312 37c72 0 132 29 176 73c47 47 75 110 75 190c0 77 -27 139 -70 186c-44 49 -106 77 -181 77s-137 -28 -181 -77c-43 -47 -70 -109 -70 -186c0 -80 28 -143 75 -190c44 -44 104 -73 176 -73zM312 -11c-84 0 -158 30 -211 81c-60 59 -95 138 -95 230
c0 87 31 162 84 219c55 57 131 92 222 92s167 -35 222 -92c53 -57 85 -132 85 -219c0 -92 -36 -171 -96 -230c-53 -51 -127 -81 -211 -81z" />
    <glyph glyph-name="one.fitted" horiz-adv-x="620" 
d="M238 503l-18 34l130 63h27v-600h-52v540z" />
    <glyph glyph-name="two.fitted" horiz-adv-x="620" 
d="M76 0v45l288 219c36 28 61 47 81 74c19 25 30 54 30 93c0 51 -24 85 -64 108c-35 20 -75 28 -116 28c-93 0 -134 -27 -194 -71l-26 34c57 51 127 81 220 81c60 0 117 -14 160 -45c44 -31 72 -75 72 -139c0 -43 -14 -83 -41 -118c-23 -31 -55 -56 -102 -91l-231 -174h369
v-44h-446z" />
    <glyph glyph-name="three.fitted" horiz-adv-x="620" 
d="M298 33c81 0 123 19 159 54c29 27 43 61 43 102c0 35 -9 60 -29 84c-23 27 -61 42 -121 42h-170v42h170c41 0 72 14 91 43c10 17 15 37 15 62c0 39 -20 67 -51 83c-37 19 -82 24 -117 24c-67 0 -113 -17 -173 -57l-24 32c63 51 121 67 202 67c43 0 97 -9 141 -33
c43 -23 72 -60 72 -116c0 -28 -6 -53 -21 -76c-12 -17 -27 -31 -46 -40v-4c35 -12 61 -29 80 -56c21 -29 32 -57 32 -97c0 -49 -18 -99 -61 -138c-43 -37 -96 -62 -192 -62c-114 0 -179 40 -229 87l30 35c54 -48 101 -78 199 -78z" />
    <glyph glyph-name="four.fitted" horiz-adv-x="620" 
d="M60 97v42l387 461h47v-458h65v-40l-65 -5v-97h-54v97h-380zM440 142v383l-317 -383h317z" />
    <glyph glyph-name="five.fitted" horiz-adv-x="620" 
d="M290 33c65 0 125 17 164 57c25 27 41 63 41 111c0 47 -16 84 -43 111c-35 33 -86 51 -143 51c-64 0 -113 -9 -164 -33h-43v270h394v-45h-348v-182c47 23 100 33 157 33c61 0 124 -17 171 -56c41 -33 69 -82 69 -149c0 -61 -22 -107 -57 -142c-47 -47 -118 -70 -198 -70
c-113 0 -169 34 -217 79l29 36c52 -45 94 -71 188 -71z" />
    <glyph glyph-name="six.fitted" horiz-adv-x="620" 
d="M317 403c65 0 129 -15 173 -48c43 -31 69 -82 69 -153c0 -61 -24 -112 -63 -147c-47 -43 -111 -66 -180 -66s-121 21 -161 56c-65 56 -94 149 -94 256c0 97 31 186 95 245c41 39 97 65 169 65c79 0 136 -17 189 -58l-25 -37c-59 37 -98 52 -163 52
c-60 0 -103 -18 -135 -45c-41 -36 -63 -90 -76 -169c47 31 121 49 202 49zM316 33c57 0 109 16 148 55c28 28 44 65 44 114c0 52 -15 87 -46 114c-35 31 -88 43 -145 43c-93 0 -142 -14 -203 -46v-9c0 -84 14 -174 70 -225c31 -28 73 -46 132 -46z" />
    <glyph glyph-name="seven.fitted" horiz-adv-x="620" 
d="M87 556v44h444v-40l-286 -560h-55l285 556h-388z" />
    <glyph glyph-name="eight.fitted" horiz-adv-x="620" 
d="M309 -11c-64 0 -136 14 -191 54c-45 35 -68 88 -68 137c0 43 16 86 51 121c21 19 44 33 70 44c-20 15 -38 29 -50 49c-11 20 -17 43 -17 68c0 47 23 84 56 108c41 31 96 41 152 41c60 0 116 -12 157 -45c27 -23 44 -57 44 -101c0 -24 -7 -50 -23 -73
c-12 -19 -28 -33 -48 -41c40 -14 71 -34 92 -60c24 -29 37 -67 37 -106c0 -63 -25 -105 -64 -136c-52 -43 -127 -60 -198 -60zM309 568c-40 0 -85 -8 -117 -31c-23 -17 -37 -43 -37 -80c0 -27 10 -44 26 -59c31 -25 85 -30 128 -30c25 0 48 -1 71 -4c30 6 52 19 65 40
c12 17 18 38 18 63c0 39 -17 60 -44 75c-31 19 -71 26 -110 26zM309 322c-29 0 -55 2 -78 7c-39 -13 -70 -31 -97 -60c-23 -24 -31 -53 -31 -84c0 -41 17 -83 54 -110c43 -31 96 -42 152 -42s118 12 161 49c29 24 48 56 48 103c0 37 -14 74 -47 99c-41 32 -99 38 -162 38z
" />
    <glyph glyph-name="nine.fitted" horiz-adv-x="620" 
d="M304 197c-65 0 -129 15 -174 48c-43 31 -69 82 -69 153c0 61 25 112 64 147c47 43 111 66 180 66c68 0 120 -21 160 -56c65 -56 92 -149 92 -256c0 -96 -31 -188 -96 -248c-43 -39 -103 -62 -174 -62c-75 0 -139 20 -191 60l27 36c62 -40 101 -53 163 -53
c64 0 112 19 145 50c39 38 64 93 75 164c-47 -31 -122 -49 -202 -49zM305 567c-59 0 -110 -16 -149 -55c-27 -28 -44 -65 -44 -114c0 -52 15 -87 46 -114c36 -31 87 -43 146 -43c91 0 143 15 203 46v9c0 84 -16 173 -71 225c-31 28 -74 46 -131 46z" />
    <glyph glyph-name="zerooldstyle" horiz-adv-x="567" 
d="M539 250c0 -76 -25 -141 -72 -188c-45 -45 -108 -71 -184 -71c-79 0 -142 27 -187 74c-43 47 -69 109 -69 185s25 141 70 186c45 47 109 73 186 73c80 0 144 -28 189 -76c43 -47 67 -108 67 -183zM79 250c0 -69 22 -122 59 -159s86 -55 145 -55c67 0 118 21 154 62
c32 39 50 85 50 152c0 69 -20 122 -55 159c-36 39 -86 56 -149 56c-59 0 -108 -18 -144 -54c-39 -39 -60 -90 -60 -161z" />
    <glyph glyph-name="oneoldstyle" horiz-adv-x="241" 
d="M49 402l-18 34l134 64h26v-500h-50v442z" />
    <glyph glyph-name="twooldstyle" horiz-adv-x="482" 
d="M66 0v44l263 189c25 19 49 39 62 64c11 19 13 37 13 62c0 38 -15 65 -44 82c-33 19 -59 25 -110 25c-73 0 -117 -22 -170 -66l-29 33c56 51 118 76 199 76c67 0 114 -13 154 -45c31 -25 49 -62 49 -109c0 -32 -7 -57 -20 -80c-19 -31 -47 -55 -88 -84l-212 -148h315v-43
h-382z" />
    <glyph glyph-name="threeoldstyle" horiz-adv-x="479" 
d="M231 34c37 0 93 7 130 34c25 19 40 46 40 85c0 30 -8 53 -25 69c-21 20 -53 30 -96 30h-147v44h142c32 0 56 8 72 25c12 15 19 31 19 58s-14 50 -33 63c-28 19 -71 24 -108 24c-72 0 -112 -15 -156 -46l-22 32c50 39 102 57 183 57c45 0 97 -8 133 -35
c27 -19 50 -52 50 -95c0 -20 -3 -38 -12 -55c-8 -15 -21 -28 -40 -40v-4c25 -7 47 -24 62 -45c17 -22 26 -49 26 -82c0 -52 -22 -88 -57 -115c-41 -32 -101 -47 -162 -47c-91 0 -158 27 -205 70l25 34c56 -43 112 -61 181 -61z" />
    <glyph glyph-name="fouroldstyle" horiz-adv-x="491" 
d="M25 87v48l337 365h48v-369h61v-39l-61 -5v-87h-49v87h-336zM361 131v305l-281 -305h281z" />
    <glyph glyph-name="fiveoldstyle" horiz-adv-x="465" 
d="M206 33c55 0 100 15 131 42c27 23 39 50 39 93c0 45 -16 75 -40 95c-29 25 -71 35 -127 35c-51 0 -88 -10 -129 -30l-30 8v224h336v-41h-292v-142c37 16 80 24 123 24c49 0 99 -11 140 -39c39 -27 68 -70 68 -134c0 -57 -23 -97 -55 -125c-40 -35 -97 -52 -164 -52
c-91 0 -148 27 -191 62l26 35c49 -35 90 -55 165 -55z" />
    <glyph glyph-name="sixoldstyle" horiz-adv-x="489" 
d="M253 340c67 0 122 -17 161 -54c28 -27 45 -63 45 -118c0 -61 -29 -107 -69 -135c-41 -29 -91 -42 -142 -42c-75 0 -129 27 -164 71c-37 47 -54 111 -54 187c0 85 25 155 82 206c36 32 86 54 146 54c68 0 115 -15 164 -51l-24 -33c-44 32 -83 43 -139 43
c-47 0 -84 -16 -115 -43c-35 -31 -55 -73 -63 -124c41 24 112 39 172 39zM248 30c47 0 93 14 124 43c24 23 41 54 41 95s-13 72 -39 95c-27 23 -68 35 -121 35c-76 0 -127 -13 -176 -38v-4c0 -60 7 -119 38 -162c27 -39 69 -64 133 -64z" />
    <glyph glyph-name="sevenoldstyle" horiz-adv-x="433" 
d="M20 457v43h393v-38l-247 -462h-53l248 457h-341z" />
    <glyph glyph-name="eightoldstyle" horiz-adv-x="512" 
d="M255 509c68 0 126 -16 162 -61c14 -18 21 -42 21 -71c0 -40 -21 -71 -54 -91v-4c31 -12 54 -30 70 -50c17 -21 28 -47 28 -80c0 -53 -25 -88 -57 -113c-45 -35 -109 -48 -170 -48c-68 0 -145 14 -187 61c-23 24 -38 56 -38 100c0 27 8 51 23 74c15 21 36 42 65 53v4
c-31 25 -44 52 -44 97c0 40 19 72 50 93c36 27 86 36 131 36zM255 258c-33 0 -66 3 -87 8c-29 -8 -52 -23 -69 -45c-15 -20 -22 -43 -22 -70c0 -35 13 -56 32 -75c35 -32 94 -42 146 -42c60 0 105 7 142 38c23 19 38 41 38 77c0 35 -14 58 -35 74c-34 26 -53 35 -145 35z
M121 380c0 -33 8 -51 24 -63c23 -19 63 -18 110 -18c24 0 49 0 69 -3c44 13 67 39 67 86c0 27 -12 45 -29 58c-27 20 -64 27 -107 27c-31 0 -74 -5 -103 -26c-19 -15 -31 -33 -31 -61z" />
    <glyph glyph-name="nineoldstyle" horiz-adv-x="489" 
d="M237 159c-67 0 -123 18 -162 55c-27 27 -45 64 -45 119c0 60 27 107 70 136c39 27 86 40 141 40c75 0 130 -26 166 -73s52 -112 52 -185c0 -80 -24 -151 -71 -199c-37 -39 -89 -61 -157 -61c-69 0 -121 10 -174 45l21 35c47 -28 89 -39 152 -39c50 0 91 16 123 48
c31 29 49 71 54 116c-40 -24 -113 -37 -170 -37zM241 469c-49 0 -88 -11 -117 -34s-47 -56 -47 -103c0 -41 13 -73 39 -95c27 -23 67 -35 121 -35c75 0 124 12 175 37v4c0 60 -8 121 -37 162c-27 39 -70 64 -134 64z" />
    <glyph glyph-name="one.taboldstyle" 
d="M187 402l-18 34l134 64h26v-500h-50v442z" />
    <glyph glyph-name="two.taboldstyle" 
d="M98 0v44l263 189c25 19 49 39 62 64c11 19 13 37 13 62c0 38 -15 65 -44 82c-33 19 -59 25 -110 25c-73 0 -117 -22 -170 -66l-29 33c56 51 118 76 199 76c67 0 114 -13 154 -45c31 -25 49 -62 49 -109c0 -32 -7 -57 -20 -80c-19 -31 -47 -55 -88 -84l-212 -148h315v-43
h-382z" />
    <glyph glyph-name="zero.taboldstyle" 
d="M536 250c0 -76 -25 -141 -72 -188c-45 -45 -108 -71 -184 -71c-79 0 -142 27 -187 74c-43 47 -69 109 -69 185s25 141 70 186c45 47 109 73 186 73c80 0 144 -28 189 -76c43 -47 67 -108 67 -183zM76 250c0 -69 22 -122 59 -159s86 -55 145 -55c67 0 118 21 154 62
c32 39 50 85 50 152c0 69 -20 122 -55 159c-36 39 -86 56 -149 56c-59 0 -108 -18 -144 -54c-39 -39 -60 -90 -60 -161z" />
    <glyph glyph-name="three.taboldstyle" 
d="M272 34c37 0 93 7 130 34c25 19 40 46 40 85c0 30 -8 53 -25 69c-21 20 -53 30 -96 30h-147v44h142c32 0 56 8 72 25c12 15 19 31 19 58s-14 50 -33 63c-28 19 -71 24 -108 24c-72 0 -112 -15 -156 -46l-22 32c50 39 102 57 183 57c45 0 97 -8 133 -35
c27 -19 50 -52 50 -95c0 -20 -3 -38 -12 -55c-8 -15 -21 -28 -40 -40v-4c25 -7 47 -24 62 -45c17 -22 26 -49 26 -82c0 -52 -22 -88 -57 -115c-41 -32 -101 -47 -162 -47c-91 0 -158 27 -205 70l25 34c56 -43 112 -61 181 -61z" />
    <glyph glyph-name="four.taboldstyle" 
d="M57 87v48l337 365h48v-369h61v-39l-61 -5v-87h-49v87h-336zM393 131v305l-281 -305h281z" />
    <glyph glyph-name="five.taboldstyle" 
d="M265 33c55 0 100 15 131 42c27 23 39 50 39 93c0 45 -16 75 -40 95c-29 25 -71 35 -127 35c-51 0 -88 -10 -129 -30l-30 8v224h336v-41h-292v-142c37 16 80 24 123 24c49 0 99 -11 140 -39c39 -27 68 -70 68 -134c0 -57 -23 -97 -55 -125c-40 -35 -97 -52 -164 -52
c-91 0 -148 27 -191 62l26 35c49 -35 90 -55 165 -55z" />
    <glyph glyph-name="six.taboldstyle" 
d="M287 340c67 0 122 -17 161 -54c28 -27 45 -63 45 -118c0 -61 -29 -107 -69 -135c-41 -29 -91 -42 -142 -42c-75 0 -129 27 -164 71c-37 47 -54 111 -54 187c0 85 25 155 82 206c36 32 86 54 146 54c68 0 115 -15 164 -51l-24 -33c-44 32 -83 43 -139 43
c-47 0 -84 -16 -115 -43c-35 -31 -55 -73 -63 -124c41 24 112 39 172 39zM282 30c47 0 93 14 124 43c24 23 41 54 41 95s-13 72 -39 95c-27 23 -68 35 -121 35c-76 0 -127 -13 -176 -38v-4c0 -60 7 -119 38 -162c27 -39 69 -64 133 -64z" />
    <glyph glyph-name="seven.taboldstyle" 
d="M82 457v43h393v-38l-247 -462h-53l248 457h-341z" />
    <glyph glyph-name="eight.taboldstyle" 
d="M278 509c68 0 126 -16 162 -61c14 -18 21 -42 21 -71c0 -40 -21 -71 -54 -91v-4c31 -12 54 -30 70 -50c17 -21 28 -47 28 -80c0 -53 -25 -88 -57 -113c-45 -35 -109 -48 -170 -48c-68 0 -145 14 -187 61c-23 24 -38 56 -38 100c0 27 8 51 23 74c15 21 36 42 65 53v4
c-31 25 -44 52 -44 97c0 40 19 72 50 93c36 27 86 36 131 36zM278 258c-33 0 -66 3 -87 8c-29 -8 -52 -23 -69 -45c-15 -20 -22 -43 -22 -70c0 -35 13 -56 32 -75c35 -32 94 -42 146 -42c60 0 105 7 142 38c23 19 38 41 38 77c0 35 -14 58 -35 74c-34 26 -53 35 -145 35z
M144 380c0 -33 8 -51 24 -63c23 -19 63 -18 110 -18c24 0 49 0 69 -3c44 13 67 39 67 86c0 27 -12 45 -29 58c-27 20 -64 27 -107 27c-31 0 -74 -5 -103 -26c-19 -15 -31 -33 -31 -61z" />
    <glyph glyph-name="nine.taboldstyle" 
d="M271 159c-67 0 -123 18 -162 55c-27 27 -45 64 -45 119c0 60 27 107 70 136c39 27 86 40 141 40c75 0 130 -26 166 -73s52 -112 52 -185c0 -80 -24 -151 -71 -199c-37 -39 -89 -61 -157 -61c-69 0 -121 10 -174 45l21 35c47 -28 89 -39 152 -39c50 0 91 16 123 48
c31 29 49 71 54 116c-40 -24 -113 -37 -170 -37zM275 469c-49 0 -88 -11 -117 -34s-47 -56 -47 -103c0 -41 13 -73 39 -95c27 -23 67 -35 121 -35c75 0 124 12 175 37v4c0 60 -8 121 -37 162c-27 39 -70 64 -134 64z" />
    <glyph glyph-name="currency.taboldstyle" 
d="M280 101c-37 0 -63 10 -88 27l-42 -39l-29 29l39 43c-17 24 -28 52 -28 89s10 64 29 89l-40 42l29 30l42 -40c25 17 51 28 88 28s63 -11 88 -28l42 40l29 -30l-39 -42c17 -24 29 -52 29 -89s-12 -64 -29 -89l40 -42l-30 -30l-42 39c-25 -17 -51 -27 -88 -27zM377 250
c0 28 -6 50 -23 69s-42 30 -74 30c-29 0 -53 -9 -72 -28c-16 -18 -24 -42 -24 -71c0 -28 6 -52 23 -71c16 -19 40 -29 73 -29c30 0 53 8 69 25c19 19 28 44 28 75z" />
    <glyph glyph-name="centoldstyle" horiz-adv-x="523" 
d="M326 566v-57c69 -7 114 -28 161 -69l-30 -34c-40 35 -86 56 -158 56c-60 0 -112 -21 -151 -60c-37 -37 -60 -87 -60 -151c0 -63 21 -111 58 -150c39 -39 92 -63 153 -63c72 0 118 20 158 57l31 -35c-45 -41 -91 -65 -162 -69v-57h-55v58c-67 7 -118 32 -161 72
c-48 47 -75 114 -75 187c0 72 27 135 75 182c41 41 96 68 161 75v58h55z" />
    <glyph glyph-name="dollaroldstyle" horiz-adv-x="495" 
d="M34 381c0 44 21 73 52 92c35 23 79 31 122 34v59h55v-57c60 -3 115 -15 172 -39l-17 -38c-53 19 -110 31 -171 31c-40 0 -90 -4 -127 -24c-23 -15 -35 -32 -35 -60c0 -27 13 -41 32 -52s43 -17 67 -21l114 -20c51 -9 97 -21 129 -52c23 -21 38 -48 38 -91
c0 -40 -22 -83 -62 -112c-32 -24 -76 -36 -140 -40v-57h-55v58c-64 3 -126 16 -179 37l14 43c63 -20 131 -33 183 -33c49 0 117 2 154 36c16 15 31 36 31 65c0 31 -11 49 -28 64c-23 17 -56 22 -91 29l-124 23c-35 7 -70 17 -95 38c-24 19 -39 47 -39 87z" />
    <glyph glyph-name="cent.taboldstyle" 
d="M342 566v-57c69 -7 114 -28 161 -69l-30 -34c-40 35 -86 56 -158 56c-60 0 -112 -21 -151 -60c-37 -37 -60 -87 -60 -151c0 -63 21 -111 58 -150c39 -39 92 -63 153 -63c72 0 118 20 158 57l31 -35c-45 -41 -91 -65 -162 -69v-57h-55v58c-67 7 -118 32 -161 72
c-48 47 -75 114 -75 187c0 72 27 135 75 182c41 41 96 68 161 75v58h55z" />
    <glyph glyph-name="dollar.taboldstyle" 
d="M66 381c0 44 21 73 52 92c35 23 79 31 122 34v59h55v-57c60 -3 115 -15 172 -39l-17 -38c-53 19 -110 31 -171 31c-40 0 -90 -4 -127 -24c-23 -15 -35 -32 -35 -60c0 -27 13 -41 32 -52s43 -17 67 -21l114 -20c51 -9 97 -21 129 -52c23 -21 38 -48 38 -91
c0 -40 -22 -83 -62 -112c-32 -24 -76 -36 -140 -40v-57h-55v58c-64 3 -126 16 -179 37l14 43c63 -20 131 -33 183 -33c49 0 117 2 154 36c16 15 31 36 31 65c0 31 -11 49 -28 64c-23 17 -56 22 -91 29l-124 23c-35 7 -70 17 -95 38c-24 19 -39 47 -39 87z" />
    <glyph glyph-name="Euro.taboldstyle" 
d="M42 229h337l-7 -44h-243c9 -31 23 -57 43 -79c39 -44 96 -68 160 -68c73 0 121 21 161 56l29 -35c-49 -43 -106 -68 -190 -68c-81 0 -144 31 -191 79c-32 32 -54 70 -66 115h-33v44zM386 274h-344v44h34c11 40 31 77 59 108c48 51 117 83 197 83c85 0 141 -24 190 -68
l-30 -35c-40 35 -87 56 -160 56c-64 0 -120 -24 -159 -67c-19 -21 -33 -46 -44 -77h264z" />
    <glyph glyph-name="yen.taboldstyle" 
d="M440 167h-312v45h90l-178 288h61l179 -291h9l181 291h56l-178 -288h92v-45zM128 123h312v-45h-130v-78h-53v78h-129v45z" />
    <glyph glyph-name="numbersign.taboldstyle" horiz-adv-x="570" 
d="M173 52l6 89h-84v39h89l6 62h-95v40h98l8 92l41 -3l-7 -89h68l7 92l42 -3l-8 -89h90v-40h-94l-6 -62h100v-39h-104l-7 -92l-40 3l6 89h-67l-8 -92zM231 242l-6 -62h68l6 62h-68z" />
    <glyph glyph-name="zero.denominator" horiz-adv-x="332" 
d="M310 139c0 -39 -14 -73 -41 -100c-27 -28 -61 -42 -104 -42s-77 14 -104 42c-27 27 -41 61 -41 100s14 73 41 100c27 28 61 42 104 42s77 -14 104 -42c27 -27 41 -61 41 -100zM68 139c0 -31 9 -55 27 -73c17 -19 41 -28 70 -28s53 9 70 28c18 18 27 42 27 73
s-9 55 -27 73c-17 19 -41 28 -70 28s-53 -9 -70 -28c-18 -18 -27 -42 -27 -73z" />
    <glyph glyph-name="one.denominator" horiz-adv-x="147" 
d="M31 205l-16 32l67 34h25v-268h-44v215z" />
    <glyph glyph-name="three.denominator" horiz-adv-x="291" 
d="M139 30c27 0 48 6 63 19c9 8 16 19 16 38c0 13 -5 24 -14 31c-10 8 -24 12 -42 12h-89v38h86c11 0 21 3 28 10s10 15 10 26c0 13 -5 22 -15 27c-13 9 -27 10 -47 10c-25 0 -48 -5 -76 -25l-21 30c31 24 62 33 99 33c32 0 55 -5 78 -21c15 -11 26 -30 26 -55
c0 -19 -7 -37 -23 -48c23 -11 44 -33 44 -68c0 -30 -11 -54 -32 -71c-22 -17 -52 -26 -91 -26c-51 0 -89 21 -114 46l26 30c31 -27 52 -36 88 -36z" />
    <glyph glyph-name="four.denominator" horiz-adv-x="286" 
d="M17 45v26l176 200h36v-186h32v-34l-32 -6v-41h-44v41h-168zM185 85v117l-107 -117h107z" />
    <glyph glyph-name="five.denominator" horiz-adv-x="288" 
d="M138 33c26 0 45 5 57 15c13 9 19 24 19 44c0 17 -5 30 -14 41c-12 12 -30 18 -54 18c-36 0 -52 -6 -73 -15l-30 6v129h196v-40h-152v-51c19 7 37 11 66 11c39 0 67 -12 86 -36c13 -17 20 -38 20 -63c0 -27 -9 -50 -26 -67c-21 -23 -55 -33 -95 -33c-51 0 -86 20 -113 48
l29 30c21 -20 44 -37 84 -37z" />
    <glyph glyph-name="six.denominator" horiz-adv-x="294" 
d="M228 215c-27 20 -44 25 -72 25c-24 0 -43 -7 -57 -21c-13 -13 -20 -31 -23 -52c17 8 46 18 73 18c31 0 63 -7 84 -26c19 -16 31 -37 31 -70c0 -28 -12 -52 -31 -69c-23 -20 -52 -30 -84 -30c-43 0 -72 18 -92 46c-18 26 -27 59 -27 98s10 77 33 105c21 25 54 41 93 41
c36 0 63 -10 95 -35zM91 60c12 -21 37 -33 64 -33c19 0 36 6 48 18c11 11 17 26 17 44s-5 32 -16 41c-11 10 -29 15 -54 15c-32 0 -53 -8 -76 -19c0 -24 6 -49 17 -66z" />
    <glyph glyph-name="seven.denominator" horiz-adv-x="262" 
d="M25 233v38h212v-29l-125 -239h-50l127 230h-164z" />
    <glyph glyph-name="eight.denominator" horiz-adv-x="309" 
d="M154 -10c-36 0 -74 6 -98 29c-15 15 -26 35 -26 64c0 15 4 29 13 42c8 12 19 21 32 28c-15 14 -22 31 -22 51c0 23 11 40 27 53c20 16 48 22 76 22c27 0 57 -6 77 -25c13 -12 20 -28 20 -49c0 -19 -9 -35 -24 -47c16 -7 28 -17 37 -30s13 -28 13 -43
c0 -29 -13 -51 -32 -67c-24 -20 -58 -28 -93 -28zM154 240c-19 0 -35 -2 -46 -11c-7 -6 -11 -14 -11 -25s4 -18 12 -23c12 -7 32 -7 45 -7c12 0 27 -1 36 -2c13 7 19 18 19 35c0 11 -4 19 -11 24c-9 7 -25 9 -44 9zM154 134c-13 0 -32 0 -43 3c-25 -7 -36 -29 -36 -52
c0 -17 6 -30 18 -39c13 -11 34 -17 61 -17s48 5 63 17c11 8 16 21 16 39c0 16 -6 26 -15 33c-15 11 -40 16 -64 16z" />
    <glyph glyph-name="nine.denominator" horiz-adv-x="294" 
d="M62 52c27 -19 49 -23 76 -23c23 0 42 7 58 22c13 13 21 31 23 54c-19 -11 -46 -20 -73 -20c-35 0 -67 8 -88 27c-19 15 -28 38 -28 68c0 31 12 54 31 71c21 19 49 29 84 29c43 0 72 -17 91 -44s28 -62 28 -101s-8 -75 -31 -103c-21 -27 -56 -42 -95 -42
c-35 0 -64 8 -96 29zM220 143c0 24 -4 47 -16 66c-13 20 -33 33 -65 33c-20 0 -36 -6 -47 -17c-12 -11 -18 -26 -18 -45c0 -18 5 -31 16 -40c13 -11 31 -16 55 -16c32 0 54 8 75 19z" />
    <glyph glyph-name="period.denominator" horiz-adv-x="105" 
d="M15 36c0 21 16 38 37 38s38 -17 38 -38s-17 -37 -38 -37s-37 16 -37 37z" />
    <glyph glyph-name="comma.denominator" horiz-adv-x="105" 
d="M15 36c0 21 16 38 37 38s38 -17 38 -38c0 -7 -1 -12 -3 -17l-30 -80l-27 8l9 55c-15 4 -24 18 -24 34z" />
    <glyph glyph-name="dollar.denominator" horiz-adv-x="283" 
d="M114 301h44v-30c29 -3 59 -8 87 -23l-13 -31c-31 12 -56 18 -89 18c-16 0 -42 0 -59 -11c-10 -5 -15 -14 -15 -25c0 -17 14 -27 42 -31l57 -8c27 -4 49 -10 66 -25c15 -13 23 -32 23 -51c0 -24 -8 -40 -23 -55c-19 -19 -44 -27 -76 -30v-30h-44v31c-36 1 -62 11 -89 26
l17 34c33 -16 56 -22 89 -22c31 0 53 4 66 13c11 7 17 15 17 30c0 31 -33 36 -53 39l-61 9c-19 3 -38 9 -53 21c-14 12 -21 27 -21 46c0 23 10 41 26 53c16 13 39 20 62 21v31z" />
    <glyph glyph-name="cent.denominator" horiz-adv-x="297" 
d="M145 -31v30c-32 4 -54 16 -77 36c-27 23 -43 61 -43 100s16 73 40 97c22 22 49 35 80 39v30h43v-28c32 -5 60 -19 84 -42l-27 -27c-25 20 -46 31 -78 31c-25 0 -52 -10 -71 -29c-17 -16 -29 -40 -29 -71c0 -28 10 -52 29 -71c16 -17 44 -28 71 -28c31 0 53 11 78 31
l27 -27c-27 -24 -52 -39 -84 -42v-29h-43z" />
    <glyph glyph-name="parenleft.denominator" horiz-adv-x="128" 
d="M70 132c0 -56 13 -115 38 -158l-32 -16c-31 46 -46 104 -46 174c0 71 15 128 46 173l32 -15c-25 -43 -38 -102 -38 -158z" />
    <glyph glyph-name="parenright.denominator" horiz-adv-x="128" 
d="M58 132c0 56 -13 116 -38 157l32 16c29 -44 46 -102 46 -173c0 -72 -17 -129 -46 -174l-32 16c25 43 38 102 38 158z" />
    <glyph glyph-name="hyphen.denominator" horiz-adv-x="184" 
d="M15 170h154v-45h-154v45z" />
    <glyph glyph-name="Cedilla" horiz-adv-x="234" 
d="M78 18h43l-2 -54c18 0 33 -6 46 -17c11 -10 16 -24 16 -41c0 -35 -16 -61 -43 -78c-23 -13 -46 -21 -73 -26l-8 32c28 7 45 13 56 21c19 12 26 30 26 47c0 7 -3 13 -8 18c-5 4 -12 6 -21 6h-32v92z" />
    <glyph glyph-name="Ogonek" horiz-adv-x="206" 
d="M98 18l19 -17c-8 -5 -14 -12 -18 -19c-5 -9 -8 -18 -8 -29c0 -19 6 -35 17 -48s27 -22 48 -33l-13 -29c-27 8 -53 20 -70 40c-15 16 -23 36 -23 63c0 17 5 31 14 44c7 12 19 20 34 28z" />
    <glyph glyph-name="rupiah" horiz-adv-x="503" 
d="M23 100h27v400h231c61 0 109 -20 142 -55c31 -31 49 -69 49 -118c0 -47 -17 -83 -45 -114c-35 -36 -83 -58 -146 -58h-177v-55h194v-43h-194v-57h-54v57h-27v43zM284 201c47 0 78 15 101 39c21 24 34 52 34 87c0 33 -11 62 -32 85c-23 27 -59 42 -111 42h-172v-253h180z
" />
    <glyph glyph-name="zero.slash" horiz-adv-x="674" 
d="M337 -11c-84 0 -158 30 -211 81c-60 59 -96 138 -96 230c0 87 32 162 85 219c55 57 131 92 222 92s167 -35 222 -92c53 -57 85 -132 85 -219c0 -92 -36 -171 -96 -230c-53 -51 -127 -81 -211 -81zM337 37c72 0 132 29 176 73c47 47 75 110 75 190c0 68 -25 162 -88 207
l-299 -431c39 -26 85 -39 136 -39zM86 300c0 -85 32 -153 81 -200l297 430c-37 22 -80 33 -127 33c-75 0 -137 -28 -181 -77c-43 -47 -70 -109 -70 -186z" />
    <glyph glyph-name="zero.slash.fitted" horiz-adv-x="620" 
d="M312 -11c-84 0 -158 30 -211 81c-60 59 -96 138 -96 230c0 87 32 162 85 219c55 57 131 92 222 92s167 -35 222 -92c53 -57 85 -132 85 -219c0 -92 -36 -171 -96 -230c-53 -51 -127 -81 -211 -81zM312 37c72 0 132 29 176 73c47 47 75 110 75 190c0 68 -25 162 -88 207
l-299 -431c39 -26 85 -39 136 -39zM61 300c0 -85 32 -153 81 -200l297 430c-37 22 -80 33 -127 33c-75 0 -137 -28 -181 -77c-43 -47 -70 -109 -70 -186z" />
    <glyph glyph-name="zerooldstyle.slash" horiz-adv-x="567" 
d="M539 250c0 -76 -25 -141 -72 -188c-45 -45 -108 -71 -184 -71c-77 0 -141 25 -185 70c-47 47 -71 110 -71 189c0 76 25 141 70 186c45 47 109 73 186 73c79 0 142 -26 187 -73c44 -45 69 -109 69 -186zM79 250c0 -62 16 -111 48 -148l285 323c-35 27 -78 41 -129 41
c-59 0 -108 -18 -144 -55c-37 -37 -60 -90 -60 -161zM489 250c0 61 -18 112 -47 149l-284 -327c33 -25 75 -38 125 -38c66 0 117 21 153 63c33 37 53 86 53 153z" />
    <glyph glyph-name="zerooldstyle.slash.fitted" 
d="M533 250c0 -76 -25 -141 -72 -188c-45 -45 -108 -71 -184 -71c-77 0 -141 25 -185 70c-47 47 -71 110 -71 189c0 76 25 141 70 186c45 47 109 73 186 73c79 0 142 -26 187 -73c44 -45 69 -109 69 -186zM73 250c0 -62 16 -111 48 -148l285 323c-35 27 -78 41 -129 41
c-59 0 -108 -18 -144 -55c-37 -37 -60 -90 -60 -161zM483 250c0 61 -18 112 -47 149l-284 -327c33 -25 75 -38 125 -38c66 0 117 21 153 63c33 37 53 86 53 153z" />
    <glyph glyph-name="two.denominator" horiz-adv-x="268" 
d="M27 2v33l126 88c13 11 25 20 33 32c7 11 12 23 12 38c0 17 -10 31 -22 38c-11 7 -26 11 -44 11c-35 0 -57 -10 -86 -34l-23 28c35 33 65 45 109 45c29 0 56 -6 77 -22c19 -15 33 -37 33 -68c0 -23 -7 -40 -18 -57c-11 -15 -26 -30 -45 -43l-76 -50h141v-39h-217z" />
    <glyph glyph-name="zero.numerator" horiz-adv-x="332" 
d="M310 367c0 -39 -14 -73 -41 -100c-27 -28 -61 -42 -104 -42s-77 14 -104 42c-27 27 -41 61 -41 100s14 73 41 100c27 28 61 42 104 42s77 -14 104 -42c27 -27 41 -61 41 -100zM68 367c0 -31 9 -55 27 -73c17 -19 41 -28 70 -28s53 9 70 28c18 18 27 42 27 73
s-9 55 -27 73c-17 19 -41 28 -70 28s-53 -9 -70 -28c-18 -18 -27 -42 -27 -73z" />
    <glyph glyph-name="one.numerator" horiz-adv-x="147" 
d="M31 435l-16 32l67 34h25v-268h-44v215z" />
    <glyph glyph-name="two.numerator" horiz-adv-x="268" 
d="M27 230v33l126 88c13 11 25 20 33 32c7 11 12 23 12 38c0 17 -10 31 -22 38c-11 7 -26 11 -44 11c-35 0 -57 -10 -86 -34l-23 28c35 33 65 45 109 45c29 0 56 -6 77 -22c19 -15 33 -37 33 -68c0 -23 -7 -40 -18 -57c-11 -15 -26 -30 -45 -43l-76 -50h141v-39h-217z" />
    <glyph glyph-name="three.numerator" horiz-adv-x="291" 
d="M139 258c27 0 48 6 63 19c9 8 16 19 16 38c0 13 -5 24 -14 31c-10 8 -24 12 -42 12h-89v38h86c11 0 21 3 28 10s10 15 10 26c0 13 -5 22 -15 27c-13 9 -27 10 -47 10c-25 0 -48 -5 -76 -25l-21 30c31 24 62 33 99 33c32 0 55 -5 78 -21c15 -11 26 -30 26 -55
c0 -19 -7 -37 -23 -48c23 -11 44 -33 44 -68c0 -30 -11 -54 -32 -71c-22 -17 -52 -26 -91 -26c-51 0 -89 21 -114 46l26 30c31 -27 52 -36 88 -36z" />
    <glyph glyph-name="four.numerator" horiz-adv-x="286" 
d="M17 275v26l176 200h36v-186h32v-34l-32 -6v-41h-44v41h-168zM185 315v117l-107 -117h107z" />
    <glyph glyph-name="five.numerator" horiz-adv-x="288" 
d="M138 263c26 0 45 5 57 15c13 9 19 24 19 44c0 17 -5 30 -14 41c-12 12 -30 18 -54 18c-36 0 -52 -6 -73 -15l-30 6v129h196v-40h-152v-51c19 7 37 11 66 11c39 0 67 -12 86 -36c13 -17 20 -38 20 -63c0 -27 -9 -50 -26 -67c-21 -23 -55 -33 -95 -33c-51 0 -86 20 -113 48
l29 30c21 -20 44 -37 84 -37z" />
    <glyph glyph-name="six.numerator" horiz-adv-x="294" 
d="M228 443c-27 20 -44 25 -72 25c-24 0 -43 -7 -57 -21c-13 -13 -20 -31 -23 -52c17 8 46 18 73 18c31 0 63 -7 84 -26c19 -16 31 -37 31 -70c0 -28 -12 -52 -31 -69c-23 -20 -52 -30 -84 -30c-43 0 -72 18 -92 46c-18 26 -27 59 -27 98s10 77 33 105c21 25 54 41 93 41
c36 0 63 -10 95 -35zM91 288c12 -21 37 -33 64 -33c19 0 36 6 48 18c11 11 17 26 17 44s-5 32 -16 41c-11 10 -29 15 -54 15c-32 0 -53 -8 -76 -19c0 -24 6 -49 17 -66z" />
    <glyph glyph-name="seven.numerator" horiz-adv-x="262" 
d="M25 463v38h212v-29l-125 -239h-50l127 230h-164z" />
    <glyph glyph-name="eight.numerator" horiz-adv-x="309" 
d="M154 218c-36 0 -74 6 -98 29c-15 15 -26 35 -26 64c0 15 4 29 13 42c8 12 19 21 32 28c-15 14 -22 31 -22 51c0 23 11 40 27 53c20 16 48 22 76 22c27 0 57 -6 77 -25c13 -12 20 -28 20 -49c0 -19 -9 -35 -24 -47c16 -7 28 -17 37 -30s13 -28 13 -43
c0 -29 -13 -51 -32 -67c-24 -20 -58 -28 -93 -28zM154 468c-19 0 -35 -2 -46 -11c-7 -6 -11 -14 -11 -25s4 -18 12 -23c12 -7 32 -7 45 -7c12 0 27 -1 36 -2c13 7 19 18 19 35c0 11 -4 19 -11 24c-9 7 -25 9 -44 9zM154 362c-13 0 -32 0 -43 3c-25 -7 -36 -29 -36 -52
c0 -17 6 -30 18 -39c13 -11 34 -17 61 -17s48 5 63 17c11 8 16 21 16 39c0 16 -6 26 -15 33c-15 11 -40 16 -64 16z" />
    <glyph glyph-name="nine.numerator" horiz-adv-x="294" 
d="M62 280c27 -19 49 -23 76 -23c23 0 42 7 58 22c13 13 21 31 23 54c-19 -11 -46 -20 -73 -20c-35 0 -67 8 -88 27c-19 15 -28 38 -28 68c0 31 12 54 31 71c21 19 49 29 84 29c43 0 72 -17 91 -44s28 -62 28 -101s-8 -75 -31 -103c-21 -27 -56 -42 -95 -42
c-35 0 -64 8 -96 29zM220 371c0 24 -4 47 -16 66c-13 20 -33 33 -65 33c-20 0 -36 -6 -47 -17c-12 -11 -18 -26 -18 -45c0 -18 5 -31 16 -40c13 -11 31 -16 55 -16c32 0 54 8 75 19z" />
    <glyph glyph-name="parenleft.numerator" horiz-adv-x="128" 
d="M70 362c0 -56 13 -115 38 -158l-32 -16c-31 46 -46 104 -46 174c0 71 15 128 46 173l32 -15c-25 -43 -38 -102 -38 -158z" />
    <glyph glyph-name="parenright.numerator" horiz-adv-x="128" 
d="M58 362c0 56 -13 116 -38 157l32 16c29 -44 46 -102 46 -173c0 -72 -17 -129 -46 -174l-32 16c25 43 38 102 38 158z" />
    <glyph glyph-name="cent.numerator" horiz-adv-x="297" 
d="M145 200v30c-32 4 -54 16 -77 36c-27 23 -43 61 -43 100s16 73 40 97c22 22 49 35 80 39v30h43v-28c32 -5 60 -19 84 -42l-27 -27c-25 20 -46 31 -78 31c-25 0 -52 -10 -71 -29c-17 -16 -29 -40 -29 -71c0 -28 10 -52 29 -71c16 -17 44 -28 71 -28c31 0 53 11 78 31
l27 -27c-27 -24 -52 -39 -84 -42v-29h-43z" />
    <glyph glyph-name="dollar.numerator" horiz-adv-x="283" 
d="M114 532h44v-30c29 -3 59 -8 87 -23l-13 -31c-31 12 -56 18 -89 18c-16 0 -42 0 -59 -11c-10 -5 -15 -14 -15 -25c0 -17 14 -27 42 -31l57 -8c27 -4 49 -10 66 -25c15 -13 23 -32 23 -51c0 -24 -8 -40 -23 -55c-19 -19 -44 -27 -76 -30v-30h-44v31c-36 1 -62 11 -89 26
l17 34c33 -16 56 -22 89 -22c31 0 53 4 66 13c11 7 17 15 17 30c0 31 -33 36 -53 39l-61 9c-19 3 -38 9 -53 21c-14 12 -21 27 -21 46c0 23 10 41 26 53c16 13 39 20 62 21v31z" />
    <glyph glyph-name="hyphen.numerator" horiz-adv-x="184" 
d="M15 394h154v-45h-154v45z" />
    <glyph glyph-name="comma.numerator" horiz-adv-x="105" 
d="M15 257c0 21 16 38 37 38s38 -17 38 -38c0 -7 -1 -12 -3 -17l-30 -80l-27 8l9 55c-15 4 -24 18 -24 34z" />
    <glyph glyph-name="period.numerator" horiz-adv-x="105" 
d="M15 257c0 21 16 38 37 38s38 -17 38 -38s-17 -37 -38 -37s-37 16 -37 37z" />
    <glyph glyph-name="centsuperior" horiz-adv-x="297" 
d="M145 299v30c-32 4 -54 16 -77 36c-27 23 -43 61 -43 100s16 73 40 97c22 22 49 35 80 39v30h43v-28c32 -5 60 -19 84 -42l-27 -27c-25 20 -46 31 -78 31c-25 0 -52 -10 -71 -29c-17 -16 -29 -40 -29 -71c0 -28 10 -52 29 -71c16 -17 44 -28 71 -28c31 0 53 11 78 31
l27 -27c-27 -24 -52 -39 -84 -42v-29h-43z" />
    <glyph glyph-name="hyphensuperior" horiz-adv-x="184" 
d="M15 493h154v-45h-154v45z" />
    <glyph glyph-name="commasuperior" horiz-adv-x="105" 
d="M15 356c0 21 16 38 37 38s38 -17 38 -38c0 -7 -1 -12 -3 -17l-30 -80l-27 8l9 55c-15 4 -24 18 -24 34z" />
    <glyph glyph-name="periodsuperior" horiz-adv-x="105" 
d="M15 356c0 21 16 38 37 38s38 -17 38 -38s-17 -37 -38 -37s-37 16 -37 37z" />
    <glyph glyph-name="dollarsuperior" horiz-adv-x="283" 
d="M114 631h44v-30c29 -3 59 -8 87 -23l-13 -31c-31 12 -56 18 -89 18c-16 0 -42 0 -59 -11c-10 -5 -15 -14 -15 -25c0 -17 14 -27 42 -31l57 -8c27 -4 49 -10 66 -25c15 -13 23 -32 23 -51c0 -24 -8 -40 -23 -55c-19 -19 -44 -27 -76 -30v-30h-44v31c-36 1 -62 11 -89 26
l17 34c33 -16 56 -22 89 -22c31 0 53 4 66 13c11 7 17 15 17 30c0 31 -33 36 -53 39l-61 9c-19 3 -38 9 -53 21c-14 12 -21 27 -21 46c0 23 10 41 26 53c16 13 39 20 62 21v31z" />
    <glyph glyph-name="hypheninferior" horiz-adv-x="184" 
d="M15 120h154v-45h-154v45z" />
    <glyph glyph-name="commainferior" horiz-adv-x="105" 
d="M15 -14c0 21 16 38 37 38s38 -17 38 -38c0 -7 -1 -12 -3 -17l-30 -80l-27 8l9 55c-15 4 -24 18 -24 34z" />
    <glyph glyph-name="periodinferior" horiz-adv-x="105" 
d="M15 -14c0 21 16 38 37 38s38 -17 38 -38s-17 -37 -38 -37s-37 16 -37 37z" />
    <glyph glyph-name="centinferior" horiz-adv-x="297" 
d="M145 -81v30c-32 4 -54 16 -77 36c-27 23 -43 61 -43 100s16 73 40 97c22 22 49 35 80 39v30h43v-28c32 -5 60 -19 84 -42l-27 -27c-25 20 -46 31 -78 31c-25 0 -52 -10 -71 -29c-17 -16 -29 -40 -29 -71c0 -28 10 -52 29 -71c16 -17 44 -28 71 -28c31 0 53 11 78 31
l27 -27c-27 -24 -52 -39 -84 -42v-29h-43z" />
    <glyph glyph-name="dollarinferior" horiz-adv-x="283" 
d="M114 251h44v-30c29 -3 59 -8 87 -23l-13 -31c-31 12 -56 18 -89 18c-16 0 -42 0 -59 -11c-10 -5 -15 -14 -15 -25c0 -17 14 -27 42 -31l57 -8c27 -4 49 -10 66 -25c15 -13 23 -32 23 -51c0 -24 -8 -40 -23 -55c-19 -19 -44 -27 -76 -30v-30h-44v31c-36 1 -62 11 -89 26
l17 34c33 -16 56 -22 89 -22c31 0 53 4 66 13c11 7 17 15 17 30c0 31 -33 36 -53 39l-61 9c-19 3 -38 9 -53 21c-14 12 -21 27 -21 46c0 23 10 41 26 53c16 13 39 20 62 21v31z" />
    <glyph glyph-name="ampersandsmall" horiz-adv-x="499" 
d="M387 434l-35 -24c-13 20 -27 34 -42 42c-16 8 -35 14 -54 14c-31 0 -57 -8 -76 -27c-12 -13 -21 -30 -21 -53c0 -17 9 -42 30 -63l206 -206c11 15 18 37 25 60l41 -9c-7 -40 -19 -64 -34 -83l57 -58l-36 -35l-52 53c-47 -36 -92 -54 -152 -54c-47 0 -109 15 -143 41
c-36 28 -66 75 -66 130c0 37 8 69 24 94c15 25 37 45 68 64c-11 19 -18 44 -18 65c0 37 15 66 42 89s60 35 99 35c34 0 64 -8 89 -24c19 -12 35 -29 48 -51zM246 37c47 0 83 12 118 41l-210 213c-23 -13 -40 -29 -51 -48c-12 -21 -17 -44 -17 -67c0 -40 15 -73 44 -99
c27 -24 76 -40 116 -40z" />
    <glyph glyph-name="Imacron" horiz-adv-x="156" 
d="M106 600v-600h-56v600h56zM-78 695h316v-45h-316v45z" />
    <glyph glyph-name="ibreve" horiz-adv-x="153" 
d="M50 500h53v-500h-53v500zM79 557c-36 0 -60 12 -79 32c-13 17 -21 36 -23 58l36 7c5 -19 12 -34 24 -45c10 -9 24 -14 41 -14c18 0 32 5 42 14c11 11 19 26 23 45l37 -7c-2 -22 -10 -42 -24 -59c-19 -20 -42 -31 -77 -31z" />
    <glyph glyph-name="afii10024.alt" horiz-adv-x="900" 
d="M423 345v255h56v-255h122l191 255h63l-207 -274l232 -326h-60l-216 299h-125v-299h-56v299h-126l-216 -299h-61l233 326l-207 274h63l191 -255h123z" />
    <glyph glyph-name="afii10028.alt" horiz-adv-x="594" 
d="M50 600h56v-255h179l200 255h64l-216 -274l241 -326h-64l-224 298h-180v-298h-56v600z" />
    <glyph glyph-name="afii10037.alt" horiz-adv-x="633" 
d="M548 600h60l-316 -600h-62l69 124l-273 476h64l239 -419h6z" />
    <glyph glyph-name="afii10061.alt" horiz-adv-x="594" 
d="M50 600h56v-255h179l200 255h64l-216 -274l241 -326h-64l-224 298h-180v-298h-56v600zM236 661l56 135l49 -23l-71 -128z" />
    <glyph glyph-name="afii10062.alt" horiz-adv-x="633" 
d="M548 600h60l-316 -600h-62l69 124l-273 476h64l239 -419h6zM417 755l43 -6c-7 -32 -17 -58 -38 -77c-23 -21 -52 -31 -88 -31c-39 0 -70 11 -94 33c-19 19 -28 43 -35 75l42 6c5 -23 14 -43 29 -56c16 -13 35 -19 58 -19c25 0 44 7 57 20c11 12 20 30 26 55z" />
    <glyph glyph-name="afii10072.alt" horiz-adv-x="775" 
d="M361 291v209h53v-209h107l153 209h60l-170 -229l191 -271h-59l-174 247h-108v-247h-53v247h-108l-174 -247h-59l191 271l-170 229h60l153 -209h107z" />
    <glyph glyph-name="afii10076.alt" horiz-adv-x="508" 
d="M50 500h54v-209h140l163 209h60l-180 -229l202 -271h-61l-185 247h-139v-247h-54v500z" />
    <glyph glyph-name="afii10085.alt" horiz-adv-x="545" 
d="M461 500h59l-268 -500h-56l57 107l-228 393h63l195 -341h5z" />
    <glyph glyph-name="afii10109.alt" horiz-adv-x="508" 
d="M50 500h54v-209h140l163 209h60l-180 -229l202 -271h-61l-185 247h-139v-247h-54v500zM219 566l55 137l47 -23l-71 -128z" />
    <glyph glyph-name="afii10110.alt" horiz-adv-x="545" 
d="M461 500h59l-268 -500h-56l57 107l-228 393h63l195 -341h5zM286 557c-36 0 -60 12 -79 32c-13 17 -21 36 -23 58l36 7c5 -19 12 -34 24 -45c10 -9 24 -14 41 -14c18 0 32 5 42 14c11 11 19 26 23 45l37 -7c-2 -22 -10 -42 -24 -59c-19 -20 -42 -31 -77 -31z" />
    </font>
</defs>
</svg>
