<?xml version="1.0" standalone="no"?>
<!DOCTYPE svg PUBLIC "-//W3C//DTD SVG 1.1//EN" "http://www.w3.org/Graphics/SVG/1.1/DTD/svg11.dtd" >
<svg>
<metadata>
Created by FontForge 20120731 at Fri Sep 19 14:48:19 2014
 By World Wide Web Server
2005 Veronika Burian, published by FontShop International for the FontFont library.
</metadata>
<defs>
<font id="MaiolaPro" horiz-adv-x="450" >
  <font-face 
    font-family="MaiolaPro"
    font-weight="400"
    font-stretch="normal"
    units-per-em="1000"
    panose-1="2 0 5 3 6 0 0 2 0 3"
    ascent="719"
    descent="-281"
    x-height="414"
    cap-height="609"
    bbox="-287 -275 1243 991"
    underline-thickness="24"
    underline-position="-25"
    stemh="49"
    stemv="74"
    unicode-range="U+000D-FB04"
  />
<missing-glyph horiz-adv-x="516" 
d="M5 0v618h506v-618h-506zM43 38h430v542h-430v-542z" />
    <glyph glyph-name="uniFB00" unicode="ff" horiz-adv-x="579" 
d="M349 417v77c0 34 6 79 18 94c26 36 90 98 127 98c26 0 83 -5 126 -14c-6 -21 -20 -59 -33 -80c-33 23 -69 45 -111 45c-54 0 -57 -61 -57 -158v-62h32c33 0 70 1 104 3l-12 -53h-126v-270c0 -16 3 -38 7 -44c11 -10 61 -27 99 -32l-8 -23c-37 3 -84 5 -114 5
c-29 0 -84 -3 -126 -5l4 23c23 5 50 17 64 30c4 7 6 25 6 43v273h-191v-260c0 -21 2 -47 7 -54c11 -12 53 -27 89 -32l-8 -23c-37 3 -74 5 -105 5c-29 0 -83 -3 -125 -5l4 23c22 5 47 16 63 30c4 7 7 28 7 43v271h-71l-10 15l82 35v59c0 38 4 77 16 94c33 45 97 99 131 99
c51 0 79 -6 117 -17c-9 -26 -20 -54 -32 -79c-31 23 -67 47 -107 47c-58 0 -58 -74 -58 -158v-43h191z" />
    <glyph glyph-name="fi" unicode="fi" horiz-adv-x="516" 
d="M9 380l81 35v79c0 40 5 77 17 94c33 45 109 98 143 98c84 0 144 -28 173 -49l-49 -66c-43 33 -89 66 -145 66c-64 0 -72 -74 -72 -158v-64c21 -2 68 -4 118 -4c54 0 113 3 149 6c-4 -46 -5 -84 -5 -106v-239c0 -5 1 -21 6 -27c11 -7 41 -20 71 -26l-9 -20
c-32 4 -72 4 -93 4c-19 0 -62 0 -106 -4l3 20c20 7 38 15 55 29c3 9 5 28 5 40v160c0 45 -2 100 -11 114c-24 5 -66 7 -105 7c-32 0 -63 -1 -77 -2v-270c0 -16 2 -38 7 -44c11 -11 63 -27 99 -32l-9 -23c-37 3 -83 5 -114 5c-29 0 -83 -3 -125 -5l4 23c19 6 43 14 63 30
c4 7 7 28 7 43v272h-71z" />
    <glyph glyph-name="fl" unicode="fl" horiz-adv-x="530" 
d="M361 494c0 24 0 65 -3 95c-33 24 -101 48 -142 48c-58 0 -58 -74 -58 -158v-62h25c30 0 74 1 112 3l-11 -53h-127v-254c0 -31 3 -56 8 -62c13 -10 64 -25 99 -30l-9 -23c-39 2 -72 3 -106 3c-44 0 -85 -1 -133 -3l4 23c22 6 44 15 63 30c4 7 7 28 7 43v271h-71l-10 15
l81 35v57c0 44 3 96 17 116c32 45 92 98 127 98c23 0 75 -8 116 -16c31 3 61 8 90 15c-6 -53 -9 -112 -9 -144v-437c0 -22 0 -45 6 -54c11 -10 45 -23 77 -29l-9 -22c-30 2 -61 2 -94 2c-37 0 -77 0 -120 -2l5 22c21 6 44 15 59 26c3 10 6 32 6 51v396z" />
    <glyph glyph-name="uniFB03" unicode="ffi" horiz-adv-x="776" 
d="M158 460v-44h192v78c0 40 4 77 18 94c32 45 109 98 142 98c85 0 144 -28 174 -49l-50 -66c-42 33 -90 66 -146 66c-63 0 -71 -74 -71 -158v-64c26 -2 71 -3 121 -3c54 0 109 2 147 5c-5 -46 -6 -84 -6 -106v-239c0 -5 1 -21 7 -27c10 -7 41 -20 69 -26l-8 -20
c-33 4 -73 4 -93 4c-18 0 -61 0 -106 -4l4 20c20 7 36 15 54 29c3 9 6 28 6 40v160c0 45 -4 100 -12 114c-23 5 -66 7 -105 7c-33 0 -62 -1 -78 -2v-270c0 -16 4 -38 8 -44c12 -11 62 -27 99 -32l-8 -23c-37 3 -83 5 -115 5c-29 0 -84 -3 -126 -5l4 23c20 6 44 14 65 30
c4 7 6 28 6 43v271h-192v-268c0 -16 2 -38 7 -44c9 -12 54 -27 89 -32l-8 -23c-37 3 -74 3 -105 3c-29 0 -83 -1 -125 -3l4 23c22 5 47 16 63 30c4 7 7 28 7 43v271h-71l-10 15l82 35v48c0 56 4 88 16 105c33 45 97 99 131 99c51 0 78 -6 117 -17c-9 -26 -19 -54 -32 -79
c-31 23 -64 47 -107 47c-53 0 -58 -60 -58 -158z" />
    <glyph glyph-name="uniFB04" unicode="ffl" horiz-adv-x="789" 
d="M159 460v-44h190v56c0 44 3 96 18 116c31 45 92 98 126 98c24 0 75 -8 116 -16c31 3 61 8 90 15c-7 -53 -8 -112 -8 -144v-437c0 -22 0 -45 5 -54c11 -10 45 -23 77 -29l-8 -22c-31 2 -61 2 -94 2c-38 0 -77 0 -120 -2l4 22c22 6 43 15 60 26c3 10 4 32 4 51v396
c0 24 0 65 -2 95c-34 24 -100 48 -141 48c-59 0 -59 -74 -59 -158v-62h31c30 0 68 1 107 3l-13 -53h-125v-254c0 -31 3 -56 7 -62c14 -10 63 -25 99 -30l-8 -23c-39 2 -74 3 -107 3c-43 0 -85 -1 -134 -3l4 23c24 6 46 15 65 30c4 7 6 28 6 43v271h-191v-268
c0 -16 3 -38 8 -44c9 -12 53 -27 89 -32l-8 -23c-37 3 -74 3 -106 3c-28 0 -83 -1 -125 -3l4 23c22 5 48 16 64 30c3 7 6 28 6 43v271h-71l-10 15l82 35v48c0 56 4 88 17 105c32 45 97 99 130 99c52 0 77 -5 117 -17c-8 -26 -19 -54 -32 -79c-30 23 -62 47 -106 47
c-53 0 -58 -60 -58 -158z" />
    <glyph glyph-name=".notdef" horiz-adv-x="516" 
d="M5 0v618h506v-618h-506zM43 38h430v542h-430v-542z" />
    <glyph glyph-name=".null" horiz-adv-x="0" 
 />
    <glyph glyph-name=".null" horiz-adv-x="0" 
 />
    <glyph glyph-name="CR" unicode="&#xd;" horiz-adv-x="200" 
 />
    <glyph glyph-name="space" unicode=" " horiz-adv-x="200" 
 />
    <glyph glyph-name="exclam" unicode="!" horiz-adv-x="247" 
d="M98 144l-15 474c33 3 67 8 104 17c-11 -46 -26 -138 -33 -204l-28 -278zM66 -7l5 68c13 2 25 3 41 4c17 1 28 2 40 5l-3 -72c-23 0 -65 -3 -83 -5z" />
    <glyph glyph-name="quotedbl" unicode="&#x22;" horiz-adv-x="232" 
d="M19 592l83 21l-14 -51l-28 -155l-23 -3zM142 599l83 20l-14 -52l-27 -153l-22 -7z" />
    <glyph glyph-name="numbersign" unicode="#" horiz-adv-x="493" 
d="M93 257l12 36h58c4 38 9 67 19 109l48 8c-8 -25 -18 -70 -22 -115h79c4 38 8 62 17 107l48 8c-8 -26 -17 -70 -22 -113h77l-16 -38h-65c-4 -29 -8 -51 -10 -76h74l-15 -39h-62c-4 -33 -6 -94 -6 -128l-45 -7c2 43 5 91 10 134h-82c-5 -38 -10 -93 -10 -127l-45 -7
c3 56 8 95 11 135h-69l11 36h61c2 29 5 49 8 77h-64zM203 258c-4 -27 -7 -48 -9 -77h80c2 25 5 51 10 77h-81z" />
    <glyph glyph-name="dollar" unicode="$" horiz-adv-x="388" 
d="M181 421v53l27 3v-56c36 -4 78 -11 103 -18l-5 -105h-16c-4 15 -15 48 -21 59c-7 10 -32 18 -61 24v-145c65 -28 126 -59 126 -118c0 -75 -79 -137 -129 -137v-61l-28 -3v64c-40 2 -97 11 -120 19c3 40 3 79 3 116l16 4c6 -25 18 -63 28 -81c11 -12 44 -21 74 -24v159
c-67 28 -121 61 -121 119c0 43 82 128 124 128zM277 87c0 40 -35 62 -71 77v-150c48 5 71 36 71 73zM180 246v137c-37 0 -64 -23 -64 -65c0 -33 31 -59 64 -72z" />
    <glyph glyph-name="percent" unicode="%" horiz-adv-x="576" 
d="M423 219c65 0 102 -40 102 -103c0 -70 -57 -132 -113 -132c-50 0 -101 39 -101 112c0 65 64 123 112 123zM363 106c0 -52 22 -89 59 -89c34 0 51 41 51 81c0 55 -22 88 -56 88c-31 0 -54 -31 -54 -80zM162 428c65 0 102 -40 102 -103c0 -70 -57 -132 -113 -132
c-50 0 -101 39 -101 112c0 65 64 123 112 123zM102 315c0 -52 22 -89 59 -89c34 0 51 41 51 81c0 55 -22 88 -56 88c-31 0 -54 -31 -54 -80zM442 406l-290 -442l-29 15l1 13l289 441l24 -16z" />
    <glyph glyph-name="ampersand" unicode="&#x26;" horiz-adv-x="701" 
d="M180 490c0 -43 26 -80 56 -113c28 -27 105 -109 181 -179c38 66 83 167 99 207c-11 4 -42 11 -56 12l-3 28c17 -2 36 -3 57 -3c39 0 83 3 123 12l11 -28c-30 -4 -64 -18 -81 -39c-28 -33 -89 -151 -125 -214c60 -57 131 -113 157 -128c19 -9 37 -13 56 -13
c13 0 30 2 46 5l-5 -22c-18 -9 -88 -30 -102 -30c-29 0 -122 76 -183 135c-42 -69 -99 -136 -192 -136c-107 0 -178 74 -178 155c0 90 84 155 145 201c-40 36 -74 81 -74 125c0 61 106 151 161 151c75 0 120 -35 120 -93c0 -40 -49 -83 -77 -106l-13 12c15 19 28 44 28 70
c0 46 -28 75 -77 75c-36 0 -74 -32 -74 -84zM242 51c60 0 106 30 142 92c-60 55 -133 127 -178 178c-50 -43 -91 -88 -91 -151c0 -60 52 -119 127 -119z" />
    <glyph glyph-name="quotesingle" unicode="'" horiz-adv-x="133" 
d="M24 593l84 21l-14 -52l-28 -154l-23 -4z" />
    <glyph glyph-name="parenleft" unicode="(" horiz-adv-x="311" 
d="M236 -119l-19 -11c-72 87 -138 216 -138 409c0 116 31 226 72 306c19 39 36 66 52 89l56 -13c-60 -83 -126 -235 -126 -396s34 -271 103 -384z" />
    <glyph glyph-name="parenright" unicode=")" horiz-adv-x="311" 
d="M75 662l19 12c73 -87 138 -216 138 -409c0 -115 -30 -226 -72 -306c-19 -38 -35 -66 -52 -89l-56 13c59 83 126 234 126 396c0 161 -35 279 -103 383z" />
    <glyph glyph-name="asterisk" unicode="*" horiz-adv-x="297" 
d="M153 495c-9 -38 -22 -80 -33 -104l-12 -7l-47 24c26 29 47 61 67 96c-37 -13 -79 -21 -107 -23l-16 7c4 15 10 33 10 48c6 -6 31 -9 47 -9c24 0 46 0 66 2c-36 29 -61 54 -79 82v11l43 26c10 -35 33 -72 53 -102c9 38 25 90 40 110c10 0 32 -15 50 -21
c-26 -21 -49 -64 -65 -99c25 10 68 23 100 23c7 0 12 0 17 -1l-6 -51c-15 6 -37 10 -59 10c-19 0 -37 -3 -50 -6c27 -23 51 -48 76 -77l1 -12l-46 -27c-8 33 -32 74 -50 100z" />
    <glyph glyph-name="plus" unicode="+" horiz-adv-x="395" 
d="M174 240v130c22 3 37 7 61 16c-2 -17 -5 -49 -7 -82c0 -15 -1 -37 -1 -62h133l9 -9l-11 -37h-133v-143l-58 -10c2 31 6 72 6 122v28c-58 -1 -112 -4 -137 -6l12 53h126z" />
    <glyph glyph-name="comma" unicode="," horiz-adv-x="257" 
d="M63 23l47 82c40 -19 85 -62 85 -94c0 -42 -59 -119 -96 -156l-16 19c24 29 51 71 51 103c0 26 -42 43 -71 46z" />
    <glyph glyph-name="hyphen" unicode="-" horiz-adv-x="289" 
d="M25 194l14 66c14 -1 30 -1 45 -1c55 0 106 2 168 6l10 -9l-13 -57c-19 1 -40 1 -60 1c-57 0 -116 -3 -164 -6z" />
    <glyph glyph-name="period" unicode="." horiz-adv-x="257" 
d="M77 -4l5 83c16 3 30 4 50 5c20 2 35 3 48 7l-4 -89c-27 -1 -79 -3 -99 -6z" />
    <glyph glyph-name="slash" unicode="/" horiz-adv-x="346" 
d="M310 703l-268 -818l-37 15l265 815z" />
    <glyph glyph-name="zero" unicode="0" horiz-adv-x="483" 
d="M243 419c124 0 204 -76 204 -189c0 -157 -116 -246 -213 -246c-121 0 -197 88 -197 206c0 141 110 229 206 229zM241 375c-91 0 -134 -71 -134 -169c0 -101 47 -178 139 -178c94 0 133 85 133 182c0 95 -56 165 -138 165z" />
    <glyph glyph-name="one" unicode="1" horiz-adv-x="303" 
d="M188 269v-179c0 -12 1 -34 5 -42c12 -9 61 -24 102 -29l-8 -24c-40 4 -108 7 -130 7c-26 0 -104 -4 -138 -7l4 26c32 4 77 15 98 29c4 9 4 32 4 42v136c0 39 -1 77 -5 106c-29 0 -61 -2 -84 -5l-11 23c55 14 108 33 165 63l7 -4c-7 -40 -9 -100 -9 -142z" />
    <glyph glyph-name="two" unicode="2" horiz-adv-x="400" 
d="M50 279l-14 82c44 25 109 58 161 58c62 0 125 -25 125 -104c0 -63 -52 -117 -106 -170c-41 -41 -84 -73 -111 -95h23c59 0 125 3 181 14c17 22 28 51 35 73l16 -4c-7 -42 -12 -102 -14 -136c-48 3 -101 3 -155 3c-59 0 -119 -1 -179 -4l-7 18c41 27 100 73 161 133
c52 51 88 92 88 144c0 63 -52 78 -85 78c-34 0 -62 -9 -82 -19c-7 -22 -12 -45 -17 -71h-20z" />
    <glyph glyph-name="three" unicode="3" horiz-adv-x="378" 
d="M51 281l-15 82c35 21 108 56 150 56c71 0 127 -37 127 -111s-83 -124 -115 -132c53 0 129 -31 129 -124c0 -100 -88 -189 -184 -219c-40 -9 -89 -20 -130 -25l-13 25c114 21 253 72 253 195c0 89 -68 118 -140 118h-26c2 8 6 21 9 29c64 0 144 40 144 121
c0 65 -42 75 -83 75c-26 0 -53 -7 -71 -16c-6 -22 -11 -50 -16 -74h-19z" />
    <glyph glyph-name="four" unicode="4" horiz-adv-x="458" 
d="M420 6h-82v-75c0 -34 3 -67 7 -92l-69 -19v185h-63c-49 0 -105 -2 -172 -5l-20 27c72 98 185 262 263 382c26 1 46 5 64 8c-6 -53 -8 -130 -8 -166v-196c32 0 74 1 102 6zM276 54v282l-196 -282h196z" />
    <glyph glyph-name="five" unicode="5" horiz-adv-x="382" 
d="M332 417l-26 -65c-31 2 -63 2 -93 2s-57 0 -81 -3c-8 -39 -13 -75 -15 -108c6 1 14 1 21 1c85 0 187 -41 187 -157c0 -107 -72 -197 -166 -243c-45 -18 -101 -31 -147 -39l-12 24c152 32 256 111 256 233c0 88 -62 125 -143 125c-12 0 -26 -1 -40 -3l30 230
c23 -3 60 -4 99 -4c45 0 93 3 130 7z" />
    <glyph glyph-name="six" unicode="6" horiz-adv-x="440" 
d="M123 218c0 -84 37 -189 113 -189c61 0 93 66 93 125c0 88 -54 129 -107 129c-24 0 -55 -12 -69 -18l-7 13c8 5 21 13 37 21c28 16 62 34 84 34c69 0 128 -71 128 -146c0 -104 -110 -203 -179 -203c-106 0 -164 115 -164 220c0 121 53 235 136 294c43 30 111 63 166 79
l20 -22c-19 -6 -47 -19 -95 -46c-26 -15 -55 -37 -77 -63c-56 -65 -79 -153 -79 -228z" />
    <glyph glyph-name="seven" unicode="7" horiz-adv-x="400" 
d="M130 -188l-68 30c58 151 180 378 252 506c-37 3 -94 6 -147 6c-29 0 -58 -2 -80 -4c-4 -15 -10 -53 -12 -77l-15 -1l-35 142c49 -3 100 -4 149 -4c76 0 150 3 208 7l7 -24c-26 -36 -50 -77 -68 -112c-79 -156 -143 -310 -191 -469z" />
    <glyph glyph-name="eight" unicode="8" horiz-adv-x="417" 
d="M364 462c0 -57 -74 -121 -116 -152c64 -40 124 -80 124 -137c0 -91 -97 -189 -175 -189c-99 0 -151 57 -151 132c0 66 58 120 121 170c-43 26 -100 63 -100 128c0 87 111 159 168 159c84 0 129 -44 129 -111zM305 134c0 68 -65 108 -116 135c-38 -35 -75 -81 -75 -136
c0 -52 32 -110 92 -110c58 0 99 45 99 111zM136 442c0 -48 38 -80 94 -118c39 39 74 80 74 131c0 49 -35 75 -86 75c-47 0 -82 -36 -82 -88z" />
    <glyph glyph-name="nine" unicode="9" horiz-adv-x="435" 
d="M321 204c0 99 -31 176 -109 176c-51 0 -101 -58 -101 -135c0 -74 33 -138 104 -138c16 0 44 7 56 12l8 -14c-9 -5 -23 -13 -37 -21c-25 -14 -53 -28 -72 -28c-65 0 -126 75 -126 164c0 103 117 200 186 200c92 0 161 -54 161 -203c0 -138 -85 -298 -194 -355
c-41 -21 -71 -35 -124 -55l-17 21c31 13 63 29 102 56c18 12 35 28 51 44c59 63 112 166 112 276z" />
    <glyph glyph-name="colon" unicode=":" horiz-adv-x="257" 
d="M78 299l5 84c17 3 30 4 51 5c19 2 35 3 49 7l-5 -89c-27 0 -79 -3 -100 -7zM75 -4l5 83c17 3 30 4 51 5c19 2 35 3 48 7l-4 -89c-28 -1 -79 -3 -100 -6z" />
    <glyph glyph-name="semicolon" unicode=";" horiz-adv-x="257" 
d="M60 24l47 82c39 -19 85 -62 85 -94c0 -41 -59 -119 -96 -156l-16 19c24 29 51 71 51 103c0 26 -43 43 -71 46zM80 303l5 83c16 3 30 4 50 5c19 3 35 4 49 6l-5 -88c-27 -1 -79 -3 -99 -6z" />
    <glyph glyph-name="less" unicode="&#x3c;" horiz-adv-x="433" 
d="M386 374v-47l-260 -109l254 -102v-44l-9 -6c-100 44 -278 114 -330 133l16 38c100 37 217 90 319 141z" />
    <glyph glyph-name="equal" unicode="=" horiz-adv-x="411" 
d="M34 115l12 56h322l9 -9l-11 -41c-21 1 -48 1 -75 1c-89 0 -195 -2 -257 -7zM47 244l12 56h322l9 -9l-11 -41c-21 1 -48 1 -75 1c-89 0 -195 -2 -257 -7z" />
    <glyph glyph-name="greater" unicode="&#x3e;" horiz-adv-x="416" 
d="M48 328v48l10 6c111 -55 229 -113 326 -148l-15 -41c-53 -20 -208 -81 -307 -126l-9 7v44l253 98z" />
    <glyph glyph-name="question" unicode="?" horiz-adv-x="319" 
d="M227 484c0 57 -56 82 -90 82c-29 0 -67 -14 -89 -25l-10 16c17 11 93 59 123 59c65 0 132 -30 132 -112c0 -61 -44 -108 -84 -140c-17 -13 -32 -24 -42 -34c-7 -32 -14 -128 -16 -176l-36 -16l-12 187c43 27 124 89 124 159zM88 -8l6 69c13 2 24 3 41 4c16 1 29 2 40 5
l-3 -73c-23 0 -66 -3 -84 -5z" />
    <glyph glyph-name="at" unicode="@" horiz-adv-x="814" 
d="M575 33c27 0 106 102 106 263c0 138 -89 253 -245 253c-204 0 -323 -171 -323 -377c0 -224 140 -317 280 -317c49 0 101 11 133 18l6 -23c-33 -13 -116 -33 -161 -33c-163 0 -319 113 -319 348c0 237 151 421 395 421c194 0 296 -127 296 -287
c0 -163 -104 -314 -217 -314l-11 4c-11 17 -19 50 -25 93c-41 -39 -110 -98 -141 -98c-55 0 -107 60 -107 172c0 141 122 254 187 254c27 0 75 -13 98 -22l28 25l18 -7c-8 -20 -11 -59 -14 -98c-5 -69 -10 -171 -10 -213c0 -32 10 -62 26 -62zM375 44c29 0 94 43 118 74
c4 47 7 209 7 218c-30 18 -73 34 -102 34c-53 0 -100 -111 -100 -197c0 -85 34 -129 77 -129z" />
    <glyph glyph-name="A" unicode="A" horiz-adv-x="660" 
d="M488 74l-73 183h-211l-72 -189c-2 -6 -3 -10 -3 -16c0 -14 61 -24 102 -27l-13 -28c-39 3 -83 5 -104 5c-19 0 -57 -1 -99 -5l8 25c23 4 44 15 54 36c21 40 199 487 216 553l59 9c37 -118 208 -529 224 -554c14 -22 43 -39 79 -44l-11 -24c-48 4 -98 5 -117 5
c-21 0 -83 -3 -117 -6l8 25c48 4 77 11 77 24c0 8 -3 19 -7 28zM308 541l-88 -244h179z" />
    <glyph glyph-name="B" unicode="B" horiz-adv-x="555" 
d="M47 612c30 -4 60 -6 91 -6c21 0 43 1 65 2c25 3 54 3 74 3c132 0 180 -54 180 -128c0 -94 -67 -142 -124 -159c96 -7 172 -46 172 -144c0 -107 -68 -182 -208 -182c-18 0 -36 1 -54 2c-25 1 -50 2 -76 2c-41 0 -84 -2 -122 -6l5 27c28 2 49 11 64 25c7 17 9 66 9 110v310
c0 50 -3 79 -10 96c-13 11 -40 18 -60 19zM197 296v-146c0 -26 1 -57 5 -77c2 -11 7 -19 11 -23c11 -10 42 -15 70 -15c83 0 142 37 142 140c0 88 -86 123 -165 123c-18 0 -49 -1 -63 -2zM203 565c-4 -13 -6 -37 -6 -61v-174h20c92 0 166 36 166 134c0 71 -35 111 -110 111
c-24 0 -62 -4 -70 -10z" />
    <glyph glyph-name="C" unicode="C" horiz-adv-x="630" 
d="M139 323c0 -162 101 -298 243 -298c64 0 107 18 128 31c24 29 44 63 69 113l11 -8c-14 -51 -28 -106 -38 -157c-36 -8 -109 -20 -182 -20c-162 0 -317 108 -317 327c0 71 21 126 53 169c49 65 172 144 242 144c77 0 170 -24 212 -42c-2 -61 -2 -115 -2 -172l-14 -4
c-15 45 -26 84 -40 115c-34 27 -93 51 -177 51c-118 0 -188 -123 -188 -249z" />
    <glyph glyph-name="D" unicode="D" horiz-adv-x="688" 
d="M305 614c181 0 333 -125 333 -292c0 -223 -150 -328 -311 -328c-51 0 -87 2 -124 4c-26 2 -50 3 -74 3c-26 0 -51 -1 -82 -4l8 25c22 2 52 10 64 20c4 11 8 28 8 62v432c0 13 -3 30 -8 37c-7 6 -44 13 -65 15l-9 25c29 -4 58 -5 88 -5c26 0 54 1 84 3s59 3 88 3zM201 516
v-417c0 -16 1 -37 3 -47c27 -11 76 -17 117 -17c147 0 234 107 234 281c0 170 -117 255 -255 255c-35 0 -74 -3 -92 -11c-6 -9 -7 -28 -7 -44z" />
    <glyph glyph-name="E" unicode="E" horiz-adv-x="536" 
d="M487 166l19 -1c-8 -46 -31 -130 -45 -169c-62 5 -114 6 -184 6c-55 0 -137 -1 -232 -5l8 25c20 2 55 12 66 20c5 12 8 35 8 55v432c0 14 -3 31 -8 37c-12 9 -40 14 -61 16l-9 29c41 -3 107 -4 160 -4c77 0 152 2 232 11c2 -71 3 -122 8 -177l-13 -1
c-14 38 -33 86 -44 109c-4 9 -6 11 -12 12c-13 3 -47 4 -81 4c-42 0 -87 -2 -94 -7c-4 -10 -4 -26 -4 -49v-167c17 -1 41 -1 66 -1c38 0 77 1 97 3l24 56l13 -2c-2 -30 -3 -57 -3 -76c0 -37 1 -68 5 -97l-14 -1l-30 65c-25 2 -55 2 -91 2c-23 0 -49 0 -68 -1v-197
c0 -16 1 -32 5 -42c30 -4 75 -6 116 -6c27 0 52 1 69 2c23 3 35 6 41 15c19 25 42 72 56 104z" />
    <glyph glyph-name="F" unicode="F" horiz-adv-x="498" 
d="M401 224l-30 66c-34 2 -58 2 -86 2c-29 0 -58 -1 -89 -3v-193c0 -17 1 -40 7 -48c18 -12 81 -19 119 -22l-11 -27c-60 3 -129 3 -149 3s-78 0 -117 -3l8 25c21 3 51 11 62 20c4 10 8 28 8 60v424c0 14 -3 32 -8 38c-13 9 -41 15 -61 17l-9 26c55 -2 109 -3 164 -3
c78 0 157 3 241 12c2 -73 5 -123 10 -181l-21 -1c-14 47 -36 110 -47 125c-12 4 -47 6 -84 6c-45 0 -93 -3 -107 -8c-3 -8 -4 -25 -4 -45v-171c26 -1 62 -1 91 -1c34 0 62 2 86 4l26 57l14 -1c-4 -25 -5 -52 -5 -81s1 -58 6 -96z" />
    <glyph glyph-name="G" unicode="G" horiz-adv-x="681" 
d="M584 185v-77c0 -30 3 -61 8 -83c-53 -28 -142 -41 -219 -41c-172 0 -320 120 -320 326c0 77 20 128 52 170c49 64 178 142 245 142c77 0 184 -22 226 -41c-1 -28 -2 -58 -2 -87s1 -58 2 -87l-18 -4c-13 47 -27 89 -38 115c-36 31 -109 54 -185 54
c-117 0 -196 -110 -196 -255c0 -146 93 -292 249 -292c53 0 99 18 123 33v122c0 14 -2 40 -6 47c-17 9 -40 15 -63 17l-10 26c31 -2 70 -3 106 -3c37 0 72 1 99 3l4 -23c-18 -2 -41 -9 -52 -17c-4 -10 -5 -28 -5 -45z" />
    <glyph glyph-name="H" unicode="H" horiz-adv-x="712" 
d="M517 336v186c0 14 -4 34 -7 41c-15 10 -47 16 -68 18l-8 28c33 -1 76 -3 117 -3c38 0 74 2 101 3l6 -27c-20 -2 -49 -7 -62 -15c-4 -13 -6 -46 -6 -65v-408c0 -18 1 -34 4 -46c15 -11 57 -20 88 -24l-10 -25c-33 2 -71 3 -110 3c-36 0 -74 -1 -111 -3l7 25
c20 4 45 13 52 22c3 11 7 35 7 67v178h-318v-206c0 -11 1 -29 4 -39c9 -7 51 -19 84 -24l-8 -23c-28 2 -62 3 -96 3c-44 0 -87 -2 -121 -4l5 25c21 4 44 12 53 21c3 10 5 26 5 47v436c0 19 -4 34 -8 40c-12 7 -46 14 -65 15l-7 30c43 -3 92 -5 137 -5c31 0 60 1 85 2l4 -26
c-21 -2 -54 -8 -66 -16c-4 -11 -6 -45 -6 -72v-159h318z" />
    <glyph glyph-name="I" unicode="I" horiz-adv-x="321" 
d="M128 114v415c0 14 -3 32 -8 38c-15 9 -44 14 -65 16l-9 30c41 -4 86 -5 130 -5c33 0 68 1 97 3l5 -28c-23 -2 -61 -9 -71 -17c-4 -8 -6 -27 -6 -44v-428c0 -16 1 -41 4 -48c12 -8 61 -20 93 -24l-11 -23c-42 2 -78 3 -113 3c-36 0 -75 -1 -124 -3l8 26c24 3 52 12 62 20
c5 13 8 47 8 69z" />
    <glyph glyph-name="J" unicode="J" horiz-adv-x="304" 
d="M192 520v-375c0 -51 0 -106 -3 -153c-2 -37 -11 -82 -36 -117c-28 -39 -86 -104 -126 -142l-17 24c52 65 79 125 92 171c13 50 15 125 15 185v414c0 14 -2 32 -8 38c-16 9 -44 14 -65 16l-8 30c41 -4 89 -5 133 -5c33 0 65 1 94 2l6 -27c-24 -2 -62 -9 -72 -17
c-3 -8 -5 -27 -5 -44z" />
    <glyph glyph-name="K" unicode="K" horiz-adv-x="626" 
d="M198 522l-1 -429c0 -18 1 -34 4 -46c12 -9 60 -21 88 -24l-10 -25c-32 2 -71 3 -110 3c-37 0 -74 -1 -111 -3l6 25c20 4 45 13 53 22c3 11 6 35 6 67v417c0 14 -2 32 -7 38c-16 9 -44 14 -65 16l-7 30c41 -4 88 -5 132 -5c33 0 54 1 83 3l5 -28c-23 -2 -50 -9 -61 -17
c-3 -8 -5 -27 -5 -44zM380 584l-7 25c26 -2 59 -4 95 -4s71 1 99 4l10 -25c-44 -8 -86 -36 -128 -75c-26 -24 -130 -124 -173 -174c45 -63 160 -193 213 -242c35 -32 76 -43 123 -44l-12 -30c-24 -2 -98 -18 -122 -27l-13 5c-73 93 -182 228 -250 311v15l215 229
c5 5 6 8 6 10c0 3 -2 5 -7 7c-11 5 -31 12 -49 15z" />
    <glyph glyph-name="L" unicode="L" horiz-adv-x="537" 
d="M485 166h32c-15 -45 -33 -124 -44 -170c-61 5 -117 6 -187 6c-55 0 -138 -2 -234 -5l10 26c20 2 49 13 61 22c3 10 7 31 7 59v420c0 14 -1 37 -7 45c-11 6 -50 13 -72 15l-7 29c39 -3 93 -5 141 -5c33 0 64 1 88 3l5 -27c-26 -3 -61 -11 -69 -16c-5 -13 -6 -46 -6 -67
v-396c0 -27 1 -44 8 -55c8 -4 42 -5 81 -5c50 0 99 1 127 10c3 1 7 3 9 6c19 21 43 71 57 105z" />
    <glyph glyph-name="M" unicode="M" horiz-adv-x="865" 
d="M68 585l-7 28c39 -2 80 -4 120 -4c21 0 42 2 64 3l196 -507l196 504c24 -1 46 -1 68 -1c30 0 60 1 97 3l7 -27c-18 -2 -67 -9 -79 -19c-5 -12 -7 -32 -7 -52c0 -7 19 -381 21 -417c2 -30 5 -40 12 -49c11 -8 68 -19 94 -24l-11 -26c-34 3 -70 5 -110 5s-85 -2 -136 -5
l9 27c19 3 51 12 63 23c4 8 7 21 7 56c0 48 -17 357 -21 420l-203 -518l-39 -17l-220 560c-7 -105 -21 -419 -21 -462c0 -15 1 -31 4 -41c20 -9 67 -20 91 -23l-9 -23c-31 2 -65 2 -98 2c-39 0 -77 -1 -110 -2l5 23c19 3 46 12 57 20c3 9 7 31 8 48c7 89 21 317 21 439
c0 18 -1 34 -7 40c-12 7 -41 13 -62 16z" />
    <glyph glyph-name="N" unicode="N" horiz-adv-x="706" 
d="M603 513l-3 -396c0 -37 0 -71 3 -117l-37 -18c-56 86 -296 414 -396 548v-444c0 -15 1 -30 5 -40c5 -7 68 -22 90 -24l-9 -23c-31 2 -63 2 -96 2c-35 0 -73 -1 -105 -2l5 23c23 4 44 12 53 20c4 9 6 24 6 48v387c0 36 -2 82 -7 90c-12 7 -41 14 -60 16l-7 30
c35 -1 62 -4 90 -4c21 0 42 2 68 4l350 -488v396c0 14 -3 39 -8 45c-9 7 -46 15 -67 17l-9 28c34 -3 69 -4 106 -4s70 2 96 4l5 -28c-19 -1 -63 -10 -69 -16c-3 -6 -4 -32 -4 -54z" />
    <glyph glyph-name="O" unicode="O" horiz-adv-x="691" 
d="M356 624c175 0 285 -129 285 -283c0 -80 -20 -153 -59 -208c-54 -75 -162 -149 -250 -149c-140 0 -282 120 -282 291c0 77 16 134 54 187c53 75 164 162 252 162zM358 37c130 0 206 135 206 268c0 146 -107 263 -229 263c-126 0 -210 -121 -210 -250
c0 -148 111 -281 233 -281z" />
    <glyph glyph-name="P" unicode="P" horiz-adv-x="535" 
d="M204 567c-4 -13 -6 -44 -6 -68v-349c0 -32 3 -83 10 -98c9 -15 70 -27 102 -27l-13 -26c-34 2 -70 3 -106 3c-47 0 -96 -2 -146 -6l6 26c25 1 54 12 64 26c7 16 8 71 8 116v331c0 43 -1 59 -6 72c-11 9 -42 15 -64 17l-7 30c30 -3 65 -5 103 -5c30 0 61 2 93 3
c18 1 36 1 49 1c119 0 204 -41 204 -144c0 -124 -96 -194 -219 -194c-10 0 -21 0 -26 1l3 28c98 0 158 50 158 154c0 96 -55 117 -133 117c-40 0 -68 -3 -74 -8z" />
    <glyph glyph-name="Q" unicode="Q" horiz-adv-x="696" 
d="M356 624c177 0 286 -131 286 -287c0 -79 -20 -150 -59 -204c-41 -57 -80 -87 -121 -108c15 -31 95 -111 140 -129c15 -7 32 -10 47 -10c6 0 10 0 14 1l5 -11c-17 -6 -51 -16 -66 -16c-27 0 -114 46 -158 75c-24 15 -71 44 -95 58c-17 1 -50 3 -67 6
c-119 20 -232 126 -232 276c0 77 17 134 55 187c53 75 162 162 251 162zM358 36c136 0 206 136 206 269c0 138 -100 262 -231 262c-125 0 -207 -121 -207 -254c0 -130 102 -277 232 -277z" />
    <glyph glyph-name="R" unicode="R" horiz-adv-x="620" 
d="M295 286c-22 -2 -40 -3 -58 -3c-13 0 -26 1 -41 2v-135c0 -32 2 -83 8 -98c10 -15 72 -27 105 -27l-13 -26c-35 1 -75 3 -117 3c-43 0 -89 -2 -134 -6l5 26c26 1 54 12 65 26c7 16 10 93 10 138v282c0 50 -1 89 -9 99c-11 10 -37 15 -65 18l-6 30c34 -3 68 -6 106 -6
c25 0 52 2 80 3c17 1 41 1 57 1c132 0 195 -47 195 -138c0 -99 -77 -150 -132 -177c39 -74 107 -182 162 -229c31 -26 72 -33 98 -34l-5 -26c-30 -4 -81 -16 -112 -27l-11 6c-58 67 -146 217 -188 298zM196 504v-183c9 -2 26 -4 44 -4c96 0 161 47 161 142
c0 93 -67 116 -133 116c-28 0 -56 -1 -65 -8c-6 -11 -7 -39 -7 -63z" />
    <glyph glyph-name="S" unicode="S" horiz-adv-x="513" 
d="M427 593l-6 -148h-23c-8 22 -27 71 -35 83c-13 18 -59 45 -126 45c-38 0 -91 -46 -91 -106c0 -56 69 -92 136 -122c81 -37 171 -77 171 -162c0 -104 -101 -200 -196 -200c-56 0 -148 12 -190 28c3 42 5 83 5 125c0 15 0 31 -1 46l26 4c6 -33 26 -105 37 -121
c16 -17 60 -40 128 -40c73 0 123 56 123 120c0 60 -66 93 -141 126c-80 36 -168 79 -168 166c0 64 111 185 171 185c59 0 136 -17 180 -29z" />
    <glyph glyph-name="T" unicode="T" horiz-adv-x="624" 
d="M69 426l-23 -1c1 30 2 66 2 103c0 30 0 61 -1 90c78 -10 229 -13 271 -13c51 0 193 4 270 13c-20 -71 -35 -135 -45 -191l-22 -1c-3 47 -7 96 -11 134c-27 3 -73 5 -112 5c-23 0 -44 -1 -57 -2v-465c0 -18 0 -40 6 -45c18 -15 62 -26 99 -31l-11 -24c-44 4 -90 5 -115 5
c-29 0 -97 -2 -139 -6l11 27c20 3 52 10 68 23c6 7 8 32 8 51v465c-17 1 -40 2 -63 2c-32 0 -67 -1 -90 -3c-20 -52 -32 -85 -46 -136z" />
    <glyph glyph-name="U" unicode="U" horiz-adv-x="696" 
d="M596 492v-179c0 -16 -1 -79 -7 -121c-20 -144 -110 -208 -233 -208c-121 0 -203 44 -230 156c-7 29 -11 87 -11 124v250c0 21 -4 48 -8 54c-9 6 -42 13 -63 15l-9 26c35 -1 82 -2 126 -2c36 0 71 1 97 2l5 -24c-22 -1 -61 -10 -66 -17c-4 -11 -6 -46 -6 -73v-204
c0 -20 2 -75 8 -117c15 -96 76 -147 176 -147c87 0 146 55 160 140c6 32 9 90 9 104v250c0 14 -3 40 -7 45c-8 8 -48 17 -70 18l-7 25c34 -1 74 -2 112 -2c31 0 61 1 88 2l5 -23c-20 -2 -53 -10 -63 -17c-3 -7 -6 -54 -6 -77z" />
    <glyph glyph-name="V" unicode="V" horiz-adv-x="651" 
d="M338 98l183 441c2 5 3 9 3 13c0 7 -3 12 -12 15c-14 7 -49 15 -68 19l-9 25c39 -4 89 -5 109 -5s40 0 87 5l6 -24c-17 -4 -43 -19 -54 -38c-22 -39 -218 -479 -236 -545l-40 -19c-51 140 -204 534 -220 558c-15 22 -39 34 -64 41l-9 25c48 -4 87 -4 107 -4s81 2 120 6
l9 -23c-22 -2 -48 -7 -66 -12c-10 -3 -14 -5 -14 -13c0 -6 2 -14 7 -27z" />
    <glyph glyph-name="W" unicode="W" horiz-adv-x="897" 
d="M612 92l163 455c1 4 2 7 2 10c0 7 -4 12 -12 15c-14 5 -48 13 -72 16l-8 25c45 -2 74 -5 104 -5c27 0 53 1 92 5l2 -25c-16 -4 -35 -15 -46 -34c-22 -39 -196 -484 -215 -550l-37 -19c-27 74 -80 200 -121 290c-40 -96 -84 -210 -103 -271l-44 -19
c-56 144 -217 536 -232 560c-15 22 -41 34 -65 40l-8 26c48 -5 91 -5 111 -5s74 2 113 7l7 -25c-25 -4 -49 -9 -66 -15c-9 -3 -12 -8 -12 -14c0 -5 2 -10 5 -17l180 -448l93 235c-41 104 -73 184 -92 216c-15 23 -34 32 -60 41l-7 26c39 -4 115 -6 159 -6c69 0 91 1 186 6
l6 -24c-17 -4 -34 -15 -45 -34c-8 -15 -46 -109 -83 -204zM487 389l60 167c1 4 2 7 2 10c0 6 -3 9 -9 11c-13 4 -33 6 -53 6c-17 0 -41 -3 -55 -7c-6 -2 -8 -5 -8 -10c0 -4 1 -8 3 -13z" />
    <glyph glyph-name="X" unicode="X" horiz-adv-x="656" 
d="M364 317c54 -78 145 -205 186 -244c33 -30 54 -40 91 -47l-9 -27c-35 3 -67 4 -99 4c-43 0 -87 -3 -145 -7l8 26c17 2 40 7 54 13c8 2 11 6 11 11s-3 12 -9 20l-139 192c-50 -63 -100 -130 -139 -188c-3 -4 -5 -8 -5 -12s2 -7 6 -9c22 -11 66 -22 101 -27l-11 -24
c-40 3 -80 5 -121 5s-83 -2 -125 -5l6 29c52 5 91 49 144 114c29 35 69 86 119 154c-75 106 -159 223 -204 262c-15 14 -33 20 -56 25l-13 30c28 -4 67 -5 108 -5c47 0 98 2 135 6l9 -25c-24 -4 -48 -9 -65 -17c-6 -3 -8 -6 -8 -10c0 -3 1 -5 3 -9c18 -34 100 -148 142 -201
c48 58 138 179 152 201c1 2 2 4 2 6c0 4 -3 8 -8 10c-11 4 -35 11 -66 17l-12 27c42 -3 77 -5 110 -5c28 0 66 1 97 4l7 -24c-37 -9 -85 -50 -115 -86c-44 -54 -99 -126 -142 -184z" />
    <glyph glyph-name="Y" unicode="Y" horiz-adv-x="572" 
d="M254 99l1 151c-61 108 -150 271 -166 292s-42 35 -69 42l-10 27c47 -5 86 -5 105 -5c21 0 82 2 121 6l8 -23c-19 -3 -56 -11 -71 -17c-5 -2 -7 -5 -7 -8c0 -2 1 -4 2 -7c6 -17 77 -147 143 -264l131 250c3 6 4 10 4 13c0 5 -3 10 -8 12c-18 8 -51 15 -72 19l-12 25
c40 -4 85 -5 106 -5c19 0 45 1 87 5l6 -23c-18 -4 -34 -17 -50 -37c-16 -18 -122 -205 -175 -303v-145c0 -29 1 -49 6 -58c15 -9 61 -23 99 -27l-11 -23c-45 4 -93 6 -118 6c-30 0 -94 -3 -132 -6l10 26c21 3 54 13 65 22c5 7 7 36 7 55z" />
    <glyph glyph-name="Z" unicode="Z" horiz-adv-x="619" 
d="M571 185l-37 -189c-54 2 -135 4 -234 4c-72 0 -152 0 -232 -4l-12 35c33 30 74 78 105 120l299 407c-19 2 -67 3 -120 3c-83 0 -175 -2 -191 -5c-19 -30 -39 -80 -55 -128l-17 1l11 183c63 -4 140 -6 217 -6c91 0 180 3 249 10l12 -37c-40 -43 -74 -89 -102 -127
l-296 -407c21 -1 56 -1 93 -1c91 0 198 2 219 10c11 8 52 83 73 131h18z" />
    <glyph glyph-name="bracketleft" unicode="[" horiz-adv-x="314" 
d="M257 667l-4 -29c-28 0 -60 -1 -84 -5v-718c24 -8 57 -12 87 -12l-5 -29h-18c-38 0 -81 -3 -119 -6c3 33 5 88 5 121v478c0 54 0 173 -6 213c43 -7 98 -13 144 -13z" />
    <glyph glyph-name="backslash" unicode="\" horiz-adv-x="318" 
d="M286 -125l-272 828l41 12l269 -825z" />
    <glyph glyph-name="bracketright" unicode="]" horiz-adv-x="314" 
d="M56 638l-4 29c46 0 101 6 144 13c-6 -40 -6 -159 -6 -213v-478c0 -33 2 -88 5 -121c-38 3 -81 6 -119 6h-18l-5 29c30 0 63 4 87 12v718c-24 4 -56 5 -84 5z" />
    <glyph glyph-name="asciicircum" unicode="^" horiz-adv-x="430" 
d="M238 695l167 -428l-30 -16l-157 345l-157 -347l-36 6l172 422z" />
    <glyph glyph-name="underscore" unicode="_" horiz-adv-x="515" 
d="M-22 -110v38h552v-38h-552z" />
    <glyph glyph-name="grave" unicode="`" horiz-adv-x="319" 
d="M238 482l-18 -22c-53 27 -165 124 -189 155l73 35c20 -36 86 -124 134 -168z" />
    <glyph glyph-name="a" unicode="a" horiz-adv-x="422" 
d="M406 60l9 -18c-40 -24 -100 -58 -125 -58c-23 0 -33 37 -36 69c-64 -45 -104 -69 -134 -69c-54 0 -93 60 -93 104c0 63 29 83 91 104c37 13 88 25 136 36v66c0 53 -19 76 -67 76c-26 0 -53 -10 -61 -17l-2 -55c-15 -7 -45 -16 -60 -20c-4 4 -5 11 -5 20c0 18 5 43 11 50
c20 22 117 72 157 72c68 0 98 -44 98 -106v-223c0 -37 3 -44 16 -44c17 0 47 7 65 13zM254 82v115c-18 -2 -52 -8 -76 -15c-37 -12 -72 -33 -72 -75c0 -31 19 -62 63 -62c27 0 69 26 85 37z" />
    <glyph glyph-name="b" unicode="b" horiz-adv-x="484" 
d="M-17 642l-4 23c40 1 112 7 153 18c-5 -61 -7 -134 -7 -203v-135c21 16 101 75 141 75c108 0 172 -101 172 -196c0 -54 -21 -104 -53 -141c-41 -48 -109 -99 -172 -99s-146 42 -163 53c5 57 6 93 6 135v373c0 26 -1 73 -10 85c-14 7 -42 12 -63 12zM125 313v-240
c22 -14 72 -42 122 -42c76 0 115 85 115 173c0 94 -55 151 -125 151c-42 0 -84 -24 -112 -42z" />
    <glyph glyph-name="c" unicode="c" horiz-adv-x="396" 
d="M220 420c46 0 107 -9 136 -23c-9 -22 -28 -55 -38 -67c-31 21 -70 45 -107 45c-59 0 -114 -49 -114 -155c0 -95 56 -173 126 -173c50 0 95 19 126 34l7 -27c-47 -29 -124 -70 -167 -70c-108 0 -168 115 -168 205c0 49 11 93 37 126c29 39 117 105 162 105z" />
    <glyph glyph-name="d" unicode="d" horiz-adv-x="502" 
d="M488 58l8 -19l-142 -64l-7 3c-5 11 -17 56 -17 82c-45 -35 -107 -76 -140 -76c-110 0 -171 107 -171 199c0 54 19 103 51 140c41 47 138 97 172 97c22 0 74 -17 90 -24v128c0 40 -1 90 -6 101c-18 10 -43 15 -70 15l-6 22c52 3 124 14 164 24c-9 -58 -13 -147 -13 -187
v-413c0 -27 3 -38 23 -38c17 0 46 6 64 10zM330 92v235c-33 18 -83 43 -125 43c-65 0 -108 -84 -108 -160c0 -95 48 -158 127 -158c40 0 85 26 106 40z" />
    <glyph glyph-name="e" unicode="e" horiz-adv-x="400" 
d="M351 81l7 -27c-71 -42 -132 -70 -167 -70c-104 0 -169 116 -169 196c0 62 17 104 36 131c25 38 121 109 164 109c94 0 142 -79 142 -155l-32 -26c-33 -5 -156 -13 -234 -17c0 -86 52 -174 128 -174c39 0 82 14 125 33zM193 370c-55 0 -94 -72 -94 -120
c44 4 167 20 193 26c0 31 -22 94 -99 94z" />
    <glyph glyph-name="f" unicode="f" horiz-adv-x="319" 
d="M9 380l81 35v79c0 38 5 77 17 94c33 45 92 98 127 98c27 0 83 -5 127 -14c-7 -26 -19 -57 -33 -80c-37 25 -73 45 -112 45c-49 0 -57 -45 -57 -152v-68h32c34 0 71 1 104 3l-11 -53h-126v-270c0 -16 2 -38 7 -44c6 -11 61 -27 99 -32l-9 -23c-37 3 -83 5 -114 5
c-29 0 -78 -2 -125 -5l4 23c21 5 52 18 62 29c5 9 8 30 8 44v271h-71z" />
    <glyph glyph-name="g" unicode="g" horiz-adv-x="445" 
d="M341 263c0 -94 -78 -136 -122 -151c-75 -26 -95 -37 -95 -53c0 -20 31 -29 90 -34c105 -9 193 -27 193 -110c0 -69 -110 -170 -207 -170c-118 0 -193 72 -193 162c1 6 7 14 13 21c17 21 50 49 77 69c-17 10 -39 40 -39 74c8 6 71 30 91 42c-70 14 -125 72 -125 139
c0 100 81 165 151 165c68 0 96 -20 110 -26c6 -1 12 -1 19 -1c28 0 65 7 94 16l19 -58h-101c16 -18 25 -53 25 -85zM344 -110c0 38 -47 57 -97 67c-48 9 -95 16 -123 18c-11 -9 -39 -35 -39 -67c0 -60 50 -118 151 -118c40 0 108 30 108 100zM92 282c0 -63 47 -130 107 -130
c54 0 76 41 76 87c0 56 -36 137 -105 137c-53 0 -78 -46 -78 -94z" />
    <glyph glyph-name="h" unicode="h" horiz-adv-x="509" 
d="M75 84v507c0 20 -2 33 -7 36c-12 9 -43 14 -72 14l-8 21c53 6 124 18 168 33c-4 -34 -10 -106 -10 -144v-206c19 11 43 26 67 42c29 18 57 33 71 33c32 0 80 -19 104 -45c26 -30 33 -60 33 -116v-177c0 -22 2 -36 6 -39c14 -10 36 -19 70 -25l-7 -21c-45 4 -68 4 -89 4
c-16 0 -41 0 -93 -4l3 21c15 4 29 10 36 19c3 6 5 18 5 42v133c0 19 0 44 -3 66c-8 55 -51 79 -88 79c-35 0 -81 -23 -115 -46v-224c0 -22 1 -37 6 -45c7 -7 40 -19 66 -24l-7 -20c-36 2 -68 4 -100 4s-63 -2 -95 -4l4 21c14 3 36 12 50 22c4 6 5 26 5 43z" />
    <glyph glyph-name="i" unicode="i" horiz-adv-x="254" 
d="M157 311v-233c0 -16 2 -25 7 -33c18 -10 40 -19 70 -26l-8 -20c-33 4 -73 4 -94 4c-18 0 -61 0 -106 -4l3 20c24 8 42 18 55 29c3 9 6 28 6 40v174c0 36 -4 93 -11 101c-18 7 -37 12 -59 12l-6 19c53 4 107 13 149 23c-5 -46 -6 -84 -6 -106zM124 500l-47 45
c21 29 38 56 56 89l58 -47c-18 -27 -47 -65 -67 -87z" />
    <glyph glyph-name="j" unicode="j" horiz-adv-x="224" 
d="M146 31c0 -88 -15 -123 -35 -155c-17 -28 -89 -107 -119 -140l-14 25c31 41 72 101 88 151c12 38 13 112 13 135v218c0 36 -1 87 -11 98c-17 7 -37 12 -60 12l-6 19c55 4 108 13 150 23c-5 -46 -6 -84 -6 -106v-280zM110 500l-47 45c21 29 38 56 56 89l58 -47
c-18 -27 -47 -65 -67 -87z" />
    <glyph glyph-name="k" unicode="k" horiz-adv-x="484" 
d="M153 572v-500c0 -15 1 -27 6 -31c10 -8 44 -18 70 -20l-4 -23c-37 2 -71 3 -105 3c-28 0 -58 -1 -89 -3l3 22c14 3 32 13 42 20c4 6 5 21 5 38v493c0 28 -2 49 -9 57c-17 9 -48 17 -69 18c-2 4 -5 13 -8 20c51 4 128 15 166 27c-5 -27 -8 -84 -8 -121zM304 367
c-15 5 -41 11 -55 14l-7 25c20 -2 44 -3 69 -3c44 0 91 3 119 8l10 -25c-30 -6 -65 -21 -90 -38c-39 -27 -101 -82 -124 -105c50 -69 97 -126 142 -168c32 -30 67 -34 95 -34l-3 -21c-30 -3 -78 -18 -103 -28l-12 4c-59 74 -130 160 -185 226v14c58 48 118 102 144 131z" />
    <glyph glyph-name="l" unicode="l" horiz-adv-x="252" 
d="M154 549v-450c0 -22 0 -42 4 -49c12 -10 46 -23 78 -29l-8 -22c-40 4 -74 4 -96 4c-27 0 -85 -1 -118 -4l3 21c21 5 45 17 61 30c3 9 4 33 4 44v439c0 32 -2 85 -10 92c-16 10 -43 16 -69 17l-7 20c58 4 123 13 165 23c-6 -53 -7 -111 -7 -136z" />
    <glyph glyph-name="m" unicode="m" horiz-adv-x="775" 
d="M614 37c3 4 5 19 5 33v142c0 18 0 40 -3 66c-5 47 -35 77 -80 77c-32 0 -79 -25 -115 -49v-228c0 -12 0 -31 5 -37c17 -9 39 -17 72 -21l-6 -21c-23 1 -54 2 -88 2c-33 0 -69 -1 -98 -2l5 21c12 2 27 11 36 18c3 8 4 26 4 42v132c0 28 -1 53 -3 65c-6 50 -35 80 -79 80
c-36 0 -84 -25 -119 -47v-230c0 -21 0 -30 4 -35c16 -10 36 -19 69 -25l-7 -21c-23 2 -50 3 -81 3c-34 0 -71 -1 -112 -3l3 21c18 5 38 16 49 26c2 8 2 17 2 26v227c0 27 -5 53 -11 59c-9 7 -47 12 -61 12l-6 17c43 9 79 20 134 39c6 -28 11 -54 14 -82c13 7 30 18 43 26
c47 29 81 50 98 50c50 0 99 -32 122 -79h5c13 7 28 16 44 27c44 28 81 49 100 49c30 0 60 -11 87 -34c35 -29 41 -66 41 -130v-183c0 -7 1 -23 6 -27c14 -10 36 -19 70 -25l-7 -21c-45 4 -68 4 -89 4c-16 0 -41 0 -92 -4l3 21c15 4 26 7 36 19z" />
    <glyph glyph-name="n" unicode="n" horiz-adv-x="516" 
d="M153 344c12 7 29 18 45 30c34 22 72 46 90 46c19 0 58 -6 96 -37c41 -32 43 -85 43 -118v-195c0 -10 2 -23 7 -27c13 -10 35 -19 69 -25l-6 -21c-46 4 -69 4 -90 4c-16 0 -40 0 -92 -4l3 21c15 4 29 10 36 19c3 7 6 19 6 33v142c0 5 0 41 -4 66c-5 38 -33 79 -88 79
c-33 0 -82 -27 -114 -47v-225c0 -18 1 -37 5 -43c12 -8 33 -17 68 -21l-7 -23c-45 4 -74 4 -93 4c-22 0 -67 0 -104 -4l2 23c19 3 42 13 54 22c3 9 3 29 3 40v210c0 40 -5 56 -10 63c-15 7 -40 12 -63 13l-4 17c42 10 93 25 131 41c8 -27 13 -57 17 -83z" />
    <glyph glyph-name="o" unicode="o" horiz-adv-x="470" 
d="M224 420c133 0 205 -98 205 -197c0 -63 -14 -109 -43 -146c-30 -39 -100 -93 -156 -93c-129 0 -206 100 -206 210c0 55 20 97 51 136c28 35 97 90 149 90zM98 225c0 -100 58 -192 150 -192c77 0 108 72 108 145c0 106 -57 196 -143 196c-76 0 -115 -75 -115 -149z" />
    <glyph glyph-name="p" unicode="p" horiz-adv-x="499" 
d="M141 8v-171c0 -24 4 -42 8 -49c15 -11 55 -25 86 -31l-9 -22c-37 3 -76 4 -116 4c-30 0 -56 -1 -95 -4l4 22c19 6 38 16 50 29c5 11 5 30 5 45v451c0 37 -6 66 -13 76c-7 5 -40 13 -63 16l-7 17c53 10 91 19 138 37c5 -20 11 -61 14 -84c21 12 37 24 56 36
c38 24 66 40 85 40c109 0 170 -95 170 -195c0 -53 -20 -106 -51 -142c-52 -60 -114 -92 -165 -92c-24 0 -80 11 -97 17zM144 313v-236c23 -15 83 -42 124 -42c68 0 110 82 110 162c0 103 -50 157 -124 157c-34 0 -78 -22 -110 -41z" />
    <glyph glyph-name="q" unicode="q" horiz-adv-x="477" 
d="M405 315v-485c0 -17 1 -38 5 -47c18 -10 47 -18 74 -25l-9 -23c-36 3 -59 3 -95 3c-42 0 -86 -1 -127 -3l4 23c28 6 58 15 75 27c3 9 4 32 4 49v226c-32 -27 -105 -76 -140 -76c-110 0 -172 106 -172 200c0 53 20 102 51 139c41 47 133 97 173 97c17 0 46 -16 76 -36
c11 -8 22 -14 30 -18c11 12 24 32 37 51l25 -7c-6 -25 -11 -66 -11 -95zM335 92v230c-31 21 -76 48 -123 48c-66 0 -111 -81 -111 -161c0 -94 53 -157 129 -157c37 0 83 24 105 40z" />
    <glyph glyph-name="r" unicode="r" horiz-adv-x="343" 
d="M27 -2l4 22c18 5 31 11 42 19c3 9 3 36 3 47v205c0 32 -3 54 -11 65c-7 6 -41 14 -63 15l-5 17c45 8 80 21 128 40c9 -31 15 -60 20 -82c18 28 57 77 75 77c25 0 76 -8 103 -15c-6 -22 -22 -64 -33 -79c-24 16 -57 35 -84 35c-22 0 -46 -35 -60 -65v-212
c0 -10 0 -31 4 -40c16 -11 50 -21 82 -25l-6 -23c-38 3 -88 3 -108 3c-19 0 -45 -2 -91 -4z" />
    <glyph glyph-name="s" unicode="s" horiz-adv-x="358" 
d="M283 289h-18c-6 18 -16 45 -21 56c-10 13 -46 30 -84 30c-29 0 -56 -21 -56 -57c0 -37 46 -59 88 -78c56 -24 117 -52 117 -113c0 -71 -64 -143 -146 -143c-34 0 -102 10 -128 22c4 38 5 85 5 121l21 4c5 -26 15 -56 23 -74c16 -17 46 -35 92 -35c39 0 73 22 73 65
c0 46 -44 67 -91 86c-64 26 -118 53 -118 115c0 49 84 132 121 132c43 0 98 -16 128 -26c-3 -32 -6 -71 -6 -105z" />
    <glyph glyph-name="t" unicode="t" horiz-adv-x="305" 
d="M-3 382l80 33v128c22 9 55 28 77 41c-5 -30 -8 -85 -9 -123c-1 -15 -1 -28 -1 -45h23c32 0 70 1 105 4l-11 -53h-116v-231c0 -49 1 -92 39 -92c35 0 87 9 102 13l8 -21c-31 -14 -138 -52 -157 -52c-55 0 -61 61 -61 121v261h-71z" />
    <glyph glyph-name="u" unicode="u" horiz-adv-x="517" 
d="M348 62c-17 -9 -40 -24 -63 -40c-30 -20 -61 -38 -78 -38c-85 0 -128 68 -134 148c-1 7 -1 14 -1 21v156c0 20 -1 38 -3 42c-16 9 -45 15 -69 17l-6 16c49 10 106 23 150 39c-3 -43 -3 -101 -3 -136v-89c0 -10 0 -46 4 -72c5 -37 33 -79 83 -79c37 0 91 30 118 49v212
c0 15 -2 48 -8 55c-8 7 -37 15 -55 18l-6 17c53 5 106 12 142 21c-2 -72 -3 -120 -3 -153v-158c0 -27 1 -43 5 -51c5 -10 15 -12 32 -12c14 0 32 1 41 2l4 -14c-37 -12 -90 -35 -128 -54l-8 5c-7 21 -12 50 -14 78z" />
    <glyph glyph-name="v" unicode="v" horiz-adv-x="443" 
d="M224 -5l-35 -11c-36 87 -115 273 -135 323c-7 15 -22 47 -32 55c-7 6 -18 12 -31 13l-9 21c41 2 83 9 119 18c12 -56 24 -91 43 -141c22 -60 53 -141 73 -193l110 256c4 9 5 14 5 18c0 5 -2 8 -7 10c-17 7 -37 13 -56 20l-5 19h35c42 0 68 2 109 8l9 -16
c-16 -18 -43 -65 -55 -91l-115 -250z" />
    <glyph glyph-name="w" unicode="w" horiz-adv-x="622" 
d="M409 -16l-114 314l-106 -303l-36 -11c-32 104 -85 271 -101 317c-13 37 -24 56 -30 62c-5 5 -22 12 -33 12l-7 21c43 4 81 10 119 19c10 -54 22 -94 30 -123l56 -187l101 302h42c19 -62 86 -253 108 -309l83 247c1 4 2 8 2 10c0 4 -2 6 -7 9c-17 7 -39 14 -61 21l-6 20
c18 -1 37 -1 55 -1c33 0 62 1 88 6l4 -19c-15 -17 -37 -69 -51 -107l-102 -289z" />
    <glyph glyph-name="x" unicode="x" horiz-adv-x="446" 
d="M325 -9l-121 180l-84 -120c-3 -4 -4 -7 -4 -9c0 -3 3 -5 7 -7c16 -8 45 -14 67 -19l-8 -18c-29 2 -55 3 -83 3c-32 0 -60 -1 -94 -3l3 21c27 2 49 23 82 61c24 28 66 80 96 118l-87 130c-9 14 -28 35 -40 42c-14 6 -32 12 -44 14l-6 20c32 1 84 7 116 13
c22 -43 67 -112 107 -170c26 35 55 75 83 114c2 3 3 5 3 7c0 3 -2 5 -5 6c-7 3 -24 9 -45 16l-5 20c14 -1 28 -1 44 -1c36 0 71 1 104 7l6 -15c-21 -17 -49 -41 -66 -61l-102 -121c53 -81 81 -123 125 -164c15 -16 39 -28 56 -30l-9 -20c-31 -2 -69 -7 -96 -14z" />
    <glyph glyph-name="y" unicode="y" horiz-adv-x="448" 
d="M382 322c-18 -37 -91 -195 -131 -295l-124 -302l-75 38c58 63 111 152 137 222c-38 96 -104 253 -123 303c-8 21 -26 60 -37 72c-6 6 -21 12 -32 14l-10 22c39 2 81 10 119 19c10 -51 24 -89 39 -129l81 -220l117 280c1 3 2 7 2 9c0 5 -3 8 -8 10c-9 3 -38 12 -59 18
l-6 21c15 -1 29 -1 42 -1c37 0 71 2 105 8l4 -15c-17 -24 -32 -56 -41 -74z" />
    <glyph glyph-name="z" unicode="z" horiz-adv-x="420" 
d="M375 133l-13 -135c-28 1 -76 2 -134 2s-125 -1 -189 -4l-14 29c19 18 46 51 67 79c29 39 126 171 193 266h-13c-47 0 -132 -2 -171 -7c-9 -19 -17 -52 -20 -80l-16 -6l-28 127c21 -1 45 -1 71 -1c91 0 202 3 256 12l10 -37c-24 -28 -38 -47 -55 -71l-194 -272h12
c46 0 142 3 181 10c16 28 31 59 43 88h14z" />
    <glyph glyph-name="braceleft" unicode="{" horiz-adv-x="314" 
d="M55 283c21 13 43 28 59 45c4 6 7 20 7 29c8 94 24 219 40 271c15 16 53 37 83 49l8 -12c-12 -8 -26 -19 -39 -34c-5 -6 -8 -11 -10 -18c-16 -48 -23 -166 -23 -251v-38c-19 -14 -51 -33 -74 -41c23 -9 59 -28 78 -41c0 -146 8 -261 20 -310c2 -10 4 -15 7 -19
c14 -18 28 -30 42 -38l-9 -16c-30 12 -68 34 -83 48c-10 42 -28 198 -36 288c-1 14 -5 30 -10 39c-17 17 -39 35 -60 49z" />
    <glyph glyph-name="bar" unicode="|" horiz-adv-x="237" 
d="M140 446v-615l-49 -16v852l60 18c-5 -39 -11 -131 -11 -239z" />
    <glyph glyph-name="braceright" unicode="}" horiz-adv-x="311" 
d="M248 283c-21 -14 -43 -32 -60 -49c-5 -9 -9 -25 -10 -39c-8 -90 -26 -246 -36 -288c-15 -14 -53 -36 -83 -48l-9 16c14 8 28 20 42 38c3 4 5 9 7 19c12 49 20 164 20 310c19 13 55 32 78 41c-23 8 -55 27 -74 41v38c0 85 -7 203 -23 251c-2 7 -5 12 -10 18
c-13 15 -27 26 -39 34l8 12c30 -12 68 -33 83 -49c16 -52 32 -177 40 -271c0 -9 3 -23 7 -29c16 -17 38 -32 59 -45z" />
    <glyph glyph-name="asciitilde" unicode="~" horiz-adv-x="551" 
d="M172 291c-42 0 -105 -43 -127 -65l-9 20c17 19 109 117 146 117c30 0 67 -15 110 -33c35 -15 71 -25 108 -25c31 0 78 19 116 50l10 -20c-23 -27 -109 -99 -144 -99c-26 0 -64 12 -105 28c-45 18 -78 27 -105 27z" />
    <glyph glyph-name="uni00A0" unicode="&#xa0;" horiz-adv-x="200" 
 />
    <glyph glyph-name="exclamdown" unicode="&#xa1;" horiz-adv-x="247" 
d="M150 267l14 -475c-33 -3 -66 -9 -103 -17c10 46 29 160 33 203l26 279zM180 417l-4 -68c-13 -2 -24 -3 -41 -4c-16 -1 -29 -2 -40 -5l3 73c23 0 66 3 82 4z" />
    <glyph glyph-name="cent" unicode="&#xa2;" horiz-adv-x="416" 
d="M222 -97v83c-108 0 -164 111 -164 201c0 49 11 91 37 126c25 32 82 81 130 98v65l31 5v-64c43 -1 95 -11 122 -23c-8 -22 -21 -44 -34 -63c-21 18 -61 44 -89 44v-337c42 0 85 16 119 33l7 -25c-34 -20 -83 -45 -128 -57v-81zM124 217c0 -92 40 -160 99 -176v334
c-52 -13 -99 -62 -99 -158z" />
    <glyph glyph-name="sterling" unicode="&#xa3;" horiz-adv-x="375" 
d="M37 196l4 30h41c2 21 3 39 6 59c3 18 10 32 17 43c26 40 89 95 120 95c33 0 70 -10 92 -20l-10 -97h-16c-5 24 -11 43 -17 60c-9 7 -35 18 -54 18c-44 0 -63 -44 -66 -81c-2 -21 -4 -53 -5 -77h125l-5 -31h-122c-2 -46 -10 -85 -15 -102c-6 -16 -23 -45 -31 -55h19
c49 0 122 6 153 12c11 13 25 42 36 70h21c-9 -43 -17 -78 -22 -124c-33 3 -77 4 -118 4c-54 0 -118 -2 -155 -6l-9 20c16 6 33 18 38 34c11 35 17 103 18 148h-45z" />
    <glyph glyph-name="currency" unicode="&#xa4;" horiz-adv-x="456" 
d="M354 4l-68 78c-21 -10 -43 -18 -67 -18c-23 0 -43 6 -61 16l-66 -76l-38 31l72 72c-13 17 -29 38 -29 76c0 52 21 83 43 108l-69 73l36 33l69 -80c18 10 43 19 66 19c25 0 48 -5 66 -15l63 75l35 -30l-66 -73c11 -16 23 -47 23 -74c0 -48 -20 -82 -41 -111l66 -72z
M147 191c0 -54 36 -97 83 -97s78 59 78 114c0 50 -25 100 -73 100c-52 0 -88 -56 -88 -117z" />
    <glyph glyph-name="yen" unicode="&#xa5;" horiz-adv-x="389" 
d="M77 160l3 28h86c-46 82 -99 158 -114 178c-15 18 -30 24 -49 30l-7 20c33 -3 57 -4 80 -4c30 0 58 2 85 5l6 -21c-12 0 -31 -4 -41 -8c-6 -2 -9 -5 -9 -11c0 -3 2 -8 6 -14l93 -144c36 56 81 129 93 149c2 4 3 7 3 9c0 3 -1 5 -7 7c-11 4 -34 10 -50 12l-6 21
c27 -3 59 -4 75 -4c13 0 34 1 61 4l3 -20c-15 -5 -24 -12 -34 -25c-15 -18 -78 -111 -125 -185h102l-2 -27h-102v-41h98l-3 -27h-95v-31c0 -4 0 -25 3 -29c13 -8 45 -14 72 -18l-7 -18c-31 3 -70 5 -87 5c-22 0 -76 -3 -104 -5l6 20c15 1 43 5 57 13c4 6 5 26 5 38v26h-99
l3 27h97v40h-96z" />
    <glyph glyph-name="brokenbar" unicode="&#xa6;" horiz-adv-x="237" 
d="M136 58v-225l-47 -17v401l56 19c-6 -38 -9 -122 -9 -178zM141 536v-219l-47 -15v365l55 18c-5 -39 -8 -92 -8 -149z" />
    <glyph glyph-name="section" unicode="&#xa7;" horiz-adv-x="593" 
d="M443 421l-24 156c-16 5 -31 8 -49 8c-54 0 -109 -24 -109 -88c0 -84 63 -148 126 -207s122 -118 122 -199c0 -147 -148 -289 -284 -289c-74 0 -134 14 -162 31l10 173l25 7c5 -54 15 -120 29 -163c19 -6 36 -9 55 -9c57 0 112 33 112 120c0 90 -58 142 -117 196
s-115 105 -115 195c0 157 144 268 263 268c45 0 128 -13 157 -26l-17 -173h-22zM441 66c0 63 -52 118 -111 172c-68 63 -139 133 -139 220c0 41 11 74 37 103c-49 -22 -104 -92 -104 -165c0 -79 52 -129 109 -181c65 -59 133 -119 133 -221c0 -51 -16 -97 -36 -126
c44 18 111 98 111 198z" />
    <glyph glyph-name="dieresis" unicode="&#xa8;" horiz-adv-x="332" 
d="M85 476l-44 35c18 24 37 56 47 76l55 -36c-16 -23 -39 -55 -58 -75zM234 473l-44 34c17 24 35 52 47 76l53 -36c-14 -23 -39 -55 -56 -74z" />
    <glyph glyph-name="copyright" unicode="&#xa9;" horiz-adv-x="754" 
d="M52 302c0 177 141 322 317 322c182 0 318 -131 318 -322c0 -177 -141 -318 -318 -318c-176 0 -317 141 -317 318zM100 302c0 -149 119 -276 269 -276c159 0 269 127 269 276c0 158 -114 282 -267 282c-154 0 -271 -131 -271 -282zM376 498c41 0 93 -5 124 -16l-13 -112
h-14c-3 10 -13 51 -17 66c-15 12 -52 24 -87 24c-53 0 -105 -49 -105 -143c0 -93 59 -161 120 -161c40 0 78 20 98 37l12 -17c-20 -23 -92 -71 -129 -71c-100 0 -167 93 -167 183c0 44 11 86 32 114c28 37 105 96 146 96z" />
    <glyph glyph-name="ordfeminine" unicode="&#xaa;" horiz-adv-x="305" 
d="M278 388l8 -18c-28 -18 -63 -39 -82 -39c-20 0 -29 17 -33 36c-36 -23 -61 -36 -79 -36c-39 0 -67 32 -67 70c0 41 20 54 63 70c22 8 52 16 82 22v41c0 32 -9 46 -35 46c-13 0 -32 -5 -40 -8v-37c-13 -6 -32 -14 -45 -17c-4 6 -6 16 -6 26c0 11 2 22 7 27
c13 15 84 47 111 47c49 0 66 -29 66 -71v-150c0 -15 5 -19 12 -19c13 0 24 5 38 10zM170 394v75c-12 -1 -31 -5 -43 -9c-24 -7 -42 -23 -42 -47c0 -21 11 -39 34 -39c16 0 39 12 51 20z" />
    <glyph glyph-name="guillemotleft" unicode="&#xab;" horiz-adv-x="430" 
d="M374 48l-24 -14c-48 58 -126 138 -168 174c46 37 122 119 169 177l23 -13c-30 -50 -73 -114 -116 -160c37 -42 79 -105 116 -164zM238 48l-24 -14c-48 58 -126 138 -168 174c47 37 123 119 169 177l23 -13c-30 -50 -73 -114 -115 -160c36 -42 80 -105 115 -164z" />
    <glyph glyph-name="logicalnot" unicode="&#xac;" horiz-adv-x="391" 
d="M20 226l12 56h334c-1 -19 -1 -28 -1 -40c0 -33 0 -79 3 -133l-54 7v117h-37c-89 0 -195 -2 -257 -7z" />
    <glyph glyph-name="uni00AD" unicode="&#xad;" horiz-adv-x="289" 
d="M25 194l14 66c14 -1 30 -1 45 -1c55 0 106 2 168 6l10 -9l-13 -57c-19 1 -40 1 -60 1c-57 0 -116 -3 -164 -6z" />
    <glyph glyph-name="registered" unicode="&#xae;" horiz-adv-x="425" 
d="M11 428c0 108 91 200 201 200c126 0 197 -92 197 -200c0 -109 -89 -200 -197 -200c-132 0 -201 91 -201 200zM50 428c0 -94 64 -169 162 -169c94 0 161 79 161 169s-63 169 -161 169c-92 0 -162 -79 -162 -169zM212 426h-35v-48c0 -8 1 -24 3 -34c8 -4 22 -7 38 -9
l-4 -14h-98l2 12c9 2 17 6 21 10c2 6 3 20 3 35v111c0 19 -1 32 -3 36c-6 3 -15 5 -20 6l-3 15c15 -1 34 -1 50 -1c17 0 39 2 52 2c48 0 74 -22 74 -58c0 -33 -35 -52 -52 -58c10 -20 33 -62 50 -80c13 -13 23 -18 35 -23l-4 -7h-60c-13 23 -36 73 -49 105zM177 499v-57
c4 -1 14 -1 22 -1c30 0 54 12 54 46c0 33 -22 42 -47 42c-12 0 -23 -3 -27 -5c-1 -4 -2 -14 -2 -25z" />
    <glyph glyph-name="macron" unicode="&#xaf;" horiz-adv-x="463" 
d="M104 509l7 34h237l-6 -23l-5 -30h-238z" />
    <glyph glyph-name="degree" unicode="&#xb0;" horiz-adv-x="246" 
d="M30 465c0 67 65 147 130 147c66 0 116 -35 116 -105c0 -99 -80 -156 -137 -156c-52 0 -109 31 -109 114zM78 476c0 -56 30 -87 70 -87c52 0 78 50 78 106c0 47 -29 81 -67 81c-57 0 -81 -50 -81 -100z" />
    <glyph glyph-name="plusminus" unicode="&#xb1;" horiz-adv-x="413" 
d="M25 -6l12 56h322l9 -9l-11 -41c-21 1 -48 1 -75 1c-89 0 -195 -2 -257 -7zM174 259v120c22 3 37 7 61 16c-3 -18 -9 -82 -9 -117v-17h134l9 -9l-11 -37h-133v-123l-58 -10c2 31 6 66 6 102v28c-58 -1 -112 -4 -137 -6l12 53h126z" />
    <glyph glyph-name="twosuperior" unicode="&#xb2;" horiz-adv-x="300" 
d="M39 606l-11 81c36 16 87 35 119 35c58 0 101 -21 101 -79c0 -38 -21 -74 -64 -121c-32 -34 -68 -70 -92 -94c48 1 103 5 133 10c10 11 23 36 28 54l17 -4c-4 -26 -11 -81 -11 -105c-32 2 -72 2 -112 2c-44 0 -89 -1 -130 -2l-7 17c24 19 58 51 104 101
c48 52 70 93 70 129c0 34 -24 54 -58 54c-21 0 -40 -4 -52 -9c-7 -15 -13 -50 -19 -72z" />
    <glyph glyph-name="threesuperior" unicode="&#xb3;" horiz-adv-x="300" 
d="M48 615l-12 104c37 -2 85 -3 117 -3c28 0 76 1 106 3l2 -17c-10 -8 -25 -22 -36 -35l-63 -79c48 0 95 -23 95 -84c0 -74 -91 -126 -147 -126c-31 0 -67 9 -88 19l27 55c29 -17 58 -33 89 -33c38 0 65 26 65 65c0 48 -39 64 -80 64c-6 0 -13 0 -18 -1l-9 17
c7 5 17 14 25 22c20 20 42 50 69 84h-112c-5 -12 -10 -40 -13 -57z" />
    <glyph glyph-name="acute" unicode="&#xb4;" horiz-adv-x="290" 
d="M76 460l-17 21c54 42 121 132 140 167l71 -32c-28 -35 -138 -127 -194 -156z" />
    <glyph glyph-name="mu" unicode="&#xb5;" horiz-adv-x="503" 
d="M82 -3c-3 66 -4 155 -4 233c0 56 0 111 -3 167c19 5 49 9 75 20c-3 -43 -5 -95 -5 -181c0 -44 3 -84 6 -109c4 -37 33 -80 88 -80c38 0 94 31 119 49v122c0 68 -1 131 -3 187c21 2 50 4 76 9c-3 -33 -4 -75 -4 -108v-180c0 -50 7 -80 46 -80c13 0 30 3 42 4l8 -13
c-32 -17 -96 -52 -107 -52c-12 0 -30 3 -37 11c-8 9 -17 47 -20 66c-21 -10 -48 -29 -76 -47c-26 -17 -50 -31 -65 -31c-35 0 -74 28 -91 52c1 -80 18 -129 34 -165c11 -25 28 -40 49 -52l-6 -17c-34 -5 -66 -14 -97 -23c-15 52 -21 145 -25 218z" />
    <glyph glyph-name="paragraph" unicode="&#xb6;" horiz-adv-x="574" 
d="M434 479v-405c0 -47 -15 -97 -33 -126c-20 -30 -67 -69 -100 -95l-6 31c23 21 54 52 69 97c10 31 10 64 10 145c-183 0 -302 51 -302 246c0 174 91 253 258 253c31 0 61 -4 98 -9c31 -4 62 -7 85 -7l7 -26c-15 0 -41 -2 -59 -7c-14 -4 -18 -8 -21 -20
c-4 -15 -5 -40 -6 -77zM310 507v-274c0 -28 1 -47 6 -57c7 -4 18 -6 32 -6c13 0 26 2 29 7c5 9 8 30 8 54v276c0 28 -1 49 -5 61c-5 4 -15 7 -32 7c-16 0 -29 -4 -33 -8c-3 -10 -5 -35 -5 -60z" />
    <glyph glyph-name="periodcentered" unicode="&#xb7;" horiz-adv-x="253" 
d="M83 183l-17 75c28 8 72 24 98 35c3 -26 11 -54 19 -79c-29 -7 -73 -21 -100 -31z" />
    <glyph glyph-name="cedilla" unicode="&#xb8;" horiz-adv-x="238" 
d="M114 6l-10 -49c45 -9 90 -31 90 -75c0 -45 -29 -78 -61 -93c-22 -4 -63 -11 -86 -12l-9 19c33 5 114 18 114 68c0 33 -57 44 -91 46l-5 5l34 93z" />
    <glyph glyph-name="onesuperior" unicode="&#xb9;" horiz-adv-x="300" 
d="M64 381l8 23c15 2 49 10 60 18c3 6 5 17 5 23v154c0 14 0 32 -1 51c-28 -3 -52 -9 -76 -17l-12 20c47 20 95 41 136 69l14 -2c-3 -30 -5 -57 -6 -75v-198c0 -7 3 -19 5 -23c8 -8 43 -18 68 -20l-8 -21c-27 2 -75 2 -89 2c-18 0 -80 -2 -104 -4z" />
    <glyph glyph-name="ordmasculine" unicode="&#xba;" horiz-adv-x="283" 
d="M129 618c94 0 141 -64 141 -129c0 -41 -9 -73 -29 -99c-19 -24 -67 -59 -106 -59c-89 0 -142 65 -142 139c0 34 14 65 35 90c18 22 65 58 101 58zM53 491c0 -69 32 -128 93 -128c43 0 63 47 63 96c0 69 -31 128 -86 128c-44 0 -70 -48 -70 -96z" />
    <glyph glyph-name="guillemotright" unicode="&#xbb;" horiz-adv-x="439" 
d="M190 371l24 14c49 -57 126 -138 168 -174c-47 -36 -121 -118 -169 -177l-22 13c29 50 73 114 115 161c-37 42 -80 104 -116 163zM46 371l25 14c48 -57 125 -138 167 -174c-46 -36 -122 -118 -168 -177l-24 13c31 50 74 114 117 161c-38 42 -81 104 -117 163z" />
    <glyph glyph-name="onequarter" unicode="&#xbc;" horiz-adv-x="700" 
d="M48 243l8 23c15 2 49 10 60 18c3 6 5 17 5 23v154c0 14 0 32 -1 51c-28 -3 -52 -9 -76 -17l-12 20c47 20 95 41 136 69l14 -2c-3 -30 -5 -57 -6 -75v-198c0 -7 3 -19 5 -23c8 -8 43 -18 68 -20l-8 -21c-27 2 -75 2 -89 2c-18 0 -80 -2 -104 -4zM653 74h-53v-24
c0 -12 2 -26 5 -30c10 -4 36 -10 51 -12l-9 -19c-28 2 -51 3 -76 3c-22 0 -57 -1 -89 -3l7 23c15 1 39 4 54 11c4 7 5 18 5 30v21h-153l-17 29c43 59 119 154 178 217c21 1 37 3 49 6c-3 -31 -4 -67 -4 -93v-120c22 0 48 1 66 4zM549 113v152c-43 -50 -90 -109 -120 -152
h120zM573 561l-373 -587l-29 20l1 13l374 589l21 -15z" />
    <glyph glyph-name="onehalf" unicode="&#xbd;" horiz-adv-x="700" 
d="M41 243l8 23c15 2 49 10 60 18c3 6 5 17 5 23v154c0 14 0 32 -1 51c-28 -3 -52 -9 -76 -17l-12 20c47 20 95 41 136 69l14 -2c-3 -30 -5 -57 -6 -75v-198c0 -7 3 -19 5 -23c8 -8 43 -18 68 -20l-8 -21c-27 2 -75 2 -89 2c-18 0 -80 -2 -104 -4zM443 212l-11 81
c36 16 87 35 119 35c58 0 101 -21 101 -79c0 -38 -21 -74 -64 -121c-32 -34 -68 -70 -92 -94c48 1 103 5 133 10c10 11 23 36 28 54l17 -4c-4 -26 -11 -81 -11 -105c-32 2 -72 2 -112 2c-44 0 -89 -1 -130 -2l-7 17c24 19 58 51 104 101c48 52 70 93 70 129
c0 34 -24 54 -58 54c-21 0 -40 -4 -52 -9c-7 -15 -13 -50 -19 -72zM551 561l-373 -587l-29 20l1 13l374 589l21 -15z" />
    <glyph glyph-name="threequarters" unicode="&#xbe;" horiz-adv-x="700" 
d="M73 477l-12 104c37 -2 85 -3 117 -3c28 0 76 1 106 3l2 -17c-10 -8 -25 -22 -36 -35l-63 -79c48 0 95 -23 95 -84c0 -74 -91 -126 -147 -126c-31 0 -67 9 -88 19l27 55c29 -17 58 -33 89 -33c38 0 65 26 65 65c0 48 -39 64 -80 64c-6 0 -13 0 -18 -1l-9 17
c7 5 17 14 25 22c20 20 42 50 69 84h-112c-5 -12 -10 -40 -13 -57zM644 74h-53v-24c0 -12 2 -26 5 -30c10 -4 36 -10 51 -12l-9 -19c-28 2 -51 3 -76 3c-22 0 -57 -1 -89 -3l7 23c15 1 39 4 54 11c4 7 5 18 5 30v21h-153l-17 29c43 59 119 154 178 217c21 1 37 3 49 6
c-3 -31 -4 -67 -4 -93v-120c22 0 48 1 66 4zM540 113v152c-43 -50 -90 -109 -120 -152h120zM563 561l-373 -587l-29 20l1 13l374 589l21 -15z" />
    <glyph glyph-name="questiondown" unicode="&#xbf;" horiz-adv-x="319" 
d="M92 -74c0 -57 56 -82 90 -82c29 0 67 14 89 25l10 -16c-17 -11 -93 -59 -123 -59c-65 0 -132 30 -132 112c0 61 44 108 84 140c17 13 32 24 42 34c7 32 14 128 16 176l36 16l12 -187c-43 -27 -124 -89 -124 -159zM231 418l-6 -69c-13 -2 -24 -3 -41 -4
c-16 -1 -29 -2 -40 -5l3 73c23 0 66 3 84 5z" />
    <glyph glyph-name="Agrave" unicode="&#xc0;" horiz-adv-x="660" 
d="M488 74l-73 183h-211l-72 -189c-2 -6 -3 -10 -3 -16c0 -14 61 -24 102 -27l-13 -28c-39 3 -83 5 -104 5c-19 0 -57 -1 -99 -5l8 25c23 4 44 15 54 36c21 40 199 487 216 553l59 9c37 -118 208 -529 224 -554c14 -22 43 -39 79 -44l-11 -24c-48 4 -98 5 -117 5
c-21 0 -83 -3 -117 -6l8 25c48 4 77 11 77 24c0 8 -3 19 -7 28zM308 541l-88 -244h179zM404 679l-13 -21c-53 15 -204 77 -230 100l71 47c27 -27 115 -94 172 -126z" />
    <glyph glyph-name="Aacute" unicode="&#xc1;" horiz-adv-x="660" 
d="M488 74l-73 183h-211l-72 -189c-2 -6 -3 -10 -3 -16c0 -14 61 -24 102 -27l-13 -28c-39 3 -83 5 -104 5c-19 0 -57 -1 -99 -5l8 25c23 4 44 15 54 36c21 40 199 487 216 553l59 9c37 -118 208 -529 224 -554c14 -22 43 -39 79 -44l-11 -24c-48 4 -98 5 -117 5
c-21 0 -83 -3 -117 -6l8 25c48 4 77 11 77 24c0 8 -3 19 -7 28zM308 541l-88 -244h179zM247 658l-13 20c57 29 149 95 180 127l69 -43c-34 -26 -182 -86 -236 -104z" />
    <glyph glyph-name="Acircumflex" unicode="&#xc2;" horiz-adv-x="660" 
d="M488 74l-73 183h-211l-72 -189c-2 -6 -3 -10 -3 -16c0 -14 61 -24 102 -27l-13 -28c-39 3 -83 5 -104 5c-19 0 -57 -1 -99 -5l8 25c23 4 44 15 54 36c21 40 199 487 216 553l59 9c37 -118 208 -529 224 -554c14 -22 43 -39 79 -44l-11 -24c-48 4 -98 5 -117 5
c-21 0 -83 -3 -117 -6l8 25c48 4 77 11 77 24c0 8 -3 19 -7 28zM308 541l-88 -244h179zM334 793l104 -125l-21 -14l-103 68l-100 -70l-21 15l111 126h30z" />
    <glyph glyph-name="Atilde" unicode="&#xc3;" horiz-adv-x="660" 
d="M488 74l-73 183h-211l-72 -189c-2 -6 -3 -10 -3 -16c0 -14 61 -24 102 -27l-13 -28c-39 3 -83 5 -104 5c-19 0 -57 -1 -99 -5l8 25c23 4 44 15 54 36c21 40 199 487 216 553l59 9c37 -118 208 -529 224 -554c14 -22 43 -39 79 -44l-11 -24c-48 4 -98 5 -117 5
c-21 0 -83 -3 -117 -6l8 25c48 4 77 11 77 24c0 8 -3 19 -7 28zM308 541l-88 -244h179zM262 715c-26 0 -62 -34 -76 -49l-13 14c15 19 78 99 110 99c34 0 88 -53 126 -53c23 0 48 21 67 43l15 -12c-19 -28 -76 -91 -100 -91c-31 0 -82 49 -129 49z" />
    <glyph glyph-name="Adieresis" unicode="&#xc4;" horiz-adv-x="660" 
d="M488 74l-73 183h-211l-72 -189c-2 -6 -3 -10 -3 -16c0 -14 61 -24 102 -27l-13 -28c-39 3 -83 5 -104 5c-19 0 -57 -1 -99 -5l8 25c23 4 44 15 54 36c21 40 199 487 216 553l59 9c37 -118 208 -529 224 -554c14 -22 43 -39 79 -44l-11 -24c-48 4 -98 5 -117 5
c-21 0 -83 -3 -117 -6l8 25c48 4 77 11 77 24c0 8 -3 19 -7 28zM308 541l-88 -244h179zM239 666l-44 35c18 24 37 56 47 76l55 -36c-16 -23 -39 -55 -58 -75zM388 663l-44 34c17 24 35 52 47 76l53 -36c-14 -23 -39 -55 -56 -74z" />
    <glyph glyph-name="Aring" unicode="&#xc5;" horiz-adv-x="660" 
d="M233 734c0 59 56 96 93 96c47 0 82 -23 82 -70c0 -59 -54 -104 -98 -104c-40 0 -77 25 -77 78zM274 739c0 -35 22 -52 44 -52c34 0 48 30 48 65c0 29 -19 49 -45 49c-31 0 -47 -31 -47 -62zM488 74l-73 183h-211l-72 -189c-2 -6 -3 -10 -3 -16c0 -14 61 -24 102 -27
l-13 -28c-39 3 -83 5 -104 5c-19 0 -57 -1 -99 -5l8 25c23 4 44 15 54 36c21 40 199 487 216 553l59 9c37 -118 208 -529 224 -554c14 -22 43 -39 79 -44l-11 -24c-48 4 -98 5 -117 5c-21 0 -83 -3 -117 -6l8 25c48 4 77 11 77 24c0 8 -3 19 -7 28zM308 541l-88 -244h179z
" />
    <glyph glyph-name="AE" unicode="&#xc6;" horiz-adv-x="823" 
d="M774 166l19 -1c-8 -46 -30 -130 -45 -169c-62 5 -114 6 -183 6c-55 0 -137 -1 -233 -5l8 25c20 2 56 12 68 20c3 12 6 35 6 55v158h-169l-101 -191c-2 -4 -4 -8 -4 -12c0 -5 3 -10 11 -14c9 -4 53 -15 85 -17l-11 -24c-39 3 -82 5 -104 5c-19 0 -64 -1 -106 -5l8 25
c18 4 43 13 63 36c24 27 259 472 269 498c1 3 2 6 2 8c0 5 -3 8 -9 10c-7 3 -29 9 -47 10l-9 27c59 -3 132 -5 194 -5c81 0 163 3 242 12c2 -71 4 -122 9 -177l-14 -1c-13 38 -33 86 -43 109c-5 9 -7 11 -12 12c-14 3 -48 4 -81 4c-42 0 -88 -2 -94 -7c-3 -10 -4 -26 -4 -49
v-172c17 -1 41 -1 65 -1c38 0 77 1 97 4l24 56l14 -1c-3 -31 -4 -59 -4 -78c0 -36 2 -62 5 -91l-13 -1l-30 65c-22 1 -60 2 -97 2c-23 0 -46 0 -62 -1v-198c0 -16 1 -32 5 -42c29 -4 75 -6 116 -6c26 0 52 1 69 2c23 3 34 6 41 15c19 25 42 72 55 104zM414 297v204
c0 22 -1 52 -4 57c-3 2 -9 2 -12 2l-130 -263h146z" />
    <glyph glyph-name="Ccedilla" unicode="&#xc7;" horiz-adv-x="630" 
d="M139 323c0 -162 101 -298 243 -298c64 0 107 18 128 31c24 29 44 63 69 113l11 -8c-14 -51 -28 -106 -38 -157c-36 -8 -109 -20 -182 -20h-23l-5 -27c45 -9 90 -31 90 -75c0 -45 -29 -78 -61 -93c-22 -4 -63 -11 -86 -12l-9 19c33 5 114 18 114 68c0 33 -57 44 -91 46
l-5 5l26 73c-142 19 -267 126 -267 323c0 71 21 126 53 169c49 65 172 144 242 144c77 0 170 -24 212 -42c-2 -61 -2 -115 -2 -172l-14 -4c-15 45 -26 84 -40 115c-34 27 -93 51 -177 51c-118 0 -188 -123 -188 -249z" />
    <glyph glyph-name="Egrave" unicode="&#xc8;" horiz-adv-x="536" 
d="M487 166l19 -1c-8 -46 -31 -130 -45 -169c-62 5 -114 6 -184 6c-55 0 -137 -1 -232 -5l8 25c20 2 55 12 66 20c5 12 8 35 8 55v432c0 14 -3 31 -8 37c-12 9 -40 14 -61 16l-9 29c41 -3 107 -4 160 -4c77 0 152 2 232 11c2 -71 3 -122 8 -177l-13 -1
c-14 38 -33 86 -44 109c-4 9 -6 11 -12 12c-13 3 -47 4 -81 4c-42 0 -87 -2 -94 -7c-4 -10 -4 -26 -4 -49v-167c17 -1 41 -1 66 -1c38 0 77 1 97 3l24 56l13 -2c-2 -30 -3 -57 -3 -76c0 -37 1 -68 5 -97l-14 -1l-30 65c-25 2 -55 2 -91 2c-23 0 -49 0 -68 -1v-197
c0 -16 1 -32 5 -42c30 -4 75 -6 116 -6c27 0 52 1 69 2c23 3 35 6 41 15c19 25 42 72 56 104zM345 679l-13 -21c-53 15 -204 77 -230 100l71 47c27 -27 115 -94 172 -126z" />
    <glyph glyph-name="Eacute" unicode="&#xc9;" horiz-adv-x="536" 
d="M487 166l19 -1c-8 -46 -31 -130 -45 -169c-62 5 -114 6 -184 6c-55 0 -137 -1 -232 -5l8 25c20 2 55 12 66 20c5 12 8 35 8 55v432c0 14 -3 31 -8 37c-12 9 -40 14 -61 16l-9 29c41 -3 107 -4 160 -4c77 0 152 2 232 11c2 -71 3 -122 8 -177l-13 -1
c-14 38 -33 86 -44 109c-4 9 -6 11 -12 12c-13 3 -47 4 -81 4c-42 0 -87 -2 -94 -7c-4 -10 -4 -26 -4 -49v-167c17 -1 41 -1 66 -1c38 0 77 1 97 3l24 56l13 -2c-2 -30 -3 -57 -3 -76c0 -37 1 -68 5 -97l-14 -1l-30 65c-25 2 -55 2 -91 2c-23 0 -49 0 -68 -1v-197
c0 -16 1 -32 5 -42c30 -4 75 -6 116 -6c27 0 52 1 69 2c23 3 35 6 41 15c19 25 42 72 56 104zM188 658l-13 20c57 29 149 95 180 127l69 -43c-34 -26 -182 -86 -236 -104z" />
    <glyph glyph-name="Ecircumflex" unicode="&#xca;" horiz-adv-x="536" 
d="M487 166l19 -1c-8 -46 -31 -130 -45 -169c-62 5 -114 6 -184 6c-55 0 -137 -1 -232 -5l8 25c20 2 55 12 66 20c5 12 8 35 8 55v432c0 14 -3 31 -8 37c-12 9 -40 14 -61 16l-9 29c41 -3 107 -4 160 -4c77 0 152 2 232 11c2 -71 3 -122 8 -177l-13 -1
c-14 38 -33 86 -44 109c-4 9 -6 11 -12 12c-13 3 -47 4 -81 4c-42 0 -87 -2 -94 -7c-4 -10 -4 -26 -4 -49v-167c17 -1 41 -1 66 -1c38 0 77 1 97 3l24 56l13 -2c-2 -30 -3 -57 -3 -76c0 -37 1 -68 5 -97l-14 -1l-30 65c-25 2 -55 2 -91 2c-23 0 -49 0 -68 -1v-197
c0 -16 1 -32 5 -42c30 -4 75 -6 116 -6c27 0 52 1 69 2c23 3 35 6 41 15c19 25 42 72 56 104zM286 793l104 -125l-21 -14l-103 68l-100 -70l-21 15l111 126h30z" />
    <glyph glyph-name="Edieresis" unicode="&#xcb;" horiz-adv-x="536" 
d="M487 166l19 -1c-8 -46 -31 -130 -45 -169c-62 5 -114 6 -184 6c-55 0 -137 -1 -232 -5l8 25c20 2 55 12 66 20c5 12 8 35 8 55v432c0 14 -3 31 -8 37c-12 9 -40 14 -61 16l-9 29c41 -3 107 -4 160 -4c77 0 152 2 232 11c2 -71 3 -122 8 -177l-13 -1
c-14 38 -33 86 -44 109c-4 9 -6 11 -12 12c-13 3 -47 4 -81 4c-42 0 -87 -2 -94 -7c-4 -10 -4 -26 -4 -49v-167c17 -1 41 -1 66 -1c38 0 77 1 97 3l24 56l13 -2c-2 -30 -3 -57 -3 -76c0 -37 1 -68 5 -97l-14 -1l-30 65c-25 2 -55 2 -91 2c-23 0 -49 0 -68 -1v-197
c0 -16 1 -32 5 -42c30 -4 75 -6 116 -6c27 0 52 1 69 2c23 3 35 6 41 15c19 25 42 72 56 104zM186 666l-44 35c18 24 37 56 47 76l55 -36c-16 -23 -39 -55 -58 -75zM335 663l-44 34c17 24 35 52 47 76l53 -36c-14 -23 -39 -55 -56 -74z" />
    <glyph glyph-name="Igrave" unicode="&#xcc;" horiz-adv-x="321" 
d="M133 114v415c0 14 -3 32 -8 38c-15 9 -44 14 -65 16l-9 30c41 -4 86 -5 130 -5c33 0 68 1 97 3l5 -28c-23 -2 -61 -9 -71 -17c-4 -8 -6 -27 -6 -44v-428c0 -16 1 -41 4 -48c12 -8 61 -20 93 -24l-11 -23c-42 2 -78 3 -113 3c-36 0 -75 -1 -124 -3l8 26c24 3 52 12 62 20
c5 13 8 47 8 69zM261 679l-13 -21c-53 15 -204 77 -230 100l71 47c27 -27 115 -94 172 -126z" />
    <glyph glyph-name="Iacute" unicode="&#xcd;" horiz-adv-x="321" 
d="M133 114v415c0 14 -3 32 -8 38c-15 9 -44 14 -65 16l-9 30c41 -4 86 -5 130 -5c33 0 68 1 97 3l5 -28c-23 -2 -61 -9 -71 -17c-4 -8 -6 -27 -6 -44v-428c0 -16 1 -41 4 -48c12 -8 61 -20 93 -24l-11 -23c-42 2 -78 3 -113 3c-36 0 -75 -1 -124 -3l8 26c24 3 52 12 62 20
c5 13 8 47 8 69zM100 658l-13 20c57 29 149 95 180 127l69 -43c-34 -26 -182 -86 -236 -104z" />
    <glyph glyph-name="Icircumflex" unicode="&#xce;" horiz-adv-x="321" 
d="M133 114v415c0 14 -3 32 -8 38c-15 9 -44 14 -65 16l-9 30c41 -4 86 -5 130 -5c33 0 68 1 97 3l5 -28c-23 -2 -61 -9 -71 -17c-4 -8 -6 -27 -6 -44v-428c0 -16 1 -41 4 -48c12 -8 61 -20 93 -24l-11 -23c-42 2 -78 3 -113 3c-36 0 -75 -1 -124 -3l8 26c24 3 52 12 62 20
c5 13 8 47 8 69zM185 793l104 -125l-21 -14l-103 68l-100 -70l-21 15l111 126h30z" />
    <glyph glyph-name="Idieresis" unicode="&#xcf;" horiz-adv-x="321" 
d="M133 114v415c0 14 -3 32 -8 38c-15 9 -44 14 -65 16l-9 30c41 -4 86 -5 130 -5c33 0 68 1 97 3l5 -28c-23 -2 -61 -9 -71 -17c-4 -8 -6 -27 -6 -44v-428c0 -16 1 -41 4 -48c12 -8 61 -20 93 -24l-11 -23c-42 2 -78 3 -113 3c-36 0 -75 -1 -124 -3l8 26c24 3 52 12 62 20
c5 13 8 47 8 69zM92 666l-44 35c18 24 37 56 47 76l55 -36c-16 -23 -39 -55 -58 -75zM241 663l-44 34c17 24 35 52 47 76l53 -36c-14 -23 -39 -55 -56 -74z" />
    <glyph glyph-name="Eth" unicode="&#xd0;" horiz-adv-x="689" 
d="M45 292v41h83v203c0 13 -3 30 -8 37c-6 6 -44 13 -65 15l-9 25c29 -4 58 -5 88 -5c26 0 54 1 84 3s59 3 88 3c181 0 333 -125 333 -292c0 -223 -150 -328 -311 -328c-51 0 -87 2 -124 4c-26 2 -50 3 -74 3c-26 0 -51 -1 -82 -4l8 25c22 2 52 10 64 20c4 11 8 28 8 62v188
h-83zM363 292h-162v-202c0 -16 1 -37 5 -47c26 -11 75 -17 116 -17c147 0 237 111 237 290c0 174 -120 259 -258 259c-35 0 -74 -3 -92 -11c-6 -9 -7 -28 -7 -44v-187h161v-41z" />
    <glyph glyph-name="Ntilde" unicode="&#xd1;" horiz-adv-x="706" 
d="M603 513l-3 -396c0 -37 0 -71 3 -117l-37 -18c-56 86 -296 414 -396 548v-444c0 -15 1 -30 5 -40c5 -7 68 -22 90 -24l-9 -23c-31 2 -63 2 -96 2c-35 0 -73 -1 -105 -2l5 23c23 4 44 12 53 20c4 9 6 24 6 48v387c0 36 -2 82 -7 90c-12 7 -41 14 -60 16l-7 30
c35 -1 62 -4 90 -4c21 0 42 2 68 4l350 -488v396c0 14 -3 39 -8 45c-9 7 -46 15 -67 17l-9 28c34 -3 69 -4 106 -4s70 2 96 4l5 -28c-19 -1 -63 -10 -69 -16c-3 -6 -4 -32 -4 -54zM308 715c-26 0 -62 -34 -76 -49l-13 14c15 19 78 99 110 99c34 0 88 -53 126 -53
c23 0 48 21 67 43l15 -12c-19 -28 -76 -91 -100 -91c-31 0 -82 49 -129 49z" />
    <glyph glyph-name="Ograve" unicode="&#xd2;" horiz-adv-x="691" 
d="M356 624c175 0 285 -129 285 -283c0 -80 -20 -153 -59 -208c-54 -75 -162 -149 -250 -149c-140 0 -282 120 -282 291c0 77 16 134 54 187c53 75 164 162 252 162zM358 37c130 0 206 135 206 268c0 146 -107 263 -229 263c-126 0 -210 -121 -210 -250
c0 -148 111 -281 233 -281zM451 679l-13 -21c-53 15 -204 77 -230 100l71 47c27 -27 115 -94 172 -126z" />
    <glyph glyph-name="Oacute" unicode="&#xd3;" horiz-adv-x="691" 
d="M356 624c175 0 285 -129 285 -283c0 -80 -20 -153 -59 -208c-54 -75 -162 -149 -250 -149c-140 0 -282 120 -282 291c0 77 16 134 54 187c53 75 164 162 252 162zM358 37c130 0 206 135 206 268c0 146 -107 263 -229 263c-126 0 -210 -121 -210 -250
c0 -148 111 -281 233 -281zM262 658l-13 20c57 29 149 95 180 127l69 -43c-34 -26 -182 -86 -236 -104z" />
    <glyph glyph-name="Ocircumflex" unicode="&#xd4;" horiz-adv-x="691" 
d="M356 624c175 0 285 -129 285 -283c0 -80 -20 -153 -59 -208c-54 -75 -162 -149 -250 -149c-140 0 -282 120 -282 291c0 77 16 134 54 187c53 75 164 162 252 162zM358 37c130 0 206 135 206 268c0 146 -107 263 -229 263c-126 0 -210 -121 -210 -250
c0 -148 111 -281 233 -281zM379 793l104 -125l-21 -14l-103 68l-100 -70l-21 15l111 126h30z" />
    <glyph glyph-name="Otilde" unicode="&#xd5;" horiz-adv-x="691" 
d="M356 624c175 0 285 -129 285 -283c0 -80 -20 -153 -59 -208c-54 -75 -162 -149 -250 -149c-140 0 -282 120 -282 291c0 77 16 134 54 187c53 75 164 162 252 162zM358 37c130 0 206 135 206 268c0 146 -107 263 -229 263c-126 0 -210 -121 -210 -250
c0 -148 111 -281 233 -281zM294 715c-26 0 -62 -34 -76 -49l-13 14c15 19 78 99 110 99c34 0 88 -53 126 -53c23 0 48 21 67 43l15 -12c-19 -28 -76 -91 -100 -91c-31 0 -82 49 -129 49z" />
    <glyph glyph-name="Odieresis" unicode="&#xd6;" horiz-adv-x="691" 
d="M356 624c175 0 285 -129 285 -283c0 -80 -20 -153 -59 -208c-54 -75 -162 -149 -250 -149c-140 0 -282 120 -282 291c0 77 16 134 54 187c53 75 164 162 252 162zM358 37c130 0 206 135 206 268c0 146 -107 263 -229 263c-126 0 -210 -121 -210 -250
c0 -148 111 -281 233 -281zM273 666l-44 35c18 24 37 56 47 76l55 -36c-16 -23 -39 -55 -58 -75zM422 663l-44 34c17 24 35 52 47 76l53 -36c-14 -23 -39 -55 -56 -74z" />
    <glyph glyph-name="multiply" unicode="&#xd7;" horiz-adv-x="369" 
d="M282 337l46 -33c-32 -23 -76 -64 -104 -93c37 -35 77 -68 104 -91l-38 -40c-20 24 -70 72 -99 98c-37 -34 -77 -75 -98 -101l-41 36c26 22 72 60 105 94c-42 40 -80 71 -102 88l43 41c16 -19 56 -62 93 -97c42 42 74 78 91 98z" />
    <glyph glyph-name="Oslash" unicode="&#xd8;" horiz-adv-x="691" 
d="M356 624c51 0 94 -9 133 -29l47 90l33 -18l-48 -92c77 -51 120 -137 120 -234c0 -80 -20 -153 -59 -208c-54 -75 -162 -150 -250 -150c-36 0 -72 7 -107 22l-48 -93l-34 18l49 94c-80 48 -142 141 -142 251c0 77 16 134 54 187c53 75 164 162 252 162zM125 318
c0 -89 38 -174 100 -228l229 439c-35 27 -74 39 -119 39c-126 0 -210 -121 -210 -250zM357 36c136 0 207 136 207 269c0 80 -32 151 -80 198l-228 -437c32 -19 65 -30 101 -30z" />
    <glyph glyph-name="Ugrave" unicode="&#xd9;" horiz-adv-x="696" 
d="M596 492v-179c0 -16 -1 -79 -7 -121c-20 -144 -110 -208 -233 -208c-121 0 -203 44 -230 156c-7 29 -11 87 -11 124v250c0 21 -4 48 -8 54c-9 6 -42 13 -63 15l-9 26c35 -1 82 -2 126 -2c36 0 71 1 97 2l5 -24c-22 -1 -61 -10 -66 -17c-4 -11 -6 -46 -6 -73v-204
c0 -20 2 -75 8 -117c15 -96 76 -147 176 -147c87 0 146 55 160 140c6 32 9 90 9 104v250c0 14 -3 40 -7 45c-8 8 -48 17 -70 18l-7 25c34 -1 74 -2 112 -2c31 0 61 1 88 2l5 -23c-20 -2 -53 -10 -63 -17c-3 -7 -6 -54 -6 -77zM453 679l-13 -21c-53 15 -204 77 -230 100
l71 47c27 -27 115 -94 172 -126z" />
    <glyph glyph-name="Uacute" unicode="&#xda;" horiz-adv-x="696" 
d="M596 492v-179c0 -16 -1 -79 -7 -121c-20 -144 -110 -208 -233 -208c-121 0 -203 44 -230 156c-7 29 -11 87 -11 124v250c0 21 -4 48 -8 54c-9 6 -42 13 -63 15l-9 26c35 -1 82 -2 126 -2c36 0 71 1 97 2l5 -24c-22 -1 -61 -10 -66 -17c-4 -11 -6 -46 -6 -73v-204
c0 -20 2 -75 8 -117c15 -96 76 -147 176 -147c87 0 146 55 160 140c6 32 9 90 9 104v250c0 14 -3 40 -7 45c-8 8 -48 17 -70 18l-7 25c34 -1 74 -2 112 -2c31 0 61 1 88 2l5 -23c-20 -2 -53 -10 -63 -17c-3 -7 -6 -54 -6 -77zM316 658l-13 20c57 29 149 95 180 127l69 -43
c-34 -26 -182 -86 -236 -104z" />
    <glyph glyph-name="Ucircumflex" unicode="&#xdb;" horiz-adv-x="696" 
d="M596 492v-179c0 -16 -1 -79 -7 -121c-20 -144 -110 -208 -233 -208c-121 0 -203 44 -230 156c-7 29 -11 87 -11 124v250c0 21 -4 48 -8 54c-9 6 -42 13 -63 15l-9 26c35 -1 82 -2 126 -2c36 0 71 1 97 2l5 -24c-22 -1 -61 -10 -66 -17c-4 -11 -6 -46 -6 -73v-204
c0 -20 2 -75 8 -117c15 -96 76 -147 176 -147c87 0 146 55 160 140c6 32 9 90 9 104v250c0 14 -3 40 -7 45c-8 8 -48 17 -70 18l-7 25c34 -1 74 -2 112 -2c31 0 61 1 88 2l5 -23c-20 -2 -53 -10 -63 -17c-3 -7 -6 -54 -6 -77zM404 793l104 -125l-21 -14l-103 68l-100 -70
l-21 15l111 126h30z" />
    <glyph glyph-name="Udieresis" unicode="&#xdc;" horiz-adv-x="696" 
d="M596 492v-179c0 -16 -1 -79 -7 -121c-20 -144 -110 -208 -233 -208c-121 0 -203 44 -230 156c-7 29 -11 87 -11 124v250c0 21 -4 48 -8 54c-9 6 -42 13 -63 15l-9 26c35 -1 82 -2 126 -2c36 0 71 1 97 2l5 -24c-22 -1 -61 -10 -66 -17c-4 -11 -6 -46 -6 -73v-204
c0 -20 2 -75 8 -117c15 -96 76 -147 176 -147c87 0 146 55 160 140c6 32 9 90 9 104v250c0 14 -3 40 -7 45c-8 8 -48 17 -70 18l-7 25c34 -1 74 -2 112 -2c31 0 61 1 88 2l5 -23c-20 -2 -53 -10 -63 -17c-3 -7 -6 -54 -6 -77zM292 666l-44 35c18 24 37 56 47 76l55 -36
c-16 -23 -39 -55 -58 -75zM441 663l-44 34c17 24 35 52 47 76l53 -36c-14 -23 -39 -55 -56 -74z" />
    <glyph glyph-name="Yacute" unicode="&#xdd;" horiz-adv-x="572" 
d="M254 99l1 151c-61 108 -150 271 -166 292s-42 35 -69 42l-10 27c47 -5 86 -5 105 -5c21 0 82 2 121 6l8 -23c-19 -3 -56 -11 -71 -17c-5 -2 -7 -5 -7 -8c0 -2 1 -4 2 -7c6 -17 77 -147 143 -264l131 250c3 6 4 10 4 13c0 5 -3 10 -8 12c-18 8 -51 15 -72 19l-12 25
c40 -4 85 -5 106 -5c19 0 45 1 87 5l6 -23c-18 -4 -34 -17 -50 -37c-16 -18 -122 -205 -175 -303v-145c0 -29 1 -49 6 -58c15 -9 61 -23 99 -27l-11 -23c-45 4 -93 6 -118 6c-30 0 -94 -3 -132 -6l10 26c21 3 54 13 65 22c5 7 7 36 7 55zM231 658l-13 20
c57 29 149 95 180 127l69 -43c-34 -26 -182 -86 -236 -104z" />
    <glyph glyph-name="Thorn" unicode="&#xde;" horiz-adv-x="511" 
d="M197 125c0 -29 3 -59 10 -73c9 -15 70 -27 101 -27l-11 -26c-34 2 -70 3 -108 3c-48 0 -97 -2 -144 -6l6 26c25 1 54 12 64 26c7 16 10 93 10 138v282c0 44 -1 85 -7 98c-11 10 -52 15 -65 17l-7 30c34 -2 74 -4 114 -4c38 0 74 2 101 4l6 -29c-19 -1 -56 -9 -65 -17
c-3 -10 -5 -33 -5 -83c23 3 50 5 68 5c119 0 206 -39 206 -140c0 -125 -99 -191 -213 -191c-16 0 -46 3 -61 6v-39zM256 454c-20 0 -44 -3 -59 -6v-255c10 -2 27 -3 36 -3c95 0 155 43 155 140c0 84 -48 124 -132 124z" />
    <glyph glyph-name="germandbls" unicode="&#xdf;" horiz-adv-x="486" 
d="M269 358c0 -33 39 -62 81 -90c61 -39 109 -72 109 -133c0 -81 -84 -151 -145 -151c-39 0 -91 8 -123 21l15 79l10 6c22 -28 57 -69 107 -69c52 0 82 38 82 80s-33 66 -74 90c-59 34 -128 72 -128 140c0 55 46 90 93 120c32 20 55 43 55 71c0 64 -103 92 -143 92
c-57 0 -62 -71 -62 -155v-461c-13 1 -35 2 -56 2c-31 0 -64 -1 -86 -3l8 22c20 5 44 13 59 23c4 14 5 30 5 57v374c0 37 6 76 19 94c32 45 119 101 158 101c53 0 154 -32 154 -110c0 -63 -44 -95 -85 -123c-30 -20 -53 -42 -53 -77z" />
    <glyph glyph-name="agrave" unicode="&#xe0;" horiz-adv-x="422" 
d="M406 60l9 -18c-40 -24 -100 -58 -125 -58c-23 0 -33 37 -36 69c-64 -45 -104 -69 -134 -69c-54 0 -93 60 -93 104c0 63 29 83 91 104c37 13 88 25 136 36v66c0 53 -19 76 -67 76c-26 0 -53 -10 -61 -17l-2 -55c-15 -7 -45 -16 -60 -20c-4 4 -5 11 -5 20c0 18 5 43 11 50
c20 22 117 72 157 72c68 0 98 -44 98 -106v-223c0 -37 3 -44 16 -44c17 0 47 7 65 13zM254 82v115c-18 -2 -52 -8 -76 -15c-37 -12 -72 -33 -72 -75c0 -31 19 -62 63 -62c27 0 69 26 85 37zM274 482l-18 -22c-53 27 -165 124 -189 155l73 35c20 -36 86 -124 134 -168z" />
    <glyph glyph-name="aacute" unicode="&#xe1;" horiz-adv-x="422" 
d="M406 60l9 -18c-40 -24 -100 -58 -125 -58c-23 0 -33 37 -36 69c-64 -45 -104 -69 -134 -69c-54 0 -93 60 -93 104c0 63 29 83 91 104c37 13 88 25 136 36v66c0 53 -19 76 -67 76c-26 0 -53 -10 -61 -17l-2 -55c-15 -7 -45 -16 -60 -20c-4 4 -5 11 -5 20c0 18 5 43 11 50
c20 22 117 72 157 72c68 0 98 -44 98 -106v-223c0 -37 3 -44 16 -44c17 0 47 7 65 13zM254 82v115c-18 -2 -52 -8 -76 -15c-37 -12 -72 -33 -72 -75c0 -31 19 -62 63 -62c27 0 69 26 85 37zM166 460l-17 21c54 42 121 132 140 167l71 -32c-28 -35 -138 -127 -194 -156z" />
    <glyph glyph-name="acircumflex" unicode="&#xe2;" horiz-adv-x="422" 
d="M406 60l9 -18c-40 -24 -100 -58 -125 -58c-23 0 -33 37 -36 69c-64 -45 -104 -69 -134 -69c-54 0 -93 60 -93 104c0 63 29 83 91 104c37 13 88 25 136 36v66c0 53 -19 76 -67 76c-26 0 -53 -10 -61 -17l-2 -55c-15 -7 -45 -16 -60 -20c-4 4 -5 11 -5 20c0 18 5 43 11 50
c20 22 117 72 157 72c68 0 98 -44 98 -106v-223c0 -37 3 -44 16 -44c17 0 47 7 65 13zM254 82v115c-18 -2 -52 -8 -76 -15c-37 -12 -72 -33 -72 -75c0 -31 19 -62 63 -62c27 0 69 26 85 37zM222 649l104 -179l-18 -10l-113 106l-99 -108l-20 13l112 171z" />
    <glyph glyph-name="atilde" unicode="&#xe3;" horiz-adv-x="422" 
d="M406 60l9 -18c-40 -24 -100 -58 -125 -58c-23 0 -33 37 -36 69c-64 -45 -104 -69 -134 -69c-54 0 -93 60 -93 104c0 63 29 83 91 104c37 13 88 25 136 36v66c0 53 -19 76 -67 76c-26 0 -53 -10 -61 -17l-2 -55c-15 -7 -45 -16 -60 -20c-4 4 -5 11 -5 20c0 18 5 43 11 50
c20 22 117 72 157 72c68 0 98 -44 98 -106v-223c0 -37 3 -44 16 -44c17 0 47 7 65 13zM254 82v115c-18 -2 -52 -8 -76 -15c-37 -12 -72 -33 -72 -75c0 -31 19 -62 63 -62c27 0 69 26 85 37zM143 525c-26 0 -62 -34 -76 -49l-13 14c15 19 78 99 110 99c34 0 88 -53 126 -53
c23 0 48 21 67 43l15 -12c-19 -28 -76 -91 -100 -91c-31 0 -82 49 -129 49z" />
    <glyph glyph-name="adieresis" unicode="&#xe4;" horiz-adv-x="422" 
d="M406 60l9 -18c-40 -24 -100 -58 -125 -58c-23 0 -33 37 -36 69c-64 -45 -104 -69 -134 -69c-54 0 -93 60 -93 104c0 63 29 83 91 104c37 13 88 25 136 36v66c0 53 -19 76 -67 76c-26 0 -53 -10 -61 -17l-2 -55c-15 -7 -45 -16 -60 -20c-4 4 -5 11 -5 20c0 18 5 43 11 50
c20 22 117 72 157 72c68 0 98 -44 98 -106v-223c0 -37 3 -44 16 -44c17 0 47 7 65 13zM254 82v115c-18 -2 -52 -8 -76 -15c-37 -12 -72 -33 -72 -75c0 -31 19 -62 63 -62c27 0 69 26 85 37zM130 476l-44 35c18 24 37 56 47 76l55 -36c-16 -23 -39 -55 -58 -75zM279 473
l-44 34c17 24 35 52 47 76l53 -36c-14 -23 -39 -55 -56 -74z" />
    <glyph glyph-name="aring" unicode="&#xe5;" horiz-adv-x="422" 
d="M114 538c0 59 56 96 93 96c47 0 82 -23 82 -70c0 -59 -54 -104 -98 -104c-40 0 -77 25 -77 78zM155 543c0 -35 22 -52 44 -52c34 0 48 30 48 65c0 29 -19 49 -45 49c-31 0 -47 -31 -47 -62zM406 60l9 -18c-40 -24 -100 -58 -125 -58c-23 0 -33 37 -36 69
c-64 -45 -104 -69 -134 -69c-54 0 -93 60 -93 104c0 63 29 83 91 104c37 13 88 25 136 36v66c0 53 -19 76 -67 76c-26 0 -53 -10 -61 -17l-2 -55c-15 -7 -45 -16 -60 -20c-4 4 -5 11 -5 20c0 18 5 43 11 50c20 22 117 72 157 72c68 0 98 -44 98 -106v-223
c0 -37 3 -44 16 -44c17 0 47 7 65 13zM254 82v115c-18 -2 -52 -8 -76 -15c-37 -12 -72 -33 -72 -75c0 -31 19 -62 63 -62c27 0 69 26 85 37z" />
    <glyph glyph-name="ae" unicode="&#xe6;" horiz-adv-x="626" 
d="M577 81l7 -27c-49 -31 -126 -70 -167 -70c-61 0 -104 38 -131 82c-55 -37 -121 -82 -160 -82c-54 0 -99 58 -99 109c0 56 29 78 85 98c39 13 87 25 139 37v66c0 53 -21 76 -69 76c-29 0 -52 -10 -59 -16v-55c-11 -5 -49 -17 -62 -21c-4 4 -5 11 -5 20c0 16 3 34 8 45
c2 4 3 6 6 8c25 24 115 69 154 69c55 0 85 -29 94 -72c40 35 99 72 129 72c107 0 144 -98 144 -155l-33 -26c-42 -5 -152 -12 -235 -17c0 -86 52 -174 128 -174c39 0 83 14 126 33zM272 92c-16 38 -21 68 -21 105c-14 -1 -93 -13 -125 -43c-13 -11 -20 -30 -20 -49
c0 -30 20 -60 66 -60c27 0 81 33 100 47zM417 370c-53 0 -93 -72 -93 -120c42 4 181 22 194 26c-1 31 -22 94 -101 94z" />
    <glyph glyph-name="ccedilla" unicode="&#xe7;" horiz-adv-x="396" 
d="M220 420c46 0 107 -9 136 -23c-9 -22 -28 -55 -38 -67c-31 21 -70 45 -107 45c-59 0 -114 -49 -114 -155c0 -95 56 -173 126 -173c50 0 95 19 126 34l7 -27c-44 -27 -114 -64 -158 -69l-5 -28c45 -9 90 -31 90 -75c0 -45 -29 -78 -61 -93c-22 -4 -63 -11 -86 -12l-9 19
c33 5 114 18 114 68c0 33 -57 44 -91 46l-5 5l25 71c-96 12 -149 118 -149 203c0 49 11 93 37 126c29 39 117 105 162 105z" />
    <glyph glyph-name="egrave" unicode="&#xe8;" horiz-adv-x="400" 
d="M351 81l7 -27c-71 -42 -132 -70 -167 -70c-104 0 -169 116 -169 196c0 62 17 104 36 131c25 38 121 109 164 109c94 0 142 -79 142 -155l-32 -26c-33 -5 -156 -13 -234 -17c0 -86 52 -174 128 -174c39 0 82 14 125 33zM193 370c-55 0 -94 -72 -94 -120
c44 4 167 20 193 26c0 31 -22 94 -99 94zM295 482l-18 -22c-53 27 -165 124 -189 155l73 35c20 -36 86 -124 134 -168z" />
    <glyph glyph-name="eacute" unicode="&#xe9;" horiz-adv-x="400" 
d="M351 81l7 -27c-71 -42 -132 -70 -167 -70c-104 0 -169 116 -169 196c0 62 17 104 36 131c25 38 121 109 164 109c94 0 142 -79 142 -155l-32 -26c-33 -5 -156 -13 -234 -17c0 -86 52 -174 128 -174c39 0 82 14 125 33zM193 370c-55 0 -94 -72 -94 -120
c44 4 167 20 193 26c0 31 -22 94 -99 94zM170 460l-17 21c54 42 121 132 140 167l71 -32c-28 -35 -138 -127 -194 -156z" />
    <glyph glyph-name="ecircumflex" unicode="&#xea;" horiz-adv-x="400" 
d="M351 81l7 -27c-71 -42 -132 -70 -167 -70c-104 0 -169 116 -169 196c0 62 17 104 36 131c25 38 121 109 164 109c94 0 142 -79 142 -155l-32 -26c-33 -5 -156 -13 -234 -17c0 -86 52 -174 128 -174c39 0 82 14 125 33zM193 370c-55 0 -94 -72 -94 -120
c44 4 167 20 193 26c0 31 -22 94 -99 94zM235 649l104 -179l-18 -10l-113 106l-99 -108l-20 13l112 171z" />
    <glyph glyph-name="edieresis" unicode="&#xeb;" horiz-adv-x="400" 
d="M351 81l7 -27c-71 -42 -132 -70 -167 -70c-104 0 -169 116 -169 196c0 62 17 104 36 131c25 38 121 109 164 109c94 0 142 -79 142 -155l-32 -26c-33 -5 -156 -13 -234 -17c0 -86 52 -174 128 -174c39 0 82 14 125 33zM193 370c-55 0 -94 -72 -94 -120
c44 4 167 20 193 26c0 31 -22 94 -99 94zM139 476l-44 35c18 24 37 56 47 76l55 -36c-16 -23 -39 -55 -58 -75zM288 473l-44 34c17 24 35 52 47 76l53 -36c-14 -23 -39 -55 -56 -74z" />
    <glyph glyph-name="igrave" unicode="&#xec;" horiz-adv-x="254" 
d="M156 311v-233c0 -16 2 -25 7 -33c17 -10 40 -19 70 -26l-8 -20c-38 2 -65 2 -90 2c-30 0 -59 0 -110 -2l3 20c24 8 42 18 55 29c3 9 5 28 5 40v174c0 42 -3 94 -10 101c-16 7 -37 12 -59 12l-6 19c53 4 107 13 148 23c-4 -46 -5 -84 -5 -106zM190 482l-18 -22
c-53 27 -165 124 -189 155l73 35c20 -36 86 -124 134 -168z" />
    <glyph glyph-name="iacute" unicode="&#xed;" horiz-adv-x="254" 
d="M156 311v-233c0 -16 2 -25 7 -33c17 -10 40 -19 70 -26l-8 -20c-38 2 -65 2 -90 2c-30 0 -59 0 -110 -2l3 20c24 8 42 18 55 29c3 9 5 28 5 40v174c0 42 -3 94 -10 101c-16 7 -37 12 -59 12l-6 19c53 4 107 13 148 23c-4 -46 -5 -84 -5 -106zM75 460l-17 21
c54 42 121 132 140 167l71 -32c-28 -35 -138 -127 -194 -156z" />
    <glyph glyph-name="icircumflex" unicode="&#xee;" horiz-adv-x="254" 
d="M156 311v-233c0 -16 2 -25 7 -33c17 -10 40 -19 70 -26l-8 -20c-38 2 -65 2 -90 2c-30 0 -59 0 -110 -2l3 20c24 8 42 18 55 29c3 9 5 28 5 40v174c0 42 -3 94 -10 101c-16 7 -37 12 -59 12l-6 19c53 4 107 13 148 23c-4 -46 -5 -84 -5 -106zM125 649l104 -179l-18 -10
l-113 106l-99 -108l-20 13l112 171z" />
    <glyph glyph-name="idieresis" unicode="&#xef;" horiz-adv-x="254" 
d="M156 311v-233c0 -16 2 -25 7 -33c17 -10 40 -19 70 -26l-8 -20c-38 2 -65 2 -90 2c-30 0 -59 0 -110 -2l3 20c24 8 42 18 55 29c3 9 5 28 5 40v174c0 42 -3 94 -10 101c-16 7 -37 12 -59 12l-6 19c53 4 107 13 148 23c-4 -46 -5 -84 -5 -106zM33 476l-44 35
c18 24 37 56 47 76l55 -36c-16 -23 -39 -55 -58 -75zM182 473l-44 34c17 24 35 52 47 76l53 -36c-14 -23 -39 -55 -56 -74z" />
    <glyph glyph-name="eth" unicode="&#xf0;" horiz-adv-x="475" 
d="M107 494l-16 33l122 52c-37 30 -83 51 -142 67l24 31c51 -10 107 -29 169 -72l102 46l20 -32l-87 -40c62 -58 131 -169 131 -306c0 -75 -13 -144 -45 -189c-35 -50 -97 -100 -166 -100c-121 0 -192 100 -192 210c0 55 17 100 51 136c35 38 99 86 146 86
c37 0 91 -22 117 -47c-16 77 -60 145 -97 181zM104 225c0 -98 47 -194 137 -194c86 0 113 84 113 182c0 32 -2 61 -12 92c-24 30 -67 64 -127 64c-76 0 -111 -70 -111 -144z" />
    <glyph glyph-name="ntilde" unicode="&#xf1;" horiz-adv-x="516" 
d="M153 344c12 7 29 18 45 30c34 22 72 46 90 46c19 0 58 -6 96 -37c41 -32 43 -85 43 -118v-195c0 -10 2 -23 7 -27c13 -10 35 -19 69 -25l-6 -21c-46 4 -69 4 -90 4c-16 0 -40 0 -92 -4l3 21c15 4 29 10 36 19c3 7 6 19 6 33v142c0 5 0 41 -4 66c-5 38 -33 79 -88 79
c-33 0 -82 -27 -114 -47v-225c0 -18 1 -37 5 -43c12 -8 33 -17 68 -21l-7 -23c-45 4 -74 4 -93 4c-22 0 -67 0 -104 -4l2 23c19 3 42 13 54 22c3 9 3 29 3 40v210c0 40 -5 56 -10 63c-15 7 -40 12 -63 13l-4 17c42 10 93 25 131 41c8 -27 13 -57 17 -83zM209 525
c-26 0 -62 -34 -76 -49l-13 14c15 19 78 99 110 99c34 0 88 -53 126 -53c23 0 48 21 67 43l15 -12c-19 -28 -76 -91 -100 -91c-31 0 -82 49 -129 49z" />
    <glyph glyph-name="ograve" unicode="&#xf2;" horiz-adv-x="470" 
d="M224 420c133 0 205 -98 205 -197c0 -63 -14 -109 -43 -146c-30 -39 -100 -93 -156 -93c-129 0 -206 100 -206 210c0 55 20 97 51 136c28 35 97 90 149 90zM98 225c0 -100 58 -192 150 -192c77 0 108 72 108 145c0 106 -57 196 -143 196c-76 0 -115 -75 -115 -149z
M314 482l-18 -22c-53 27 -165 124 -189 155l73 35c20 -36 86 -124 134 -168z" />
    <glyph glyph-name="oacute" unicode="&#xf3;" horiz-adv-x="470" 
d="M224 420c133 0 205 -98 205 -197c0 -63 -14 -109 -43 -146c-30 -39 -100 -93 -156 -93c-129 0 -206 100 -206 210c0 55 20 97 51 136c28 35 97 90 149 90zM98 225c0 -100 58 -192 150 -192c77 0 108 72 108 145c0 106 -57 196 -143 196c-76 0 -115 -75 -115 -149z
M182 460l-17 21c54 42 121 132 140 167l71 -32c-28 -35 -138 -127 -194 -156z" />
    <glyph glyph-name="ocircumflex" unicode="&#xf4;" horiz-adv-x="470" 
d="M224 420c133 0 205 -98 205 -197c0 -63 -14 -109 -43 -146c-30 -39 -100 -93 -156 -93c-129 0 -206 100 -206 210c0 55 20 97 51 136c28 35 97 90 149 90zM98 225c0 -100 58 -192 150 -192c77 0 108 72 108 145c0 106 -57 196 -143 196c-76 0 -115 -75 -115 -149z
M253 649l104 -179l-18 -10l-113 106l-99 -108l-20 13l112 171z" />
    <glyph glyph-name="otilde" unicode="&#xf5;" horiz-adv-x="470" 
d="M224 420c133 0 205 -98 205 -197c0 -63 -14 -109 -43 -146c-30 -39 -100 -93 -156 -93c-129 0 -206 100 -206 210c0 55 20 97 51 136c28 35 97 90 149 90zM98 225c0 -100 58 -192 150 -192c77 0 108 72 108 145c0 106 -57 196 -143 196c-76 0 -115 -75 -115 -149z
M174 525c-26 0 -62 -34 -76 -49l-13 14c15 19 78 99 110 99c34 0 88 -53 126 -53c23 0 48 21 67 43l15 -12c-19 -28 -76 -91 -100 -91c-31 0 -82 49 -129 49z" />
    <glyph glyph-name="odieresis" unicode="&#xf6;" horiz-adv-x="470" 
d="M224 420c133 0 205 -98 205 -197c0 -63 -14 -109 -43 -146c-30 -39 -100 -93 -156 -93c-129 0 -206 100 -206 210c0 55 20 97 51 136c28 35 97 90 149 90zM98 225c0 -100 58 -192 150 -192c77 0 108 72 108 145c0 106 -57 196 -143 196c-76 0 -115 -75 -115 -149z
M161 476l-44 35c18 24 37 56 47 76l55 -36c-16 -23 -39 -55 -58 -75zM310 473l-44 34c17 24 35 52 47 76l53 -36c-14 -23 -39 -55 -56 -74z" />
    <glyph glyph-name="divide" unicode="&#xf7;" horiz-adv-x="400" 
d="M200 277c-22 0 -34 16 -34 36c0 30 24 49 49 49c21 0 34 -17 34 -36c0 -27 -23 -49 -49 -49zM190 77c-23 0 -35 17 -35 36c0 30 23 48 49 48c22 0 34 -15 34 -36c0 -26 -23 -48 -48 -48zM31 186l12 56h322l9 -9l-11 -41c-21 1 -48 1 -75 1c-89 0 -195 -2 -257 -7z" />
    <glyph glyph-name="oslash" unicode="&#xf8;" horiz-adv-x="470" 
d="M224 420c40 0 74 -9 102 -24l42 71l30 -18l-42 -72c48 -38 73 -96 73 -154c0 -63 -14 -109 -43 -146c-30 -39 -100 -93 -156 -93c-36 0 -67 8 -94 21l-49 -84l-28 19l48 82c-54 39 -83 103 -83 172c0 55 20 97 51 136c28 35 97 90 149 90zM98 225c0 -54 15 -106 44 -142
l153 259c-22 21 -51 32 -82 32c-76 0 -115 -75 -115 -149zM356 178c0 52 -13 101 -37 137l-151 -256c22 -17 49 -26 80 -26c77 0 108 72 108 145z" />
    <glyph glyph-name="ugrave" unicode="&#xf9;" horiz-adv-x="517" 
d="M348 62c-17 -9 -40 -24 -63 -40c-30 -20 -61 -38 -78 -38c-85 0 -128 68 -134 148c-1 7 -1 14 -1 21v156c0 20 -1 38 -3 42c-16 9 -45 15 -69 17l-6 16c49 10 106 23 150 39c-3 -43 -3 -101 -3 -136v-89c0 -10 0 -46 4 -72c5 -37 33 -79 83 -79c37 0 91 30 118 49v212
c0 15 -2 48 -8 55c-8 7 -37 15 -55 18l-6 17c53 5 106 12 142 21c-2 -72 -3 -120 -3 -153v-158c0 -27 1 -43 5 -51c5 -10 15 -12 32 -12c14 0 32 1 41 2l4 -14c-37 -12 -90 -35 -128 -54l-8 5c-7 21 -12 50 -14 78zM323 482l-18 -22c-53 27 -165 124 -189 155l73 35
c20 -36 86 -124 134 -168z" />
    <glyph glyph-name="uacute" unicode="&#xfa;" horiz-adv-x="517" 
d="M348 62c-17 -9 -40 -24 -63 -40c-30 -20 -61 -38 -78 -38c-85 0 -128 68 -134 148c-1 7 -1 14 -1 21v156c0 20 -1 38 -3 42c-16 9 -45 15 -69 17l-6 16c49 10 106 23 150 39c-3 -43 -3 -101 -3 -136v-89c0 -10 0 -46 4 -72c5 -37 33 -79 83 -79c37 0 91 30 118 49v212
c0 15 -2 48 -8 55c-8 7 -37 15 -55 18l-6 17c53 5 106 12 142 21c-2 -72 -3 -120 -3 -153v-158c0 -27 1 -43 5 -51c5 -10 15 -12 32 -12c14 0 32 1 41 2l4 -14c-37 -12 -90 -35 -128 -54l-8 5c-7 21 -12 50 -14 78zM214 460l-17 21c54 42 121 132 140 167l71 -32
c-28 -35 -138 -127 -194 -156z" />
    <glyph glyph-name="ucircumflex" unicode="&#xfb;" horiz-adv-x="517" 
d="M348 62c-17 -9 -40 -24 -63 -40c-30 -20 -61 -38 -78 -38c-85 0 -128 68 -134 148c-1 7 -1 14 -1 21v156c0 20 -1 38 -3 42c-16 9 -45 15 -69 17l-6 16c49 10 106 23 150 39c-3 -43 -3 -101 -3 -136v-89c0 -10 0 -46 4 -72c5 -37 33 -79 83 -79c37 0 91 30 118 49v212
c0 15 -2 48 -8 55c-8 7 -37 15 -55 18l-6 17c53 5 106 12 142 21c-2 -72 -3 -120 -3 -153v-158c0 -27 1 -43 5 -51c5 -10 15 -12 32 -12c14 0 32 1 41 2l4 -14c-37 -12 -90 -35 -128 -54l-8 5c-7 21 -12 50 -14 78zM263 649l104 -179l-18 -10l-113 106l-99 -108l-20 13
l112 171z" />
    <glyph glyph-name="udieresis" unicode="&#xfc;" horiz-adv-x="517" 
d="M348 62c-17 -9 -40 -24 -63 -40c-30 -20 -61 -38 -78 -38c-85 0 -128 68 -134 148c-1 7 -1 14 -1 21v156c0 20 -1 38 -3 42c-16 9 -45 15 -69 17l-6 16c49 10 106 23 150 39c-3 -43 -3 -101 -3 -136v-89c0 -10 0 -46 4 -72c5 -37 33 -79 83 -79c37 0 91 30 118 49v212
c0 15 -2 48 -8 55c-8 7 -37 15 -55 18l-6 17c53 5 106 12 142 21c-2 -72 -3 -120 -3 -153v-158c0 -27 1 -43 5 -51c5 -10 15 -12 32 -12c14 0 32 1 41 2l4 -14c-37 -12 -90 -35 -128 -54l-8 5c-7 21 -12 50 -14 78zM173 476l-44 35c18 24 37 56 47 76l55 -36
c-16 -23 -39 -55 -58 -75zM322 473l-44 34c17 24 35 52 47 76l53 -36c-14 -23 -39 -55 -56 -74z" />
    <glyph glyph-name="yacute" unicode="&#xfd;" horiz-adv-x="448" 
d="M382 322c-18 -37 -91 -195 -131 -295l-124 -302l-75 38c58 63 111 152 137 222c-38 96 -104 253 -123 303c-8 21 -26 60 -37 72c-6 6 -21 12 -32 14l-10 22c39 2 81 10 119 19c10 -51 24 -89 39 -129l81 -220l117 280c1 3 2 7 2 9c0 5 -3 8 -8 10c-9 3 -38 12 -59 18
l-6 21c15 -1 29 -1 42 -1c37 0 71 2 105 8l4 -15c-17 -24 -32 -56 -41 -74zM196 460l-17 21c54 42 121 132 140 167l71 -32c-28 -35 -138 -127 -194 -156z" />
    <glyph glyph-name="thorn" unicode="&#xfe;" horiz-adv-x="496" 
d="M137 551v-207c30 19 57 38 85 54c21 14 42 22 55 22c112 0 170 -101 170 -197c0 -54 -20 -103 -51 -140c-51 -60 -112 -92 -164 -92c-33 0 -76 9 -96 17v-182c0 -12 2 -35 7 -42c18 -11 55 -21 86 -27l-9 -23c-31 3 -66 4 -99 4c-39 0 -79 -1 -116 -4l6 23
c17 4 40 13 52 26c3 12 5 38 5 64v702c0 42 -1 72 -5 78c-17 10 -47 14 -75 14l-7 21c41 5 127 19 166 33c-6 -42 -10 -106 -10 -144zM137 313v-235c26 -15 80 -42 127 -42c68 0 106 79 106 161c0 93 -38 157 -126 157c-30 0 -85 -27 -107 -41z" />
    <glyph glyph-name="ydieresis" unicode="&#xff;" horiz-adv-x="448" 
d="M382 322c-18 -37 -91 -195 -131 -295l-124 -302l-75 38c58 63 111 152 137 222c-38 96 -104 253 -123 303c-8 21 -26 60 -37 72c-6 6 -21 12 -32 14l-10 22c39 2 81 10 119 19c10 -51 24 -89 39 -129l81 -220l117 280c1 3 2 7 2 9c0 5 -3 8 -8 10c-9 3 -38 12 -59 18
l-6 21c15 -1 29 -1 42 -1c37 0 71 2 105 8l4 -15c-17 -24 -32 -56 -41 -74zM150 476l-44 35c18 24 37 56 47 76l55 -36c-16 -23 -39 -55 -58 -75zM299 473l-44 34c17 24 35 52 47 76l53 -36c-14 -23 -39 -55 -56 -74z" />
    <glyph glyph-name="Amacron" unicode="&#x100;" horiz-adv-x="660" 
d="M488 74l-73 183h-211l-72 -189c-2 -6 -3 -10 -3 -16c0 -14 61 -24 102 -27l-13 -28c-39 3 -83 5 -104 5c-19 0 -57 -1 -99 -5l8 25c23 4 44 15 54 36c21 40 199 487 216 553l59 9c37 -118 208 -529 224 -554c14 -22 43 -39 79 -44l-11 -24c-48 4 -98 5 -117 5
c-21 0 -83 -3 -117 -6l8 25c48 4 77 11 77 24c0 8 -3 19 -7 28zM308 541l-88 -244h179zM191 699l8 34h261l-7 -23l-5 -30h-262z" />
    <glyph glyph-name="amacron" unicode="&#x101;" horiz-adv-x="422" 
d="M406 60l9 -18c-40 -24 -100 -58 -125 -58c-23 0 -33 37 -36 69c-64 -45 -104 -69 -134 -69c-54 0 -93 60 -93 104c0 63 29 83 91 104c37 13 88 25 136 36v66c0 53 -19 76 -67 76c-26 0 -53 -10 -61 -17l-2 -55c-15 -7 -45 -16 -60 -20c-4 4 -5 11 -5 20c0 18 5 43 11 50
c20 22 117 72 157 72c68 0 98 -44 98 -106v-223c0 -37 3 -44 16 -44c17 0 47 7 65 13zM254 82v115c-18 -2 -52 -8 -76 -15c-37 -12 -72 -33 -72 -75c0 -31 19 -62 63 -62c27 0 69 26 85 37zM94 509l7 34h237l-6 -23l-5 -30h-238z" />
    <glyph glyph-name="Abreve" unicode="&#x102;" horiz-adv-x="660" 
d="M488 74l-73 183h-211l-72 -189c-2 -6 -3 -10 -3 -16c0 -14 61 -24 102 -27l-13 -28c-39 3 -83 5 -104 5c-19 0 -57 -1 -99 -5l8 25c23 4 44 15 54 36c21 40 199 487 216 553l59 9c37 -118 208 -529 224 -554c14 -22 43 -39 79 -44l-11 -24c-48 4 -98 5 -117 5
c-21 0 -83 -3 -117 -6l8 25c48 4 77 11 77 24c0 8 -3 19 -7 28zM308 541l-88 -244h179zM323 656c-66 0 -112 71 -125 106l61 27c11 -24 45 -76 84 -76c43 0 82 41 103 77l25 -11c-33 -65 -93 -123 -148 -123z" />
    <glyph glyph-name="abreve" unicode="&#x103;" horiz-adv-x="422" 
d="M406 60l9 -18c-40 -24 -100 -58 -125 -58c-23 0 -33 37 -36 69c-64 -45 -104 -69 -134 -69c-54 0 -93 60 -93 104c0 63 29 83 91 104c37 13 88 25 136 36v66c0 53 -19 76 -67 76c-26 0 -53 -10 -61 -17l-2 -55c-15 -7 -45 -16 -60 -20c-4 4 -5 11 -5 20c0 18 5 43 11 50
c20 22 117 72 157 72c68 0 98 -44 98 -106v-223c0 -37 3 -44 16 -44c17 0 47 7 65 13zM254 82v115c-18 -2 -52 -8 -76 -15c-37 -12 -72 -33 -72 -75c0 -31 19 -62 63 -62c27 0 69 26 85 37zM203 466c-66 0 -112 71 -125 106l61 27c11 -24 45 -76 84 -76c43 0 82 41 103 77
l25 -11c-33 -65 -93 -123 -148 -123z" />
    <glyph glyph-name="Aogonek" unicode="&#x104;" horiz-adv-x="661" 
d="M482 92l-65 165h-211l-74 -189c-3 -8 -4 -12 -4 -16c0 -5 2 -10 7 -13c15 -8 70 -17 97 -18l-11 -24c-39 3 -95 5 -116 5c-19 0 -44 -1 -90 -5l8 25c19 3 44 14 54 33c23 43 201 494 219 560l52 10c47 -137 212 -533 229 -559c14 -22 45 -39 79 -44l-11 -24
c-27 3 -58 7 -90 7c-20 0 -48 -4 -64 -13c-28 -15 -66 -62 -66 -117c0 -40 16 -82 52 -82c17 0 46 9 64 17l8 -15c-27 -17 -88 -50 -107 -50c-54 0 -81 55 -81 97c0 33 15 66 29 83c26 34 57 63 86 89c13 11 18 22 18 35c0 11 -4 25 -12 43zM309 539l-87 -242h178z" />
    <glyph glyph-name="aogonek" unicode="&#x105;" horiz-adv-x="422" 
d="M406 60l9 -18c-20 -12 -43 -25 -65 -37c-44 -24 -96 -65 -96 -113c0 -39 13 -80 49 -80c16 0 39 9 57 18l8 -16c-34 -18 -86 -50 -106 -50c-46 0 -71 60 -71 95c0 43 18 71 34 85c12 13 33 28 57 42c-18 8 -27 41 -31 67c-64 -45 -101 -69 -131 -69c-54 0 -93 60 -93 104
c0 63 29 83 91 104c37 13 85 25 133 36v66c0 53 -18 76 -66 76c-26 0 -50 -9 -58 -16l-2 -55c-15 -7 -46 -17 -61 -21c-4 4 -5 11 -5 20c0 18 5 43 11 50c20 22 117 72 157 72c68 0 98 -44 98 -106v-223c0 -37 3 -44 16 -44c17 0 47 7 65 13zM251 82v115
c-18 -2 -49 -8 -73 -15c-37 -12 -72 -33 -72 -75c0 -31 19 -62 63 -62c27 0 66 26 82 37z" />
    <glyph glyph-name="Cacute" unicode="&#x106;" horiz-adv-x="630" 
d="M139 323c0 -162 101 -298 243 -298c64 0 107 18 128 31c24 29 44 63 69 113l11 -8c-14 -51 -28 -106 -38 -157c-36 -8 -109 -20 -182 -20c-162 0 -317 108 -317 327c0 71 21 126 53 169c49 65 172 144 242 144c77 0 170 -24 212 -42c-2 -61 -2 -115 -2 -172l-14 -4
c-15 45 -26 84 -40 115c-34 27 -93 51 -177 51c-118 0 -188 -123 -188 -249zM264 658l-13 20c57 29 149 95 180 127l69 -43c-34 -26 -182 -86 -236 -104z" />
    <glyph glyph-name="cacute" unicode="&#x107;" horiz-adv-x="396" 
d="M220 420c46 0 107 -9 136 -23c-9 -22 -28 -55 -38 -67c-31 21 -70 45 -107 45c-59 0 -114 -49 -114 -155c0 -95 56 -173 126 -173c50 0 95 19 126 34l7 -27c-47 -29 -124 -70 -167 -70c-108 0 -168 115 -168 205c0 49 11 93 37 126c29 39 117 105 162 105zM180 460
l-17 21c54 42 121 132 140 167l71 -32c-28 -35 -138 -127 -194 -156z" />
    <glyph glyph-name="Ccircumflex" unicode="&#x108;" horiz-adv-x="630" 
d="M139 323c0 -162 101 -298 243 -298c64 0 107 18 128 31c24 29 44 63 69 113l11 -8c-14 -51 -28 -106 -38 -157c-36 -8 -109 -20 -182 -20c-162 0 -317 108 -317 327c0 71 21 126 53 169c49 65 172 144 242 144c77 0 170 -24 212 -42c-2 -61 -2 -115 -2 -172l-14 -4
c-15 45 -26 84 -40 115c-34 27 -93 51 -177 51c-118 0 -188 -123 -188 -249zM389 793l104 -125l-21 -14l-103 68l-100 -70l-21 15l111 126h30z" />
    <glyph glyph-name="ccircumflex" unicode="&#x109;" horiz-adv-x="396" 
d="M220 420c46 0 107 -9 136 -23c-9 -22 -28 -55 -38 -67c-31 21 -70 45 -107 45c-59 0 -114 -49 -114 -155c0 -95 56 -173 126 -173c50 0 95 19 126 34l7 -27c-47 -29 -124 -70 -167 -70c-108 0 -168 115 -168 205c0 49 11 93 37 126c29 39 117 105 162 105zM248 649
l104 -179l-18 -10l-113 106l-99 -108l-20 13l112 171z" />
    <glyph glyph-name="Cdotaccent" unicode="&#x10a;" horiz-adv-x="630" 
d="M139 323c0 -162 101 -298 243 -298c64 0 107 18 128 31c24 29 44 63 69 113l11 -8c-14 -51 -28 -106 -38 -157c-36 -8 -109 -20 -182 -20c-162 0 -317 108 -317 327c0 71 21 126 53 169c49 65 172 144 242 144c77 0 170 -24 212 -42c-2 -61 -2 -115 -2 -172l-14 -4
c-15 45 -26 84 -40 115c-34 27 -93 51 -177 51c-118 0 -188 -123 -188 -249zM360 670l-47 46c25 33 46 70 58 89c6 -5 44 -39 56 -47c-16 -27 -47 -65 -67 -88z" />
    <glyph glyph-name="cdotaccent" unicode="&#x10b;" horiz-adv-x="396" 
d="M220 420c46 0 107 -9 136 -23c-9 -22 -28 -55 -38 -67c-31 21 -70 45 -107 45c-59 0 -114 -49 -114 -155c0 -95 56 -173 126 -173c50 0 95 19 126 34l7 -27c-47 -29 -124 -70 -167 -70c-108 0 -168 115 -168 205c0 49 11 93 37 126c29 39 117 105 162 105zM224 480
l-47 46c25 33 46 70 58 89c6 -5 44 -39 56 -47c-16 -27 -47 -65 -67 -88z" />
    <glyph glyph-name="Ccaron" unicode="&#x10c;" horiz-adv-x="630" 
d="M139 323c0 -162 101 -298 243 -298c64 0 107 18 128 31c24 29 44 63 69 113l11 -8c-14 -51 -28 -106 -38 -157c-36 -8 -109 -20 -182 -20c-162 0 -317 108 -317 327c0 71 21 126 53 169c49 65 172 144 242 144c77 0 170 -24 212 -42c-2 -61 -2 -115 -2 -172l-14 -4
c-15 45 -26 84 -40 115c-34 27 -93 51 -177 51c-118 0 -188 -123 -188 -249zM359 658l-116 86l67 47l73 -76l135 74l10 -24l-146 -107h-23z" />
    <glyph glyph-name="ccaron" unicode="&#x10d;" horiz-adv-x="396" 
d="M220 420c46 0 107 -9 136 -23c-9 -22 -28 -55 -38 -67c-31 21 -70 45 -107 45c-59 0 -114 -49 -114 -155c0 -95 56 -173 126 -173c50 0 95 19 126 34l7 -27c-47 -29 -124 -70 -167 -70c-108 0 -168 115 -168 205c0 49 11 93 37 126c29 39 117 105 162 105zM214 460
l-102 107l67 39l56 -82l119 90l17 -21l-137 -133h-20z" />
    <glyph glyph-name="Dcaron" unicode="&#x10e;" horiz-adv-x="688" 
d="M305 614c181 0 333 -125 333 -292c0 -223 -150 -328 -311 -328c-51 0 -87 2 -124 4c-26 2 -50 3 -74 3c-26 0 -51 -1 -82 -4l8 25c22 2 52 10 64 20c4 11 8 28 8 62v432c0 13 -3 30 -8 37c-7 6 -44 13 -65 15l-9 25c29 -4 58 -5 88 -5c26 0 54 1 84 3s59 3 88 3zM201 516
v-417c0 -16 1 -37 3 -47c27 -11 76 -17 117 -17c147 0 234 107 234 281c0 170 -117 255 -255 255c-35 0 -74 -3 -92 -11c-6 -9 -7 -28 -7 -44zM288 658l-116 86l67 47l73 -76l135 74l10 -24l-146 -107h-23z" />
    <glyph glyph-name="dcaron" unicode="&#x10f;" horiz-adv-x="516" 
d="M444 626l45 69c21 -11 54 -33 54 -82c0 -43 -42 -124 -73 -161l-22 14c19 27 32 66 32 93c0 30 -15 55 -36 67zM488 58l8 -19l-142 -64l-7 3c-5 11 -17 56 -17 82c-45 -35 -107 -76 -140 -76c-110 0 -171 107 -171 199c0 54 19 103 51 140c41 47 138 97 172 97
c22 0 74 -17 90 -24v128c0 40 -1 90 -6 101c-18 10 -43 15 -70 15l-6 22c52 3 124 14 164 24c-9 -58 -13 -147 -13 -187v-413c0 -27 3 -38 23 -38c17 0 46 6 64 10zM330 92v235c-33 18 -83 43 -125 43c-65 0 -108 -84 -108 -160c0 -95 48 -158 127 -158c40 0 85 26 106 40z
" />
    <glyph glyph-name="Dcroat" unicode="&#x110;" horiz-adv-x="688" 
d="M305 614c181 0 333 -125 333 -292c0 -223 -150 -328 -311 -328c-51 0 -87 2 -124 4c-26 2 -50 3 -74 3c-26 0 -51 -1 -82 -4l8 25c22 2 52 10 64 20c4 11 8 28 8 62v188h-76v45h76v199c0 13 -3 30 -8 37c-7 6 -44 13 -65 15l-9 25c29 -4 58 -5 88 -5c26 0 54 1 84 3
s59 3 88 3zM337 292h-137v-202c0 -16 2 -37 4 -47c27 -11 76 -17 117 -17c147 0 237 111 237 290c0 174 -120 259 -258 259c-35 0 -74 -3 -92 -11c-6 -9 -7 -28 -7 -44v-183h136v-45z" />
    <glyph glyph-name="dcroat" unicode="&#x111;" horiz-adv-x="502" 
d="M488 58l8 -19l-142 -64l-7 3c-5 11 -17 56 -17 82c-45 -35 -107 -76 -140 -76c-110 0 -171 107 -171 199c0 54 19 103 51 140c41 47 138 97 172 97c22 0 74 -17 90 -24v110h-136l2 41h134c0 34 -2 68 -6 78c-18 10 -43 15 -70 15l-6 22c52 3 124 14 164 24
c-7 -40 -10 -92 -12 -137c31 1 60 3 88 5l-9 -47h-80v-421c0 -27 3 -38 23 -38c17 0 46 6 64 10zM330 92v235c-33 18 -83 43 -125 43c-65 0 -108 -84 -108 -160c0 -95 48 -158 127 -158c40 0 85 26 106 40z" />
    <glyph glyph-name="Emacron" unicode="&#x112;" horiz-adv-x="536" 
d="M487 166l19 -1c-8 -46 -31 -130 -45 -169c-62 5 -114 6 -184 6c-55 0 -137 -1 -232 -5l8 25c20 2 55 12 66 20c5 12 8 35 8 55v432c0 14 -3 31 -8 37c-12 9 -40 14 -61 16l-9 29c41 -3 107 -4 160 -4c77 0 152 2 232 11c2 -71 3 -122 8 -177l-13 -1
c-14 38 -33 86 -44 109c-4 9 -6 11 -12 12c-13 3 -47 4 -81 4c-42 0 -87 -2 -94 -7c-4 -10 -4 -26 -4 -49v-167c17 -1 41 -1 66 -1c38 0 77 1 97 3l24 56l13 -2c-2 -30 -3 -57 -3 -76c0 -37 1 -68 5 -97l-14 -1l-30 65c-25 2 -55 2 -91 2c-23 0 -49 0 -68 -1v-197
c0 -16 1 -32 5 -42c30 -4 75 -6 116 -6c27 0 52 1 69 2c23 3 35 6 41 15c19 25 42 72 56 104zM118 699l8 34h273l-7 -23l-6 -30h-273z" />
    <glyph glyph-name="emacron" unicode="&#x113;" horiz-adv-x="400" 
d="M351 81l7 -27c-71 -42 -132 -70 -167 -70c-104 0 -169 116 -169 196c0 62 17 104 36 131c25 38 121 109 164 109c94 0 142 -79 142 -155l-32 -26c-33 -5 -156 -13 -234 -17c0 -86 52 -174 128 -174c39 0 82 14 125 33zM193 370c-55 0 -94 -72 -94 -120
c44 4 167 20 193 26c0 31 -22 94 -99 94zM104 509l7 34h237l-6 -23l-5 -30h-238z" />
    <glyph glyph-name="Ebreve" unicode="&#x114;" horiz-adv-x="536" 
d="M487 166l19 -1c-8 -46 -31 -130 -45 -169c-62 5 -114 6 -184 6c-55 0 -137 -1 -232 -5l8 25c20 2 55 12 66 20c5 12 8 35 8 55v432c0 14 -3 31 -8 37c-12 9 -40 14 -61 16l-9 29c41 -3 107 -4 160 -4c77 0 152 2 232 11c2 -71 3 -122 8 -177l-13 -1
c-14 38 -33 86 -44 109c-4 9 -6 11 -12 12c-13 3 -47 4 -81 4c-42 0 -87 -2 -94 -7c-4 -10 -4 -26 -4 -49v-167c17 -1 41 -1 66 -1c38 0 77 1 97 3l24 56l13 -2c-2 -30 -3 -57 -3 -76c0 -37 1 -68 5 -97l-14 -1l-30 65c-25 2 -55 2 -91 2c-23 0 -49 0 -68 -1v-197
c0 -16 1 -32 5 -42c30 -4 75 -6 116 -6c27 0 52 1 69 2c23 3 35 6 41 15c19 25 42 72 56 104zM267 656c-66 0 -112 71 -125 106l61 27c11 -24 45 -76 84 -76c43 0 82 41 103 77l25 -11c-33 -65 -93 -123 -148 -123z" />
    <glyph glyph-name="ebreve" unicode="&#x115;" horiz-adv-x="400" 
d="M351 81l7 -27c-71 -42 -132 -70 -167 -70c-104 0 -169 116 -169 196c0 62 17 104 36 131c25 38 121 109 164 109c94 0 142 -79 142 -155l-32 -26c-33 -5 -156 -13 -234 -17c0 -86 52 -174 128 -174c39 0 82 14 125 33zM193 370c-55 0 -94 -72 -94 -120
c44 4 167 20 193 26c0 31 -22 94 -99 94zM200 466c-66 0 -112 71 -125 106l61 27c11 -24 45 -76 84 -76c43 0 82 41 103 77l25 -11c-33 -65 -93 -123 -148 -123z" />
    <glyph glyph-name="Edotaccent" unicode="&#x116;" horiz-adv-x="536" 
d="M487 166l19 -1c-8 -46 -31 -130 -45 -169c-62 5 -114 6 -184 6c-55 0 -137 -1 -232 -5l8 25c20 2 55 12 66 20c5 12 8 35 8 55v432c0 14 -3 31 -8 37c-12 9 -40 14 -61 16l-9 29c41 -3 107 -4 160 -4c77 0 152 2 232 11c2 -71 3 -122 8 -177l-13 -1
c-14 38 -33 86 -44 109c-4 9 -6 11 -12 12c-13 3 -47 4 -81 4c-42 0 -87 -2 -94 -7c-4 -10 -4 -26 -4 -49v-167c17 -1 41 -1 66 -1c38 0 77 1 97 3l24 56l13 -2c-2 -30 -3 -57 -3 -76c0 -37 1 -68 5 -97l-14 -1l-30 65c-25 2 -55 2 -91 2c-23 0 -49 0 -68 -1v-197
c0 -16 1 -32 5 -42c30 -4 75 -6 116 -6c27 0 52 1 69 2c23 3 35 6 41 15c19 25 42 72 56 104zM265 670l-47 46c25 33 46 70 58 89c6 -5 44 -39 56 -47c-16 -27 -47 -65 -67 -88z" />
    <glyph glyph-name="edotaccent" unicode="&#x117;" horiz-adv-x="400" 
d="M351 81l7 -27c-71 -42 -132 -70 -167 -70c-104 0 -169 116 -169 196c0 62 17 104 36 131c25 38 121 109 164 109c94 0 142 -79 142 -155l-32 -26c-33 -5 -156 -13 -234 -17c0 -86 52 -174 128 -174c39 0 82 14 125 33zM193 370c-55 0 -94 -72 -94 -120
c44 4 167 20 193 26c0 31 -22 94 -99 94zM207 480l-47 46c25 33 46 70 58 89c6 -5 44 -39 56 -47c-16 -27 -47 -65 -67 -88z" />
    <glyph glyph-name="Eogonek" unicode="&#x118;" horiz-adv-x="536" 
d="M487 166l19 -1c-8 -46 -31 -130 -45 -169h-5c-45 0 -105 -56 -105 -121c0 -40 13 -82 48 -82c18 0 46 9 64 17l7 -15c-23 -15 -85 -50 -105 -50c-52 0 -83 55 -83 97c0 33 13 64 29 83c21 24 47 48 88 75c-38 1 -76 2 -122 2c-55 0 -137 -1 -232 -5l8 25
c20 2 55 12 66 20c5 12 8 35 8 55v432c0 14 -3 31 -8 37c-12 9 -40 14 -61 16l-9 29c41 -3 107 -4 160 -4c77 0 152 2 232 11c2 -71 3 -122 8 -177l-13 -1c-14 38 -33 86 -44 109c-4 9 -6 11 -12 12c-13 3 -47 4 -81 4c-42 0 -87 -2 -94 -7c-4 -10 -4 -26 -4 -49v-167
c17 -1 41 -1 66 -1c38 0 77 1 97 3l24 56l13 -2c-2 -30 -3 -57 -3 -76c0 -37 1 -63 5 -92l-14 -1l-30 65c-23 1 -61 2 -97 2c-23 0 -45 0 -62 -1v-202c0 -16 1 -32 5 -42c30 -4 75 -6 116 -6c27 0 52 1 69 2c23 3 35 6 41 15c19 25 42 72 56 104z" />
    <glyph glyph-name="eogonek" unicode="&#x119;" horiz-adv-x="400" 
d="M351 81l7 -27c-11 -7 -22 -15 -33 -21c-54 -32 -93 -90 -93 -136c0 -43 17 -87 54 -87c16 0 40 8 57 18l8 -16c-23 -15 -80 -50 -97 -50c-49 0 -82 58 -82 105c0 29 11 55 23 72c11 15 29 37 53 59c-25 -10 -42 -14 -57 -14c-104 0 -169 116 -169 196c0 62 17 104 36 131
c25 38 121 109 164 109c94 0 142 -79 142 -155l-32 -26c-33 -5 -156 -13 -234 -17c0 -86 52 -174 128 -174c39 0 82 14 125 33zM193 370c-55 0 -94 -72 -94 -120c44 4 167 20 193 26c0 31 -22 94 -99 94z" />
    <glyph glyph-name="Ecaron" unicode="&#x11a;" horiz-adv-x="536" 
d="M487 166l19 -1c-8 -46 -31 -130 -45 -169c-62 5 -114 6 -184 6c-55 0 -137 -1 -232 -5l8 25c20 2 55 12 66 20c5 12 8 35 8 55v432c0 14 -3 31 -8 37c-12 9 -40 14 -61 16l-9 29c41 -3 107 -4 160 -4c77 0 152 2 232 11c2 -71 3 -122 8 -177l-13 -1
c-14 38 -33 86 -44 109c-4 9 -6 11 -12 12c-13 3 -47 4 -81 4c-42 0 -87 -2 -94 -7c-4 -10 -4 -26 -4 -49v-167c17 -1 41 -1 66 -1c38 0 77 1 97 3l24 56l13 -2c-2 -30 -3 -57 -3 -76c0 -37 1 -68 5 -97l-14 -1l-30 65c-25 2 -55 2 -91 2c-23 0 -49 0 -68 -1v-197
c0 -16 1 -32 5 -42c30 -4 75 -6 116 -6c27 0 52 1 69 2c23 3 35 6 41 15c19 25 42 72 56 104zM248 658l-116 86l67 47l73 -76l135 74l10 -24l-146 -107h-23z" />
    <glyph glyph-name="ecaron" unicode="&#x11b;" horiz-adv-x="400" 
d="M351 81l7 -27c-71 -42 -132 -70 -167 -70c-104 0 -169 116 -169 196c0 62 17 104 36 131c25 38 121 109 164 109c94 0 142 -79 142 -155l-32 -26c-33 -5 -156 -13 -234 -17c0 -86 52 -174 128 -174c39 0 82 14 125 33zM193 370c-55 0 -94 -72 -94 -120
c44 4 167 20 193 26c0 31 -22 94 -99 94zM207 460l-102 107l67 39l56 -82l119 90l17 -21l-137 -133h-20z" />
    <glyph glyph-name="Gcircumflex" unicode="&#x11c;" horiz-adv-x="681" 
d="M584 185v-77c0 -30 3 -61 8 -83c-53 -28 -142 -41 -219 -41c-172 0 -320 120 -320 326c0 77 20 128 52 170c49 64 178 142 245 142c77 0 184 -22 226 -41c-1 -28 -2 -58 -2 -87s1 -58 2 -87l-18 -4c-13 47 -27 89 -38 115c-36 31 -109 54 -185 54
c-117 0 -196 -110 -196 -255c0 -146 93 -292 249 -292c53 0 99 18 123 33v122c0 14 -2 40 -6 47c-17 9 -40 15 -63 17l-10 26c31 -2 70 -3 106 -3c37 0 72 1 99 3l4 -23c-18 -2 -41 -9 -52 -17c-4 -10 -5 -28 -5 -45zM392 793l104 -125l-21 -14l-103 68l-100 -70l-21 15
l111 126h30z" />
    <glyph glyph-name="gcircumflex" unicode="&#x11d;" horiz-adv-x="445" 
d="M341 263c0 -94 -78 -136 -122 -151c-75 -26 -95 -37 -95 -53c0 -20 31 -29 90 -34c105 -9 193 -27 193 -110c0 -69 -110 -170 -207 -170c-118 0 -193 72 -193 162c1 6 7 14 13 21c17 21 50 49 77 69c-17 10 -39 40 -39 74c8 6 71 30 91 42c-70 14 -125 72 -125 139
c0 100 81 165 151 165c68 0 96 -20 110 -26c6 -1 12 -1 19 -1c28 0 65 7 94 16l19 -58h-101c16 -18 25 -53 25 -85zM344 -110c0 38 -47 57 -97 67c-48 9 -95 16 -123 18c-11 -9 -39 -35 -39 -67c0 -60 50 -118 151 -118c40 0 108 30 108 100zM92 282c0 -63 47 -130 107 -130
c54 0 76 41 76 87c0 56 -36 137 -105 137c-53 0 -78 -46 -78 -94zM215 649l104 -179l-18 -10l-113 106l-99 -108l-20 13l112 171z" />
    <glyph glyph-name="Gbreve" unicode="&#x11e;" horiz-adv-x="681" 
d="M584 185v-77c0 -30 3 -61 8 -83c-53 -28 -142 -41 -219 -41c-172 0 -320 120 -320 326c0 77 20 128 52 170c49 64 178 142 245 142c77 0 184 -22 226 -41c-1 -28 -2 -58 -2 -87s1 -58 2 -87l-18 -4c-13 47 -27 89 -38 115c-36 31 -109 54 -185 54
c-117 0 -196 -110 -196 -255c0 -146 93 -292 249 -292c53 0 99 18 123 33v122c0 14 -2 40 -6 47c-17 9 -40 15 -63 17l-10 26c31 -2 70 -3 106 -3c37 0 72 1 99 3l4 -23c-18 -2 -41 -9 -52 -17c-4 -10 -5 -28 -5 -45zM371 656c-66 0 -112 71 -125 106l61 27
c11 -24 45 -76 84 -76c43 0 82 41 103 77l25 -11c-33 -65 -93 -123 -148 -123z" />
    <glyph glyph-name="gbreve" unicode="&#x11f;" horiz-adv-x="445" 
d="M341 263c0 -94 -78 -136 -122 -151c-75 -26 -95 -37 -95 -53c0 -20 31 -29 90 -34c105 -9 193 -27 193 -110c0 -69 -110 -170 -207 -170c-118 0 -193 72 -193 162c1 6 7 14 13 21c17 21 50 49 77 69c-17 10 -39 40 -39 74c8 6 71 30 91 42c-70 14 -125 72 -125 139
c0 100 81 165 151 165c68 0 96 -20 110 -26c6 -1 12 -1 19 -1c28 0 65 7 94 16l19 -58h-101c16 -18 25 -53 25 -85zM344 -110c0 38 -47 57 -97 67c-48 9 -95 16 -123 18c-11 -9 -39 -35 -39 -67c0 -60 50 -118 151 -118c40 0 108 30 108 100zM92 282c0 -63 47 -130 107 -130
c54 0 76 41 76 87c0 56 -36 137 -105 137c-53 0 -78 -46 -78 -94zM182 466c-66 0 -112 71 -125 106l61 27c11 -24 45 -76 84 -76c43 0 82 41 103 77l25 -11c-33 -65 -93 -123 -148 -123z" />
    <glyph glyph-name="Gdotaccent" unicode="&#x120;" horiz-adv-x="681" 
d="M584 185v-77c0 -30 3 -61 8 -83c-53 -28 -142 -41 -219 -41c-172 0 -320 120 -320 326c0 77 20 128 52 170c49 64 178 142 245 142c77 0 184 -22 226 -41c-1 -28 -2 -58 -2 -87s1 -58 2 -87l-18 -4c-13 47 -27 89 -38 115c-36 31 -109 54 -185 54
c-117 0 -196 -110 -196 -255c0 -146 93 -292 249 -292c53 0 99 18 123 33v122c0 14 -2 40 -6 47c-17 9 -40 15 -63 17l-10 26c31 -2 70 -3 106 -3c37 0 72 1 99 3l4 -23c-18 -2 -41 -9 -52 -17c-4 -10 -5 -28 -5 -45zM363 670l-47 46c25 33 46 70 58 89c6 -5 44 -39 56 -47
c-16 -27 -47 -65 -67 -88z" />
    <glyph glyph-name="gdotaccent" unicode="&#x121;" horiz-adv-x="445" 
d="M341 263c0 -94 -78 -136 -122 -151c-75 -26 -95 -37 -95 -53c0 -20 31 -29 90 -34c105 -9 193 -27 193 -110c0 -69 -110 -170 -207 -170c-118 0 -193 72 -193 162c1 6 7 14 13 21c17 21 50 49 77 69c-17 10 -39 40 -39 74c8 6 71 30 91 42c-70 14 -125 72 -125 139
c0 100 81 165 151 165c68 0 96 -20 110 -26c6 -1 12 -1 19 -1c28 0 65 7 94 16l19 -58h-101c16 -18 25 -53 25 -85zM344 -110c0 38 -47 57 -97 67c-48 9 -95 16 -123 18c-11 -9 -39 -35 -39 -67c0 -60 50 -118 151 -118c40 0 108 30 108 100zM92 282c0 -63 47 -130 107 -130
c54 0 76 41 76 87c0 56 -36 137 -105 137c-53 0 -78 -46 -78 -94zM185 480l-47 46c25 33 46 70 58 89c6 -5 44 -39 56 -47c-16 -27 -47 -65 -67 -88z" />
    <glyph glyph-name="Gcommaaccent" unicode="&#x122;" horiz-adv-x="681" 
d="M584 185v-77c0 -30 3 -61 8 -83c-53 -28 -142 -41 -219 -41c-172 0 -320 120 -320 326c0 77 20 128 52 170c49 64 178 142 245 142c77 0 184 -22 226 -41c-1 -28 -2 -58 -2 -87s1 -58 2 -87l-18 -4c-13 47 -27 89 -38 115c-36 31 -109 54 -185 54
c-117 0 -196 -110 -196 -255c0 -146 93 -292 249 -292c53 0 99 18 123 33v122c0 14 -2 40 -6 47c-17 9 -40 15 -63 17l-10 26c31 -2 70 -3 106 -3c37 0 72 1 99 3l4 -23c-18 -2 -41 -9 -52 -17c-4 -10 -5 -28 -5 -45zM308 -120l43 74c15 -5 76 -39 76 -81
c0 -38 -50 -100 -84 -124l-19 15c23 22 49 49 49 77c0 26 -39 35 -65 39z" />
    <glyph glyph-name="gcommaaccent" unicode="&#x123;" horiz-adv-x="445" 
d="M242 542l-44 -74c-15 5 -77 38 -77 81c0 37 51 99 85 124l20 -15c-23 -22 -50 -50 -50 -77c0 -26 39 -36 66 -39zM341 263c0 -94 -78 -136 -122 -151c-75 -26 -95 -37 -95 -53c0 -20 31 -29 90 -34c105 -9 193 -27 193 -110c0 -69 -110 -170 -207 -170
c-118 0 -193 72 -193 162c1 6 7 14 13 21c17 21 50 49 77 69c-17 10 -39 40 -39 74c8 6 71 30 91 42c-70 14 -125 72 -125 139c0 100 81 165 151 165c68 0 96 -20 110 -26c6 -1 12 -1 19 -1c28 0 65 7 94 16l19 -58h-101c16 -18 25 -53 25 -85zM344 -110c0 38 -47 57 -97 67
c-48 9 -95 16 -123 18c-11 -9 -39 -35 -39 -67c0 -60 50 -118 151 -118c40 0 108 30 108 100zM92 282c0 -63 47 -130 107 -130c54 0 76 41 76 87c0 56 -36 137 -105 137c-53 0 -78 -46 -78 -94z" />
    <glyph glyph-name="Hcircumflex" unicode="&#x124;" horiz-adv-x="712" 
d="M517 336v186c0 14 -4 34 -7 41c-15 10 -47 16 -68 18l-8 28c33 -1 76 -3 117 -3c38 0 74 2 101 3l6 -27c-20 -2 -49 -7 -62 -15c-4 -13 -6 -46 -6 -65v-408c0 -18 1 -34 4 -46c15 -11 57 -20 88 -24l-10 -25c-33 2 -71 3 -110 3c-36 0 -74 -1 -111 -3l7 25
c20 4 45 13 52 22c3 11 7 35 7 67v178h-318v-206c0 -11 1 -29 4 -39c9 -7 51 -19 84 -24l-8 -23c-28 2 -62 3 -96 3c-44 0 -87 -2 -121 -4l5 25c21 4 44 12 53 21c3 10 5 26 5 47v436c0 19 -4 34 -8 40c-12 7 -46 14 -65 15l-7 30c43 -3 92 -5 137 -5c31 0 60 1 85 2l4 -26
c-21 -2 -54 -8 -66 -16c-4 -11 -6 -45 -6 -72v-159h318zM378 793l104 -125l-21 -14l-103 68l-100 -70l-21 15l111 126h30z" />
    <glyph glyph-name="hcircumflex" unicode="&#x125;" horiz-adv-x="509" 
d="M75 84v507c0 20 -2 33 -7 36c-12 9 -43 14 -72 14l-8 21c53 6 124 18 168 33c-4 -34 -10 -106 -10 -144v-206c19 11 43 26 67 42c29 18 57 33 71 33c32 0 80 -19 104 -45c26 -30 33 -60 33 -116v-177c0 -22 2 -36 6 -39c14 -10 36 -19 70 -25l-7 -21c-45 4 -68 4 -89 4
c-16 0 -41 0 -93 -4l3 21c15 4 29 10 36 19c3 6 5 18 5 42v133c0 19 0 44 -3 66c-8 55 -51 79 -88 79c-35 0 -81 -23 -115 -46v-224c0 -22 1 -37 6 -45c7 -7 40 -19 66 -24l-7 -20c-36 2 -68 4 -100 4s-63 -2 -95 -4l4 21c14 3 36 12 50 22c4 6 5 26 5 43zM119 864l104 -125
l-21 -14l-103 68l-100 -70l-21 15l111 126h30z" />
    <glyph glyph-name="Hbar" unicode="&#x126;" horiz-adv-x="712" 
d="M48 443l3 41h74v43c0 19 -4 34 -8 40c-12 7 -46 14 -65 15l-7 30c43 -3 92 -5 137 -5c31 0 60 1 85 2l4 -26c-21 -2 -54 -8 -66 -16c-4 -11 -6 -42 -6 -83h318v38c0 14 -4 34 -7 41c-15 10 -47 16 -68 18l-8 28c33 -1 76 -3 117 -3c38 0 74 2 101 3l6 -27
c-20 -2 -49 -7 -62 -15c-4 -13 -6 -48 -6 -81h68l-5 -42h-63v-350c0 -18 1 -34 4 -46c15 -11 57 -20 88 -24l-10 -25c-33 2 -71 3 -110 3c-36 0 -74 -1 -111 -3l7 25c20 4 45 13 52 22c3 11 7 35 7 67v178h-318v-206c0 -11 1 -29 4 -39c9 -7 51 -19 84 -24l-8 -23
c-28 2 -62 3 -96 3c-44 0 -87 -2 -121 -4l5 25c21 4 44 12 53 21c3 10 5 26 5 47v352h-77zM517 336v107h-318v-107h318z" />
    <glyph glyph-name="hbar" unicode="&#x127;" horiz-adv-x="509" 
d="M75 84v410h-73l4 40h69v57c0 20 -2 33 -7 36c-14 10 -47 14 -72 14l-8 21c53 6 124 18 168 33c-4 -34 -10 -106 -10 -144v-16c73 1 149 5 230 13l-8 -53h-222v-150c19 11 43 26 67 42c29 18 57 33 71 33c32 0 80 -19 104 -45c26 -30 33 -60 33 -116v-177
c0 -22 2 -36 6 -39c14 -10 36 -19 70 -25l-7 -21c-45 4 -68 4 -89 4c-16 0 -41 0 -93 -4l3 21c15 4 29 10 36 19c3 6 5 18 5 42v133c0 19 0 44 -3 66c-8 55 -51 79 -88 79c-35 0 -81 -23 -115 -46v-224c0 -22 1 -37 6 -45c7 -7 40 -19 66 -24l-7 -20c-36 2 -68 4 -100 4
s-63 -2 -95 -4l4 21c14 3 36 12 50 22c4 6 5 26 5 43z" />
    <glyph glyph-name="Itilde" unicode="&#x128;" horiz-adv-x="320" 
d="M133 114v415c0 14 -3 32 -8 38c-15 9 -44 14 -65 16l-9 30c41 -4 86 -5 130 -5c33 0 68 1 97 3l5 -28c-23 -2 -61 -9 -71 -17c-4 -8 -6 -27 -6 -44v-428c0 -16 1 -41 4 -48c12 -8 61 -20 93 -24l-11 -23c-42 2 -78 3 -113 3c-36 0 -75 -1 -124 -3l8 26c24 3 52 12 62 20
c5 13 8 47 8 69zM110 715c-23 0 -56 -34 -68 -49l-12 14c14 19 70 99 99 99c30 0 79 -53 113 -53c21 0 43 21 60 43l13 -12c-17 -28 -68 -91 -89 -91c-28 0 -74 49 -116 49z" />
    <glyph glyph-name="itilde" unicode="&#x129;" horiz-adv-x="254" 
d="M156 311v-233c0 -16 2 -25 7 -33c17 -10 40 -19 70 -26l-8 -20c-38 2 -65 2 -90 2c-30 0 -59 0 -110 -2l3 20c24 8 42 18 55 29c3 9 5 28 5 40v174c0 42 -3 94 -10 101c-16 7 -37 12 -59 12l-6 19c53 4 107 13 148 23c-4 -46 -5 -84 -5 -106zM43 525
c-26 0 -62 -34 -76 -49l-13 14c15 19 78 99 110 99c34 0 88 -53 126 -53c23 0 48 21 67 43l15 -12c-19 -28 -76 -91 -100 -91c-31 0 -82 49 -129 49z" />
    <glyph glyph-name="Imacron" unicode="&#x12a;" horiz-adv-x="321" 
d="M133 114v415c0 14 -3 32 -8 38c-15 9 -44 14 -65 16l-9 30c41 -4 86 -5 130 -5c33 0 68 1 97 3l5 -28c-23 -2 -61 -9 -71 -17c-4 -8 -6 -27 -6 -44v-428c0 -16 1 -41 4 -48c12 -8 61 -20 93 -24l-11 -23c-42 2 -78 3 -113 3c-36 0 -75 -1 -124 -3l8 26c24 3 52 12 62 20
c5 13 8 47 8 69zM52 699l7 34h237l-6 -23l-5 -30h-238z" />
    <glyph glyph-name="imacron" unicode="&#x12b;" horiz-adv-x="254" 
d="M156 311v-233c0 -16 2 -25 7 -33c17 -10 40 -19 70 -26l-8 -20c-38 2 -65 2 -90 2c-30 0 -59 0 -110 -2l3 20c24 8 42 18 55 29c3 9 5 28 5 40v174c0 42 -3 94 -10 101c-16 7 -37 12 -59 12l-6 19c53 4 107 13 148 23c-4 -46 -5 -84 -5 -106zM-15 506l7 34h237l-6 -23
l-5 -30h-238z" />
    <glyph glyph-name="Ibreve" unicode="&#x12c;" horiz-adv-x="321" 
d="M133 114v415c0 14 -3 32 -8 38c-15 9 -44 14 -65 16l-9 30c41 -4 86 -5 130 -5c33 0 68 1 97 3l5 -28c-23 -2 -61 -9 -71 -17c-4 -8 -6 -27 -6 -44v-428c0 -16 1 -41 4 -48c12 -8 61 -20 93 -24l-11 -23c-42 2 -78 3 -113 3c-36 0 -75 -1 -124 -3l8 26c24 3 52 12 62 20
c5 13 8 47 8 69zM174 656c-66 0 -112 71 -125 106l61 27c11 -24 45 -76 84 -76c43 0 82 41 103 77l25 -11c-33 -65 -93 -123 -148 -123z" />
    <glyph glyph-name="ibreve" unicode="&#x12d;" horiz-adv-x="254" 
d="M156 311v-233c0 -16 2 -25 7 -33c17 -10 40 -19 70 -26l-8 -20c-38 2 -65 2 -90 2c-30 0 -59 0 -110 -2l3 20c24 8 42 18 55 29c3 9 5 28 5 40v174c0 42 -3 94 -10 101c-16 7 -37 12 -59 12l-6 19c53 4 107 13 148 23c-4 -46 -5 -84 -5 -106zM95 466
c-66 0 -112 71 -125 106l61 27c11 -24 45 -76 84 -76c43 0 82 41 103 77l25 -11c-33 -65 -93 -123 -148 -123z" />
    <glyph glyph-name="Iogonek" unicode="&#x12e;" horiz-adv-x="320" 
d="M128 114v415c0 14 -3 32 -8 38c-15 9 -44 14 -65 16l-9 30c41 -4 86 -5 130 -5c33 0 68 1 97 3l5 -28c-23 -2 -61 -9 -71 -17c-4 -8 -6 -27 -6 -44v-428c0 -16 1 -41 4 -48c12 -8 61 -20 93 -24l-11 -23h-7c-17 0 -32 -4 -52 -14c-34 -17 -76 -60 -76 -114
c0 -35 20 -78 56 -78c16 0 45 9 63 17l8 -15c-24 -14 -85 -50 -107 -50c-46 0 -84 51 -84 96c0 36 16 71 42 97c22 23 52 47 81 64h-37c-36 0 -75 -1 -124 -3l8 26c24 3 52 12 62 20c5 13 8 47 8 69z" />
    <glyph glyph-name="iogonek" unicode="&#x12f;" horiz-adv-x="254" 
d="M157 311v-233c0 -16 2 -25 7 -33c18 -10 40 -19 70 -26l-8 -20c-13 1 -24 2 -36 2c-17 0 -41 -2 -63 -14c-34 -18 -67 -62 -67 -108c0 -39 19 -86 55 -86c17 0 43 9 61 17l9 -15c-25 -14 -84 -50 -105 -50c-46 0 -84 51 -84 96c0 69 67 129 125 162c-21 0 -57 -1 -95 -4
l3 20c24 8 42 18 55 29c3 9 6 28 6 40v174c0 36 -4 93 -11 101c-18 7 -37 12 -59 12l-6 19c53 4 107 13 149 23c-5 -46 -6 -84 -6 -106zM124 500l-47 45c17 22 42 61 57 89c0 0 57 -47 58 -47c-18 -27 -47 -65 -68 -87z" />
    <glyph glyph-name="Idotaccent" unicode="&#x130;" horiz-adv-x="321" 
d="M133 114v415c0 14 -3 32 -8 38c-15 9 -44 14 -65 16l-9 30c41 -4 86 -5 130 -5c33 0 68 1 97 3l5 -28c-23 -2 -61 -9 -71 -17c-4 -8 -6 -27 -6 -44v-428c0 -16 1 -41 4 -48c12 -8 61 -20 93 -24l-11 -23c-42 2 -78 3 -113 3c-36 0 -75 -1 -124 -3l8 26c24 3 52 12 62 20
c5 13 8 47 8 69zM162 646l-47 46c25 33 46 70 58 89c6 -5 44 -39 56 -47c-16 -27 -47 -65 -67 -88z" />
    <glyph glyph-name="dotlessi" unicode="&#x131;" horiz-adv-x="254" 
d="M156 311v-233c0 -16 2 -25 7 -33c17 -10 40 -19 70 -26l-8 -20c-38 2 -65 2 -90 2c-30 0 -59 0 -110 -2l3 20c24 8 42 18 55 29c3 9 5 28 5 40v174c0 42 -3 94 -10 101c-16 7 -37 12 -59 12l-6 19c53 4 107 13 148 23c-4 -46 -5 -84 -5 -106z" />
    <glyph glyph-name="IJ" unicode="&#x132;" horiz-adv-x="607" 
d="M495 520v-375c0 -51 0 -106 -3 -153c-2 -37 -11 -82 -36 -117c-28 -39 -86 -104 -126 -142l-17 24c52 65 79 125 92 171c13 50 15 125 15 185v414c0 14 -2 32 -8 38c-16 9 -44 14 -65 16l-8 30c41 -4 89 -5 133 -5c33 0 62 2 94 5l6 -30c-24 -2 -62 -9 -72 -17
c-3 -8 -5 -27 -5 -44zM128 114v415c0 14 -3 32 -8 38c-15 9 -44 14 -65 16l-9 30c41 -4 86 -5 130 -5c33 0 68 1 97 3l5 -28c-23 -2 -61 -9 -71 -17c-4 -8 -6 -27 -6 -44v-428c0 -16 1 -41 4 -48c12 -8 61 -20 93 -24l-11 -23c-42 2 -78 3 -113 3c-36 0 -75 -1 -124 -3l8 26
c24 3 52 12 62 20c5 13 8 47 8 69z" />
    <glyph glyph-name="ij" unicode="&#x133;" horiz-adv-x="456" 
d="M157 311v-233c0 -16 2 -25 7 -33c18 -10 40 -19 70 -26l-8 -20c-33 4 -73 4 -94 4c-18 0 -61 0 -106 -4l3 20c24 8 42 18 55 29c3 9 6 28 6 40v174c0 36 -4 93 -11 101c-18 7 -37 12 -59 12l-6 19c53 4 107 13 149 23c-5 -46 -6 -84 -6 -106zM124 500l-47 45
c17 22 42 61 57 89c0 0 57 -47 58 -47c-18 -27 -47 -65 -68 -87zM378 31c0 -88 -15 -123 -34 -155c-17 -28 -90 -107 -120 -140l-14 25c32 41 74 101 88 151c13 38 13 112 13 135v218c0 36 -1 87 -10 98c-18 7 -38 12 -61 12l-5 19c54 4 108 13 149 23
c-4 -46 -6 -84 -6 -106v-280zM342 500l-47 45c27 36 56 89 56 89s57 -47 58 -47c-17 -27 -47 -65 -67 -87z" />
    <glyph glyph-name="Jcircumflex" unicode="&#x134;" horiz-adv-x="304" 
d="M197 520v-375c0 -51 0 -106 -3 -153c-2 -37 -11 -82 -36 -117c-28 -39 -86 -104 -126 -142l-17 24c52 65 79 125 92 171c13 50 15 125 15 185v414c0 14 -2 32 -8 38c-16 9 -44 14 -65 16l-8 30c41 -4 89 -5 133 -5c33 0 65 1 94 2l6 -27c-24 -2 -62 -9 -72 -17
c-3 -8 -5 -27 -5 -44zM174 793l104 -125l-21 -14l-103 68l-100 -70l-21 15l111 126h30z" />
    <glyph glyph-name="jcircumflex" unicode="&#x135;" horiz-adv-x="224" 
d="M146 31c0 -88 -15 -123 -35 -155c-17 -28 -89 -107 -119 -140l-14 25c31 41 72 101 88 151c12 38 13 112 13 135v218c0 36 -1 87 -11 98c-17 7 -37 12 -60 12l-6 19c55 4 108 13 150 23c-5 -46 -6 -84 -6 -106v-280zM121 646l104 -179l-18 -10l-113 106l-99 -108l-20 13
l112 171z" />
    <glyph glyph-name="Kcommaaccent" unicode="&#x136;" horiz-adv-x="626" 
d="M198 522l-1 -429c0 -18 1 -34 4 -46c12 -9 60 -21 88 -24l-10 -25c-32 2 -71 3 -110 3c-37 0 -74 -1 -111 -3l6 25c20 4 45 13 53 22c3 11 6 35 6 67v417c0 14 -2 32 -7 38c-16 9 -44 14 -65 16l-7 30c41 -4 88 -5 132 -5c33 0 54 1 83 3l5 -28c-23 -2 -50 -9 -61 -17
c-3 -8 -5 -27 -5 -44zM380 584l-7 25c26 -2 59 -4 95 -4s71 1 99 4l10 -25c-44 -8 -86 -36 -128 -75c-26 -24 -130 -124 -173 -174c45 -63 160 -193 213 -242c35 -32 76 -43 123 -44l-12 -30c-24 -2 -98 -18 -122 -27l-13 5c-73 93 -182 228 -250 311v15l215 229
c5 5 6 8 6 10c0 3 -2 5 -7 7c-11 5 -31 12 -49 15zM281 -120l43 74c15 -5 76 -39 76 -81c0 -38 -50 -100 -84 -124l-19 15c23 22 49 49 49 77c0 26 -39 35 -65 39z" />
    <glyph glyph-name="kcommaaccent" unicode="&#x137;" horiz-adv-x="484" 
d="M153 572v-500c0 -15 1 -27 6 -31c10 -8 44 -18 70 -20l-4 -23c-37 2 -71 3 -105 3c-28 0 -58 -1 -89 -3l3 22c14 3 32 13 42 20c4 6 5 21 5 38v493c0 28 -2 49 -9 57c-17 9 -48 17 -69 18c-2 4 -5 13 -8 20c51 4 128 15 166 27c-5 -27 -8 -84 -8 -121zM304 367
c-15 5 -41 11 -55 14l-7 25c20 -2 44 -3 69 -3c44 0 91 3 119 8l10 -25c-30 -6 -65 -21 -90 -38c-39 -27 -101 -82 -124 -105c50 -69 97 -126 142 -168c32 -30 67 -34 95 -34l-3 -21c-30 -3 -78 -18 -103 -28l-12 4c-59 74 -130 160 -185 226v14c58 48 118 102 144 131z
M189 -120l43 74c15 -5 76 -39 76 -81c0 -38 -50 -100 -84 -124l-19 15c23 22 49 49 49 77c0 26 -39 35 -65 39z" />
    <glyph glyph-name="kgreenlandic" unicode="&#x138;" horiz-adv-x="478" 
d="M153 301v-229c0 -15 1 -27 6 -31c10 -8 44 -18 70 -20l-4 -22c-37 2 -71 2 -105 2c-28 0 -58 0 -89 -2l3 21c14 3 32 13 42 20c4 6 5 21 5 38v221c0 29 -2 50 -9 57c-17 10 -48 18 -69 19c-2 3 -5 13 -8 20c51 3 128 15 166 27c-5 -27 -8 -84 -8 -121zM322 375
c-14 7 -41 13 -54 15l-7 26c19 -2 44 -3 70 -3c44 0 90 3 119 7l8 -24c-29 -7 -61 -18 -90 -39c-37 -26 -114 -108 -135 -133c49 -61 89 -106 139 -147c34 -28 67 -36 97 -36l-5 -21c-29 -3 -77 -18 -102 -28l-13 4c-60 73 -116 136 -179 206v14c56 48 136 136 152 159z" />
    <glyph glyph-name="Lacute" unicode="&#x139;" horiz-adv-x="537" 
d="M485 166h32c-15 -45 -33 -124 -44 -170c-61 5 -117 6 -187 6c-55 0 -138 -2 -234 -5l10 26c20 2 49 13 61 22c3 10 7 31 7 59v420c0 14 -1 37 -7 45c-11 6 -50 13 -72 15l-7 29c39 -3 93 -5 141 -5c33 0 64 1 88 3l5 -27c-26 -3 -61 -11 -69 -16c-5 -13 -6 -46 -6 -67
v-396c0 -27 1 -44 8 -55c8 -4 42 -5 81 -5c50 0 99 1 127 10c3 1 7 3 9 6c19 21 43 71 57 105zM89 658l-13 20c57 29 149 95 180 127l69 -43c-34 -26 -182 -86 -236 -104z" />
    <glyph glyph-name="lacute" unicode="&#x13a;" horiz-adv-x="252" 
d="M154 549v-450c0 -22 0 -42 4 -49c12 -10 46 -23 78 -29l-8 -22c-40 4 -74 4 -96 4c-27 0 -85 -1 -118 -4l3 21c21 5 45 17 61 30c3 9 4 33 4 44v439c0 32 -2 85 -10 92c-16 10 -43 16 -69 17l-7 20c58 4 123 13 165 23c-6 -53 -7 -111 -7 -136zM70 704l-17 21
c54 42 121 132 140 167l71 -32c-28 -35 -138 -127 -194 -156z" />
    <glyph glyph-name="Lcommaaccent" unicode="&#x13b;" horiz-adv-x="537" 
d="M485 166h32c-15 -45 -33 -124 -44 -170c-61 5 -117 6 -187 6c-55 0 -138 -2 -234 -5l10 26c20 2 49 13 61 22c3 10 7 31 7 59v420c0 14 -1 37 -7 45c-11 6 -50 13 -72 15l-7 29c39 -3 93 -5 141 -5c33 0 64 1 88 3l5 -27c-26 -3 -61 -11 -69 -16c-5 -13 -6 -46 -6 -67
v-396c0 -27 1 -44 8 -55c8 -4 42 -5 81 -5c50 0 99 1 127 10c3 1 7 3 9 6c19 21 43 71 57 105zM206 -120l43 74c15 -5 76 -39 76 -81c0 -38 -50 -100 -84 -124l-19 15c23 22 49 49 49 77c0 26 -39 35 -65 39z" />
    <glyph glyph-name="lcommaaccent" unicode="&#x13c;" horiz-adv-x="252" 
d="M154 549v-450c0 -22 0 -42 4 -49c12 -10 46 -23 78 -29l-8 -22c-40 4 -74 4 -96 4c-27 0 -85 -1 -118 -4l3 21c21 5 45 17 61 30c3 9 4 33 4 44v439c0 32 -2 85 -10 92c-16 10 -43 16 -69 17l-7 20c58 4 123 13 165 23c-6 -53 -7 -111 -7 -136zM64 -120l43 74
c15 -5 76 -39 76 -81c0 -38 -50 -100 -84 -124l-19 15c23 22 49 49 49 77c0 26 -39 35 -65 39z" />
    <glyph glyph-name="Lcaron" unicode="&#x13d;" horiz-adv-x="537" 
d="M485 166h32c-15 -45 -33 -124 -44 -170c-61 5 -117 6 -187 6c-55 0 -138 -2 -234 -5l10 26c20 2 49 13 61 22c3 10 7 31 7 59v420c0 14 -1 37 -7 45c-11 6 -50 13 -72 15l-7 29c39 -3 93 -5 141 -5c33 0 64 1 88 3l5 -27c-26 -3 -61 -11 -69 -16c-5 -13 -6 -46 -6 -67
v-396c0 -27 1 -44 8 -55c8 -4 42 -5 81 -5c50 0 99 1 127 10c3 1 7 3 9 6c19 21 43 71 57 105zM310 626l45 69c21 -11 54 -33 54 -82c0 -43 -42 -124 -73 -161l-22 14c19 27 32 66 32 93c0 30 -15 55 -36 67z" />
    <glyph glyph-name="lcaron" unicode="&#x13e;" horiz-adv-x="278" 
d="M154 549v-450c0 -22 0 -42 4 -49c12 -10 46 -23 78 -29l-8 -22c-40 4 -74 4 -96 4c-27 0 -85 -1 -118 -4l3 21c21 5 45 17 61 30c3 9 4 33 4 44v439c0 32 -2 85 -10 92c-16 10 -43 16 -69 17l-7 20c58 4 123 13 165 23c-6 -53 -7 -111 -7 -136zM191 626l45 69
c21 -11 54 -33 54 -82c0 -43 -42 -124 -73 -161l-22 14c19 27 32 66 32 93c0 30 -15 55 -36 67z" />
    <glyph glyph-name="Ldot" unicode="&#x13f;" horiz-adv-x="537" 
d="M485 166h32c-15 -45 -33 -124 -44 -170c-61 5 -117 6 -187 6c-55 0 -138 -2 -234 -5l10 26c20 2 49 13 61 22c3 10 7 31 7 59v420c0 14 -1 37 -7 45c-11 6 -50 13 -72 15l-7 29c39 -3 93 -5 141 -5c33 0 64 1 88 3l5 -27c-26 -3 -61 -11 -69 -16c-5 -13 -6 -46 -6 -67
v-396c0 -27 1 -44 8 -55c8 -4 42 -5 81 -5c50 0 99 1 127 10c3 1 7 3 9 6c19 21 43 71 57 105zM395 261l-47 46c25 33 46 70 58 89c6 -5 44 -39 56 -47c-16 -27 -47 -65 -67 -88z" />
    <glyph glyph-name="ldot" unicode="&#x140;" horiz-adv-x="320" 
d="M154 549v-450c0 -22 0 -42 4 -49c12 -10 46 -23 78 -29l-8 -22c-40 4 -74 4 -96 4c-27 0 -85 -1 -118 -4l3 21c21 5 45 17 61 30c3 9 4 33 4 44v439c0 32 -2 85 -10 92c-16 10 -43 16 -69 17l-7 20c58 4 123 13 165 23c-6 -53 -7 -111 -7 -136zM269 269l-47 46
c25 33 46 70 58 89c6 -5 44 -39 56 -47c-16 -27 -47 -65 -67 -88z" />
    <glyph glyph-name="Lslash" unicode="&#x141;" horiz-adv-x="537" 
d="M485 166h32c-15 -45 -33 -124 -44 -170c-61 5 -117 6 -187 6c-55 0 -138 -2 -234 -5l10 26c20 2 49 13 61 22c3 10 7 31 7 59v165l-73 -31v46l73 30v210c0 14 -1 37 -7 45c-11 6 -50 13 -72 15l-7 29c39 -2 93 -5 141 -5c33 0 64 1 88 3l5 -27c-26 -3 -61 -11 -69 -16
c-5 -13 -6 -46 -6 -67v-163l200 85v-46l-200 -85v-187c0 -27 1 -44 8 -55c8 -4 42 -5 81 -5c50 0 99 1 127 10c3 1 7 3 9 6c19 21 43 71 57 105z" />
    <glyph glyph-name="lslash" unicode="&#x142;" horiz-adv-x="275" 
d="M154 549v-164l82 42v-51l-82 -42v-235c0 -22 0 -42 4 -49c12 -10 46 -23 78 -29l-8 -22c-40 4 -74 4 -96 4c-27 0 -85 -1 -118 -4l3 21c21 5 45 17 61 30c3 9 4 33 4 44v212l-69 -36v51l69 35v177c0 32 -2 85 -10 92c-16 10 -43 16 -69 17l-7 20c58 4 123 13 165 23
c-6 -53 -7 -111 -7 -136z" />
    <glyph glyph-name="Nacute" unicode="&#x143;" horiz-adv-x="706" 
d="M603 513l-3 -396c0 -37 0 -71 3 -117l-37 -18c-56 86 -296 414 -396 548v-444c0 -15 1 -30 5 -40c5 -7 68 -22 90 -24l-9 -23c-31 2 -63 2 -96 2c-35 0 -73 -1 -105 -2l5 23c23 4 44 12 53 20c4 9 6 24 6 48v387c0 36 -2 82 -7 90c-12 7 -41 14 -60 16l-7 30
c35 -1 62 -4 90 -4c21 0 42 2 68 4l350 -488v396c0 14 -3 39 -8 45c-9 7 -46 15 -67 17l-9 28c34 -3 69 -4 106 -4s70 2 96 4l5 -28c-19 -1 -63 -10 -69 -16c-3 -6 -4 -32 -4 -54zM302 658l-13 20c57 29 149 95 180 127l69 -43c-34 -26 -182 -86 -236 -104z" />
    <glyph glyph-name="nacute" unicode="&#x144;" horiz-adv-x="516" 
d="M153 344c12 7 29 18 45 30c34 22 72 46 90 46c19 0 58 -6 96 -37c41 -32 43 -85 43 -118v-195c0 -10 2 -23 7 -27c13 -10 35 -19 69 -25l-6 -21c-46 4 -69 4 -90 4c-16 0 -40 0 -92 -4l3 21c15 4 29 10 36 19c3 7 6 19 6 33v142c0 5 0 41 -4 66c-5 38 -33 79 -88 79
c-33 0 -82 -27 -114 -47v-225c0 -18 1 -37 5 -43c12 -8 33 -17 68 -21l-7 -23c-45 4 -74 4 -93 4c-22 0 -67 0 -104 -4l2 23c19 3 42 13 54 22c3 9 3 29 3 40v210c0 40 -5 56 -10 63c-15 7 -40 12 -63 13l-4 17c42 10 93 25 131 41c8 -27 13 -57 17 -83zM230 460l-17 21
c54 42 121 132 140 167l71 -32c-28 -35 -138 -127 -194 -156z" />
    <glyph glyph-name="Ncommaaccent" unicode="&#x145;" horiz-adv-x="706" 
d="M603 513l-3 -396c0 -37 0 -71 3 -117l-37 -18c-56 86 -296 414 -396 548v-444c0 -15 1 -30 5 -40c5 -7 68 -22 90 -24l-9 -23c-31 2 -63 2 -96 2c-35 0 -73 -1 -105 -2l5 23c23 4 44 12 53 20c4 9 6 24 6 48v387c0 36 -2 82 -7 90c-12 7 -41 14 -60 16l-7 30
c35 -1 62 -4 90 -4c21 0 42 2 68 4l350 -488v396c0 14 -3 39 -8 45c-9 7 -46 15 -67 17l-9 28c34 -3 69 -4 106 -4s70 2 96 4l5 -28c-19 -1 -63 -10 -69 -16c-3 -6 -4 -32 -4 -54zM325 -120l43 74c15 -5 76 -39 76 -81c0 -38 -50 -100 -84 -124l-19 15c23 22 49 49 49 77
c0 26 -39 35 -65 39z" />
    <glyph glyph-name="ncommaaccent" unicode="&#x146;" horiz-adv-x="516" 
d="M153 344c12 7 29 18 45 30c34 22 72 46 90 46c19 0 58 -6 96 -37c41 -32 43 -85 43 -118v-195c0 -10 2 -23 7 -27c13 -10 35 -19 69 -25l-6 -21c-46 4 -69 4 -90 4c-16 0 -40 0 -92 -4l3 21c15 4 29 10 36 19c3 7 6 19 6 33v142c0 5 0 41 -4 66c-5 38 -33 79 -88 79
c-33 0 -82 -27 -114 -47v-225c0 -18 1 -37 5 -43c12 -8 33 -17 68 -21l-7 -23c-45 4 -74 4 -93 4c-22 0 -67 0 -104 -4l2 23c19 3 42 13 54 22c3 9 3 29 3 40v210c0 40 -5 56 -10 63c-15 7 -40 12 -63 13l-4 17c42 10 93 25 131 41c8 -27 13 -57 17 -83zM205 -120l43 74
c15 -5 76 -39 76 -81c0 -38 -50 -100 -84 -124l-19 15c23 22 49 49 49 77c0 26 -39 35 -65 39z" />
    <glyph glyph-name="Ncaron" unicode="&#x147;" horiz-adv-x="706" 
d="M603 513l-3 -396c0 -37 0 -71 3 -117l-37 -18c-56 86 -296 414 -396 548v-444c0 -15 1 -30 5 -40c5 -7 68 -22 90 -24l-9 -23c-31 2 -63 2 -96 2c-35 0 -73 -1 -105 -2l5 23c23 4 44 12 53 20c4 9 6 24 6 48v387c0 36 -2 82 -7 90c-12 7 -41 14 -60 16l-7 30
c35 -1 62 -4 90 -4c21 0 42 2 68 4l350 -488v396c0 14 -3 39 -8 45c-9 7 -46 15 -67 17l-9 28c34 -3 69 -4 106 -4s70 2 96 4l5 -28c-19 -1 -63 -10 -69 -16c-3 -6 -4 -32 -4 -54zM358 658l-116 86l67 47l73 -76l135 74l10 -24l-146 -107h-23z" />
    <glyph glyph-name="ncaron" unicode="&#x148;" horiz-adv-x="516" 
d="M153 344c12 7 29 18 45 30c34 22 72 46 90 46c19 0 58 -6 96 -37c41 -32 43 -85 43 -118v-195c0 -10 2 -23 7 -27c13 -10 35 -19 69 -25l-6 -21c-46 4 -69 4 -90 4c-16 0 -40 0 -92 -4l3 21c15 4 29 10 36 19c3 7 6 19 6 33v142c0 5 0 41 -4 66c-5 38 -33 79 -88 79
c-33 0 -82 -27 -114 -47v-225c0 -18 1 -37 5 -43c12 -8 33 -17 68 -21l-7 -23c-45 4 -74 4 -93 4c-22 0 -67 0 -104 -4l2 23c19 3 42 13 54 22c3 9 3 29 3 40v210c0 40 -5 56 -10 63c-15 7 -40 12 -63 13l-4 17c42 10 93 25 131 41c8 -27 13 -57 17 -83zM257 460l-102 107
l67 39l56 -82l119 90l17 -21l-137 -133h-20z" />
    <glyph glyph-name="napostrophe" unicode="&#x149;" horiz-adv-x="516" 
d="M153 344c12 7 29 18 45 30c34 22 72 46 90 46c19 0 58 -6 96 -37c41 -32 43 -85 43 -118v-195c0 -10 2 -23 7 -27c13 -10 35 -19 69 -25l-6 -21c-46 4 -69 4 -90 4c-16 0 -40 0 -92 -4l3 21c15 4 29 10 36 19c3 7 6 19 6 33v142c0 5 0 41 -4 66c-5 38 -33 79 -88 79
c-33 0 -82 -27 -114 -47v-225c0 -18 1 -37 5 -43c12 -8 33 -17 68 -21l-7 -23c-45 4 -74 4 -93 4c-22 0 -67 0 -104 -4l2 23c19 3 42 13 54 22c3 9 3 29 3 40v210c0 40 -5 56 -10 63c-15 7 -40 12 -63 13l-4 17c42 10 93 25 131 41c8 -27 13 -57 17 -83zM-29 613l51 73
c20 -10 69 -48 69 -85c0 -39 -49 -107 -90 -144l-13 16c25 24 49 57 49 90c0 25 -42 44 -66 50z" />
    <glyph glyph-name="Eng" unicode="&#x14a;" horiz-adv-x="706" 
d="M397 -236c89 66 122 138 123 209c0 64 -13 91 -35 124c-90 132 -232 325 -315 433v-444c0 -15 1 -30 5 -40c5 -7 68 -22 90 -24l-9 -23c-31 2 -63 2 -96 2c-35 0 -73 -1 -105 -2l5 23c18 5 41 10 53 20c4 9 6 31 6 48v432c0 16 -2 38 -6 45c-17 9 -40 14 -61 16l-7 30
c33 -2 60 -4 86 -4c23 0 46 2 72 4l350 -493v405c0 14 -3 35 -8 41c-14 9 -46 15 -67 17l-9 28c31 -2 69 -3 106 -3s70 1 96 3l5 -28c-18 -2 -53 -7 -69 -16c-3 -6 -4 -32 -4 -54v-396c0 -182 -36 -284 -200 -378z" />
    <glyph glyph-name="eng" unicode="&#x14b;" horiz-adv-x="474" 
d="M153 344l1 2c15 8 33 20 51 31c34 23 70 44 86 44c34 0 80 -18 104 -46c25 -28 42 -74 42 -130c0 -222 -115 -345 -194 -391l-6 28c57 46 127 154 127 331c0 21 -2 43 -5 63c-6 34 -35 82 -90 82c-43 0 -87 -28 -115 -46v-231c0 -7 0 -29 4 -37c9 -8 41 -21 69 -26
l-8 -20c-30 2 -65 3 -99 3s-67 -1 -97 -3l4 21c15 3 37 12 50 22c4 6 5 26 5 43v209c0 40 -5 56 -10 63c-5 4 -40 13 -63 13l-4 17c41 10 89 23 131 41c8 -27 13 -58 17 -83z" />
    <glyph glyph-name="Omacron" unicode="&#x14c;" horiz-adv-x="691" 
d="M356 624c175 0 285 -129 285 -283c0 -80 -20 -153 -59 -208c-54 -75 -162 -149 -250 -149c-140 0 -282 120 -282 291c0 77 16 134 54 187c53 75 164 162 252 162zM358 37c130 0 206 135 206 268c0 146 -107 263 -229 263c-126 0 -210 -121 -210 -250
c0 -148 111 -281 233 -281zM201 699l9 34h308l-7 -23l-7 -30h-309z" />
    <glyph glyph-name="omacron" unicode="&#x14d;" horiz-adv-x="470" 
d="M224 420c133 0 205 -98 205 -197c0 -63 -14 -109 -43 -146c-30 -39 -100 -93 -156 -93c-129 0 -206 100 -206 210c0 55 20 97 51 136c28 35 97 90 149 90zM98 225c0 -100 58 -192 150 -192c77 0 108 72 108 145c0 106 -57 196 -143 196c-76 0 -115 -75 -115 -149z
M109 509l7 34h247l-6 -23l-5 -30h-248z" />
    <glyph glyph-name="Obreve" unicode="&#x14e;" horiz-adv-x="691" 
d="M356 624c175 0 285 -129 285 -283c0 -80 -20 -153 -59 -208c-54 -75 -162 -149 -250 -149c-140 0 -282 120 -282 291c0 77 16 134 54 187c53 75 164 162 252 162zM358 37c130 0 206 135 206 268c0 146 -107 263 -229 263c-126 0 -210 -121 -210 -250
c0 -148 111 -281 233 -281zM357 656c-66 0 -112 71 -125 106l61 27c11 -24 45 -76 84 -76c43 0 82 41 103 77l25 -11c-33 -65 -93 -123 -148 -123z" />
    <glyph glyph-name="obreve" unicode="&#x14f;" horiz-adv-x="470" 
d="M224 420c133 0 205 -98 205 -197c0 -63 -14 -109 -43 -146c-30 -39 -100 -93 -156 -93c-129 0 -206 100 -206 210c0 55 20 97 51 136c28 35 97 90 149 90zM98 225c0 -100 58 -192 150 -192c77 0 108 72 108 145c0 106 -57 196 -143 196c-76 0 -115 -75 -115 -149z
M227 466c-66 0 -112 71 -125 106l61 27c11 -24 45 -76 84 -76c43 0 82 41 103 77l25 -11c-33 -65 -93 -123 -148 -123z" />
    <glyph glyph-name="Ohungarumlaut" unicode="&#x150;" horiz-adv-x="691" 
d="M356 624c175 0 285 -129 285 -283c0 -80 -20 -153 -59 -208c-54 -75 -162 -149 -250 -149c-140 0 -282 120 -282 291c0 77 16 134 54 187c53 75 164 162 252 162zM358 37c130 0 206 135 206 268c0 146 -107 263 -229 263c-126 0 -210 -121 -210 -250
c0 -148 111 -281 233 -281zM395 658l-17 17c48 42 118 130 142 168l74 -24c-26 -32 -150 -129 -199 -161zM271 658l-18 16c44 46 106 139 126 179l79 -17c-23 -36 -140 -142 -187 -178z" />
    <glyph glyph-name="ohungarumlaut" unicode="&#x151;" horiz-adv-x="470" 
d="M224 420c133 0 205 -98 205 -197c0 -63 -14 -109 -43 -146c-30 -39 -100 -93 -156 -93c-129 0 -206 100 -206 210c0 55 20 97 51 136c28 35 97 90 149 90zM98 225c0 -100 58 -192 150 -192c77 0 108 72 108 145c0 106 -57 196 -143 196c-76 0 -115 -75 -115 -149z
M290 462l-20 18c45 50 96 151 109 188l74 -19c-22 -40 -113 -148 -163 -187zM169 460l-21 15c40 54 82 158 92 199l77 -13c-19 -42 -101 -158 -148 -201z" />
    <glyph glyph-name="OE" unicode="&#x152;" horiz-adv-x="906" 
d="M857 166l19 -1c-8 -46 -31 -130 -46 -169c-62 5 -113 6 -183 6c-36 0 -85 -1 -139 -2v1c-36 -1 -73 -4 -115 -4c-156 0 -343 91 -343 298c0 193 183 319 337 319c45 0 83 -1 123 -5c27 -2 57 -3 86 -3c71 0 146 6 214 12c2 -71 5 -122 9 -177l-14 -1
c-13 38 -33 86 -43 109c-4 9 -6 11 -12 12c-13 3 -47 4 -81 4c-42 0 -87 -2 -94 -7c-3 -10 -4 -26 -4 -49v-167c17 -1 41 -1 66 -1c37 0 76 1 96 3l26 56l12 -2c-3 -30 -4 -57 -4 -76c0 -37 2 -63 5 -92l-12 -1l-31 65c-22 1 -60 2 -97 2c-23 0 -45 0 -62 -1v-202
c0 -16 1 -32 5 -42c30 -4 75 -6 116 -6c27 0 52 1 69 2c23 3 35 6 41 15c19 25 42 72 56 104zM499 76v416c0 16 0 57 -7 66c-15 9 -64 17 -125 17c-123 0 -231 -115 -231 -262c0 -158 102 -275 257 -276c41 0 76 3 101 14c3 5 5 17 5 25z" />
    <glyph glyph-name="oe" unicode="&#x153;" horiz-adv-x="738" 
d="M678 81l7 -27c-49 -31 -127 -70 -168 -70c-62 0 -110 41 -140 93c-41 -53 -95 -93 -147 -93c-119 0 -206 93 -206 210c0 55 21 103 51 136c33 38 97 90 149 90c85 0 138 -40 172 -94c33 39 112 94 152 94c136 0 143 -146 143 -155c-10 -9 -21 -18 -32 -26
c-31 -5 -158 -11 -235 -17c0 -86 52 -174 128 -174c40 0 83 14 126 33zM98 220c0 -105 59 -187 147 -187c82 0 111 73 111 149c0 90 -51 192 -143 192c-76 0 -115 -77 -115 -154zM519 370c-55 0 -94 -72 -94 -120c42 4 180 22 194 26c-1 31 -23 94 -100 94z" />
    <glyph glyph-name="Racute" unicode="&#x154;" horiz-adv-x="620" 
d="M295 286c-22 -2 -40 -3 -58 -3c-13 0 -26 1 -41 2v-135c0 -32 2 -83 8 -98c10 -15 72 -27 105 -27l-13 -26c-35 1 -75 3 -117 3c-43 0 -89 -2 -134 -6l5 26c26 1 54 12 65 26c7 16 10 93 10 138v282c0 50 -1 89 -9 99c-11 10 -37 15 -65 18l-6 30c34 -3 68 -6 106 -6
c25 0 52 2 80 3c17 1 41 1 57 1c132 0 195 -47 195 -138c0 -99 -77 -150 -132 -177c39 -74 107 -182 162 -229c31 -26 72 -33 98 -34l-5 -26c-30 -4 -81 -16 -112 -27l-11 6c-58 67 -146 217 -188 298zM196 504v-183c9 -2 26 -4 44 -4c96 0 161 47 161 142
c0 93 -67 116 -133 116c-28 0 -56 -1 -65 -8c-6 -11 -7 -39 -7 -63zM200 658l-13 20c57 29 149 95 180 127l69 -43c-34 -26 -182 -86 -236 -104z" />
    <glyph glyph-name="racute" unicode="&#x155;" horiz-adv-x="343" 
d="M27 -2l4 22c18 5 31 11 42 19c3 9 3 36 3 47v205c0 32 -3 54 -11 65c-7 6 -41 14 -63 15l-5 17c45 8 80 21 128 40c9 -31 15 -60 20 -82c18 28 57 77 75 77c25 0 76 -8 103 -15c-6 -22 -22 -64 -33 -79c-24 16 -57 35 -84 35c-22 0 -46 -35 -60 -65v-212
c0 -10 0 -31 4 -40c16 -11 50 -21 82 -25l-6 -23c-38 3 -88 3 -108 3c-19 0 -45 -2 -91 -4zM148 460l-17 21c54 42 121 132 140 167l71 -32c-28 -35 -138 -127 -194 -156z" />
    <glyph glyph-name="Rcommaaccent" unicode="&#x156;" horiz-adv-x="620" 
d="M295 286c-22 -2 -40 -3 -58 -3c-13 0 -26 1 -41 2v-135c0 -32 2 -83 8 -98c10 -15 72 -27 105 -27l-13 -26c-35 1 -75 3 -117 3c-43 0 -89 -2 -134 -6l5 26c26 1 54 12 65 26c7 16 10 93 10 138v282c0 50 -1 89 -9 99c-11 10 -37 15 -65 18l-6 30c34 -3 68 -6 106 -6
c25 0 52 2 80 3c17 1 41 1 57 1c132 0 195 -47 195 -138c0 -99 -77 -150 -132 -177c39 -74 107 -182 162 -229c31 -26 72 -33 98 -34l-5 -26c-30 -4 -81 -16 -112 -27l-11 6c-58 67 -146 217 -188 298zM196 504v-183c9 -2 26 -4 44 -4c96 0 161 47 161 142
c0 93 -67 116 -133 116c-28 0 -56 -1 -65 -8c-6 -11 -7 -39 -7 -63zM256 -120l43 74c15 -5 76 -39 76 -81c0 -38 -50 -100 -84 -124l-19 15c23 22 49 49 49 77c0 26 -39 35 -65 39z" />
    <glyph glyph-name="rcommaaccent" unicode="&#x157;" horiz-adv-x="343" 
d="M27 -2l4 22c18 5 31 11 42 19c3 9 3 36 3 47v205c0 32 -3 54 -11 65c-7 6 -41 14 -63 15l-5 17c45 8 80 21 128 40c9 -31 15 -60 20 -82c18 28 57 77 75 77c25 0 76 -8 103 -15c-6 -22 -22 -64 -33 -79c-24 16 -57 35 -84 35c-22 0 -46 -35 -60 -65v-212
c0 -10 0 -31 4 -40c16 -11 50 -21 82 -25l-6 -23c-38 3 -88 3 -108 3c-19 0 -45 -2 -91 -4zM62 -120l43 74c15 -5 76 -39 76 -81c0 -38 -50 -100 -84 -124l-19 15c23 22 49 49 49 77c0 26 -39 35 -65 39z" />
    <glyph glyph-name="Rcaron" unicode="&#x158;" horiz-adv-x="620" 
d="M295 286c-22 -2 -40 -3 -58 -3c-13 0 -26 1 -41 2v-135c0 -32 2 -83 8 -98c10 -15 72 -27 105 -27l-13 -26c-35 1 -75 3 -117 3c-43 0 -89 -2 -134 -6l5 26c26 1 54 12 65 26c7 16 10 93 10 138v282c0 50 -1 89 -9 99c-11 10 -37 15 -65 18l-6 30c34 -3 68 -6 106 -6
c25 0 52 2 80 3c17 1 41 1 57 1c132 0 195 -47 195 -138c0 -99 -77 -150 -132 -177c39 -74 107 -182 162 -229c31 -26 72 -33 98 -34l-5 -26c-30 -4 -81 -16 -112 -27l-11 6c-58 67 -146 217 -188 298zM196 504v-183c9 -2 26 -4 44 -4c96 0 161 47 161 142
c0 93 -67 116 -133 116c-28 0 -56 -1 -65 -8c-6 -11 -7 -39 -7 -63zM245 658l-116 86l67 47l73 -76l135 74l10 -24l-146 -107h-23z" />
    <glyph glyph-name="rcaron" unicode="&#x159;" horiz-adv-x="343" 
d="M27 -2l4 22c18 5 31 11 42 19c3 9 3 36 3 47v205c0 32 -3 54 -11 65c-7 6 -41 14 -63 15l-5 17c45 8 80 21 128 40c9 -31 15 -60 20 -82c18 28 57 77 75 77c25 0 76 -8 103 -15c-6 -22 -22 -64 -33 -79c-24 16 -57 35 -84 35c-22 0 -46 -35 -60 -65v-212
c0 -10 0 -31 4 -40c16 -11 50 -21 82 -25l-6 -23c-38 3 -88 3 -108 3c-19 0 -45 -2 -91 -4zM157 460l-102 107l67 39l56 -82l119 90l17 -21l-137 -133h-20z" />
    <glyph glyph-name="Sacute" unicode="&#x15a;" horiz-adv-x="513" 
d="M427 593l-6 -148h-23c-8 22 -27 71 -35 83c-13 18 -59 45 -126 45c-38 0 -91 -46 -91 -106c0 -56 69 -92 136 -122c81 -37 171 -77 171 -162c0 -104 -101 -200 -196 -200c-56 0 -148 12 -190 28c3 42 5 83 5 125c0 15 0 31 -1 46l26 4c6 -33 26 -105 37 -121
c16 -17 60 -40 128 -40c73 0 123 56 123 120c0 60 -66 93 -141 126c-80 36 -168 79 -168 166c0 64 111 185 171 185c59 0 136 -17 180 -29zM209 658l-13 20c57 29 149 95 180 127l69 -43c-34 -26 -182 -86 -236 -104z" />
    <glyph glyph-name="sacute" unicode="&#x15b;" horiz-adv-x="358" 
d="M283 289h-18c-6 18 -16 45 -21 56c-10 13 -46 30 -84 30c-29 0 -56 -21 -56 -57c0 -37 46 -59 88 -78c56 -24 117 -52 117 -113c0 -71 -64 -143 -146 -143c-34 0 -102 10 -128 22c4 38 5 85 5 121l21 4c5 -26 15 -56 23 -74c16 -17 46 -35 92 -35c39 0 73 22 73 65
c0 46 -44 67 -91 86c-64 26 -118 53 -118 115c0 49 84 132 121 132c43 0 98 -16 128 -26c-3 -32 -6 -71 -6 -105zM134 460l-17 21c54 42 121 132 140 167l71 -32c-28 -35 -138 -127 -194 -156z" />
    <glyph glyph-name="Scircumflex" unicode="&#x15c;" horiz-adv-x="513" 
d="M427 593l-6 -148h-23c-8 22 -27 71 -35 83c-13 18 -59 45 -126 45c-38 0 -91 -46 -91 -106c0 -56 69 -92 136 -122c81 -37 171 -77 171 -162c0 -104 -101 -200 -196 -200c-56 0 -148 12 -190 28c3 42 5 83 5 125c0 15 0 31 -1 46l26 4c6 -33 26 -105 37 -121
c16 -17 60 -40 128 -40c73 0 123 56 123 120c0 60 -66 93 -141 126c-80 36 -168 79 -168 166c0 64 111 185 171 185c59 0 136 -17 180 -29zM292 793l104 -125l-21 -14l-103 68l-100 -70l-21 15l111 126h30z" />
    <glyph glyph-name="scircumflex" unicode="&#x15d;" horiz-adv-x="358" 
d="M283 289h-18c-6 18 -16 45 -21 56c-10 13 -46 30 -84 30c-29 0 -56 -21 -56 -57c0 -37 46 -59 88 -78c56 -24 117 -52 117 -113c0 -71 -64 -143 -146 -143c-34 0 -102 10 -128 22c4 38 5 85 5 121l21 4c5 -26 15 -56 23 -74c16 -17 46 -35 92 -35c39 0 73 22 73 65
c0 46 -44 67 -91 86c-64 26 -118 53 -118 115c0 49 84 132 121 132c43 0 98 -16 128 -26c-3 -32 -6 -71 -6 -105zM205 649l104 -179l-18 -10l-113 106l-99 -108l-20 13l112 171z" />
    <glyph glyph-name="Scedilla" unicode="&#x15e;" horiz-adv-x="513" 
d="M427 593l-6 -148h-23c-8 22 -27 71 -35 83c-13 18 -59 45 -126 45c-38 0 -91 -46 -91 -106c0 -56 69 -92 136 -122c81 -37 171 -77 171 -162c0 -104 -101 -200 -196 -200h-7l-5 -26c45 -9 90 -31 90 -75c0 -45 -29 -78 -61 -93c-22 -4 -63 -11 -86 -12l-9 19
c33 5 114 18 114 68c0 33 -57 44 -91 46l-5 5l25 69c-54 4 -121 14 -155 27c3 42 5 83 5 125c0 15 0 31 -1 46l26 4c6 -33 26 -105 37 -121c16 -17 60 -40 128 -40c73 0 123 56 123 120c0 60 -66 93 -141 126c-80 36 -168 79 -168 166c0 64 111 185 171 185
c59 0 136 -17 180 -29z" />
    <glyph glyph-name="scedilla" unicode="&#x15f;" horiz-adv-x="358" 
d="M171 -16l-5 -27c45 -9 90 -31 90 -75c0 -45 -29 -78 -61 -93c-22 -4 -63 -11 -86 -12l-9 19c33 5 114 18 114 68c0 33 -57 44 -91 46l-5 5l25 70c-36 2 -87 11 -108 21c4 38 5 85 5 121l21 4c5 -26 15 -56 23 -74c16 -17 46 -35 92 -35c39 0 73 22 73 65
c0 46 -44 67 -91 86c-64 26 -118 53 -118 115c0 49 84 132 121 132c43 0 98 -16 128 -26c-3 -32 -6 -71 -6 -105h-18c-6 18 -16 45 -21 56c-10 13 -46 30 -84 30c-29 0 -56 -21 -56 -57c0 -37 46 -59 88 -78c56 -24 117 -52 117 -113c0 -69 -60 -138 -138 -143z" />
    <glyph glyph-name="Scaron" unicode="&#x160;" horiz-adv-x="513" 
d="M427 593l-6 -148h-23c-8 22 -27 71 -35 83c-13 18 -59 45 -126 45c-38 0 -91 -46 -91 -106c0 -56 69 -92 136 -122c81 -37 171 -77 171 -162c0 -104 -101 -200 -196 -200c-56 0 -148 12 -190 28c3 42 5 83 5 125c0 15 0 31 -1 46l26 4c6 -33 26 -105 37 -121
c16 -17 60 -40 128 -40c73 0 123 56 123 120c0 60 -66 93 -141 126c-80 36 -168 79 -168 166c0 64 111 185 171 185c59 0 136 -17 180 -29zM270 658l-116 86l67 47l73 -76l135 74l10 -24l-146 -107h-23z" />
    <glyph glyph-name="scaron" unicode="&#x161;" horiz-adv-x="358" 
d="M283 289h-18c-6 18 -16 45 -21 56c-10 13 -46 30 -84 30c-29 0 -56 -21 -56 -57c0 -37 46 -59 88 -78c56 -24 117 -52 117 -113c0 -71 -64 -143 -146 -143c-34 0 -102 10 -128 22c4 38 5 85 5 121l21 4c5 -26 15 -56 23 -74c16 -17 46 -35 92 -35c39 0 73 22 73 65
c0 46 -44 67 -91 86c-64 26 -118 53 -118 115c0 49 84 132 121 132c43 0 98 -16 128 -26c-3 -32 -6 -71 -6 -105zM179 460l-102 107l67 39l56 -82l119 90l17 -21l-137 -133h-20z" />
    <glyph glyph-name="Tcommaaccent" unicode="&#x162;" horiz-adv-x="624" 
d="M69 426l-23 -1c1 30 2 66 2 103c0 30 0 61 -1 90c78 -10 229 -13 271 -13c51 0 193 4 270 13c-20 -71 -35 -135 -45 -191l-22 -1c-3 47 -7 96 -11 134c-27 3 -73 5 -112 5c-23 0 -44 -1 -57 -2v-465c0 -18 0 -40 6 -45c18 -15 62 -26 99 -31l-11 -24c-44 4 -90 5 -115 5
c-29 0 -97 -2 -139 -6l11 27c20 3 52 10 68 23c6 7 8 32 8 51v465c-17 1 -40 2 -63 2c-32 0 -67 -1 -90 -3c-20 -52 -32 -85 -46 -136zM245 -120l43 74c15 -5 76 -39 76 -81c0 -38 -50 -100 -84 -124l-19 15c23 22 49 49 49 77c0 26 -39 35 -65 39z" />
    <glyph glyph-name="tcommaaccent" unicode="&#x163;" horiz-adv-x="305" 
d="M-3 382l80 33v128c22 9 55 28 77 41c-5 -30 -8 -85 -9 -123c-1 -15 -1 -28 -1 -45h23c32 0 70 1 105 4l-11 -53h-116v-231c0 -49 1 -92 39 -92c35 0 87 9 102 13l8 -21c-31 -14 -138 -52 -157 -52c-55 0 -61 61 -61 121v261h-71zM93 -120l43 74c15 -5 76 -39 76 -81
c0 -38 -50 -100 -84 -124l-19 15c23 22 49 49 49 77c0 26 -39 35 -65 39z" />
    <glyph glyph-name="Tcaron" unicode="&#x164;" horiz-adv-x="624" 
d="M69 426l-23 -1c1 30 2 66 2 103c0 30 0 61 -1 90c78 -10 229 -13 271 -13c51 0 193 4 270 13c-20 -71 -35 -135 -45 -191l-22 -1c-3 47 -7 96 -11 134c-27 3 -73 5 -112 5c-23 0 -44 -1 -57 -2v-465c0 -18 0 -40 6 -45c18 -15 62 -26 99 -31l-11 -24c-44 4 -90 5 -115 5
c-29 0 -97 -2 -139 -6l11 27c20 3 52 10 68 23c6 7 8 32 8 51v465c-17 1 -40 2 -63 2c-32 0 -67 -1 -90 -3c-20 -52 -32 -85 -46 -136zM291 658l-116 86l67 47l73 -76l135 74l10 -24l-146 -107h-23z" />
    <glyph glyph-name="tcaron" unicode="&#x165;" horiz-adv-x="305" 
d="M-3 382l80 33v128c22 9 55 28 77 41c-5 -30 -8 -85 -9 -123c-1 -15 -1 -28 -1 -45h23c32 0 70 1 105 4l-11 -53h-116v-231c0 -49 1 -92 39 -92c35 0 87 9 102 13l8 -21c-31 -14 -138 -52 -157 -52c-55 0 -61 61 -61 121v261h-71zM192 651l45 69c21 -11 54 -33 54 -82
c0 -43 -42 -124 -73 -161l-22 14c19 27 32 66 32 93c0 30 -15 55 -36 67z" />
    <glyph glyph-name="Tbar" unicode="&#x166;" horiz-adv-x="624" 
d="M135 293l4 40h129v230c-17 1 -40 2 -63 2c-32 0 -67 -1 -90 -3c-20 -52 -32 -85 -46 -136l-23 -1c1 34 2 74 2 116c0 26 0 52 -1 77c78 -10 229 -13 271 -13c51 0 193 4 270 13c-20 -71 -35 -135 -45 -191l-22 -1c-3 47 -7 96 -11 134c-25 3 -57 5 -94 5
c-25 0 -56 -1 -75 -2v-228h134l-4 -40h-130v-197c0 -18 0 -40 6 -45c18 -15 62 -26 99 -31l-11 -24c-44 4 -90 5 -115 5c-29 0 -97 -2 -139 -6l11 27c20 3 52 10 68 23c6 7 8 32 8 51v195h-133z" />
    <glyph glyph-name="tbar" unicode="&#x167;" horiz-adv-x="305" 
d="M-5 382l80 33v128c22 9 57 28 79 41c-5 -30 -8 -85 -9 -123c-1 -15 -1 -28 -1 -45h23c32 0 70 1 105 4l-11 -53h-116v-95h105l-6 -44h-99v-92c0 -49 1 -92 39 -92c35 0 87 9 102 13l8 -21c-31 -14 -138 -52 -157 -52c-55 0 -63 61 -63 121v122h-72l4 43h68v96h-71z" />
    <glyph glyph-name="Utilde" unicode="&#x168;" horiz-adv-x="696" 
d="M596 492v-179c0 -16 -1 -79 -7 -121c-20 -144 -110 -208 -233 -208c-121 0 -203 44 -230 156c-7 29 -11 87 -11 124v250c0 21 -4 48 -8 54c-9 6 -42 13 -63 15l-9 26c35 -1 82 -2 126 -2c36 0 71 1 97 2l5 -24c-22 -1 -61 -10 -66 -17c-4 -11 -6 -46 -6 -73v-204
c0 -20 2 -75 8 -117c15 -96 76 -147 176 -147c87 0 146 55 160 140c6 32 9 90 9 104v250c0 14 -3 40 -7 45c-8 8 -48 17 -70 18l-7 25c34 -1 74 -2 112 -2c31 0 61 1 88 2l5 -23c-20 -2 -53 -10 -63 -17c-3 -7 -6 -54 -6 -77zM307 715c-26 0 -62 -34 -76 -49l-13 14
c15 19 78 99 110 99c34 0 88 -53 126 -53c23 0 48 21 67 43l15 -12c-19 -28 -76 -91 -100 -91c-31 0 -82 49 -129 49z" />
    <glyph glyph-name="utilde" unicode="&#x169;" horiz-adv-x="517" 
d="M348 62c-17 -9 -40 -24 -63 -40c-30 -20 -61 -38 -78 -38c-85 0 -128 68 -134 148c-1 7 -1 14 -1 21v156c0 20 -1 38 -3 42c-16 9 -45 15 -69 17l-6 16c49 10 106 23 150 39c-3 -43 -3 -101 -3 -136v-89c0 -10 0 -46 4 -72c5 -37 33 -79 83 -79c37 0 91 30 118 49v212
c0 15 -2 48 -8 55c-8 7 -37 15 -55 18l-6 17c53 5 106 12 142 21c-2 -72 -3 -120 -3 -153v-158c0 -27 1 -43 5 -51c5 -10 15 -12 32 -12c14 0 32 1 41 2l4 -14c-37 -12 -90 -35 -128 -54l-8 5c-7 21 -12 50 -14 78zM181 525c-26 0 -62 -34 -76 -49l-13 14
c15 19 78 99 110 99c34 0 88 -53 126 -53c23 0 48 21 67 43l15 -12c-19 -28 -76 -91 -100 -91c-31 0 -82 49 -129 49z" />
    <glyph glyph-name="Umacron" unicode="&#x16a;" horiz-adv-x="696" 
d="M596 492v-179c0 -16 -1 -79 -7 -121c-20 -144 -110 -208 -233 -208c-121 0 -203 44 -230 156c-7 29 -11 87 -11 124v250c0 21 -4 48 -8 54c-9 6 -42 13 -63 15l-9 26c35 -1 82 -2 126 -2c36 0 71 1 97 2l5 -24c-22 -1 -61 -10 -66 -17c-4 -11 -6 -46 -6 -73v-204
c0 -20 2 -75 8 -117c15 -96 76 -147 176 -147c87 0 146 55 160 140c6 32 9 90 9 104v250c0 14 -3 40 -7 45c-8 8 -48 17 -70 18l-7 25c34 -1 74 -2 112 -2c31 0 61 1 88 2l5 -23c-20 -2 -53 -10 -63 -17c-3 -7 -6 -54 -6 -77zM212 699l9 34h307l-7 -23l-7 -30h-309z" />
    <glyph glyph-name="umacron" unicode="&#x16b;" horiz-adv-x="517" 
d="M348 62c-17 -9 -40 -24 -63 -40c-30 -20 -61 -38 -78 -38c-85 0 -128 68 -134 148c-1 7 -1 14 -1 21v156c0 20 -1 38 -3 42c-16 9 -45 15 -69 17l-6 16c49 10 106 23 150 39c-3 -43 -3 -101 -3 -136v-89c0 -10 0 -46 4 -72c5 -37 33 -79 83 -79c37 0 91 30 118 49v212
c0 15 -2 48 -8 55c-8 7 -37 15 -55 18l-6 17c53 5 106 12 142 21c-2 -72 -3 -120 -3 -153v-158c0 -27 1 -43 5 -51c5 -10 15 -12 32 -12c14 0 32 1 41 2l4 -14c-37 -12 -90 -35 -128 -54l-8 5c-7 21 -12 50 -14 78zM107 509l8 34h277l-7 -23l-6 -30h-278z" />
    <glyph glyph-name="Ubreve" unicode="&#x16c;" horiz-adv-x="696" 
d="M596 492v-179c0 -16 -1 -79 -7 -121c-20 -144 -110 -208 -233 -208c-121 0 -203 44 -230 156c-7 29 -11 87 -11 124v250c0 21 -4 48 -8 54c-9 6 -42 13 -63 15l-9 26c35 -1 82 -2 126 -2c36 0 71 1 97 2l5 -24c-22 -1 -61 -10 -66 -17c-4 -11 -6 -46 -6 -73v-204
c0 -20 2 -75 8 -117c15 -96 76 -147 176 -147c87 0 146 55 160 140c6 32 9 90 9 104v250c0 14 -3 40 -7 45c-8 8 -48 17 -70 18l-7 25c34 -1 74 -2 112 -2c31 0 61 1 88 2l5 -23c-20 -2 -53 -10 -63 -17c-3 -7 -6 -54 -6 -77zM366 656c-66 0 -112 71 -125 106l61 27
c11 -24 45 -76 84 -76c43 0 82 41 103 77l25 -11c-33 -65 -93 -123 -148 -123z" />
    <glyph glyph-name="ubreve" unicode="&#x16d;" horiz-adv-x="517" 
d="M348 62c-17 -9 -40 -24 -63 -40c-30 -20 -61 -38 -78 -38c-85 0 -128 68 -134 148c-1 7 -1 14 -1 21v156c0 20 -1 38 -3 42c-16 9 -45 15 -69 17l-6 16c49 10 106 23 150 39c-3 -43 -3 -101 -3 -136v-89c0 -10 0 -46 4 -72c5 -37 33 -79 83 -79c37 0 91 30 118 49v212
c0 15 -2 48 -8 55c-8 7 -37 15 -55 18l-6 17c53 5 106 12 142 21c-2 -72 -3 -120 -3 -153v-158c0 -27 1 -43 5 -51c5 -10 15 -12 32 -12c14 0 32 1 41 2l4 -14c-37 -12 -90 -35 -128 -54l-8 5c-7 21 -12 50 -14 78zM242 466c-66 0 -112 71 -125 106l61 27
c11 -24 45 -76 84 -76c43 0 82 41 103 77l25 -11c-33 -65 -93 -123 -148 -123z" />
    <glyph glyph-name="Uring" unicode="&#x16e;" horiz-adv-x="696" 
d="M596 492v-179c0 -16 -1 -79 -7 -121c-20 -144 -110 -208 -233 -208c-121 0 -203 44 -230 156c-7 29 -11 87 -11 124v250c0 21 -4 48 -8 54c-9 6 -42 13 -63 15l-9 26c35 -1 82 -2 126 -2c36 0 71 1 97 2l5 -24c-22 -1 -61 -10 -66 -17c-4 -11 -6 -46 -6 -73v-204
c0 -20 2 -75 8 -117c15 -96 76 -147 176 -147c87 0 146 55 160 140c6 32 9 90 9 104v250c0 14 -3 40 -7 45c-8 8 -48 17 -70 18l-7 25c34 -1 74 -2 112 -2c31 0 61 1 88 2l5 -23c-20 -2 -53 -10 -63 -17c-3 -7 -6 -54 -6 -77zM291 728c0 59 56 96 93 96c47 0 82 -23 82 -70
c0 -59 -54 -104 -98 -104c-40 0 -77 25 -77 78zM332 733c0 -35 22 -52 44 -52c34 0 48 30 48 65c0 29 -19 49 -45 49c-31 0 -47 -31 -47 -62z" />
    <glyph glyph-name="uring" unicode="&#x16f;" horiz-adv-x="517" 
d="M348 62c-17 -9 -40 -24 -63 -40c-30 -20 -61 -38 -78 -38c-85 0 -128 68 -134 148c-1 7 -1 14 -1 21v156c0 20 -1 38 -3 42c-16 9 -45 15 -69 17l-6 16c49 10 106 23 150 39c-3 -43 -3 -101 -3 -136v-89c0 -10 0 -46 4 -72c5 -37 33 -79 83 -79c37 0 91 30 118 49v212
c0 15 -2 48 -8 55c-8 7 -37 15 -55 18l-6 17c53 5 106 12 142 21c-2 -72 -3 -120 -3 -153v-158c0 -27 1 -43 5 -51c5 -10 15 -12 32 -12c14 0 32 1 41 2l4 -14c-37 -12 -90 -35 -128 -54l-8 5c-7 21 -12 50 -14 78zM166 538c0 59 56 96 93 96c47 0 82 -23 82 -70
c0 -59 -54 -104 -98 -104c-40 0 -77 25 -77 78zM207 543c0 -35 22 -52 44 -52c34 0 48 30 48 65c0 29 -19 49 -45 49c-31 0 -47 -31 -47 -62z" />
    <glyph glyph-name="Uhungarumlaut" unicode="&#x170;" horiz-adv-x="696" 
d="M596 492v-179c0 -16 -1 -79 -7 -121c-20 -144 -110 -208 -233 -208c-121 0 -203 44 -230 156c-7 29 -11 87 -11 124v250c0 21 -4 48 -8 54c-9 6 -42 13 -63 15l-9 26c35 -1 82 -2 126 -2c36 0 71 1 97 2l5 -24c-22 -1 -61 -10 -66 -17c-4 -11 -6 -46 -6 -73v-204
c0 -20 2 -75 8 -117c15 -96 76 -147 176 -147c87 0 146 55 160 140c6 32 9 90 9 104v250c0 14 -3 40 -7 45c-8 8 -48 17 -70 18l-7 25c34 -1 74 -2 112 -2c31 0 61 1 88 2l5 -23c-20 -2 -53 -10 -63 -17c-3 -7 -6 -54 -6 -77zM414 658l-17 17c48 42 118 130 142 168l74 -24
c-26 -32 -150 -129 -199 -161zM290 658l-18 16c44 46 106 139 126 179l79 -17c-23 -36 -140 -142 -187 -178z" />
    <glyph glyph-name="uhungarumlaut" unicode="&#x171;" horiz-adv-x="517" 
d="M348 62c-17 -9 -40 -24 -63 -40c-30 -20 -61 -38 -78 -38c-85 0 -128 68 -134 148c-1 7 -1 14 -1 21v156c0 20 -1 38 -3 42c-16 9 -45 15 -69 17l-6 16c49 10 106 23 150 39c-3 -43 -3 -101 -3 -136v-89c0 -10 0 -46 4 -72c5 -37 33 -79 83 -79c37 0 91 30 118 49v212
c0 15 -2 48 -8 55c-8 7 -37 15 -55 18l-6 17c53 5 106 12 142 21c-2 -72 -3 -120 -3 -153v-158c0 -27 1 -43 5 -51c5 -10 15 -12 32 -12c14 0 32 1 41 2l4 -14c-37 -12 -90 -35 -128 -54l-8 5c-7 21 -12 50 -14 78zM310 462l-20 18c45 50 96 151 109 188l74 -19
c-22 -40 -113 -148 -163 -187zM189 460l-21 15c40 54 82 158 92 199l77 -13c-19 -42 -101 -158 -148 -201z" />
    <glyph glyph-name="Uogonek" unicode="&#x172;" horiz-adv-x="696" 
d="M596 492v-179c0 -16 -1 -79 -7 -121c-9 -67 -34 -115 -69 -150c-16 -16 -52 -34 -63 -45c-38 -39 -65 -77 -65 -122c0 -46 29 -85 64 -85c17 0 46 8 64 17l8 -15c-24 -15 -92 -50 -113 -50c-46 0 -87 54 -87 106c0 54 54 108 90 143c-20 -5 -40 -7 -62 -7
c-121 0 -203 44 -230 156c-7 29 -11 87 -11 124v250c0 21 -4 48 -8 54c-9 6 -42 13 -63 15l-9 26c35 -1 82 -2 126 -2c36 0 71 1 97 2l5 -24c-22 -1 -61 -10 -66 -17c-4 -11 -6 -46 -6 -73v-204c0 -20 2 -75 8 -117c15 -96 76 -147 176 -147c87 0 145 55 160 140
c6 32 9 90 9 104v250c0 14 -3 40 -7 45c-8 8 -48 17 -70 18l-7 25c34 -1 74 -2 112 -2c31 0 61 1 88 2l5 -23c-20 -2 -53 -10 -63 -17c-3 -7 -6 -54 -6 -77z" />
    <glyph glyph-name="uogonek" unicode="&#x173;" horiz-adv-x="517" 
d="M348 62c-17 -9 -40 -24 -63 -40c-30 -20 -61 -38 -78 -38c-90 0 -133 68 -139 148c-1 7 -1 14 -1 21v156c0 20 -1 38 -3 42c-16 9 -45 15 -69 17l-6 16c49 10 106 23 150 39c-3 -43 -3 -101 -3 -136v-106c0 -15 0 -37 3 -54c5 -37 34 -80 89 -80c37 0 91 30 118 49v212
c0 15 -2 48 -8 55c-8 7 -37 15 -55 18l-6 17c53 5 106 12 142 21c-2 -72 -3 -120 -3 -153v-158c0 -27 1 -43 5 -51c5 -11 14 -12 36 -12c14 0 28 1 37 2l4 -14c-26 -8 -59 -20 -89 -37c-42 -23 -75 -65 -75 -121c0 -40 16 -82 52 -82c17 0 45 9 63 17l9 -15
c-24 -14 -86 -50 -107 -50c-52 0 -86 55 -86 97c0 33 10 54 23 72c20 24 46 49 73 72c-6 20 -11 48 -13 76z" />
    <glyph glyph-name="Wcircumflex" unicode="&#x174;" horiz-adv-x="897" 
d="M617 92l163 455c1 4 2 7 2 10c0 7 -4 12 -12 15c-14 5 -48 13 -72 16l-8 25c45 -2 74 -5 104 -5c27 0 53 1 92 5l2 -25c-16 -4 -35 -15 -46 -34c-22 -39 -196 -484 -215 -550l-37 -19c-27 74 -80 200 -121 290c-40 -96 -84 -210 -103 -271l-44 -19
c-56 144 -217 536 -232 560c-15 22 -41 34 -65 40l-8 26c48 -5 91 -5 111 -5s74 2 113 7l7 -25c-25 -4 -49 -9 -66 -15c-9 -3 -12 -8 -12 -14c0 -5 2 -10 5 -17l180 -448l93 235c-41 104 -73 184 -92 216c-15 23 -34 32 -60 41l-7 26c39 -4 115 -6 159 -6c69 0 91 1 186 6
l6 -24c-17 -4 -34 -15 -45 -34c-8 -15 -46 -109 -83 -204zM492 389l60 167c1 4 2 7 2 10c0 6 -3 9 -9 11c-13 4 -33 6 -53 6c-17 0 -41 -3 -55 -7c-6 -2 -8 -5 -8 -10c0 -4 1 -8 3 -13zM493 793l104 -125l-21 -14l-103 68l-100 -70l-21 15l111 126h30z" />
    <glyph glyph-name="wcircumflex" unicode="&#x175;" horiz-adv-x="622" 
d="M409 -16l-114 314l-106 -303l-36 -11c-32 104 -85 271 -101 317c-13 37 -24 56 -30 62c-5 5 -22 12 -33 12l-7 21c43 4 81 10 119 19c10 -54 22 -94 30 -123l56 -187l101 302h42c19 -62 86 -253 108 -309l83 247c1 4 2 8 2 10c0 4 -2 6 -7 9c-17 7 -39 14 -61 21l-6 20
c18 -1 37 -1 55 -1c33 0 62 1 88 6l4 -19c-15 -17 -37 -69 -51 -107l-102 -289zM332 649l104 -179l-18 -10l-113 106l-99 -108l-20 13l112 171z" />
    <glyph glyph-name="Ycircumflex" unicode="&#x176;" horiz-adv-x="572" 
d="M254 99l1 151c-61 108 -150 271 -166 292s-42 35 -69 42l-10 27c47 -5 86 -5 105 -5c21 0 82 2 121 6l8 -23c-19 -3 -56 -11 -71 -17c-5 -2 -7 -5 -7 -8c0 -2 1 -4 2 -7c6 -17 77 -147 143 -264l131 250c3 6 4 10 4 13c0 5 -3 10 -8 12c-18 8 -51 15 -72 19l-12 25
c40 -4 85 -5 106 -5c19 0 45 1 87 5l6 -23c-18 -4 -34 -17 -50 -37c-16 -18 -122 -205 -175 -303v-145c0 -29 1 -49 6 -58c15 -9 61 -23 99 -27l-11 -23c-45 4 -93 6 -118 6c-30 0 -94 -3 -132 -6l10 26c21 3 54 13 65 22c5 7 7 36 7 55zM321 793l104 -125l-21 -14l-103 68
l-100 -70l-21 15l111 126h30z" />
    <glyph glyph-name="ycircumflex" unicode="&#x177;" horiz-adv-x="448" 
d="M382 322c-18 -37 -91 -195 -131 -295l-124 -302l-75 38c58 63 111 152 137 222c-38 96 -104 253 -123 303c-8 21 -26 60 -37 72c-6 6 -21 12 -32 14l-10 22c39 2 81 10 119 19c10 -51 24 -89 39 -129l81 -220l117 280c1 3 2 7 2 9c0 5 -3 8 -8 10c-9 3 -38 12 -59 18
l-6 21c15 -1 29 -1 42 -1c37 0 71 2 105 8l4 -15c-17 -24 -32 -56 -41 -74zM243 649l104 -179l-18 -10l-113 106l-99 -108l-20 13l112 171z" />
    <glyph glyph-name="Ydieresis" unicode="&#x178;" horiz-adv-x="572" 
d="M254 99l1 151c-61 108 -150 271 -166 292s-42 35 -69 42l-10 27c47 -5 86 -5 105 -5c21 0 82 2 121 6l8 -23c-19 -3 -56 -11 -71 -17c-5 -2 -7 -5 -7 -8c0 -2 1 -4 2 -7c6 -17 77 -147 143 -264l131 250c3 6 4 10 4 13c0 5 -3 10 -8 12c-18 8 -51 15 -72 19l-12 25
c40 -4 85 -5 106 -5c19 0 45 1 87 5l6 -23c-18 -4 -34 -17 -50 -37c-16 -18 -122 -205 -175 -303v-145c0 -29 1 -49 6 -58c15 -9 61 -23 99 -27l-11 -23c-45 4 -93 6 -118 6c-30 0 -94 -3 -132 -6l10 26c21 3 54 13 65 22c5 7 7 36 7 55zM225 666l-44 35c18 24 37 56 47 76
l55 -36c-16 -23 -39 -55 -58 -75zM374 663l-44 34c17 24 35 52 47 76l53 -36c-14 -23 -39 -55 -56 -74z" />
    <glyph glyph-name="Zacute" unicode="&#x179;" horiz-adv-x="619" 
d="M571 185l-37 -189c-54 2 -135 4 -234 4c-72 0 -152 0 -232 -4l-12 35c33 30 74 78 105 120l299 407c-19 2 -67 3 -120 3c-83 0 -175 -2 -191 -5c-19 -30 -39 -80 -55 -128l-17 1l11 183c63 -4 140 -6 217 -6c91 0 180 3 249 10l12 -37c-40 -43 -74 -89 -102 -127
l-296 -407c21 -1 56 -1 93 -1c91 0 198 2 219 10c11 8 52 83 73 131h18zM262 658l-13 20c57 29 149 95 180 127l69 -43c-34 -26 -182 -86 -236 -104z" />
    <glyph glyph-name="zacute" unicode="&#x17a;" horiz-adv-x="420" 
d="M375 133l-13 -135c-28 1 -76 2 -134 2s-125 -1 -189 -4l-14 29c19 18 46 51 67 79c29 39 126 171 193 266h-13c-47 0 -132 -2 -171 -7c-9 -19 -17 -52 -20 -80l-16 -6l-28 127c21 -1 45 -1 71 -1c91 0 202 3 256 12l10 -37c-24 -28 -38 -47 -55 -71l-194 -272h12
c46 0 142 3 181 10c16 28 31 59 43 88h14zM177 460l-17 21c54 42 121 132 140 167l71 -32c-28 -35 -138 -127 -194 -156z" />
    <glyph glyph-name="Zdotaccent" unicode="&#x17b;" horiz-adv-x="619" 
d="M571 185l-37 -189c-54 2 -135 4 -234 4c-72 0 -152 0 -232 -4l-12 35c33 30 74 78 105 120l299 407c-19 2 -67 3 -120 3c-83 0 -175 -2 -191 -5c-19 -30 -39 -80 -55 -128l-17 1l11 183c63 -4 140 -6 217 -6c91 0 180 3 249 10l12 -37c-40 -43 -74 -89 -102 -127
l-296 -407c21 -1 56 -1 93 -1c91 0 198 2 219 10c11 8 52 83 73 131h18zM327 670l-47 46c25 33 46 70 58 89c6 -5 44 -39 56 -47c-16 -27 -47 -65 -67 -88z" />
    <glyph glyph-name="zdotaccent" unicode="&#x17c;" horiz-adv-x="420" 
d="M375 133l-13 -135c-28 1 -76 2 -134 2s-125 -1 -189 -4l-14 29c19 18 46 51 67 79c29 39 126 171 193 266h-13c-47 0 -132 -2 -171 -7c-9 -19 -17 -52 -20 -80l-16 -6l-28 127c21 -1 45 -1 71 -1c91 0 202 3 256 12l10 -37c-24 -28 -38 -47 -55 -71l-194 -272h12
c46 0 142 3 181 10c16 28 31 59 43 88h14zM213 480l-47 46c25 33 46 70 58 89c6 -5 44 -39 56 -47c-16 -27 -47 -65 -67 -88z" />
    <glyph glyph-name="Zcaron" unicode="&#x17d;" horiz-adv-x="619" 
d="M571 185l-37 -189c-54 2 -135 4 -234 4c-72 0 -152 0 -232 -4l-12 35c33 30 74 78 105 120l299 407c-19 2 -67 3 -120 3c-83 0 -175 -2 -191 -5c-19 -30 -39 -80 -55 -128l-17 1l11 183c63 -4 140 -6 217 -6c91 0 180 3 249 10l12 -37c-40 -43 -74 -89 -102 -127
l-296 -407c21 -1 56 -1 93 -1c91 0 198 2 219 10c11 8 52 83 73 131h18zM312 658l-116 86l67 47l73 -76l135 74l10 -24l-146 -107h-23z" />
    <glyph glyph-name="zcaron" unicode="&#x17e;" horiz-adv-x="420" 
d="M375 133l-13 -135c-28 1 -76 2 -134 2s-125 -1 -189 -4l-14 29c19 18 46 51 67 79c29 39 126 171 193 266h-13c-47 0 -132 -2 -171 -7c-9 -19 -17 -52 -20 -80l-16 -6l-28 127c21 -1 45 -1 71 -1c91 0 202 3 256 12l10 -37c-24 -28 -38 -47 -55 -71l-194 -272h12
c46 0 142 3 181 10c16 28 31 59 43 88h14zM196 460l-102 107l67 39l56 -82l119 90l17 -21l-137 -133h-20z" />
    <glyph glyph-name="longs" unicode="&#x17f;" horiz-adv-x="319" 
d="M88 94v395c0 37 6 76 19 94c32 45 119 101 158 101c27 0 65 -8 95 -24c-8 -24 -18 -47 -30 -70c-33 26 -84 40 -110 40c-57 0 -62 -71 -62 -155v-378c0 -16 2 -38 7 -44c6 -11 61 -27 99 -32l-9 -23c-37 3 -83 5 -114 5c-29 0 -80 -2 -127 -5l4 23c21 5 52 18 62 29
c5 9 8 30 8 44z" />
    <glyph glyph-name="florin" unicode="&#x192;" horiz-adv-x="312" 
d="M54 306h58c3 18 4 28 8 54c6 33 11 56 15 67c24 53 118 120 149 120c21 0 56 -8 78 -20l-33 -61c-21 20 -46 33 -74 33c-40 0 -63 -46 -74 -118c-4 -23 -7 -48 -9 -73h107l-7 -37h-106l-25 -201c-12 -96 -16 -124 -29 -158c-13 -33 -93 -104 -125 -104
c-19 0 -55 10 -77 22l30 45c24 -9 55 -19 71 -19c35 0 51 43 63 143l33 273h-59z" />
    <glyph glyph-name="Aringacute" unicode="&#x1fa;" horiz-adv-x="660" 
d="M233 733c0 59 56 96 93 96c47 0 82 -23 82 -70c0 -59 -54 -104 -98 -104c-40 0 -77 25 -77 78zM274 738c0 -35 22 -52 44 -52c34 0 48 30 48 65c0 29 -19 49 -45 49c-31 0 -47 -31 -47 -62zM488 74l-73 183h-211l-72 -189c-2 -6 -3 -10 -3 -16c0 -14 61 -24 102 -27
l-13 -28c-39 3 -83 5 -104 5c-19 0 -57 -1 -99 -5l8 25c23 4 44 15 54 36c21 40 199 487 216 553l59 9c37 -118 208 -529 224 -554c14 -22 43 -39 79 -44l-11 -24c-48 4 -98 5 -117 5c-21 0 -83 -3 -117 -6l8 25c48 4 77 11 77 24c0 8 -3 19 -7 28zM308 541l-88 -244h179z
M248 844l-13 20c57 29 149 95 180 127l69 -43c-34 -26 -182 -86 -236 -104z" />
    <glyph glyph-name="aringacute" unicode="&#x1fb;" horiz-adv-x="422" 
d="M128 538c0 59 56 96 93 96c47 0 82 -23 82 -70c0 -59 -54 -104 -98 -104c-40 0 -77 25 -77 78zM169 543c0 -35 22 -52 44 -52c34 0 48 30 48 65c0 29 -19 49 -45 49c-31 0 -47 -31 -47 -62zM406 60l9 -18c-40 -24 -100 -58 -125 -58c-23 0 -33 37 -36 69
c-64 -45 -104 -69 -134 -69c-54 0 -93 60 -93 104c0 63 29 83 91 104c37 13 88 25 136 36v66c0 53 -19 76 -67 76c-26 0 -53 -10 -61 -17l-2 -55c-15 -7 -45 -16 -60 -20c-4 4 -5 11 -5 20c0 18 5 43 11 50c20 22 117 72 157 72c68 0 98 -44 98 -106v-223
c0 -37 3 -44 16 -44c17 0 47 7 65 13zM254 82v115c-18 -2 -52 -8 -76 -15c-37 -12 -72 -33 -72 -75c0 -31 19 -62 63 -62c27 0 69 26 85 37zM167 658l-17 21c54 42 121 132 140 167l71 -32c-28 -35 -138 -127 -194 -156z" />
    <glyph glyph-name="AEacute" unicode="&#x1fc;" horiz-adv-x="846" 
d="M790 166l19 -1c-8 -46 -30 -130 -45 -169c-62 5 -114 6 -183 6c-55 0 -137 -1 -233 -5l8 25c20 2 56 12 68 20c3 12 6 35 6 55v158h-169l-101 -191c-2 -4 -4 -8 -4 -12c0 -5 3 -10 11 -14c9 -4 53 -15 85 -17l-11 -24c-39 3 -82 5 -104 5c-19 0 -64 -1 -106 -5l8 25
c18 4 43 13 63 36c24 27 259 472 269 498c1 3 2 6 2 8c0 5 -3 8 -9 10c-7 3 -29 9 -47 10l-9 27c59 -3 132 -5 194 -5c81 0 163 3 242 12c2 -71 4 -122 9 -177l-14 -1c-13 38 -33 86 -43 109c-5 9 -7 11 -12 12c-14 3 -48 4 -81 4c-42 0 -88 -2 -94 -7c-3 -10 -4 -26 -4 -49
v-172c17 -1 41 -1 65 -1c38 0 77 1 97 4l24 56l14 -1c-3 -31 -4 -59 -4 -78c0 -36 2 -62 5 -91l-13 -1l-30 65c-22 1 -60 2 -97 2c-23 0 -46 0 -62 -1v-198c0 -16 1 -32 5 -42c29 -4 75 -6 116 -6c26 0 52 1 69 2c23 3 34 6 41 15c19 25 42 72 55 104zM430 297v204
c0 22 -1 52 -4 57c-3 2 -9 2 -12 2l-130 -263h146zM453 658l-13 20c57 29 149 95 180 127l69 -43c-34 -26 -182 -86 -236 -104z" />
    <glyph glyph-name="aeacute" unicode="&#x1fd;" horiz-adv-x="626" 
d="M577 81l7 -27c-49 -31 -126 -70 -167 -70c-61 0 -104 38 -131 82c-55 -37 -121 -82 -160 -82c-54 0 -99 58 -99 109c0 56 29 78 85 98c39 13 87 25 139 37v66c0 53 -21 76 -69 76c-29 0 -52 -10 -59 -16v-55c-11 -5 -49 -17 -62 -21c-4 4 -5 11 -5 20c0 16 3 34 8 45
c2 4 3 6 6 8c25 24 115 69 154 69c55 0 85 -29 94 -72c40 35 99 72 129 72c107 0 144 -98 144 -155l-33 -26c-42 -5 -152 -12 -235 -17c0 -86 52 -174 128 -174c39 0 83 14 126 33zM272 92c-16 38 -21 68 -21 105c-14 -1 -93 -13 -125 -43c-13 -11 -20 -30 -20 -49
c0 -30 20 -60 66 -60c27 0 81 33 100 47zM417 370c-53 0 -93 -72 -93 -120c42 4 181 22 194 26c-1 31 -22 94 -101 94zM294 460l-17 21c54 42 121 132 140 167l71 -32c-28 -35 -138 -127 -194 -156z" />
    <glyph glyph-name="Oslashacute" unicode="&#x1fe;" horiz-adv-x="686" 
d="M356 624c51 0 94 -9 133 -29l47 90l33 -18l-48 -92c77 -51 120 -137 120 -234c0 -80 -20 -153 -59 -208c-54 -75 -162 -150 -250 -150c-36 0 -72 7 -107 22l-48 -93l-34 18l49 94c-80 48 -142 141 -142 251c0 77 16 134 54 187c53 75 164 162 252 162zM125 318
c0 -89 38 -174 100 -228l229 439c-35 27 -74 39 -119 39c-126 0 -210 -121 -210 -250zM357 36c136 0 207 136 207 269c0 80 -32 151 -80 198l-228 -437c32 -19 65 -30 101 -30zM296 658l-13 20c57 29 149 95 180 127l69 -43c-34 -26 -182 -86 -236 -104z" />
    <glyph glyph-name="oslashacute" unicode="&#x1ff;" horiz-adv-x="470" 
d="M224 420c40 0 74 -9 102 -24l42 71l30 -18l-42 -72c48 -38 73 -96 73 -154c0 -63 -14 -109 -43 -146c-30 -39 -100 -93 -156 -93c-36 0 -67 8 -94 21l-49 -84l-28 19l48 82c-54 39 -83 103 -83 172c0 55 20 97 51 136c28 35 97 90 149 90zM98 225c0 -54 15 -106 44 -142
l153 259c-22 21 -51 32 -82 32c-76 0 -115 -75 -115 -149zM356 178c0 52 -13 101 -37 137l-151 -256c22 -17 49 -26 80 -26c77 0 108 72 108 145zM199 460l-17 21c54 42 121 132 140 167l71 -32c-28 -35 -138 -127 -194 -156z" />
    <glyph glyph-name="Scommaaccent" unicode="&#x218;" horiz-adv-x="513" 
d="M427 593l-6 -148h-23c-8 22 -27 71 -35 83c-13 18 -59 45 -126 45c-38 0 -91 -46 -91 -106c0 -56 69 -92 136 -122c81 -37 171 -77 171 -162c0 -104 -101 -200 -196 -200c-56 0 -148 12 -190 28c3 42 5 83 5 125c0 15 0 31 -1 46l26 4c6 -33 26 -105 37 -121
c16 -17 60 -40 128 -40c73 0 123 56 123 120c0 60 -66 93 -141 126c-80 36 -168 79 -168 166c0 64 111 185 171 185c59 0 136 -17 180 -29zM200 -120l43 74c15 -5 76 -39 76 -81c0 -38 -50 -100 -84 -124l-19 15c23 22 49 49 49 77c0 26 -39 35 -65 39z" />
    <glyph glyph-name="scommaaccent" unicode="&#x219;" horiz-adv-x="358" 
d="M283 289h-18c-6 18 -16 45 -21 56c-10 13 -46 30 -84 30c-29 0 -56 -21 -56 -57c0 -37 46 -59 88 -78c56 -24 117 -52 117 -113c0 -71 -64 -143 -146 -143c-34 0 -102 10 -128 22c4 38 5 85 5 121l21 4c5 -26 15 -56 23 -74c16 -17 46 -35 92 -35c39 0 73 22 73 65
c0 46 -44 67 -91 86c-64 26 -118 53 -118 115c0 49 84 132 121 132c43 0 98 -16 128 -26c-3 -32 -6 -71 -6 -105zM108 -120l43 74c15 -5 76 -39 76 -81c0 -38 -50 -100 -84 -124l-19 15c23 22 49 49 49 77c0 26 -39 35 -65 39z" />
    <glyph glyph-name="afii57929" unicode="&#x2bc;" horiz-adv-x="238" 
d="M67 626l45 69c21 -11 54 -33 54 -82c0 -43 -42 -124 -73 -161l-22 14c19 27 32 66 32 93c0 30 -15 55 -36 67z" />
    <glyph glyph-name="circumflex" unicode="&#x2c6;" horiz-adv-x="417" 
d="M230 649l104 -179l-18 -10l-113 106l-99 -108l-20 13l112 171z" />
    <glyph glyph-name="caron" unicode="&#x2c7;" horiz-adv-x="394" 
d="M175 460l-102 107l67 39l56 -82l119 90l17 -21l-137 -133h-20z" />
    <glyph glyph-name="breve" unicode="&#x2d8;" horiz-adv-x="466" 
d="M227 466c-66 0 -112 71 -125 106l61 27c11 -24 45 -76 84 -76c43 0 82 41 103 77l25 -11c-33 -65 -93 -123 -148 -123z" />
    <glyph glyph-name="dotaccent" unicode="&#x2d9;" horiz-adv-x="218" 
d="M93 480l-47 46c25 33 46 70 58 89c6 -5 44 -39 56 -47c-16 -27 -47 -65 -67 -88z" />
    <glyph glyph-name="ring" unicode="&#x2da;" horiz-adv-x="466" 
d="M152 538c0 59 56 96 93 96c47 0 82 -23 82 -70c0 -59 -54 -104 -98 -104c-40 0 -77 25 -77 78zM193 543c0 -35 22 -52 44 -52c34 0 48 30 48 65c0 29 -19 49 -45 49c-31 0 -47 -31 -47 -62z" />
    <glyph glyph-name="ogonek" unicode="&#x2db;" horiz-adv-x="515" 
d="M314 23l10 -11c-43 -32 -96 -70 -96 -137c0 -40 15 -82 51 -82c16 0 46 9 63 17l8 -15c-23 -14 -85 -50 -106 -50c-54 0 -87 55 -87 97c0 33 9 51 22 67c32 40 94 92 135 114z" />
    <glyph glyph-name="tilde" unicode="&#x2dc;" horiz-adv-x="429" 
d="M137 525c-26 0 -62 -34 -76 -49l-13 14c15 19 78 99 110 99c34 0 88 -53 126 -53c23 0 48 21 67 43l15 -12c-19 -28 -76 -91 -100 -91c-31 0 -82 49 -129 49z" />
    <glyph glyph-name="hungarumlaut" unicode="&#x2dd;" horiz-adv-x="290" 
d="M215 462l-20 18c45 50 96 151 109 188l74 -19c-22 -40 -113 -148 -163 -187zM94 460l-21 15c40 54 82 158 92 199l77 -13c-19 -42 -101 -158 -148 -201z" />
    <glyph glyph-name="uni0326" unicode="&#x326;" horiz-adv-x="0" 
d="M-287 -120l43 74c15 -5 76 -39 76 -81c0 -38 -50 -100 -84 -124l-19 15c23 22 49 49 49 77c0 26 -39 35 -65 39z" />
    <glyph glyph-name="tonos" unicode="&#x384;" horiz-adv-x="290" 
d="M118 460l-22 15c35 63 66 152 74 191l77 -9c-17 -47 -85 -151 -129 -197z" />
    <glyph glyph-name="dieresistonos" unicode="&#x385;" horiz-adv-x="332" 
d="M56 487l-44 35c18 24 37 56 47 76l55 -36c-16 -23 -39 -55 -58 -75zM291 481l-44 34c17 24 35 52 47 76l53 -36c-14 -23 -39 -55 -56 -74zM145 460l-22 15c35 63 66 152 74 191l77 -9c-17 -47 -85 -151 -129 -197z" />
    <glyph glyph-name="Alphatonos" unicode="&#x386;" horiz-adv-x="671" 
d="M499 74l-73 183h-211l-72 -189c-2 -6 -3 -10 -3 -16c0 -14 61 -24 102 -27l-13 -28c-39 3 -83 5 -104 5c-19 0 -57 -1 -99 -5l8 25c23 4 44 15 54 36c21 40 199 487 216 553l59 9c37 -118 208 -529 224 -554c14 -22 43 -39 79 -44l-11 -24c-48 4 -98 5 -117 5
c-21 0 -83 -3 -117 -6l8 25c48 4 77 11 77 24c0 8 -3 19 -7 28zM319 541l-88 -244h179zM111 398l-24 11c24 68 41 161 43 201l78 3c-10 -49 -61 -163 -97 -215z" />
    <glyph glyph-name="anoteleia" unicode="&#x387;" horiz-adv-x="253" 
d="M83 183l-17 75c28 8 72 24 98 35c3 -26 11 -54 19 -79c-29 -7 -73 -21 -100 -31z" />
    <glyph glyph-name="Epsilontonos" unicode="&#x388;" horiz-adv-x="638" 
d="M594 166l19 -1c-8 -46 -31 -130 -45 -169c-62 5 -114 6 -184 6c-55 0 -137 -1 -232 -5l8 25c20 2 55 12 66 20c5 12 8 35 8 55v432c0 14 -3 31 -8 37c-12 9 -40 14 -61 16l-9 29c41 -3 107 -4 160 -4c77 0 152 2 232 11c2 -71 3 -122 8 -177l-13 -1
c-14 38 -33 86 -44 109c-4 9 -6 11 -12 12c-13 3 -47 4 -81 4c-42 0 -87 -2 -94 -7c-4 -10 -4 -26 -4 -49v-167c17 -1 41 -1 66 -1c38 0 77 1 97 3l24 56l13 -2c-2 -30 -3 -57 -3 -76c0 -37 1 -63 5 -92l-14 -1l-30 65c-23 1 -61 2 -97 2c-23 0 -45 0 -62 -1v-202
c0 -16 1 -32 5 -42c30 -4 75 -6 116 -6c27 0 52 1 69 2c23 3 35 6 41 15c19 25 42 72 56 104zM22 398l-24 11c24 68 41 161 43 201l78 3c-10 -49 -61 -163 -97 -215z" />
    <glyph glyph-name="Etatonos" unicode="&#x389;" horiz-adv-x="816" 
d="M626 336v186c0 14 -4 34 -7 41c-15 10 -47 16 -68 18l-8 28c33 -1 76 -3 117 -3c38 0 74 2 101 3l6 -27c-20 -2 -49 -7 -62 -15c-4 -13 -6 -46 -6 -65v-408c0 -18 1 -34 4 -46c15 -11 57 -20 88 -24l-10 -25c-33 2 -71 3 -110 3c-36 0 -74 -1 -111 -3l7 25
c20 4 45 13 52 22c3 11 7 35 7 67v178h-318v-206c0 -11 1 -29 4 -39c9 -7 51 -19 84 -24l-8 -23c-28 2 -62 3 -96 3c-44 0 -87 -2 -121 -4l5 25c21 4 44 12 53 21c3 10 5 26 5 47v436c0 19 -4 34 -8 40c-12 7 -46 14 -65 15l-7 30c43 -3 92 -5 137 -5c31 0 60 1 85 2l4 -26
c-21 -2 -54 -8 -66 -16c-4 -11 -6 -45 -6 -72v-159h318zM14 398l-24 11c24 68 41 161 43 201l78 3c-10 -49 -61 -163 -97 -215z" />
    <glyph glyph-name="Iotatonos" unicode="&#x38a;" horiz-adv-x="423" 
d="M230 114v415c0 14 -3 32 -8 38c-15 9 -44 14 -65 16l-9 30c41 -4 86 -5 130 -5c33 0 68 1 97 3l5 -28c-23 -2 -61 -9 -71 -17c-4 -8 -6 -27 -6 -44v-428c0 -16 1 -41 4 -48c12 -8 61 -20 93 -24l-11 -23c-42 2 -78 3 -113 3c-36 0 -75 -1 -124 -3l8 26c24 3 52 12 62 20
c5 13 8 47 8 69zM14 398l-24 11c24 68 41 161 43 201l78 3c-10 -49 -61 -163 -97 -215z" />
    <glyph glyph-name="Omicrontonos" unicode="&#x38c;" horiz-adv-x="726" 
d="M397 624c175 0 285 -129 285 -283c0 -80 -20 -153 -59 -208c-54 -75 -162 -149 -250 -149c-140 0 -282 120 -282 291c0 77 16 134 54 187c53 75 164 162 252 162zM399 37c130 0 206 135 206 268c0 146 -107 263 -229 263c-126 0 -210 -121 -210 -250
c0 -148 111 -281 233 -281zM14 398l-24 11c24 68 41 161 43 201l78 3c-10 -49 -61 -163 -97 -215z" />
    <glyph glyph-name="Upsilontonos" unicode="&#x38e;" horiz-adv-x="728" 
d="M394 99c0 50 -2 98 -10 147c-20 122 -88 240 -132 280c-30 28 -64 39 -93 41l-14 28c39 4 79 11 122 22c19 -11 42 -32 66 -66c30 -42 87 -148 108 -291h2c16 90 61 228 113 297c38 49 74 59 105 59c26 0 48 -8 62 -16l-28 -54c-14 4 -27 6 -38 6
c-70 0 -110 -92 -136 -152c-25 -59 -42 -121 -48 -167c-7 -48 -7 -81 -7 -129c0 -29 1 -49 6 -58c15 -9 61 -23 99 -27l-11 -23c-45 4 -93 6 -118 6c-30 0 -94 -3 -132 -6l10 26c21 3 56 13 67 22c5 7 7 36 7 55zM14 398l-24 11c24 68 41 161 43 201l78 3
c-10 -49 -61 -163 -97 -215z" />
    <glyph glyph-name="Omegatonos" unicode="&#x38f;" horiz-adv-x="742" 
d="M430 -3l8 45c99 59 146 164 146 266c0 155 -90 269 -214 269c-132 0 -192 -122 -192 -242c0 -129 68 -235 151 -293l7 -45c-44 2 -89 3 -132 3c-50 0 -96 -1 -134 -3l-11 151h18c14 -37 25 -66 39 -81c27 -8 89 -12 149 -13c-71 39 -169 154 -169 281c0 52 15 99 42 136
c52 71 158 153 251 153c181 0 278 -131 278 -280c0 -118 -85 -239 -169 -292c67 2 124 8 140 14c14 15 26 34 45 82h18l-17 -151c-28 1 -68 3 -112 3s-93 -1 -142 -3zM14 398l-24 11c24 68 41 161 43 201l78 3c-10 -49 -61 -163 -97 -215z" />
    <glyph glyph-name="iotadieresistonos" unicode="&#x390;" horiz-adv-x="244" 
d="M259 51l9 -11c-30 -21 -48 -32 -74 -48c-16 -5 -25 -6 -39 -6c-56 0 -81 36 -81 120s3 184 3 237c0 24 0 46 -1 66c24 2 49 5 78 10c-7 -99 -13 -193 -13 -284c0 -76 21 -92 59 -92c18 0 37 3 59 8zM10 487l-44 35c18 24 37 56 47 76l55 -36c-16 -23 -39 -55 -58 -75z
M245 481l-44 34c17 24 35 52 47 76l53 -36c-14 -23 -39 -55 -56 -74zM99 460l-22 15c35 63 66 152 74 191l77 -9c-17 -47 -85 -151 -129 -197z" />
    <glyph glyph-name="Alpha" unicode="&#x391;" horiz-adv-x="660" 
d="M488 74l-73 183h-211l-72 -189c-2 -6 -3 -10 -3 -16c0 -14 61 -24 102 -27l-13 -28c-39 3 -83 5 -104 5c-19 0 -57 -1 -99 -5l8 25c23 4 44 15 54 36c21 40 199 487 216 553l59 9c37 -118 208 -529 224 -554c14 -22 43 -39 79 -44l-11 -24c-48 4 -98 5 -117 5
c-21 0 -83 -3 -117 -6l8 25c48 4 77 11 77 24c0 8 -3 19 -7 28zM308 541l-88 -244h179z" />
    <glyph glyph-name="Beta" unicode="&#x392;" horiz-adv-x="555" 
d="M47 612c30 -4 60 -6 91 -6c21 0 43 1 65 2c25 3 54 3 74 3c132 0 180 -54 180 -128c0 -94 -67 -142 -124 -159c96 -7 172 -46 172 -144c0 -107 -68 -182 -208 -182c-18 0 -36 1 -54 2c-25 1 -50 2 -76 2c-41 0 -84 -2 -122 -6l5 27c28 2 49 11 64 25c7 17 9 66 9 110v310
c0 50 -3 79 -10 96c-13 11 -40 18 -60 19zM197 296v-146c0 -26 1 -57 5 -77c2 -11 7 -19 11 -23c11 -10 42 -15 70 -15c83 0 142 37 142 140c0 88 -86 123 -165 123c-18 0 -49 -1 -63 -2zM203 565c-4 -13 -6 -37 -6 -61v-174h20c92 0 166 36 166 134c0 71 -35 111 -110 111
c-24 0 -62 -4 -70 -10z" />
    <glyph glyph-name="Gamma" unicode="&#x393;" horiz-adv-x="496" 
d="M471 427h-25c-11 40 -34 93 -45 116c-3 10 -6 14 -11 15c-16 3 -54 5 -91 5c-40 0 -79 -2 -91 -6c-5 -6 -6 -30 -6 -47v-420c0 -13 0 -30 4 -40c17 -13 53 -23 88 -28l-11 -25c-40 4 -81 6 -103 6c-26 0 -86 -2 -120 -5l5 24c17 3 46 12 57 22c3 10 6 31 6 53v410
c0 37 -3 48 -8 57c-20 10 -48 14 -66 16l-9 29c30 -2 78 -3 133 -3c92 0 204 3 282 11c2 -79 6 -132 11 -190z" />
    <glyph glyph-name="uni0394" unicode="&#x394;" horiz-adv-x="592" 
d="M562 29l-22 -29h-482l-18 29c39 81 187 417 218 507c4 11 12 32 24 69c24 3 45 6 70 12c8 -38 21 -81 34 -120c55 -165 143 -391 176 -468zM95 52h377c-62 162 -120 327 -171 486c-54 -144 -153 -371 -206 -486z" />
    <glyph glyph-name="Epsilon" unicode="&#x395;" horiz-adv-x="538" 
d="M489 166l19 -1c-8 -46 -31 -130 -45 -169c-62 5 -114 6 -184 6c-55 0 -137 -1 -232 -5l8 25c20 2 55 12 66 20c5 12 8 35 8 55v432c0 14 -3 31 -8 37c-12 9 -40 14 -61 16l-9 29c41 -3 107 -4 160 -4c77 0 152 2 232 11c2 -71 3 -122 8 -177l-13 -1
c-14 38 -33 86 -44 109c-4 9 -6 11 -12 12c-13 3 -47 4 -81 4c-42 0 -87 -2 -94 -7c-4 -10 -4 -26 -4 -49v-167c17 -1 41 -1 66 -1c38 0 77 1 97 3l24 56l13 -2c-2 -30 -3 -57 -3 -76c0 -37 1 -63 5 -92l-14 -1l-30 65c-23 1 -61 2 -97 2c-23 0 -45 0 -62 -1v-202
c0 -16 1 -32 5 -42c30 -4 75 -6 116 -6c27 0 52 1 69 2c23 3 35 6 41 15c19 25 42 72 56 104z" />
    <glyph glyph-name="Zeta" unicode="&#x396;" horiz-adv-x="619" 
d="M571 185l-37 -189c-54 2 -135 4 -234 4c-72 0 -152 0 -232 -4l-12 35c33 30 74 78 105 120l299 407c-19 2 -67 3 -120 3c-83 0 -175 -2 -191 -5c-19 -30 -39 -80 -55 -128l-17 1l11 183c63 -4 140 -6 217 -6c91 0 180 3 249 10l12 -37c-40 -43 -74 -89 -102 -127
l-296 -407c21 -1 56 -1 93 -1c91 0 198 2 219 10c11 8 52 83 73 131h18z" />
    <glyph glyph-name="Eta" unicode="&#x397;" horiz-adv-x="712" 
d="M517 336v186c0 14 -4 34 -7 41c-15 10 -47 16 -68 18l-8 28c33 -1 76 -3 117 -3c38 0 74 2 101 3l6 -27c-20 -2 -49 -7 -62 -15c-4 -13 -6 -46 -6 -65v-408c0 -18 1 -34 4 -46c15 -11 57 -20 88 -24l-10 -25c-33 2 -71 3 -110 3c-36 0 -74 -1 -111 -3l7 25
c20 4 45 13 52 22c3 11 7 35 7 67v178h-318v-206c0 -11 1 -29 4 -39c9 -7 51 -19 84 -24l-8 -23c-28 2 -62 3 -96 3c-44 0 -87 -2 -121 -4l5 25c21 4 44 12 53 21c3 10 5 26 5 47v436c0 19 -4 34 -8 40c-12 7 -46 14 -65 15l-7 30c43 -3 92 -5 137 -5c31 0 60 1 85 2l4 -26
c-21 -2 -54 -8 -66 -16c-4 -11 -6 -45 -6 -72v-159h318z" />
    <glyph glyph-name="Theta" unicode="&#x398;" horiz-adv-x="691" 
d="M349 277c-36 0 -75 -1 -98 -2l-23 -72l-16 1c4 59 8 140 8 205l17 2l15 -71c20 -2 54 -3 92 -3c35 0 72 1 92 3l22 69l16 -2c-4 -50 -7 -102 -7 -156c0 -15 1 -30 2 -45l-17 -1l-20 70c-23 1 -47 2 -83 2zM356 624c175 0 285 -129 285 -283c0 -80 -20 -153 -59 -208
c-54 -75 -162 -149 -250 -149c-140 0 -282 120 -282 291c0 77 16 134 54 187c53 75 164 162 252 162zM358 37c130 0 206 135 206 268c0 146 -107 263 -229 263c-126 0 -210 -121 -210 -250c0 -148 111 -281 233 -281z" />
    <glyph glyph-name="Iota" unicode="&#x399;" horiz-adv-x="321" 
d="M128 114v415c0 14 -3 32 -8 38c-15 9 -44 14 -65 16l-9 30c41 -4 86 -5 130 -5c33 0 68 1 97 3l5 -28c-23 -2 -61 -9 -71 -17c-4 -8 -6 -27 -6 -44v-428c0 -16 1 -41 4 -48c12 -8 61 -20 93 -24l-11 -23c-42 2 -78 3 -113 3c-36 0 -75 -1 -124 -3l8 26c24 3 52 12 62 20
c5 13 8 47 8 69z" />
    <glyph glyph-name="Kappa" unicode="&#x39a;" horiz-adv-x="626" 
d="M198 522l-1 -429c0 -18 1 -34 4 -46c12 -9 60 -21 88 -24l-10 -25c-32 2 -71 3 -110 3c-37 0 -74 -1 -111 -3l6 25c20 4 45 13 53 22c3 11 6 35 6 67v417c0 14 -2 32 -7 38c-16 9 -44 14 -65 16l-7 30c41 -4 88 -5 132 -5c33 0 54 1 83 3l5 -28c-23 -2 -50 -9 -61 -17
c-3 -8 -5 -27 -5 -44zM380 584l-7 24c26 -2 59 -3 95 -3s71 1 99 4l9 -24c-44 -8 -86 -36 -128 -75c-26 -24 -135 -129 -178 -179c45 -63 165 -192 218 -241c35 -32 76 -43 123 -44l-11 -27c-24 -2 -98 -18 -122 -27l-13 5c-73 93 -182 228 -250 311v15l215 229
c5 5 6 8 6 10c0 3 -2 5 -7 7c-11 5 -31 12 -49 15z" />
    <glyph glyph-name="Lambda" unicode="&#x39b;" horiz-adv-x="640" 
d="M298 541l-168 -477c-2 -6 -3 -10 -3 -16c0 -15 61 -24 102 -27l-11 -24c-39 3 -83 5 -104 5c-19 0 -57 -1 -99 -5l8 25c23 4 44 15 54 36c21 40 189 487 206 553l59 9c37 -118 198 -529 214 -554c14 -22 43 -39 79 -44l-11 -24c-48 4 -98 5 -117 5c-21 0 -83 -3 -117 -6
l8 25c48 4 76 11 76 24c0 8 -3 19 -6 28z" />
    <glyph glyph-name="Mu" unicode="&#x39c;" horiz-adv-x="865" 
d="M68 585l-7 28c39 -2 80 -4 120 -4c21 0 42 2 64 3l196 -507l196 504c24 -1 46 -1 68 -1c30 0 60 1 97 3l7 -27c-18 -2 -67 -9 -79 -19c-5 -12 -7 -32 -7 -52c0 -7 19 -381 21 -417c2 -30 5 -40 12 -49c11 -8 68 -19 94 -24l-11 -26c-34 3 -70 5 -110 5s-85 -2 -136 -5
l9 27c19 3 51 12 63 23c4 8 7 21 7 56c0 48 -17 357 -21 420l-203 -518l-39 -17l-220 560c-7 -105 -21 -419 -21 -462c0 -15 1 -31 4 -41c20 -9 67 -20 91 -23l-9 -23c-31 2 -65 2 -98 2c-39 0 -77 -1 -110 -2l5 23c19 3 46 12 57 20c3 9 7 31 8 48c7 89 21 317 21 439
c0 18 -1 34 -7 40c-12 7 -41 13 -62 16z" />
    <glyph glyph-name="Nu" unicode="&#x39d;" horiz-adv-x="706" 
d="M603 513l-3 -396c0 -37 0 -71 3 -117l-37 -18c-56 86 -296 414 -396 548v-444c0 -15 1 -30 5 -40c5 -7 68 -22 90 -24l-9 -23c-31 2 -63 2 -96 2c-35 0 -73 -1 -105 -2l5 23c23 4 44 12 53 20c4 9 6 24 6 48v387c0 36 -2 82 -7 90c-12 7 -41 14 -60 16l-7 30
c35 -1 62 -4 90 -4c21 0 42 2 68 4l350 -488v396c0 14 -3 39 -8 45c-9 7 -46 15 -67 17l-9 28c34 -3 69 -4 106 -4s70 2 96 4l5 -28c-19 -1 -63 -10 -69 -16c-3 -6 -4 -32 -4 -54z" />
    <glyph glyph-name="Xi" unicode="&#x39e;" horiz-adv-x="586" 
d="M116 67c30 -7 102 -10 188 -10c77 0 131 3 156 10c15 17 33 66 52 118h18l-17 -189c-56 4 -122 4 -213 4c-99 0 -180 0 -240 -4v189h20c13 -53 25 -95 36 -118zM296 287c-36 0 -68 -1 -91 -2l-25 -71l-14 1c6 72 9 141 10 203l17 2l15 -70c20 -2 45 -4 88 -4
c40 0 67 2 87 4l24 69l15 -2c-4 -45 -6 -82 -6 -121c0 -25 1 -54 2 -80l-15 -1l-22 70c-23 1 -49 2 -85 2zM291 554c-41 0 -118 -2 -158 -5c-15 -33 -23 -67 -31 -103l-24 -2c2 34 3 65 3 98c0 24 0 49 -2 76c79 -6 171 -8 223 -8c51 0 159 3 234 9
c-15 -61 -21 -114 -27 -171l-24 -1c-3 41 -7 70 -13 100c-42 5 -131 7 -181 7z" />
    <glyph glyph-name="Omicron" unicode="&#x39f;" horiz-adv-x="691" 
d="M356 624c175 0 285 -129 285 -283c0 -80 -20 -153 -59 -208c-54 -75 -162 -149 -250 -149c-140 0 -282 120 -282 291c0 77 16 134 54 187c53 75 164 162 252 162zM358 37c130 0 206 135 206 268c0 146 -107 263 -229 263c-126 0 -210 -121 -210 -250
c0 -148 111 -281 233 -281z" />
    <glyph glyph-name="Pi" unicode="&#x3a0;" horiz-adv-x="701" 
d="M504 117v351c0 36 -2 80 -9 88c-11 3 -75 4 -141 4c-67 0 -137 -1 -147 -4c-5 -16 -7 -55 -7 -93v-338c0 -42 2 -70 8 -81c12 -8 47 -19 73 -22l-7 -24c-31 2 -63 3 -95 3c-40 0 -78 -1 -120 -4l9 26c17 2 41 11 54 21c3 12 4 40 4 70v387c0 28 -2 56 -6 66
c-10 6 -47 14 -64 15l-9 27c104 -2 206 -4 309 -4c94 0 192 2 280 4l6 -24c-17 -1 -48 -8 -59 -16c-5 -20 -5 -68 -5 -102v-356c0 -25 2 -54 6 -66c14 -9 48 -19 80 -24l-8 -23c-31 2 -67 3 -105 3c-34 0 -73 -1 -106 -3l3 24c23 5 36 11 50 22c5 14 6 43 6 73z" />
    <glyph glyph-name="Rho" unicode="&#x3a1;" horiz-adv-x="535" 
d="M204 567c-4 -13 -6 -44 -6 -68v-349c0 -32 3 -83 10 -98c9 -15 70 -27 102 -27l-13 -26c-34 2 -70 3 -106 3c-47 0 -96 -2 -146 -6l6 26c25 1 54 12 64 26c7 16 8 71 8 116v331c0 43 -1 59 -6 72c-11 9 -42 15 -64 17l-7 30c30 -3 65 -5 103 -5c30 0 61 2 93 3
c18 1 36 1 49 1c119 0 204 -41 204 -144c0 -124 -96 -194 -219 -194c-10 0 -21 0 -26 1l3 28c98 0 158 50 158 154c0 96 -55 117 -133 117c-40 0 -68 -3 -74 -8z" />
    <glyph glyph-name="Sigma" unicode="&#x3a3;" horiz-adv-x="560" 
d="M227 563c-41 0 -67 -1 -86 -3l194 -236l-228 -266c21 -1 36 -1 90 -1c74 0 233 2 254 10c11 8 42 70 61 118h18l-28 -189c-54 2 -191 4 -290 4c-72 0 -105 0 -185 -4l-12 35c34 29 77 80 112 120l135 157l-125 150c-30 36 -62 76 -106 119l12 39c69 -7 125 -10 216 -10
c77 0 165 2 228 6l11 -183l-17 -1c-16 48 -36 100 -55 130c-16 3 -116 5 -199 5z" />
    <glyph glyph-name="Tau" unicode="&#x3a4;" horiz-adv-x="624" 
d="M69 426l-23 -1c1 30 2 66 2 103c0 30 0 61 -1 90c78 -10 229 -13 271 -13c51 0 193 4 270 13c-20 -71 -35 -135 -45 -191l-22 -1c-3 47 -7 96 -11 134c-27 3 -73 5 -112 5c-23 0 -44 -1 -57 -2v-465c0 -18 0 -40 6 -45c18 -15 62 -26 99 -31l-11 -24c-44 4 -90 5 -115 5
c-29 0 -97 -2 -139 -6l11 27c20 3 52 10 68 23c6 7 8 32 8 51v465c-17 1 -40 2 -63 2c-32 0 -67 -1 -90 -3c-20 -52 -32 -85 -46 -136z" />
    <glyph glyph-name="Upsilon" unicode="&#x3a5;" horiz-adv-x="588" 
d="M254 99c0 50 -2 98 -10 147c-20 122 -88 240 -132 280c-30 28 -64 39 -93 41l-14 28c39 4 79 11 122 22c19 -11 42 -32 66 -66c30 -42 87 -148 108 -291h2c16 90 61 228 113 297c38 49 74 59 105 59c26 0 48 -8 62 -16l-28 -54c-14 4 -27 6 -38 6
c-70 0 -110 -92 -136 -152c-25 -59 -42 -121 -48 -167c-7 -48 -7 -81 -7 -129c0 -29 1 -49 6 -58c15 -9 61 -23 99 -27l-11 -23c-45 4 -93 6 -118 6c-30 0 -94 -3 -132 -6l10 26c21 3 56 13 67 22c5 7 7 36 7 55z" />
    <glyph glyph-name="Phi" unicode="&#x3a6;" horiz-adv-x="696" 
d="M314 551c0 21 -2 29 -8 42c-14 6 -44 11 -65 11l-8 28c31 -2 71 -2 110 -2s77 0 104 2l5 -26c-20 -1 -46 -6 -62 -12c-5 -9 -5 -25 -5 -43c126 0 281 -63 281 -222c0 -145 -142 -241 -281 -245c0 -25 2 -34 6 -43c17 -9 48 -17 81 -19l-8 -23c-46 1 -78 2 -110 2
c-33 0 -61 0 -112 -2l7 23c18 2 43 9 56 16c7 14 9 24 9 47c-148 0 -282 75 -282 231c0 132 129 232 282 235zM385 115c108 2 203 98 203 213c0 122 -119 194 -203 194v-407zM110 321c0 -116 90 -202 204 -206v406c-105 -6 -204 -78 -204 -200z" />
    <glyph glyph-name="Chi" unicode="&#x3a7;" horiz-adv-x="656" 
d="M364 317c54 -78 145 -205 186 -244c33 -30 54 -40 91 -47l-9 -27c-35 3 -67 4 -99 4c-43 0 -87 -3 -145 -7l8 26c17 2 40 7 54 13c8 2 11 6 11 11s-3 12 -9 20l-139 192c-50 -63 -100 -130 -139 -188c-3 -4 -5 -8 -5 -12s2 -7 6 -9c22 -11 66 -22 101 -27l-11 -24
c-40 3 -80 5 -121 5s-83 -2 -125 -5l6 29c52 5 91 49 144 114c29 35 69 86 119 154c-75 106 -159 223 -204 262c-15 14 -33 20 -56 25l-13 30c28 -4 67 -5 108 -5c47 0 98 2 135 6l9 -25c-24 -4 -48 -9 -65 -17c-6 -3 -8 -6 -8 -10c0 -3 1 -5 3 -9c18 -34 100 -148 142 -201
c48 58 138 179 152 201c1 2 2 4 2 6c0 4 -3 8 -8 10c-11 4 -35 11 -66 17l-12 27c42 -3 77 -5 110 -5c28 0 66 1 97 4l7 -24c-37 -9 -85 -50 -115 -86c-44 -54 -99 -126 -142 -184z" />
    <glyph glyph-name="Psi" unicode="&#x3a8;" horiz-adv-x="744" 
d="M346 114v96c-47 1 -106 14 -134 30c-44 25 -88 66 -113 170c-8 34 -13 80 -18 106c-3 15 -7 28 -13 34c-13 14 -33 24 -59 28l-9 29c32 -3 60 -4 87 -4c21 0 42 0 64 2c3 -52 8 -141 26 -213c25 -100 86 -143 169 -150v287c0 14 -3 32 -8 38c-15 9 -42 14 -63 16l-9 30
c41 -4 84 -5 128 -5c33 0 65 1 94 3l5 -28c-23 -2 -61 -9 -71 -17c-4 -8 -6 -27 -6 -44v-279c84 8 134 39 160 149c16 68 23 156 25 213c22 -1 41 -2 60 -2c25 0 51 1 83 4l-9 -29c-24 -5 -41 -10 -55 -26c-7 -8 -13 -27 -18 -51c-6 -25 -11 -66 -19 -101
c-21 -92 -67 -138 -108 -160c-32 -17 -76 -26 -119 -28v-118c0 -16 1 -41 4 -48c12 -8 61 -20 93 -24l-11 -23c-42 2 -75 3 -110 3c-36 0 -75 -1 -124 -3l8 26c24 3 52 12 62 20c5 13 8 47 8 69z" />
    <glyph glyph-name="uni03A9" unicode="&#x3a9;" horiz-adv-x="733" 
d="M421 -3l8 45c99 59 146 164 146 266c0 155 -90 269 -214 269c-132 0 -192 -122 -192 -242c0 -129 68 -235 151 -293l7 -45c-44 2 -89 3 -132 3c-50 0 -96 -1 -134 -3l-11 151h18c14 -37 25 -66 39 -81c27 -8 89 -12 149 -13c-71 39 -169 154 -169 281c0 52 15 99 42 136
c52 71 158 153 251 153c181 0 278 -131 278 -280c0 -118 -85 -239 -169 -292c67 2 124 8 140 14c14 15 26 34 45 82h18l-17 -151c-28 1 -68 3 -112 3s-93 -1 -142 -3z" />
    <glyph glyph-name="Iotadieresis" unicode="&#x3aa;" horiz-adv-x="321" 
d="M128 114v415c0 14 -3 32 -8 38c-15 9 -44 14 -65 16l-9 30c41 -4 86 -5 130 -5c33 0 68 1 97 3l5 -28c-23 -2 -61 -9 -71 -17c-4 -8 -6 -27 -6 -44v-428c0 -16 1 -41 4 -48c12 -8 61 -20 93 -24l-11 -23c-42 2 -78 3 -113 3c-36 0 -75 -1 -124 -3l8 26c24 3 52 12 62 20
c5 13 8 47 8 69zM84 652l-44 35c18 24 37 56 47 76l55 -36c-16 -23 -39 -55 -58 -75zM233 649l-44 34c17 24 35 52 47 76l53 -36c-14 -23 -39 -55 -56 -74z" />
    <glyph glyph-name="Upsilondieresis" unicode="&#x3ab;" horiz-adv-x="588" 
d="M254 99c0 50 -2 98 -10 147c-20 122 -88 240 -132 280c-30 28 -64 39 -93 41l-14 28c39 4 79 11 122 22c19 -11 42 -32 66 -66c30 -42 87 -148 108 -291h2c16 90 61 228 113 297c38 49 74 59 105 59c26 0 48 -8 62 -16l-28 -54c-14 4 -27 6 -38 6
c-70 0 -110 -92 -136 -152c-25 -59 -42 -121 -48 -167c-7 -48 -7 -81 -7 -129c0 -29 1 -49 6 -58c15 -9 61 -23 99 -27l-11 -23c-45 4 -93 6 -118 6c-30 0 -94 -3 -132 -6l10 26c21 3 56 13 67 22c5 7 7 36 7 55zM231 652l-44 35c18 24 37 56 47 76l55 -36
c-16 -23 -39 -55 -58 -75zM380 649l-44 34c17 24 35 52 47 76l53 -36c-14 -23 -39 -55 -56 -74z" />
    <glyph glyph-name="alphatonos" unicode="&#x3ac;" horiz-adv-x="537" 
d="M534 54l8 -14c-33 -16 -98 -54 -114 -54s-30 6 -39 15c-15 15 -33 78 -42 128c-29 -67 -79 -145 -154 -145c-85 0 -137 81 -137 204c0 46 10 91 31 124c36 56 105 108 165 108c90 0 114 -75 130 -139l46 130l93 10l7 -18c-31 -20 -50 -36 -76 -75
c-23 -35 -40 -64 -57 -107c6 -41 17 -88 35 -132c11 -28 30 -41 55 -41c15 0 32 3 49 6zM334 186c-7 31 -10 46 -16 70c-17 70 -39 116 -94 116c-70 0 -94 -81 -94 -165c0 -87 26 -163 87 -163c47 0 87 61 117 142zM245 460l-22 15c35 63 66 152 74 191l77 -9
c-17 -47 -85 -151 -129 -197z" />
    <glyph glyph-name="epsilontonos" unicode="&#x3ad;" horiz-adv-x="402" 
d="M339 330c-20 18 -74 48 -121 48c-41 0 -81 -20 -81 -68c0 -55 51 -77 112 -77c24 0 55 3 81 8v-7c0 -19 -2 -41 -4 -55c-31 7 -70 10 -99 10c-49 0 -100 -23 -100 -69c0 -61 74 -80 142 -80c44 0 84 9 109 19l6 -19c-28 -18 -99 -56 -142 -56c-93 0 -187 25 -187 117
c0 68 67 109 123 111c-44 8 -111 25 -111 90c0 69 95 118 164 118c58 0 106 -7 138 -20c-5 -24 -16 -48 -30 -70zM201 460l-22 15c35 63 66 152 74 191l77 -9c-17 -47 -85 -151 -129 -197z" />
    <glyph glyph-name="etatonos" unicode="&#x3ae;" horiz-adv-x="474" 
d="M160 345c12 7 29 17 45 29c34 22 72 46 90 46c19 0 58 -6 96 -37c41 -32 43 -85 43 -118c-2 -119 -7 -228 -8 -349c0 -28 0 -60 3 -90c-26 -2 -52 -9 -77 -16l-10 13c16 119 21 329 21 430c0 76 -33 104 -88 104c-33 0 -83 -27 -115 -47c1 -21 2 -43 2 -64
c0 -63 -3 -141 -3 -217v-28c-27 0 -50 -2 -77 -7c6 44 9 198 9 285c0 54 -5 70 -10 77c-15 7 -42 12 -65 13l-4 17c42 10 88 21 126 37c12 -22 19 -47 22 -78zM245 460l-22 15c35 63 66 152 74 191l77 -9c-17 -47 -85 -151 -129 -197z" />
    <glyph glyph-name="iotatonos" unicode="&#x3af;" horiz-adv-x="244" 
d="M259 51l9 -11c-30 -21 -48 -32 -74 -48c-16 -5 -25 -6 -39 -6c-56 0 -81 36 -81 120s3 184 3 237c0 24 0 46 -1 66c24 2 49 5 78 10c-7 -99 -13 -193 -13 -284c0 -76 21 -92 59 -92c18 0 37 3 59 8zM99 460l-22 15c35 63 66 152 74 191l77 -9c-17 -47 -85 -151 -129 -197
z" />
    <glyph glyph-name="upsilondieresistonos" unicode="&#x3b0;" horiz-adv-x="451" 
d="M131 423c12 -22 18 -47 23 -78c4 -30 7 -71 7 -115c0 -37 0 -64 2 -100c4 -59 27 -93 75 -93c77 0 122 69 122 169c0 74 -25 135 -70 181l73 37l22 -7c19 -46 31 -112 31 -179c0 -62 -15 -127 -47 -166c-45 -55 -99 -88 -154 -88c-78 0 -122 51 -124 142
c-1 55 0 94 -3 151c-3 55 -9 72 -14 79c-15 7 -42 12 -65 13l-4 17c42 10 88 21 126 37zM128 487l-44 35c18 24 37 56 47 76l55 -36c-16 -23 -39 -55 -58 -75zM363 481l-44 34c17 24 35 52 47 76l53 -36c-14 -23 -39 -55 -56 -74zM217 460l-22 15c35 63 66 152 74 191l77 -9
c-17 -47 -85 -151 -129 -197z" />
    <glyph glyph-name="alpha" unicode="&#x3b1;" horiz-adv-x="537" 
d="M534 54l8 -14c-33 -16 -98 -54 -114 -54s-30 6 -39 15c-15 15 -33 78 -42 128c-29 -67 -79 -145 -154 -145c-85 0 -137 81 -137 204c0 46 10 91 31 124c36 56 105 108 165 108c90 0 114 -75 130 -139l46 130l93 10l7 -18c-31 -20 -50 -36 -76 -75
c-23 -35 -40 -64 -57 -107c6 -41 17 -88 35 -132c11 -28 30 -41 55 -41c15 0 32 3 49 6zM334 186c-7 31 -10 46 -16 70c-17 70 -39 116 -94 116c-70 0 -94 -81 -94 -165c0 -87 26 -163 87 -163c47 0 87 61 117 142z" />
    <glyph glyph-name="beta" unicode="&#x3b2;" horiz-adv-x="489" 
d="M418 503c0 -83 -86 -145 -144 -156c113 0 191 -55 191 -163c0 -116 -113 -200 -209 -200c-37 0 -88 16 -111 26v-105c0 -31 1 -77 8 -108c-32 -4 -50 -10 -73 -18l-10 11c8 76 10 282 10 446c0 70 -1 132 -1 173c0 51 6 115 40 146c49 44 114 83 144 83
c103 0 155 -59 155 -135zM147 278v-200c23 -19 77 -54 129 -54c64 0 112 48 112 148c0 104 -69 144 -142 144c-25 0 -35 -1 -49 -4c4 21 11 44 18 62h6c72 0 126 36 126 116c0 65 -40 100 -102 100c-77 0 -94 -58 -96 -128c-2 -55 -2 -130 -2 -184z" />
    <glyph glyph-name="gamma" unicode="&#x3b3;" horiz-adv-x="474" 
d="M466 399c-19 -19 -40 -49 -63 -94c-36 -71 -94 -196 -128 -291c-21 -59 -30 -122 -35 -208c-29 -7 -55 -16 -84 -28l-12 15c31 70 46 141 46 207c0 116 -65 264 -94 310c-26 42 -58 58 -92 58l-9 21c44 6 81 18 115 31c65 -67 127 -249 140 -351h4c36 78 62 151 85 219
c19 56 25 93 29 121c25 0 58 2 86 6z" />
    <glyph glyph-name="delta" unicode="&#x3b4;" horiz-adv-x="472" 
d="M457 607c-6 -26 -17 -56 -29 -80c-69 38 -151 74 -198 74c-25 0 -39 -16 -39 -34c0 -25 43 -70 105 -127c83 -77 149 -144 149 -235c0 -54 -14 -94 -41 -128c-30 -39 -98 -93 -160 -93c-108 0 -184 91 -184 203c0 60 24 111 61 149c28 29 66 56 103 78
c-49 46 -94 94 -94 130c0 11 4 25 14 36c26 30 76 58 99 58c70 0 158 -14 214 -31zM136 201c0 -82 52 -168 132 -168c70 0 108 68 108 147c0 83 -67 154 -124 207c-26 -16 -41 -27 -66 -52c-31 -31 -50 -73 -50 -134z" />
    <glyph glyph-name="epsilon" unicode="&#x3b5;" horiz-adv-x="402" 
d="M339 330c-20 18 -74 48 -121 48c-41 0 -81 -20 -81 -68c0 -55 51 -77 112 -77c24 0 55 3 81 8v-7c0 -19 -2 -41 -4 -55c-31 7 -70 10 -99 10c-49 0 -100 -23 -100 -69c0 -61 74 -80 142 -80c44 0 84 9 109 19l6 -19c-28 -18 -99 -56 -142 -56c-93 0 -187 25 -187 117
c0 68 67 109 123 111c-44 8 -111 25 -111 90c0 69 95 118 164 118c58 0 106 -7 138 -20c-5 -24 -16 -48 -30 -70z" />
    <glyph glyph-name="zeta" unicode="&#x3b6;" horiz-adv-x="374" 
d="M64 193c0 124 82 256 183 333c26 20 46 31 65 40c-34 -10 -88 -13 -134 -13c-31 0 -58 2 -71 4l-8 15l19 51c44 -10 102 -15 159 -15c35 0 71 2 102 5l9 -46c-51 -19 -99 -46 -160 -120c-56 -67 -89 -148 -89 -242c0 -92 37 -132 132 -162c57 -18 93 -30 93 -82
c0 -37 -14 -89 -27 -122l-93 -12l-6 20c39 23 76 60 76 88c0 25 -19 33 -72 47c-123 33 -178 85 -178 211z" />
    <glyph glyph-name="eta" unicode="&#x3b7;" horiz-adv-x="474" 
d="M160 345c12 7 29 17 45 29c34 22 72 46 90 46c19 0 58 -6 96 -37c41 -32 43 -85 43 -118c-2 -119 -7 -228 -8 -349c0 -28 0 -60 3 -90c-26 -2 -52 -9 -77 -16l-10 13c16 119 21 329 21 430c0 76 -33 104 -88 104c-33 0 -83 -27 -115 -47c1 -21 2 -43 2 -64
c0 -63 -3 -141 -3 -217v-28c-27 0 -50 -2 -77 -7c6 44 9 198 9 285c0 54 -5 70 -10 77c-15 7 -42 12 -65 13l-4 17c42 10 88 21 126 37c12 -22 19 -47 22 -78z" />
    <glyph glyph-name="theta" unicode="&#x3b8;" horiz-adv-x="474" 
d="M256 600c131 0 178 -132 178 -269c0 -169 -84 -347 -204 -347s-175 137 -175 281c0 179 99 335 201 335zM251 34c93 0 110 137 111 237c-38 2 -72 3 -106 3c-41 0 -81 -1 -127 -3c5 -135 48 -237 122 -237zM242 550c-89 0 -113 -96 -113 -233c42 -2 79 -2 116 -2
s74 0 116 2c-4 129 -37 233 -119 233z" />
    <glyph glyph-name="iota" unicode="&#x3b9;" horiz-adv-x="244" 
d="M260 51l9 -11c-30 -21 -48 -32 -74 -48c-16 -5 -25 -6 -39 -6c-56 0 -81 36 -81 120s3 184 3 237c0 24 0 46 -1 66c24 2 49 5 78 10c-7 -99 -13 -193 -13 -284c0 -76 21 -92 59 -92c18 0 37 3 59 8z" />
    <glyph glyph-name="kappa" unicode="&#x3ba;" horiz-adv-x="491" 
d="M445 335c-19 12 -43 22 -63 22c-26 0 -61 -23 -116 -97c17 -50 50 -113 80 -157c26 -38 46 -47 75 -47c16 0 35 3 57 7l8 -15c-34 -18 -119 -60 -134 -60c-11 0 -30 4 -37 13c-27 32 -72 153 -91 211c-13 -18 -53 -70 -69 -97c0 -38 1 -78 2 -115c-27 0 -50 -2 -77 -7
c6 44 7 199 7 287c0 39 0 80 -3 126c27 3 57 9 82 15c-5 -25 -8 -75 -9 -111c-1 -42 -2 -86 -2 -132c23 32 72 96 112 146c48 60 93 96 129 96c25 0 48 -3 69 -8c-3 -24 -11 -54 -20 -77z" />
    <glyph glyph-name="lambda" unicode="&#x3bb;" horiz-adv-x="468" 
d="M480 53l8 -15c-33 -17 -106 -53 -122 -53c-11 0 -32 4 -39 13c-13 17 -29 62 -44 113c-19 63 -38 140 -59 222c-39 -114 -87 -257 -101 -333l-110 -6l-8 17c30 13 56 36 82 86c44 84 91 214 118 299l-25 87c-11 39 -20 61 -44 61c-25 0 -61 -18 -89 -34
c-12 21 -23 52 -27 74c25 6 67 11 95 11c6 0 11 0 16 -1c28 -3 92 -45 104 -73c25 -59 51 -165 77 -252c18 -61 32 -106 53 -157c20 -48 39 -62 80 -62c10 0 22 1 35 3z" />
    <glyph glyph-name="uni03BC" unicode="&#x3bc;" horiz-adv-x="503" 
d="M82 -3c-3 66 -4 155 -4 233c0 56 0 111 -3 167c19 5 49 9 75 20c-3 -43 -5 -95 -5 -181c0 -44 3 -84 6 -109c4 -37 33 -80 88 -80c38 0 94 31 119 49v122c0 68 -1 131 -3 187c21 2 50 4 76 9c-3 -33 -4 -75 -4 -108v-180c0 -50 7 -80 46 -80c13 0 30 3 42 4l8 -13
c-32 -17 -96 -52 -107 -52c-12 0 -30 3 -37 11c-8 9 -17 47 -20 66c-21 -10 -48 -29 -76 -47c-26 -17 -50 -31 -65 -31c-35 0 -74 28 -91 52c1 -80 18 -129 34 -165c11 -25 28 -40 49 -52l-6 -17c-34 -5 -66 -14 -97 -23c-15 52 -21 145 -25 218z" />
    <glyph glyph-name="nu" unicode="&#x3bd;" horiz-adv-x="459" 
d="M244 -1l-35 -8c-32 96 -101 265 -126 313c-17 33 -25 41 -35 49c-11 8 -27 9 -39 9l-9 21c44 6 81 18 115 31c26 -44 42 -81 61 -131c22 -60 50 -136 72 -209c41 77 65 147 81 221c12 58 14 90 14 114c25 0 56 2 84 6l12 -16c-16 -18 -32 -54 -49 -99
c-33 -87 -91 -219 -146 -301z" />
    <glyph glyph-name="xi" unicode="&#x3be;" horiz-adv-x="406" 
d="M58 144c0 109 105 162 183 174c-84 9 -159 44 -159 121c0 69 68 109 146 126c-32 -3 -65 -5 -93 -5s-51 2 -66 5l-10 14l21 50c55 -15 126 -21 191 -21c36 0 70 2 98 5l10 -53c-48 -2 -96 -5 -125 -12c-48 -12 -97 -40 -97 -96c0 -67 64 -100 140 -100c23 0 48 1 63 3v-7
c0 -20 -4 -42 -8 -57c-12 1 -22 2 -34 2c-16 0 -34 -1 -62 -5c-59 -8 -127 -51 -127 -125c0 -85 66 -103 163 -123c58 -12 94 -27 94 -79c0 -37 -15 -89 -28 -122l-94 -15l-7 20c44 22 79 63 79 93c0 25 -19 33 -74 43c-98 18 -204 45 -204 164z" />
    <glyph glyph-name="omicron" unicode="&#x3bf;" horiz-adv-x="465" 
d="M245 420c127 0 195 -98 195 -197c0 -63 -13 -109 -41 -146c-28 -39 -95 -93 -148 -93c-121 0 -196 100 -196 210c0 55 19 97 49 136c26 35 92 90 141 90zM129 225c0 -100 48 -192 139 -192c73 0 99 72 99 145c0 106 -51 196 -132 196c-73 0 -106 -75 -106 -149z" />
    <glyph glyph-name="pi" unicode="&#x3c0;" horiz-adv-x="549" 
d="M529 35c-30 -17 -51 -30 -76 -43c-16 -5 -25 -6 -39 -6c-50 0 -78 32 -78 113c0 66 11 171 20 253c-41 0 -96 1 -147 2c-2 -106 -14 -291 -26 -353l-114 -10l-9 14c33 19 57 54 68 106c16 75 30 171 34 244c-19 1 -35 1 -45 1c-13 0 -25 -1 -30 -4
c-12 -4 -30 -34 -39 -56l-18 5l30 110c15 2 42 3 72 3c36 0 203 -3 269 -3c43 0 93 2 112 15l11 -11c-12 -18 -21 -36 -30 -58c-10 -2 -61 -4 -92 -5c-3 -54 -4 -94 -4 -127c0 -68 5 -168 52 -175c12 -2 25 -3 35 -3c12 0 20 1 33 3z" />
    <glyph glyph-name="rho" unicode="&#x3c1;" horiz-adv-x="473" 
d="M145 15v-110c0 -31 1 -77 8 -108c-32 -4 -55 -10 -78 -18l-10 11c11 109 12 264 12 398c0 51 11 118 45 149c53 48 127 83 164 83c104 0 160 -95 160 -195c0 -53 -18 -106 -51 -145c-54 -63 -103 -96 -145 -96c-32 0 -78 17 -105 31zM148 87c27 -21 79 -54 121 -54
c65 0 100 86 100 166c0 95 -40 168 -116 168c-71 0 -101 -67 -103 -137c-2 -55 -2 -89 -2 -143z" />
    <glyph glyph-name="sigma1" unicode="&#x3c2;" horiz-adv-x="395" 
d="M225 -173l-9 20c38 18 82 57 82 88c0 29 -26 41 -88 69c-87 39 -155 103 -155 202c0 58 20 97 36 119c29 39 103 95 148 95c46 0 102 -9 131 -23c-9 -22 -28 -55 -38 -67c-31 21 -70 45 -107 45c-57 0 -96 -62 -96 -150c0 -78 40 -124 117 -163c69 -35 100 -52 100 -105
c0 -35 -13 -78 -30 -115z" />
    <glyph glyph-name="sigma" unicode="&#x3c3;" horiz-adv-x="501" 
d="M394 414c46 0 72 4 92 14l10 -11c-11 -18 -20 -36 -29 -58c-12 -2 -38 -3 -67 -3c-16 0 -33 0 -50 1c47 -32 87 -86 87 -154c0 -52 -12 -84 -44 -127c-29 -39 -98 -92 -157 -92c-109 0 -181 100 -181 202c0 62 16 97 37 124c43 57 114 106 176 106c42 0 101 -2 126 -2z
M295 359h-31c-10 0 -19 0 -29 -1c-71 -5 -106 -49 -106 -140c0 -106 61 -185 131 -185c77 0 102 87 102 160c0 61 -15 123 -67 166z" />
    <glyph glyph-name="tau" unicode="&#x3c4;" horiz-adv-x="434" 
d="M383 63l11 -16c-32 -18 -70 -41 -100 -57c-16 -5 -25 -6 -39 -6c-69 0 -97 46 -97 125c0 64 14 156 36 245c-29 2 -57 2 -77 2c-13 0 -25 -1 -30 -4c-12 -4 -30 -34 -39 -56l-18 5l30 110c15 2 42 2 72 2c41 0 150 -3 184 -3c46 0 72 5 92 15l11 -11
c-12 -18 -21 -35 -30 -57c-12 -2 -66 -5 -87 -5c-20 0 -41 0 -63 1c-10 -64 -15 -115 -15 -157c0 -64 12 -137 59 -145c6 -1 12 -1 19 -1c27 0 57 7 81 13z" />
    <glyph glyph-name="upsilon" unicode="&#x3c5;" horiz-adv-x="451" 
d="M131 423c12 -22 18 -47 23 -78c4 -30 7 -71 7 -115c0 -37 0 -64 2 -100c4 -59 27 -93 75 -93c77 0 122 69 122 169c0 74 -25 135 -70 181l73 37l22 -7c19 -46 31 -112 31 -179c0 -62 -15 -127 -47 -166c-45 -55 -99 -88 -154 -88c-78 0 -122 51 -124 142
c-1 55 0 94 -3 151c-3 55 -9 72 -14 79c-15 7 -42 12 -65 13l-4 17c42 10 88 21 126 37z" />
    <glyph glyph-name="phi" unicode="&#x3c6;" horiz-adv-x="672" 
d="M322 -219l-9 11c11 61 14 132 14 192c-140 2 -262 70 -262 216c0 112 94 211 261 222c-2 51 -6 125 -9 154c28 6 49 12 77 24c-7 -63 -7 -127 -7 -177c120 -4 257 -68 257 -212s-132 -219 -255 -227c0 -59 1 -129 10 -183c-24 -5 -54 -12 -77 -20zM142 202
c0 -112 83 -173 185 -180c1 67 2 127 2 182c0 67 -1 127 -2 179c-98 -5 -185 -64 -185 -181zM567 209c0 116 -94 172 -181 176v-97c0 -89 1 -180 2 -266c115 11 179 76 179 187z" />
    <glyph glyph-name="chi" unicode="&#x3c7;" horiz-adv-x="481" 
d="M265 167c32 -87 58 -151 86 -207c19 -37 35 -51 64 -51c15 0 32 3 52 7l9 -15c-33 -18 -112 -58 -128 -58c-11 0 -29 4 -36 13c-10 14 -23 42 -34 72c-16 42 -33 90 -55 155c-40 -77 -77 -150 -106 -227c-30 -2 -72 -6 -99 -11l-6 15c25 15 55 44 74 72
c43 63 80 122 118 199c-37 86 -63 140 -87 183s-49 54 -83 54l-11 21c43 6 85 16 120 31c34 -52 74 -133 104 -211c34 73 77 152 116 207c16 -2 33 -3 50 -3c14 0 29 1 42 2l5 -16c-48 -21 -80 -50 -122 -111c-30 -43 -46 -68 -73 -121z" />
    <glyph glyph-name="psi" unicode="&#x3c8;" horiz-adv-x="627" 
d="M305 -219l-9 11c10 55 14 140 14 193c-129 2 -213 68 -223 182c-3 35 -3 75 -3 106c0 55 -7 76 -12 83c-15 7 -42 12 -65 13l-4 17c42 8 90 21 128 37c12 -22 23 -55 24 -101c1 -74 0 -97 3 -134c8 -96 63 -141 152 -152c2 66 2 128 2 183c0 127 -2 240 -12 357
c28 6 49 12 77 24c-6 -111 -8 -195 -8 -310c0 -86 0 -173 2 -255c113 9 159 72 159 171c0 74 -25 135 -70 181l72 37l22 -7c20 -48 33 -117 33 -186c0 -66 -16 -116 -48 -153c-37 -44 -92 -82 -167 -92c0 -55 1 -136 10 -185c-24 -5 -54 -12 -77 -20z" />
    <glyph glyph-name="omega" unicode="&#x3c9;" horiz-adv-x="668" 
d="M313 280c23 9 48 16 79 17c-4 -32 -10 -106 -10 -148c0 -82 30 -122 86 -122c68 0 92 68 92 157c0 88 -30 175 -99 211l14 21c79 -30 163 -93 163 -229c0 -127 -84 -203 -171 -203c-45 0 -89 30 -119 79c-39 -46 -90 -79 -139 -79c-103 0 -149 77 -149 180
c0 77 32 153 84 196c38 31 67 48 104 60l11 -32c-66 -26 -120 -98 -120 -205c0 -92 32 -156 89 -156c76 0 91 78 91 145c0 41 -3 86 -6 108z" />
    <glyph glyph-name="iotadieresis" unicode="&#x3ca;" horiz-adv-x="244" 
d="M259 51l9 -11c-30 -21 -48 -32 -74 -48c-16 -5 -25 -6 -39 -6c-56 0 -81 36 -81 120s3 184 3 237c0 24 0 46 -1 66c24 2 49 5 78 10c-7 -99 -13 -193 -13 -284c0 -76 21 -92 59 -92c18 0 37 3 59 8zM40 476l-44 35c18 24 37 56 47 76l55 -36c-16 -23 -39 -55 -58 -75z
M189 473l-44 34c17 24 35 52 47 76l53 -36c-14 -23 -39 -55 -56 -74z" />
    <glyph glyph-name="upsilondieresis" unicode="&#x3cb;" horiz-adv-x="451" 
d="M131 423c12 -22 18 -47 23 -78c4 -30 7 -71 7 -115c0 -37 0 -64 2 -100c4 -59 27 -93 75 -93c77 0 122 69 122 169c0 74 -25 135 -70 181l73 37l22 -7c19 -46 31 -112 31 -179c0 -62 -15 -127 -47 -166c-45 -55 -99 -88 -154 -88c-78 0 -122 51 -124 142
c-1 55 0 94 -3 151c-3 55 -9 72 -14 79c-15 7 -42 12 -65 13l-4 17c42 10 88 21 126 37zM162 476l-44 35c18 24 37 56 47 76l55 -36c-16 -23 -39 -55 -58 -75zM311 473l-44 34c17 24 35 52 47 76l53 -36c-14 -23 -39 -55 -56 -74z" />
    <glyph glyph-name="omicrontonos" unicode="&#x3cc;" horiz-adv-x="465" 
d="M245 420c127 0 195 -98 195 -197c0 -63 -13 -109 -41 -146c-28 -39 -95 -93 -148 -93c-121 0 -196 100 -196 210c0 55 19 97 49 136c26 35 92 90 141 90zM129 225c0 -100 48 -192 139 -192c73 0 99 72 99 145c0 106 -51 196 -132 196c-73 0 -106 -75 -106 -149zM229 460
l-22 15c35 63 66 152 74 191l77 -9c-17 -47 -85 -151 -129 -197z" />
    <glyph glyph-name="upsilontonos" unicode="&#x3cd;" horiz-adv-x="451" 
d="M131 423c12 -22 18 -47 23 -78c4 -30 7 -71 7 -115c0 -37 0 -64 2 -100c4 -59 27 -93 75 -93c77 0 122 69 122 169c0 74 -25 135 -70 181l73 37l22 -7c19 -46 31 -112 31 -179c0 -62 -15 -127 -47 -166c-45 -55 -99 -88 -154 -88c-78 0 -122 51 -124 142
c-1 55 0 94 -3 151c-3 55 -9 72 -14 79c-15 7 -42 12 -65 13l-4 17c42 10 88 21 126 37zM224 460l-22 15c35 63 66 152 74 191l77 -9c-17 -47 -85 -151 -129 -197z" />
    <glyph glyph-name="omegatonos" unicode="&#x3ce;" horiz-adv-x="668" 
d="M313 280c23 9 48 16 79 17c-4 -32 -10 -106 -10 -148c0 -82 30 -122 86 -122c68 0 92 68 92 157c0 88 -30 175 -99 211l14 21c79 -30 163 -93 163 -229c0 -127 -84 -203 -171 -203c-45 0 -89 30 -119 79c-39 -46 -90 -79 -139 -79c-103 0 -149 77 -149 180
c0 77 32 153 84 196c38 31 67 48 104 60l11 -32c-66 -26 -120 -98 -120 -205c0 -92 32 -156 89 -156c76 0 91 78 91 145c0 41 -3 86 -6 108zM343 460l-22 15c35 63 66 152 74 191l77 -9c-17 -47 -85 -151 -129 -197z" />
    <glyph glyph-name="uni0400" unicode="&#x400;" horiz-adv-x="527" 
d="M483 166l19 -1c-8 -46 -31 -130 -45 -169c-62 5 -114 6 -184 6c-55 0 -137 -1 -232 -5l8 25c20 2 55 12 66 20c5 12 8 35 8 55v432c0 14 -3 31 -8 37c-12 9 -40 14 -61 16l-9 29c41 -3 107 -4 160 -4c77 0 152 2 232 11c2 -71 3 -122 8 -177l-13 -1
c-14 38 -33 86 -44 109c-4 9 -6 11 -12 12c-13 3 -47 4 -81 4c-42 0 -87 -2 -94 -7c-4 -10 -4 -26 -4 -49v-167c17 -1 41 -1 66 -1c38 0 77 1 97 3l24 56l13 -2c-2 -30 -3 -57 -3 -76c0 -37 1 -63 5 -92l-14 -1l-30 65c-23 1 -61 2 -97 2c-23 0 -45 0 -62 -1v-202
c0 -16 1 -32 5 -42c30 -4 75 -6 116 -6c27 0 52 1 69 2c23 3 35 6 41 15c19 25 42 72 56 104zM317 679l-12 -21c-54 17 -163 59 -193 80l61 42c34 -32 94 -74 144 -101z" />
    <glyph glyph-name="afii10023" unicode="&#x401;" horiz-adv-x="527" 
d="M483 166l19 -1c-8 -46 -31 -130 -45 -169c-62 5 -114 6 -184 6c-55 0 -137 -1 -232 -5l8 25c20 2 55 12 66 20c5 12 8 35 8 55v432c0 14 -3 31 -8 37c-12 9 -40 14 -61 16l-9 29c41 -3 107 -4 160 -4c77 0 152 2 232 11c2 -71 3 -122 8 -177l-13 -1
c-14 38 -33 86 -44 109c-4 9 -6 11 -12 12c-13 3 -47 4 -81 4c-42 0 -87 -2 -94 -7c-4 -10 -4 -26 -4 -49v-167c17 -1 41 -1 66 -1c38 0 77 1 97 3l24 56l13 -2c-2 -30 -3 -57 -3 -76c0 -37 1 -63 5 -92l-14 -1l-30 65c-23 1 -61 2 -97 2c-23 0 -45 0 -62 -1v-202
c0 -16 1 -32 5 -42c30 -4 75 -6 116 -6c27 0 52 1 69 2c23 3 35 6 41 15c19 25 42 72 56 104zM183 649l-44 35c18 24 37 56 47 76l55 -36c-16 -23 -39 -55 -58 -75zM332 646l-44 34c17 24 35 52 47 76l53 -36c-14 -23 -39 -55 -56 -74z" />
    <glyph glyph-name="afii10051" unicode="&#x402;" horiz-adv-x="691" 
d="M308 289v-160c0 -51 1 -90 5 -131c-19 2 -43 3 -71 3c-30 0 -65 -1 -93 -4l9 27c24 3 51 12 69 22c7 15 10 50 10 100v335c0 24 -2 72 -5 81c-19 3 -50 5 -78 5c-21 0 -40 -1 -51 -3c-17 -31 -33 -94 -47 -142l-22 -2c2 29 3 71 3 112c0 30 -1 59 -2 83
c88 -8 167 -9 243 -9c89 0 187 5 277 11c-19 -63 -34 -123 -47 -186l-21 -2c-1 46 -5 111 -9 135c-16 3 -51 4 -78 4c-34 0 -71 -2 -88 -6c-3 -9 -4 -64 -4 -88v-148c38 7 98 16 149 16c98 0 188 -32 188 -155c0 -107 -87 -195 -204 -195c-20 0 -60 4 -78 12l13 79l11 5
c27 -41 53 -57 85 -57c52 0 97 49 97 129c0 97 -56 139 -160 139c-28 0 -67 -3 -101 -10z" />
    <glyph glyph-name="afii10052" unicode="&#x403;" horiz-adv-x="490" 
d="M467 427h-25c-11 40 -34 93 -45 116c-3 10 -6 14 -11 15c-16 3 -54 5 -91 5c-40 0 -79 -2 -91 -6c-5 -6 -6 -30 -6 -47v-420c0 -13 0 -30 4 -40c17 -13 53 -23 88 -28l-11 -25c-40 4 -81 6 -103 6c-26 0 -86 -2 -120 -5l5 24c17 3 46 12 57 22c3 10 6 31 6 53v410
c0 37 -3 48 -8 57c-20 10 -48 14 -66 16l-9 29c30 -2 78 -3 133 -3c92 0 204 3 282 11c2 -79 6 -132 11 -190zM190 656l-12 19c51 28 100 65 139 99l62 -38c-28 -20 -136 -62 -189 -80z" />
    <glyph glyph-name="afii10053" unicode="&#x404;" horiz-adv-x="594" 
d="M352 24c65 0 102 15 124 32c23 29 43 63 68 113l11 -8c-14 -51 -26 -107 -34 -157c-48 -12 -125 -20 -198 -20c-162 0 -284 109 -284 322c0 70 23 136 55 179c49 64 170 139 239 139c78 0 161 -24 203 -42c-2 -36 -3 -69 -3 -102c0 -23 0 -46 1 -70l-15 -4
c-14 45 -26 83 -40 114c-34 27 -83 52 -167 52c-116 0 -188 -108 -191 -244c26 -1 64 -1 103 -1c74 0 159 1 198 4c-3 -20 -6 -36 -12 -50h-287c10 -149 91 -257 229 -257z" />
    <glyph glyph-name="afii10054" unicode="&#x405;" horiz-adv-x="486" 
d="M418 593l-6 -148h-23c-8 22 -27 71 -35 83c-13 18 -59 45 -126 45c-38 0 -91 -46 -91 -106c0 -56 69 -92 136 -122c81 -37 171 -77 171 -162c0 -104 -101 -200 -196 -200c-56 0 -148 12 -190 28c3 42 5 83 5 125c0 15 0 31 -1 46l26 4c6 -33 26 -105 37 -121
c16 -17 60 -40 128 -40c73 0 123 56 123 120c0 60 -66 93 -141 126c-80 36 -168 79 -168 166c0 64 111 185 171 185c59 0 136 -17 180 -29z" />
    <glyph glyph-name="afii10055" unicode="&#x406;" horiz-adv-x="316" 
d="M123 114v415c0 14 -3 32 -8 38c-15 9 -44 14 -65 16l-9 30c41 -4 86 -5 130 -5c33 0 68 1 97 3l5 -28c-23 -2 -61 -9 -71 -17c-4 -8 -6 -27 -6 -44v-428c0 -16 1 -41 4 -48c12 -8 61 -20 93 -24l-11 -23c-42 2 -78 3 -113 3c-36 0 -75 -1 -124 -3l8 26c24 3 52 12 62 20
c5 13 8 47 8 69z" />
    </font>
</defs>
</svg>
